<svg width="77" height="59" viewBox="0 0 77 59" fill="none" xmlns="http://www.w3.org/2000/svg">
<path d="M70.7512 0.130565H25.1715V2.56376H70.7512C72.6591 2.56376 74.2077 4.11613 74.2077 6.02862V34.8911C74.2077 36.8036 72.6591 38.356 70.7512 38.356H34.7351L34.6962 38.0397C34.6816 36.8864 34.3273 35.6649 33.6913 34.4872H70.8192V32.054H31.9145C31.6815 31.8059 31.4339 31.5674 31.1766 31.3338C28.793 29.2023 25.7638 28.0295 22.6472 28.0295H10.2146C6.62216 28.0295 3.20454 29.6063 0.845215 32.3509L2.68509 33.9373C4.58809 31.728 7.33094 30.4579 10.2194 30.4579H22.652C28.2348 30.4579 32.2786 35.0323 32.2786 38.1176L33.6476 48.8187L36.0555 48.5073L35.7691 46.2882C38.643 45.7724 39.7256 46.8041 40.08 47.3442L39.1964 49.938C37.5701 54.1036 35.5361 56.2838 34.9001 56.2838H33.1282C30.6766 56.2838 29.628 55.6657 29.2542 53.982L25.7298 39.3342L23.3705 39.9035L26.8901 54.527C27.8221 58.7121 31.8126 58.7121 33.1282 58.7121H34.9001C38.2158 58.7121 40.9489 52.1181 41.4635 50.7945L42.4441 47.9087H57.8623C58.5322 47.9087 59.0759 47.3637 59.0759 46.6921C59.0759 46.0206 58.5322 45.4755 57.8623 45.4755H54.2893V40.7746H70.7561C73.9989 40.7746 76.6398 38.1273 76.6398 34.8765V6.01402C76.6398 2.76328 73.9989 0.115967 70.7561 0.115967L70.7512 0.130565ZM35.4487 43.8891L35.0506 40.7941H42.9296V45.495H41.682C40.6431 44.3514 38.6721 43.3441 35.4487 43.8891ZM51.8572 45.495H45.3569V40.7941H51.8572V45.495Z" fill="#45B3B1"/>
<path d="M37.7109 26.2289V29.2071H40.1382V26.2289C40.1382 25.3919 40.1382 22.91 44.1239 22.7105L47.7114 26.6669C47.9444 26.9248 48.2794 27.0805 48.6337 27.0659C48.9833 27.061 49.3134 26.9004 49.5367 26.6328L52.8378 22.7105C54.8864 22.8127 57.0759 23.5524 57.0759 26.2289V29.2071H59.5032V26.2289C59.5032 22.4964 56.804 20.2627 52.2844 20.2627C51.9252 20.2627 51.5853 20.4184 51.3572 20.6958L48.5755 24.0001L45.5462 20.6617C45.3181 20.4087 44.9879 20.2627 44.6481 20.2627C40.2402 20.2627 37.7109 22.438 37.7109 26.2289Z" fill="#45B3B1"/>
<path d="M54.2988 13.1337V11.4451C54.2988 8.26248 51.7453 5.6687 48.6044 5.6687C45.4634 5.6687 42.9148 8.25761 42.9148 11.4451V13.1337C42.9148 16.3163 45.4683 18.9101 48.6044 18.9101C51.7404 18.9101 54.2988 16.3212 54.2988 13.1337ZM45.3421 13.1337V11.4451C45.3421 9.60074 46.8082 8.10189 48.6044 8.10189C50.4005 8.10189 51.8715 9.60074 51.8715 11.4451V13.1337C51.8715 14.9781 50.4054 16.4769 48.6044 16.4769C46.8033 16.4769 45.3421 14.9781 45.3421 13.1337Z" fill="#45B3B1"/>
<path d="M19.4721 24.813C24.2442 24.813 28.1279 20.8712 28.1279 16.0194V13.2115C28.1279 8.36462 24.2442 4.42285 19.4721 4.42285C14.7001 4.42285 10.8164 8.36462 10.8164 13.2115V16.0194C10.8164 20.8664 14.7001 24.813 19.4721 24.813ZM13.2437 13.2115C13.2437 9.70774 16.0399 6.85604 19.4721 6.85604C22.9043 6.85604 25.7006 9.70774 25.7006 13.2115V16.0194C25.7006 19.5281 22.9043 22.3798 19.4721 22.3798C16.0399 22.3798 13.2437 19.5281 13.2437 16.0194V13.2115Z" fill="#45B3B1"/>
</svg>
