<svg width="42" height="42" viewBox="0 0 42 42" fill="none" xmlns="http://www.w3.org/2000/svg">
<path d="M11.2111 41.6519C11.1626 41.6519 11.114 41.6519 11.0655 41.6519C9.16733 41.613 7.36628 40.8392 6.00214 39.4718L2.57967 36.041C1.21553 34.6735 0.438808 32.8681 0.404826 30.9653C0.365989 29.0431 1.07962 27.2474 2.41463 25.9092L12.0121 16.2883C13.3471 14.9501 15.1385 14.2396 17.056 14.2736C18.9542 14.3126 20.7552 15.0863 22.1194 16.4538L25.7991 20.1425C26.2749 20.6194 26.2749 21.3883 25.7991 21.8652C25.3234 22.3421 24.5564 22.3421 24.0806 21.8652L20.4009 18.1765C19.4785 17.2519 18.2745 16.7312 17.0026 16.7068C15.755 16.6825 14.5851 17.1448 13.7209 18.011L4.12342 27.6319C3.25931 28.4981 2.79813 29.666 2.8224 30.9215C2.84667 32.1965 3.36612 33.4034 4.28849 34.328L7.71097 37.7588C8.63334 38.6834 9.83727 39.2041 11.1092 39.2285C12.3617 39.2577 13.5268 38.7905 14.3909 37.9243L21.4786 30.8193C21.9543 30.3424 22.7213 30.3424 23.1971 30.8193C23.6728 31.2962 23.6728 32.0651 23.1971 32.542L16.1094 39.647C14.8084 40.9512 13.0753 41.6617 11.2111 41.6617V41.6519Z" fill="#45B3B1"/>
<path d="M24.9204 27.9096C24.8718 27.9096 24.8233 27.9096 24.7747 27.9096C22.8766 27.8706 21.0755 27.0969 19.7114 25.7294L16.0316 22.0407C15.5559 21.5638 15.5559 20.7949 16.0316 20.318C16.5074 19.8411 17.2744 19.8411 17.7501 20.318L21.4299 24.0067C22.3523 24.9313 23.5562 25.452 24.8281 25.4764C26.0806 25.5056 27.2457 25.0384 28.1098 24.1722L37.7073 14.5513C39.5035 12.7508 39.4259 9.74821 37.5423 7.86005L34.1198 4.42926C33.1974 3.50465 31.9935 2.98394 30.7216 2.9596C29.4691 2.945 28.304 3.39759 27.4399 4.26381L20.3522 11.3687C19.8764 11.8456 19.1094 11.8456 18.6337 11.3687C18.1579 10.8918 18.1579 10.1229 18.6337 9.64602L25.7213 2.5411C27.0564 1.20285 28.8428 0.487481 30.7653 0.526412C32.6634 0.565343 34.4645 1.3391 35.8286 2.70656L39.2511 6.13737C42.0862 8.97933 42.159 13.5245 39.4161 16.2692L29.8186 25.89C28.5176 27.1942 26.7845 27.9047 24.9204 27.9047V27.9096Z" fill="#45B3B1"/>
</svg>
