<svg width="50" height="64" viewBox="0 0 50 64" fill="none" xmlns="http://www.w3.org/2000/svg">
<path d="M10.192 35.8118H36.3582C37.0233 35.8118 37.5282 35.2959 37.5282 34.6146C37.5282 33.9333 37.0233 33.4175 36.3582 33.4175H10.192C9.52696 33.4175 9.02209 33.9333 9.02209 34.6146C9.02209 35.2959 9.5221 35.8118 10.192 35.8118Z" fill="#45B3B1"/>
<path d="M10.192 26.5657H36.3582C37.0233 26.5657 37.5282 26.0498 37.5282 25.3685C37.5282 24.6872 37.0233 24.1714 36.3582 24.1714H10.192C9.52696 24.1714 9.02209 24.6872 9.02209 25.3685C9.02209 26.0498 9.5221 26.5657 10.192 26.5657Z" fill="#45B3B1"/>
<path d="M10.192 44.7854H29.6346C30.2997 44.7854 30.8046 44.2695 30.8046 43.5883C30.8046 42.907 30.2997 42.3911 29.6346 42.3911H10.192C9.52696 42.3911 9.02209 42.907 9.02209 43.5883C9.02209 44.2695 9.5221 44.7854 10.192 44.7854Z" fill="#45B3B1"/>
<path d="M10.192 53.7639H27.8579C28.5229 53.7639 29.0278 53.2481 29.0278 52.5668C29.0278 51.8855 28.5278 51.3696 27.8579 51.3696H10.192C9.52696 51.3696 9.02209 51.8855 9.02209 52.5668C9.02209 53.2481 9.5221 53.7639 10.192 53.7639Z" fill="#45B3B1"/>
<path d="M47.5577 1.34329C45.7615 0.0488327 43.1255 0.170491 40.8001 0.277552C40.2224 0.301883 39.6739 0.331075 39.1787 0.331075H17.2215C16.8816 0.331075 16.5855 0.467324 16.3767 0.686311C16.1631 0.895566 16.0321 1.18756 16.0321 1.52334V13.3049C16.0321 13.4606 16.0369 13.6212 16.0418 13.7818C16.0515 14.0883 16.0612 14.3803 16.0321 14.6528C15.9544 15.3925 15.5612 15.5142 14.4301 15.5142H4.94905L14.0514 6.3946C14.3572 6.08802 14.4689 5.68409 14.3621 5.28505C14.2504 4.85681 13.9009 4.50645 13.4737 4.39452C13.0756 4.28746 12.6678 4.39937 12.362 4.70595L1.65763 15.4315L1.54112 15.5434C1.45859 15.6261 1.37123 15.7137 1.2887 15.811C1.09452 15.9862 0.958587 16.2296 0.919751 16.5167C0.910042 16.5605 0.89062 16.5945 0.885765 16.6432C0.793528 17.1882 0.822652 17.7673 0.851779 18.327C0.866343 18.58 0.876046 18.8233 0.876046 19.0618V48.3039C0.876046 49.3453 0.876067 50.3818 0.866357 51.4232C0.856648 53.472 0.851774 55.5889 0.876046 57.6717C0.905174 60.4601 2.73536 62.7181 5.318 63.1658C6.02677 63.2875 6.75981 63.2729 7.46858 63.2583C7.69674 63.2583 7.92006 63.2486 8.14337 63.2486H36.9068C37.7369 63.2486 38.601 63.2729 39.436 63.2972C40.2953 63.3215 41.1643 63.3459 42.0381 63.3459C43.0236 63.3459 44.009 63.3167 44.9751 63.2145C48.3053 62.8739 49.7957 59.9491 49.7957 57.2094V6.41893C49.7957 4.09279 49.0627 2.43337 47.5626 1.35303L47.5577 1.34329ZM3.24023 52.7226C3.24994 51.8661 3.26452 51.0096 3.26452 50.158V17.9036H14.4931C16.9156 17.9036 18.3817 16.5994 18.4205 14.4144C18.4448 12.935 18.4351 11.4264 18.4302 9.97138C18.4302 9.23169 18.4205 8.49687 18.4205 7.75718V2.71561H36.7514C37.601 2.71561 38.4505 2.70586 39.3049 2.69613C40.9749 2.67666 42.6983 2.65235 44.3828 2.71561C46.213 2.78374 47.4024 4.1074 47.4121 6.08801C47.4169 7.10996 47.4121 8.12702 47.4121 9.14896V47.9535V57.0147C47.4121 57.9393 47.4121 58.7423 46.9363 59.482C46.1208 60.7424 44.8392 60.8446 43.3634 60.8446H10.2454C9.90557 60.8446 9.54635 60.8543 9.1774 60.864C5.79861 60.9468 3.40043 60.7813 3.27421 57.8177C3.20139 56.129 3.22567 54.3966 3.24994 52.7177L3.24023 52.7226Z" fill="#45B3B1"/>
</svg>
