<svg width="65" height="64" viewBox="0 0 65 64" fill="none" xmlns="http://www.w3.org/2000/svg">
<path d="M64.903 23.9126C64.5923 22.224 63.2961 21.0658 62.1553 20.0487C61.9271 19.8443 61.7038 19.6448 61.4902 19.4453C59.5581 17.6253 57.5337 17.1532 55.6356 18.0827C54.3443 18.7153 53.252 20.0001 52.2859 21.1339C51.9607 21.5184 51.65 21.8833 51.349 22.1997L36.7804 37.7088L36.0425 38.4874C35.5473 39.0081 35.0522 39.5337 34.5667 40.0642C34.4793 40.1615 34.4065 40.2588 34.3385 40.3513C34.3191 40.3707 34.2948 40.3853 34.2803 40.4048C34.0764 40.6238 33.9696 40.8817 33.9502 41.1396C33.8822 41.344 33.8288 41.5581 33.7754 41.7771L31.6054 50.6826L31.5035 50.7118L31.5811 50.7897L31.4501 51.3201C31.3481 51.7483 31.484 52.2009 31.8044 52.5075C32.0229 52.7167 32.3045 52.8238 32.5909 52.8238C32.7025 52.8238 32.8191 52.8043 32.9307 52.7703L33.4065 52.6243L33.5472 52.7654L33.5958 52.561L43.0088 49.6412C43.2613 49.6071 43.4943 49.4855 43.6885 49.2762L61.733 30.0637C61.9223 29.8642 62.1165 29.6647 62.3106 29.4652C63.733 28.0053 65.3496 26.3507 64.8981 23.898L64.903 23.9126ZM53.6258 27.504L38.9407 43.1348L36.8289 41.1445L51.5092 25.5088L53.6209 27.4992L53.6258 27.504ZM40.6786 44.7748L55.3637 29.144L57.4755 31.1343L42.7904 46.7652L40.6786 44.7748ZM53.15 23.7715L55.5288 21.2361C56.2958 20.4186 56.8687 19.9709 57.7279 19.9952C58.893 20.0147 60.0436 21.2215 60.9756 22.1899C61.2087 22.4332 61.4368 22.6717 61.6504 22.8761C62.7961 23.9808 62.8738 25.3287 61.8495 26.4821C61.5436 26.8276 61.2232 27.1585 60.9077 27.4894C60.7475 27.6597 60.5824 27.8301 60.4222 28.0004L59.1163 29.3922L53.1598 23.7715H53.15ZM35.8192 43.4706L40.533 47.9185L34.2609 49.865L35.8192 43.4706Z" fill="#45B3B1"/>
<path d="M37.3242 34.8524C37.3242 34.1711 36.8194 33.6553 36.1543 33.6553H9.98807C9.32299 33.6553 8.81812 34.1711 8.81812 34.8524C8.81812 35.5337 9.31814 36.0495 9.98807 36.0495H36.1543C36.8194 36.0495 37.3242 35.5337 37.3242 34.8524Z" fill="#45B3B1"/>
<path d="M36.1543 23.9272H9.98807C9.32299 23.9272 8.81812 24.4431 8.81812 25.1244C8.81812 25.8057 9.31814 26.3215 9.98807 26.3215H36.1543C36.8194 26.3215 37.3242 25.8057 37.3242 25.1244C37.3242 24.4431 36.8194 23.9272 36.1543 23.9272Z" fill="#45B3B1"/>
<path d="M30.6006 43.8309C30.6006 43.1496 30.0958 42.6338 29.4307 42.6338H9.98807C9.32299 42.6338 8.81812 43.1496 8.81812 43.8309C8.81812 44.5122 9.31814 45.028 9.98807 45.028H29.4307C30.0958 45.028 30.6006 44.5122 30.6006 43.8309Z" fill="#45B3B1"/>
<path d="M9.98807 51.6072C9.32299 51.6072 8.81812 52.123 8.81812 52.8043C8.81812 53.4856 9.31814 54.0014 9.98807 54.0014H27.6539C28.319 54.0014 28.8239 53.4856 28.8239 52.8043C28.8239 52.123 28.3238 51.6072 27.6539 51.6072H9.98807Z" fill="#45B3B1"/>
<path d="M48.3928 47.0183C47.7131 47.0183 47.1986 47.5244 47.1986 48.1911V57.2523C47.1986 58.1769 47.1986 58.9798 46.7228 59.7195C45.9072 60.9799 44.6256 61.0821 43.1498 61.0821H10.0319C9.69204 61.0821 9.3328 61.0918 8.96385 61.1016C5.58506 61.1892 3.1869 61.0189 3.06068 58.0552C2.98786 56.3666 3.01213 54.6342 3.03641 52.9553C3.04612 52.0988 3.06068 51.2423 3.06068 50.3907V18.146H14.2893C16.7118 18.146 18.1779 16.8418 18.2167 14.6568C18.241 13.1774 18.2313 11.6689 18.2264 10.2138C18.2264 9.47411 18.2167 8.73929 18.2167 7.9996V2.95803H36.5476C37.3971 2.95803 38.2467 2.94829 39.1011 2.93856C40.7711 2.91909 42.4945 2.89476 44.179 2.95803C46.0092 3.02615 47.1986 4.34981 47.2083 6.33043C47.2131 7.35237 47.2083 8.36944 47.2083 9.39139V21.8688C47.2083 22.5355 47.718 23.0416 48.3976 23.0416C49.0773 23.0416 49.5919 22.5404 49.5919 21.8688V6.64674C49.5919 4.32061 48.8588 2.66118 47.3588 1.58084C45.5528 0.28638 42.9168 0.40804 40.5915 0.515101C40.0138 0.539433 39.4652 0.568631 38.97 0.568631H17.0176C16.6778 0.568631 16.3817 0.70489 16.1729 0.923877C15.9593 1.13313 15.8282 1.42511 15.8282 1.76089V13.5424C15.8282 13.6981 15.8331 13.8587 15.8379 14.0193C15.8477 14.3259 15.8574 14.6179 15.8282 14.8904C15.7506 15.6301 15.3573 15.7517 14.2262 15.7517H4.74522L13.8476 6.63214C14.1534 6.32556 14.2651 5.92165 14.1583 5.52261C14.0466 5.09437 13.6971 4.74399 13.2699 4.63206C12.8718 4.525 12.464 4.63693 12.1582 4.94351L1.45867 15.669L1.34216 15.7809C1.25963 15.8637 1.17225 15.9513 1.08972 16.0486C0.895536 16.2238 0.759607 16.4671 0.720771 16.7542C0.711062 16.798 0.691643 16.8321 0.686789 16.8808C0.594552 17.4258 0.623679 18.0049 0.652807 18.5645C0.66737 18.8176 0.677079 19.0609 0.677079 19.2993V48.5414C0.677079 49.5828 0.67708 50.6194 0.66737 51.6608C0.657661 53.7095 0.652807 55.8264 0.677079 57.9092C0.706207 60.6977 2.53639 62.9557 5.11902 63.4034C5.82779 63.525 6.56083 63.5104 7.2696 63.4958C7.49777 63.4958 7.72108 63.4861 7.94439 63.4861H36.7078C37.5379 63.4861 38.402 63.5104 39.237 63.5348C40.0963 63.5591 40.9653 63.5834 41.8391 63.5834C42.8246 63.5834 43.8101 63.5542 44.7761 63.452C48.1064 63.1114 49.5967 60.1867 49.5967 57.4469V48.2008C49.5967 47.5341 49.0821 47.028 48.4025 47.028L48.3928 47.0183Z" fill="#45B3B1"/>
</svg>
