<svg width="55" height="68" viewBox="0 0 55 68" fill="none" xmlns="http://www.w3.org/2000/svg">
<path d="M18.8726 20.6912C15.3579 20.6912 12.4985 17.8249 12.4985 14.3017C12.4985 10.7784 15.3579 7.91211 18.8726 7.91211C22.3873 7.91211 25.2467 10.7784 25.2467 14.3017C25.2467 17.8249 22.3873 20.6912 18.8726 20.6912ZM18.8726 10.3404C16.6978 10.3404 14.9258 12.1167 14.9258 14.2968C14.9258 16.4769 16.6978 18.2532 18.8726 18.2532C21.0475 18.2532 22.8194 16.4769 22.8194 14.2968C22.8194 12.1167 21.0475 10.3404 18.8726 10.3404Z" fill="#45B3B1"/>
<path d="M28.2418 30.0834C27.5719 30.0834 27.0282 29.5383 27.0282 28.8668C27.0282 24.3556 23.3678 20.6864 18.8676 20.6864C14.3674 20.6864 10.7071 24.3556 10.7071 28.8668C10.7071 29.5383 10.1634 30.0834 9.49343 30.0834C8.8235 30.0834 8.27979 29.5383 8.27979 28.8668C8.27979 23.0174 13.0276 18.2532 18.8676 18.2532C24.7077 18.2532 29.4555 23.0125 29.4555 28.8668C29.4555 29.5383 28.9118 30.0834 28.2418 30.0834Z" fill="#45B3B1"/>
<path d="M18.4647 61.2428C17.7948 61.2428 17.2511 60.6978 17.2511 60.0262V56.7804H10.5177V60.0262C10.5177 60.6978 9.97403 61.2428 9.3041 61.2428C8.63417 61.2428 8.09045 60.6978 8.09045 60.0262V55.5638C8.09045 54.8922 8.63417 54.3472 9.3041 54.3472H18.4647C19.1347 54.3472 19.6784 54.8922 19.6784 55.5638V60.0262C19.6784 60.6978 19.1347 61.2428 18.4647 61.2428Z" fill="#45B3B1"/>
<path d="M27.6252 61.2426C26.9553 61.2426 26.4116 60.6976 26.4116 60.026V51.3006H19.6783V60.026C19.6783 60.6976 19.1346 61.2426 18.4646 61.2426C17.7947 61.2426 17.251 60.6976 17.251 60.026V50.084C17.251 49.4125 17.7947 48.8674 18.4646 48.8674H27.6252C28.2951 48.8674 28.8389 49.4125 28.8389 50.084V60.026C28.8389 60.6976 28.2951 61.2426 27.6252 61.2426Z" fill="#45B3B1"/>
<path d="M36.7811 61.2427C36.1112 61.2427 35.5675 60.6977 35.5675 60.0261V44.2396H28.8342V60.0261C28.8342 60.6977 28.2904 61.2427 27.6205 61.2427C26.9506 61.2427 26.4069 60.6977 26.4069 60.0261V43.023C26.4069 42.3514 26.9506 41.8064 27.6205 41.8064H36.7811C37.451 41.8064 37.9947 42.3514 37.9947 43.023V60.0261C37.9947 60.6977 37.451 61.2427 36.7811 61.2427Z" fill="#45B3B1"/>
<path d="M45.9417 61.2424C45.2718 61.2424 44.7281 60.6974 44.7281 60.0258V35.4019H37.9948V60.0258C37.9948 60.6974 37.4511 61.2424 36.7812 61.2424C36.1112 61.2424 35.5675 60.6974 35.5675 60.0258V34.1853C35.5675 33.5138 36.1112 32.9688 36.7812 32.9688H45.9417C46.6117 32.9688 47.1554 33.5138 47.1554 34.1853V60.0258C47.1554 60.6974 46.6117 61.2424 45.9417 61.2424Z" fill="#45B3B1"/>
<path d="M45.9417 13.2601H34.0188C33.3489 13.2601 32.8052 12.7151 32.8052 12.0435C32.8052 11.3719 33.3489 10.8269 34.0188 10.8269H45.9417C46.6116 10.8269 47.1553 11.3719 47.1553 12.0435C47.1553 12.7151 46.6116 13.2601 45.9417 13.2601Z" fill="#45B3B1"/>
<path d="M45.9417 19.8541H34.0188C33.3489 19.8541 32.8052 19.3091 32.8052 18.6375C32.8052 17.9659 33.3489 17.4209 34.0188 17.4209H45.9417C46.6116 17.4209 47.1553 17.9659 47.1553 18.6375C47.1553 19.3091 46.6116 19.8541 45.9417 19.8541Z" fill="#45B3B1"/>
<path d="M51.3496 67.1455H3.90095C1.9397 67.1455 0.342529 65.5445 0.342529 63.5785V3.68303C0.342529 1.71702 1.9397 0.115967 3.90095 0.115967H51.3496C53.3109 0.115967 54.908 1.71702 54.908 3.68303V63.5785C54.908 65.5445 53.3109 67.1455 51.3496 67.1455ZM3.90095 2.54429C3.27471 2.54429 2.76982 3.05527 2.76982 3.67816V63.5736C2.76982 64.2014 3.27956 64.7075 3.90095 64.7075H51.3496C51.9759 64.7075 52.4807 64.1965 52.4807 63.5736V3.67816C52.4807 3.0504 51.971 2.54429 51.3496 2.54429H3.90095Z" fill="#45B3B1"/>
</svg>
