<svg width="61" height="58" viewBox="0 0 61 58" fill="none" xmlns="http://www.w3.org/2000/svg">
<path d="M60.1336 13.6511H47.6282V16.0843H60.1336V13.6511Z" fill="#45B3B1"/>
<path d="M3.3499 37.9053H0.922607V32.5912C0.922607 25.9194 6.53451 21.3012 14.8844 21.0919C22.7828 20.8972 27.3898 20.5225 37.8271 14.7218C39.6379 13.7145 42.2594 14.2741 43.4682 15.9238C44.3711 17.0187 44.7838 18.357 44.6284 19.705C44.4731 21.053 43.774 22.2598 42.6575 23.1017C38.2349 26.4352 32.0259 29.5837 25.5208 31.8077V36.8687H23.0935V30.9317C23.0935 30.4062 23.4285 29.939 23.9285 29.7735C30.3996 27.6469 36.8562 24.4254 41.2011 21.1552C41.7788 20.7172 42.1429 20.104 42.2157 19.4276C42.2934 18.7366 42.0652 18.0358 41.5797 17.4518C41.5603 17.4275 41.5361 17.3983 41.5215 17.374C41.0943 16.7706 39.7981 16.4056 39.0068 16.8484C28.0646 22.9265 23.2343 23.3158 14.9475 23.5202C7.90351 23.6954 3.35476 27.2576 3.35476 32.5912V37.9053H3.3499Z" fill="#45B3B1"/>
<path d="M14.9137 19.1452C9.89888 19.1452 5.81616 15.0526 5.81616 10.0256C5.81616 4.99864 9.89888 0.906006 14.9137 0.906006C19.9284 0.906006 24.0111 4.99864 24.0111 10.0256C24.0111 15.0526 19.9284 19.1452 14.9137 19.1452ZM14.9137 3.3392C11.2387 3.3392 8.24345 6.34176 8.24345 10.0256C8.24345 13.7095 11.2339 16.712 14.9137 16.712C18.5934 16.712 21.5839 13.7143 21.5839 10.0256C21.5839 6.33689 18.5934 3.3392 14.9137 3.3392Z" fill="#45B3B1"/>
<path d="M60.139 2.54614H30.6377V4.97933H60.139V2.54614Z" fill="#45B3B1"/>
<path d="M41.4486 16.819C41.3127 16.819 41.1719 16.7947 41.0359 16.746C40.4048 16.5173 40.0796 15.8214 40.3077 15.1888L41.7641 11.1399C41.9923 10.5073 42.6865 10.1813 43.3176 10.41C43.9487 10.6387 44.2739 11.3346 44.0458 11.9672L42.5894 16.0161C42.4098 16.5124 41.9437 16.819 41.4486 16.819Z" fill="#45B3B1"/>
<path d="M54.1192 57.5071H51.6919C51.6919 52.305 46.3421 49.974 41.0409 49.974C35.7397 49.974 30.3948 52.305 30.3948 57.5071H27.9675C27.9675 51.6383 33.3464 47.5408 41.0409 47.5408C48.7354 47.5408 54.1192 51.6383 54.1192 57.5071Z" fill="#45B3B1"/>
<path d="M41.0456 46.0224C36.4046 46.0224 32.6326 42.2363 32.6326 37.5841C32.6326 32.9318 36.4094 29.1458 41.0456 29.1458C45.6817 29.1458 49.4634 32.9318 49.4634 37.5841C49.4634 42.2363 45.6865 46.0224 41.0456 46.0224ZM41.0456 31.5789C37.7444 31.5789 35.0599 34.2749 35.0599 37.5841C35.0599 40.8932 37.7444 43.5892 41.0456 43.5892C44.3467 43.5892 47.0361 40.8932 47.0361 37.5841C47.0361 34.2749 44.3467 31.5789 41.0456 31.5789Z" fill="#45B3B1"/>
</svg>
