<svg width="66" height="40" viewBox="0 0 66 40" fill="none" xmlns="http://www.w3.org/2000/svg">
<path d="M27.5201 39.5963C26.3065 39.5963 25.0637 39.1876 24.0879 38.2094C22.2092 36.3261 17.5537 29.7273 15.6361 26.9778C15.374 26.5982 14.9371 26.3695 14.4759 26.3695H10.767C10.1504 26.3695 9.65527 25.8683 9.65527 25.2551V4.31992C9.65527 4.02307 9.77663 3.73595 9.98538 3.5267C10.199 3.31744 10.4806 3.21038 10.7864 3.20551L29.8503 3.50235C30.3212 3.07898 30.7727 2.73347 31.1999 2.48528C35.336 0.0569563 43.7539 1.62393 44.1083 1.69206C45.4142 1.94024 47.4579 3.03032 49.8221 4.28585C51.8707 5.37592 54.1961 6.61685 55.5554 6.96723C56.1525 7.12296 56.5069 7.73125 56.3564 8.32981C56.2059 8.92838 55.5942 9.28362 54.9971 9.13276C53.3854 8.71425 51.0455 7.46846 48.7784 6.2616C46.7589 5.18613 44.6714 4.07173 43.6956 3.8868C40.6372 3.30284 34.8506 2.92813 32.331 4.41238C31.9621 4.6265 31.5543 4.9574 31.1174 5.37104C31.0737 5.41971 31.03 5.46351 30.9815 5.50245C29.127 7.29328 26.8065 10.4759 25.0103 12.9432C24.2287 14.0138 23.5588 14.9384 23.0005 15.644C25.4715 17.2888 26.9085 16.7681 28.1658 16.0674C28.695 15.7705 29.4765 14.8021 30.2339 13.8629C31.9475 11.7411 33.8893 9.33229 36.3506 9.8092C38.4769 10.218 41.8169 15.1184 48.6716 27.8878C49.1425 28.7638 49.5163 29.4596 49.6765 29.737C50.3901 30.9536 49.958 32.4914 48.6327 33.4647C47.4142 34.3601 45.5646 34.6861 43.8121 33.7567C43.4335 34.4866 42.783 35.1144 41.914 35.5524C40.5935 36.2142 39.1226 36.2385 37.9187 35.7081C37.5594 36.2142 37.04 36.6424 36.3846 36.9441C35.1807 37.494 33.5301 37.606 31.9815 36.9296C31.6757 37.7082 31.0883 38.3895 30.2484 38.881C29.4765 39.3384 28.5105 39.6109 27.5201 39.6109V39.5963ZM11.8835 24.1407H14.4759C15.6652 24.1407 16.7818 24.7247 17.4615 25.7028C18.9275 27.81 23.8549 34.8273 25.6609 36.6376C26.5832 37.5622 28.1415 37.5233 29.1173 36.949C29.627 36.6473 30.1805 36.1071 29.928 35.2263C29.7872 34.7397 29.996 34.219 30.428 33.9562C30.8649 33.6983 31.4184 33.7664 31.7776 34.1217C32.9476 35.2799 34.5059 35.3382 35.4574 34.9051C35.6467 34.8175 36.2584 34.5012 36.2244 33.9903C36.1953 33.5134 36.472 33.0656 36.9186 32.8856C37.3604 32.7055 37.8701 32.8272 38.1857 33.1922C38.8944 34.0195 40.0984 33.9562 40.9139 33.5474C41.5111 33.2506 42.0936 32.6763 41.9383 31.9658C41.8315 31.4695 42.0645 30.9682 42.5159 30.7346C42.9626 30.5011 43.5111 30.6033 43.851 30.978C45.2345 32.506 46.6763 32.1264 47.3074 31.6593C47.6181 31.4305 47.8754 31.0753 47.7492 30.8563C47.5647 30.5449 47.2055 29.8733 46.7055 28.939C39.4867 15.4931 36.8507 12.3008 35.9089 11.9893C34.7778 11.7703 33.1515 13.7899 31.9621 15.2595C30.9912 16.4664 30.1513 17.5078 29.2435 18.009C26.3793 19.6052 23.8161 19.2159 20.68 16.7C20.4373 16.5053 20.2868 16.2182 20.2625 15.9068C20.2383 15.5953 20.3499 15.2887 20.5635 15.0649C21.1218 14.4761 22.083 13.1524 23.1996 11.6195C24.6025 9.69241 26.1997 7.50253 27.7435 5.70197L11.8787 5.45865V24.1456L11.8835 24.1407Z" fill="#45B3B1"/>
<path d="M56.0406 30.4231H48.1761C47.5596 30.4231 47.0645 29.9219 47.0645 29.3087C47.0645 28.6956 47.5645 28.1943 48.1761 28.1943H56.0406C56.6571 28.1943 57.1523 28.6956 57.1523 29.3087C57.1523 29.9219 56.6523 30.4231 56.0406 30.4231Z" fill="#45B3B1"/>
<path d="M43.0252 32.8368C42.7048 32.8368 42.3893 32.7006 42.1708 32.4378L35.5929 24.5445C35.1996 24.0725 35.2628 23.3668 35.7337 22.9726C36.2046 22.5785 36.9085 22.6417 37.3017 23.1138L43.8796 31.007C44.2729 31.4791 44.2098 32.1847 43.7389 32.5789C43.5301 32.7541 43.2777 32.8368 43.0252 32.8368Z" fill="#45B3B1"/>
<path d="M37.3405 35.0268C37.0153 35.0268 36.6997 34.8857 36.4764 34.618L30.4179 27.1822C30.0295 26.7053 30.0975 25.9997 30.5781 25.6104C31.0538 25.2211 31.7577 25.2892 32.1461 25.771L38.2046 33.2068C38.593 33.6837 38.525 34.3893 38.0444 34.7786C37.8357 34.949 37.5881 35.0317 37.3405 35.0317V35.0268Z" fill="#45B3B1"/>
<path d="M31.001 36.0243C30.6855 36.0243 30.3748 35.8929 30.1563 35.635L25.3697 30.0338C24.9716 29.5666 25.025 28.861 25.4911 28.4619C25.9571 28.058 26.661 28.1164 27.0591 28.5836L31.8457 34.1848C32.2438 34.652 32.1904 35.3576 31.7244 35.7566C31.5156 35.9367 31.2583 36.0243 31.001 36.0243Z" fill="#45B3B1"/>
<path d="M64.4582 31.7224H55.2587C54.6033 31.7224 54.0693 31.1871 54.0693 30.5302V2.33434C54.0693 1.67738 54.6033 1.14209 55.2587 1.14209H64.4582V31.7224Z" fill="white"/>
<path d="M64.4583 32.8367H55.2588C53.9869 32.8367 52.9578 31.8002 52.9578 30.5301V2.33425C52.9578 1.05926 53.9918 0.0275879 55.2588 0.0275879H64.4583C65.0748 0.0275879 65.57 0.52883 65.57 1.14199V31.7223C65.57 32.3404 65.0699 32.8367 64.4583 32.8367ZM55.2588 2.25639C55.2151 2.25639 55.1812 2.29045 55.1812 2.33425V30.5301C55.1812 30.5739 55.2151 30.6079 55.2588 30.6079H63.3417V2.26126H55.2588V2.25639Z" fill="#45B3B1"/>
<path d="M10.7859 31.7224H1.58643V1.14209H10.7859C11.4412 1.14209 11.9752 1.67738 11.9752 2.33434V30.5302C11.9752 31.1871 11.4412 31.7224 10.7859 31.7224Z" fill="white"/>
<path d="M10.7862 32.8367H1.58679C0.970254 32.8367 0.475098 32.3355 0.475098 31.7223V1.14199C0.475098 0.523963 0.975109 0.0275879 1.58679 0.0275879H10.7862C12.0581 0.0275879 13.0873 1.06412 13.0873 2.33425V30.5301C13.0873 31.8051 12.0533 32.8367 10.7862 32.8367ZM2.70333 30.6031H10.7862C10.8299 30.6031 10.8639 30.569 10.8639 30.5252V2.32938C10.8639 2.28558 10.8299 2.25153 10.7862 2.25153H2.70333V30.5982V30.6031Z" fill="#45B3B1"/>
</svg>
