<svg width="164" height="55" viewBox="0 0 164 55" fill="none" xmlns="http://www.w3.org/2000/svg">
    <path d="M116.196 7.09629H109.757C109.584 7.09629 109.455 6.9905 109.455 6.74112C109.455 6.47663 109.584 6.36327 109.757 6.36327H112.584V1.4437H109.908C109.742 1.4437 109.606 1.33791 109.606 1.08097C109.606 0.824036 109.742 0.703125 109.908 0.703125H116.045C116.211 0.703125 116.347 0.808922 116.347 1.08097C116.347 1.35302 116.211 1.4437 116.045 1.4437H113.324V6.36327H116.196C116.362 6.36327 116.498 6.46907 116.498 6.74112C116.498 6.9905 116.362 7.09629 116.196 7.09629Z" fill="#45B3B1"/>
    <path d="M119.929 7.24062H118.077C117.904 7.24062 117.775 7.12727 117.775 6.86278C117.775 6.59828 117.904 6.50004 118.077 6.50004H119.868C123.602 6.50004 123.904 4.17251 123.904 2.35129V0.998594C123.904 0.832341 124.01 0.696316 124.282 0.696316C124.554 0.696316 124.644 0.832341 124.644 0.998594V2.33617C124.644 4.39166 124.244 7.24062 119.936 7.24062H119.929ZM121.342 2.07924C121.289 2.07924 121.206 2.06412 121.168 2.04901C120.148 1.64849 119.226 1.40667 118.161 1.29331C117.979 1.2782 117.881 1.19507 117.881 0.98348C117.881 0.673645 118.017 0.552734 118.198 0.552734H118.281C119.392 0.658532 120.556 0.968366 121.455 1.33866C121.607 1.40667 121.659 1.50491 121.659 1.64849C121.659 1.8752 121.546 2.07924 121.342 2.07924Z" fill="#45B3B1"/>
    <path d="M132.866 2.47868H132.201V3.23437C132.201 5.57702 131.105 7.18665 127.826 7.18665H126.806C126.632 7.18665 126.496 7.08085 126.496 6.83147C126.496 6.56698 126.632 6.45362 126.806 6.45362H127.826C130.66 6.45362 131.445 5.11605 131.445 3.19658V2.47868H127.712C127.554 2.76584 126.79 3.95984 126.405 3.95984C126.216 3.95984 126.057 3.77091 126.057 3.48375C126.057 3.37795 126.088 3.2646 126.186 3.19658C126.798 2.65248 127.433 1.62474 127.569 0.438302C127.584 0.279607 127.697 0.188923 127.901 0.188923C128.128 0.188923 128.34 0.294721 128.34 0.483644C128.34 0.513872 128.332 0.551656 128.332 0.589441C128.279 0.989959 128.181 1.36781 128.052 1.7381H132.874C133.04 1.7381 133.176 1.84389 133.176 2.11594C133.176 2.38799 133.04 2.49379 132.874 2.49379L132.866 2.47868ZM132.254 1.39048C132.088 1.39048 132.027 1.33002 132.027 1.17133V0.226708C132.027 0.0831263 132.088 0 132.254 0C132.42 0 132.496 0.0680125 132.496 0.226708V1.17133C132.496 1.32246 132.428 1.39048 132.254 1.39048ZM133.138 1.39048C132.972 1.39048 132.912 1.33002 132.912 1.17133V0.226708C132.912 0.0831263 132.972 0 133.138 0C133.312 0 133.372 0.0680125 133.372 0.226708V1.17133C133.372 1.32246 133.312 1.39048 133.138 1.39048Z" fill="#45B3B1"/>
    <path d="M140.952 4.11928H134.876C134.725 4.11928 134.559 3.96814 134.559 3.7641C134.559 3.56006 134.725 3.40137 134.876 3.40137H140.952C141.103 3.40137 141.269 3.55251 141.269 3.7641C141.269 3.97569 141.103 4.11928 140.952 4.11928Z" fill="#45B3B1"/>
    <path d="M144.995 7.20932H142.977C142.834 7.20932 142.698 7.05818 142.698 6.84659C142.698 6.61232 142.841 6.46118 142.977 6.46118H145.056C148.237 6.46118 148.887 4.60973 148.887 2.1235V1.95725C148.887 1.81367 148.985 1.70031 149.265 1.70031C149.491 1.70031 149.635 1.82878 149.635 1.97236V2.16128C149.635 5.00269 148.864 7.20932 144.995 7.20932ZM146.136 1.25445H143.166C143.008 1.25445 142.887 1.14865 142.887 0.906833C142.887 0.665011 143.015 0.559213 143.166 0.559213H146.136C146.295 0.559213 146.416 0.657454 146.416 0.906833C146.416 1.15621 146.287 1.25445 146.136 1.25445ZM146.136 3.68023H143.166C143.008 3.68023 142.887 3.58199 142.887 3.33261C142.887 3.08323 143.015 2.98499 143.166 2.98499H146.136C146.295 2.98499 146.416 3.09079 146.416 3.33261C146.416 3.57443 146.287 3.68023 146.136 3.68023ZM148.879 1.39048C148.713 1.39048 148.653 1.33002 148.653 1.17133V0.226708C148.653 0.0831263 148.713 0 148.879 0C149.046 0 149.114 0.0680125 149.114 0.226708V1.17133C149.114 1.32246 149.053 1.39048 148.879 1.39048ZM149.763 1.39048C149.597 1.39048 149.529 1.33002 149.529 1.17133V0.226708C149.529 0.0831263 149.597 0 149.763 0C149.937 0 149.998 0.0680125 149.998 0.226708V1.17133C149.998 1.32246 149.937 1.39048 149.763 1.39048Z" fill="#45B3B1"/>
    <path d="M157.789 1.90416H157.003V6.94463C157.003 7.11844 156.89 7.24691 156.618 7.24691C156.346 7.24691 156.247 7.11844 156.247 6.94463V1.90416H155.318C154.978 3.99743 153.466 6.06803 151.509 7.03532C151.441 7.06555 151.35 7.09577 151.29 7.09577C151.124 7.09577 150.958 6.94463 150.958 6.6877C150.958 6.51389 151.026 6.41565 151.199 6.34008C152.786 5.62973 154.26 3.75561 154.532 1.91171H151.298C151.131 1.91171 150.995 1.80592 150.995 1.53387C150.995 1.26182 151.131 1.16358 151.298 1.16358H156.247V0.468339C156.247 0.302086 156.353 0.196289 156.618 0.196289C156.882 0.196289 157.003 0.302086 157.003 0.468339V1.16358H157.789C157.955 1.16358 158.091 1.26937 158.091 1.53387C158.091 1.79836 157.955 1.91171 157.789 1.91171V1.90416Z" fill="#45B3B1"/>
    <path d="M2.43339 3.7937C0.838877 5.30509 0.0378418 7.1641 0.0378418 9.37828C0.0378418 11.9476 1.09581 14.0258 3.21176 15.6128C2.21424 16.3609 1.43588 17.3055 0.876662 18.439C0.317448 19.565 0.0378418 20.7741 0.0378418 22.0513C0.0378418 24.3637 0.861548 26.2983 2.51652 27.8626C4.17149 29.4268 6.2043 30.2052 8.61497 30.2052H18.8168V26.8121H8.61497C7.28495 26.8121 6.1514 26.3512 5.2219 25.4217C4.28484 24.4922 3.81631 23.3737 3.81631 22.0513C3.81631 20.7288 4.28484 19.5877 5.22946 18.6506C6.17408 17.706 7.30006 17.2375 8.61497 17.2375H18.8168V13.8444H8.28246C7.05068 13.8444 6.00027 13.4061 5.13122 12.5371C4.25461 11.6605 3.82387 10.6101 3.82387 9.38584C3.82387 8.16161 4.26217 7.1112 5.13122 6.24215C6.00782 5.3731 7.05824 4.94236 8.28246 4.94236H18.8168V1.53418H8.28246C5.97004 1.53418 4.02035 2.28987 2.42583 3.7937H2.43339Z" fill="#45B3B1"/>
    <path d="M30.7566 10.0215C28.4291 10.0215 26.4794 10.7696 24.9076 12.2659C23.3357 13.7622 22.5498 15.6212 22.5498 17.8429V30.2061H26.1469V17.8429C26.1469 16.5733 26.6003 15.4927 27.4996 14.5859C28.4064 13.679 29.4871 13.2332 30.7566 13.2332C32.0262 13.2332 33.1068 13.6866 34.0061 14.5859C34.9054 15.4927 35.3513 16.5733 35.3513 17.8429V30.2061H38.9484V17.8429C38.9484 15.6287 38.1549 13.7697 36.5755 12.2735C34.9961 10.7696 33.0539 10.0215 30.7566 10.0215Z" fill="#45B3B1"/>
    <path d="M60.0851 12.742C58.075 10.9283 55.5283 10.0215 52.4375 10.0215C49.3467 10.0215 46.8 10.9283 44.7899 12.742C42.7797 14.5556 41.7747 16.8756 41.7747 19.7095C41.7747 22.5433 42.7797 24.8331 44.7899 26.6392C46.8 28.4377 49.3467 29.3446 52.4375 29.3446C54.5761 29.3446 56.556 28.7929 58.3773 27.682V23.2537C57.7727 24.1756 56.9565 24.886 55.9212 25.3847C54.8859 25.8835 53.7222 26.1329 52.4375 26.1329C50.3971 26.1329 48.7044 25.5283 47.3743 24.3268C46.0368 23.1252 45.3718 21.5836 45.3718 19.717C45.3718 17.8505 46.0443 16.2862 47.3819 15.0695C48.7195 13.8529 50.4047 13.2407 52.4375 13.2407C54.4703 13.2407 56.1555 13.8529 57.4931 15.0695C58.8307 16.2862 59.5032 17.8354 59.5032 19.717V28.2942C59.5032 29.5335 58.8911 30.6141 57.6745 31.521C56.3218 32.5412 54.5761 33.055 52.4375 33.055C51.3569 33.055 50.0873 32.919 48.6364 32.6394C47.1854 32.3598 45.931 32.0197 44.873 31.6117L43.8604 34.7478C45.0619 35.2012 46.46 35.5715 48.0469 35.8435C49.6339 36.1231 51.0999 36.2592 52.4375 36.2592C55.6945 36.2592 58.3395 35.4052 60.3723 33.6974C61.2338 32.9719 61.9063 32.1331 62.3824 31.1885C62.8585 30.2438 63.1003 29.2766 63.1003 28.2942V19.717C63.1003 16.8907 62.0953 14.5632 60.0851 12.7495V12.742Z" fill="#45B3B1"/>
    <path d="M80.6928 10.7772C79.393 10.2709 78.0252 10.0215 76.5894 10.0215C75.1535 10.0215 73.7782 10.2709 72.4859 10.7772C71.1861 11.2835 70.045 12.0014 69.0475 12.9385C66.9694 14.9184 65.9265 17.3744 65.9265 20.2989C65.9265 23.2235 66.9694 25.6719 69.0475 27.6443C70.045 28.5889 71.1937 29.3143 72.4859 29.8207C73.7857 30.327 75.1535 30.5764 76.5894 30.5764C78.728 30.5764 80.7079 30.0247 82.5291 28.9138V24.153C81.849 25.158 80.9951 25.9515 79.9446 26.5107C78.9018 27.0775 77.7833 27.3571 76.5894 27.3571C74.6472 27.3571 72.9847 26.6619 71.6018 25.2789C70.2189 23.896 69.5236 22.2335 69.5236 20.2914C69.5236 18.3492 70.2189 16.6867 71.6018 15.3038C72.9847 13.9209 74.6472 13.2256 76.5894 13.2256C78.5315 13.2256 80.194 13.9209 81.5769 15.3038C82.9599 16.6867 83.6551 18.3492 83.6551 20.2914V30.1985H87.2522V20.2914C87.2522 17.3668 86.2093 14.9108 84.1312 12.9309C83.1337 11.9938 81.985 11.2759 80.6928 10.7696V10.7772Z" fill="#45B3B1"/>
    <path d="M108.389 12.742C106.379 10.9283 103.832 10.0215 100.741 10.0215C97.6504 10.0215 95.1037 10.9283 93.0936 12.742C91.0834 14.5556 90.0784 16.8756 90.0784 19.7095C90.0784 22.5433 91.0834 24.8331 93.0936 26.6392C95.1037 28.4377 97.6504 29.3446 100.741 29.3446C102.88 29.3446 104.86 28.7929 106.681 27.682V23.2537C106.076 24.1756 105.26 24.886 104.225 25.3847C103.19 25.8835 102.026 26.1329 100.741 26.1329C98.7008 26.1329 97.0081 25.5283 95.6781 24.3268C94.3405 23.1252 93.6755 21.5836 93.6755 19.717C93.6755 17.8505 94.348 16.2862 95.6856 15.0695C97.0232 13.8529 98.7084 13.2407 100.741 13.2407C102.774 13.2407 104.459 13.8529 105.797 15.0695C107.134 16.2862 107.807 17.8354 107.807 19.717V28.2942C107.807 29.5335 107.195 30.6141 105.978 31.521C104.625 32.5412 102.88 33.055 100.741 33.055C99.6606 33.055 98.391 32.919 96.9401 32.6394C95.4891 32.3598 94.2347 32.0197 93.1767 31.6117L92.1641 34.7478C93.3656 35.2012 94.7637 35.5715 96.3506 35.8435C97.9376 36.1231 99.4036 36.2592 100.741 36.2592C103.998 36.2592 106.643 35.4052 108.676 33.6974C109.537 32.9719 110.21 32.1331 110.686 31.1885C111.162 30.2438 111.404 29.2766 111.404 28.2942V19.717C111.404 16.8907 110.399 14.5632 108.389 12.7495V12.742Z" fill="#45B3B1"/>
    <path d="M128.997 10.7772C127.697 10.2709 126.329 10.0215 124.894 10.0215C123.458 10.0215 122.09 10.2709 120.79 10.7772C119.49 11.2835 118.349 12.009 117.352 12.9536C115.274 14.9335 114.231 17.3895 114.231 20.314C114.231 23.2386 115.274 25.6795 117.352 27.6594C118.349 28.5964 119.498 29.3143 120.79 29.8207C122.09 30.327 123.458 30.5764 124.894 30.5764C129.518 30.5764 132.843 29.0725 134.876 26.0724L131.702 24.2663C131.052 25.2487 130.153 26.012 128.997 26.5561C127.848 27.1002 126.564 27.3647 125.15 27.3647C123.284 27.3647 121.674 26.8054 120.329 25.6795C118.984 24.5535 118.175 23.1403 117.903 21.4476H135.556V20.3216C135.556 17.3971 134.514 14.9411 132.443 12.9611C131.445 12.0165 130.297 11.2911 129.005 10.7847L128.997 10.7772ZM118.115 18.2359C118.584 16.7623 119.437 15.5607 120.677 14.6312C121.916 13.7017 123.322 13.2407 124.886 13.2407C126.45 13.2407 127.871 13.7093 129.118 14.6463C130.365 15.5834 131.211 16.7774 131.657 18.2434H118.115V18.2359Z" fill="#45B3B1"/>
    <path d="M164 17.8278H158.847C158.416 15.9688 157.479 14.3289 156.013 12.9385C155.015 12.0014 153.867 11.2835 152.574 10.7772C151.275 10.2709 149.907 10.0215 148.471 10.0215C147.035 10.0215 145.667 10.2709 144.368 10.7772C143.068 11.2835 141.927 12.0014 140.929 12.9385C138.851 14.9184 137.808 17.3744 137.808 20.2989C137.808 23.2235 138.851 25.6719 140.929 27.6443C141.927 28.5889 143.075 29.3143 144.368 29.8207C145.667 30.327 147.035 30.5764 148.471 30.5764C149.907 30.5764 151.275 30.327 152.574 29.8207C153.874 29.3143 155.015 28.5889 156.013 27.6443C157.713 26.0346 158.703 24.1076 159.013 21.8556L164 17.8278ZM148.471 27.3647C146.529 27.3647 144.866 26.6694 143.483 25.2865C142.1 23.9036 141.405 22.2411 141.405 20.2989C141.405 18.3568 142.1 16.6943 143.483 15.3113C144.866 13.9284 146.529 13.2332 148.471 13.2332C150.413 13.2332 152.076 13.9284 153.459 15.3113C154.214 16.067 154.758 16.9059 155.098 17.8278H150.912L155.438 21.4854C155.212 22.9287 154.554 24.1983 153.459 25.2941C152.076 26.677 150.413 27.3722 148.471 27.3722V27.3647Z" fill="#45B3B1"/>
    <path d="M46.732 54.0231C46.6337 54.0231 46.5279 54.0004 46.3919 53.94C44.4195 53.0785 42.5454 51.295 41.699 48.9826C40.8678 51.363 38.9408 53.0936 36.8399 53.9551C36.7341 54.0004 36.6359 54.0155 36.5528 54.0155C36.2656 54.0155 36.0918 53.7964 36.0918 53.4563C36.0918 53.1994 36.2581 53.0709 36.4092 53.0105C39.4093 51.8013 41.1398 49.3831 41.1398 46.3074V43.5492C41.1398 43.3073 41.359 43.126 41.6386 43.126C41.9182 43.126 42.1373 43.3073 42.1373 43.5492V46.2545C42.1373 49.1111 43.9661 51.8165 46.9058 53.018C47.072 53.0936 47.2081 53.222 47.2081 53.479C47.2081 53.7661 47.0645 54.0231 46.7471 54.0231H46.732Z" fill="#45B3B1"/>
    <path d="M51.5985 52.6952C51.3567 53.0806 50.329 54.2821 49.8604 54.2821C49.6337 54.2821 49.4372 54.1008 49.4221 53.8363C49.4221 53.6927 49.4826 53.5718 49.5884 53.4887C50.208 53.0504 50.5934 52.6196 50.8428 52.2418C50.9259 52.1057 51.0469 52.0377 51.2056 52.0377C51.4625 52.0377 51.6514 52.2644 51.6514 52.4987C51.6514 52.5743 51.6287 52.6423 51.591 52.7027L51.5985 52.6952ZM53.6842 51.9319H50.7446C50.2232 51.9319 49.8529 51.5314 49.8529 51.0402V44.3296C49.8529 43.8309 50.2307 43.4379 50.7446 43.4379H53.6842C54.1905 43.4379 54.576 43.8384 54.576 44.3296V51.0402C54.576 51.539 54.1905 51.9319 53.6842 51.9319ZM53.6087 44.579C53.6087 44.4128 53.4878 44.2919 53.3291 44.2919H51.0922C50.9335 44.2919 50.8126 44.4128 50.8126 44.579V45.9846H53.6087V44.579ZM53.6087 46.831H50.8126V48.5389H53.6087V46.831ZM53.6087 49.3777H50.8126V50.7908C50.8126 50.9571 50.9335 51.078 51.0922 51.078H53.3291C53.4878 51.078 53.6087 50.9571 53.6087 50.7908V49.3777ZM54.7724 54.2821H54.7498C54.6666 54.2821 54.5911 54.267 54.4928 54.2066C54.1528 53.9799 52.9663 52.9219 52.9663 52.4911C52.9663 52.2493 53.1704 52.0302 53.4046 52.0302C53.5633 52.0302 53.6918 52.1133 53.7825 52.2342C54.047 52.6121 54.4248 53.0428 55.0369 53.4811C55.1201 53.5567 55.2032 53.6776 55.2032 53.7834V53.806C55.2032 54.0857 54.984 54.2746 54.7649 54.2746L54.7724 54.2821ZM60.0774 45.6446H59.7373V52.6574C59.7373 53.6625 59.0723 54.1083 58.2486 54.1083H57.1755C56.9942 54.1083 56.7523 53.9043 56.7523 53.6096C56.7523 53.3148 56.9942 53.1259 57.1755 53.1259H58.1806C58.566 53.1259 58.8305 52.8388 58.8305 52.4836V45.637H58.3846C58.1428 47.8361 57.236 50.413 55.7246 51.8035C55.5659 51.9395 55.445 52.0302 55.3241 52.0302C55.0823 52.0302 54.8631 51.8488 54.8631 51.5616C54.8631 51.4634 54.9009 51.3198 54.9991 51.214C56.4047 50.1107 57.2889 47.889 57.5912 45.637H55.3619C55.1654 45.637 54.9387 45.4556 54.9387 45.176C54.9387 44.8964 55.1654 44.7075 55.3619 44.7075H58.8305V43.4984C58.8305 43.2943 58.9968 43.0752 59.2915 43.0752C59.556 43.0752 59.7373 43.2943 59.7373 43.4984V44.7075H60.0774C60.3948 44.7075 60.5459 44.904 60.5459 45.176C60.5459 45.4481 60.3872 45.637 60.0774 45.637V45.6446Z" fill="#45B3B1"/>
    <path d="M73.3928 53.9496H69.0174C67.2264 53.9496 65.8737 53.4055 64.9442 52.3022C64.5966 53.005 64.1205 53.6096 63.531 53.9874C63.395 54.0705 63.2741 54.1083 63.1834 54.1083C62.9189 54.1083 62.7451 53.8892 62.7451 53.6851C62.7451 53.4584 62.8282 53.3375 62.9643 53.2468C64.1507 52.3249 64.6948 50.9269 64.7326 49.1812C64.7326 48.9545 64.9517 48.7731 65.2162 48.7731C65.4429 48.7731 65.6621 48.9394 65.6621 49.1812C65.6621 49.9445 65.5412 50.7379 65.2842 51.4936C66.0097 52.4005 66.9619 52.8236 68.0576 52.9823V47.4809H64.1129C63.9316 47.4809 63.7124 47.3146 63.7124 47.0426C63.7124 46.7705 63.9316 46.5967 64.1129 46.5967H72.4104C72.5918 46.5967 72.7958 46.7781 72.7958 47.0426C72.7958 47.3071 72.5918 47.4809 72.4104 47.4809H69.0098V49.6573H72.4331C72.6296 49.6573 72.8336 49.8538 72.8336 50.1031C72.8336 50.3828 72.6296 50.5414 72.4331 50.5414H69.0098V53.0428H73.4004C73.5969 53.0428 73.8085 53.2242 73.8085 53.4887C73.8085 53.7531 73.5893 53.9496 73.4004 53.9496H73.3928ZM73.2266 46.7101C72.9394 46.7101 72.7429 46.4909 72.7429 46.2869V45.2818C72.7429 45.1156 72.6069 44.9947 72.4558 44.9947H64.06C63.8938 44.9947 63.7729 45.1156 63.7729 45.2818V46.2869C63.7729 46.4909 63.5764 46.7101 63.2892 46.7101C63.0021 46.7101 62.8056 46.5438 62.8056 46.2869V44.9644C62.8056 44.4657 63.191 44.0803 63.6897 44.0803H67.7629V43.4984C67.7629 43.2566 67.967 43.0752 68.2692 43.0752C68.5488 43.0752 68.7529 43.2566 68.7529 43.4984V44.0803H72.8185C73.3173 44.0803 73.7027 44.4657 73.7027 44.9644V46.2869C73.7027 46.5438 73.5062 46.7101 73.2342 46.7101H73.2266Z" fill="#45B3B1"/>
    <path d="M86.7763 48.0243H79.4914C79.3705 48.3114 79.2118 48.591 79.0455 48.8706H85.7712C86.27 48.8706 86.6554 49.2561 86.6554 49.7397V53.0572C86.6554 53.5559 86.27 53.9262 85.7712 53.9262H78.4863C77.9876 53.9262 77.6022 53.5484 77.6022 53.0572V50.5407C77.3754 50.7372 76.6802 51.2435 76.3779 51.2435C76.1361 51.2435 75.8943 51.0622 75.8943 50.7448C75.8943 50.5483 76.0152 50.3594 76.1814 50.2838C77.315 49.8002 78.1009 48.916 78.5241 48.0243H76.325C76.1437 48.0243 75.9774 47.8807 75.9774 47.6464C75.9774 47.4273 76.1437 47.2837 76.325 47.2837H81.0406V46.4222H76.6349C76.4913 46.4222 76.3099 46.2635 76.3099 46.0444C76.3099 45.8403 76.4913 45.6816 76.6349 45.6816H81.0406V44.8126H76.3099C76.1437 44.8126 75.9699 44.6765 75.9699 44.4498C75.9699 44.2458 76.1361 44.0871 76.3099 44.0871H78.4032C78.3201 43.9435 78.0858 43.5883 78.0858 43.4448C78.0858 43.2483 78.2445 43.082 78.5921 43.082C78.8339 43.082 78.9548 43.2256 79.038 43.3616C79.174 43.5808 79.3176 43.8302 79.4385 44.0871H83.7459L84.1314 43.3768C84.1918 43.2105 84.3581 43.0896 84.5923 43.0896C84.9173 43.0896 85.076 43.2936 85.076 43.4901C85.076 43.5354 85.0609 43.5883 85.0382 43.6337L84.7964 44.0947H86.7536C86.9123 44.0947 87.0786 44.2534 87.0786 44.4574C87.0786 44.6841 86.9123 44.8201 86.7536 44.8201H82.023V45.6892H86.4135C86.5798 45.6892 86.7536 45.8479 86.7536 46.0519C86.7536 46.2711 86.5874 46.4298 86.4135 46.4298H82.023V47.2912H86.7536C86.9123 47.2912 87.0786 47.4348 87.0786 47.654C87.0786 47.8807 86.9123 48.0318 86.7536 48.0318L86.7763 48.0243ZM85.7107 49.8002C85.7107 49.6415 85.5747 49.513 85.4236 49.513H78.8415C78.6752 49.513 78.5543 49.649 78.5543 49.8002V50.3216H85.7183V49.8002H85.7107ZM85.7107 50.9866H78.5468V51.7952H85.7107V50.9866ZM85.7107 52.4677H78.5468V52.9892C78.5468 53.1479 78.6677 53.2688 78.8339 53.2688H85.416C85.5747 53.2688 85.7032 53.1479 85.7032 52.9892V52.4677H85.7107Z" fill="#45B3B1"/>
    <path d="M97.1367 54.1085H95.24C95.0435 54.1085 94.8168 53.9121 94.8168 53.6098C94.8168 53.3075 95.0435 53.1261 95.24 53.1261H97.0687C98.1947 53.1261 98.9882 52.2344 98.9882 51.1764V45.9848C98.9882 45.8261 98.8673 45.7052 98.7086 45.7052H93.789V46.0302C93.789 49.5517 92.6177 52.378 90.3506 53.8894C90.2146 53.9876 90.0861 54.033 89.9728 54.033C89.6705 54.033 89.5042 53.7911 89.5042 53.5267C89.5042 53.3604 89.5798 53.2093 89.7309 53.1035C91.658 51.7205 92.7764 49.6424 92.7764 46.0151V45.6977H89.678C89.474 45.6977 89.2397 45.5012 89.2397 45.1989C89.2397 44.9193 89.4665 44.7153 89.678 44.7153H92.7764V43.491C92.7764 43.287 92.9804 43.0527 93.2827 43.0527C93.585 43.0527 93.7815 43.2794 93.7815 43.491V44.7153H99.0638C99.5701 44.7153 99.9479 45.0931 99.9479 45.607V51.252C99.9479 52.8465 98.8597 54.0859 97.1292 54.0859L97.1367 54.1085Z" fill="#45B3B1"/>
    <path d="M106.794 45.9529H102.948C102.767 45.9529 102.562 45.7867 102.562 45.5146C102.562 45.2426 102.767 45.0915 102.948 45.0915H106.794C106.976 45.0915 107.18 45.2577 107.18 45.5146C107.18 45.7791 106.976 45.9529 106.794 45.9529ZM106.53 44.23H103.25C103.069 44.23 102.887 44.0637 102.887 43.8219C102.887 43.5952 103.069 43.444 103.25 43.444H106.53C106.689 43.444 106.878 43.5876 106.878 43.8219C106.878 44.0637 106.681 44.23 106.53 44.23ZM106.53 47.6155H103.243C103.076 47.6155 102.895 47.4568 102.895 47.2301C102.895 47.0109 103.076 46.8673 103.243 46.8673H106.53C106.689 46.8673 106.878 47.0109 106.878 47.2301C106.878 47.4568 106.681 47.6155 106.53 47.6155ZM106.53 49.2704H103.243C103.076 49.2704 102.895 49.1117 102.895 48.8926C102.895 48.6734 103.076 48.5072 103.243 48.5072H106.53C106.689 48.5072 106.878 48.6734 106.878 48.8926C106.878 49.1117 106.681 49.2704 106.53 49.2704ZM105.857 53.9482H103.9C103.401 53.9482 103.008 53.5628 103.008 53.0791V51.0463C103.008 50.5627 103.409 50.1773 103.893 50.1773H105.865C106.364 50.1773 106.757 50.5627 106.757 51.0463V53.0791C106.757 53.5628 106.356 53.9482 105.865 53.9482H105.857ZM105.903 51.2579C105.903 51.0766 105.767 50.9708 105.6 50.9708H104.134C103.976 50.9708 103.847 51.0766 103.847 51.2579V52.9053C103.847 53.0716 103.968 53.2076 104.134 53.2076H105.608C105.774 53.2076 105.895 53.0716 105.895 52.9053V51.2579H105.903ZM113.308 46.2552H113.248C112.326 45.9378 111.253 45.0839 110.633 44.3206C110.588 44.2451 110.512 44.2224 110.452 44.2224C110.391 44.2224 110.331 44.2451 110.286 44.3206C109.621 45.1519 108.57 45.9378 107.671 46.2552C107.648 46.2552 107.611 46.2703 107.588 46.2703C107.361 46.2703 107.18 46.089 107.18 45.8018C107.18 45.6053 107.316 45.4617 107.437 45.4013C108.389 45.0537 109.432 44.23 109.938 43.4063C110.036 43.2627 110.218 43.0889 110.467 43.0889C110.732 43.0889 110.905 43.2551 110.996 43.4063C111.517 44.2375 112.523 45.0612 113.497 45.4013C113.633 45.4617 113.754 45.6053 113.754 45.7867C113.754 46.0739 113.535 46.2552 113.308 46.2552ZM113.452 52.7693C111.858 53.6157 109.568 54.0993 107.777 54.0993C107.558 54.0993 107.414 53.8575 107.414 53.661C107.414 53.3814 107.633 53.2378 107.792 53.2378C109.711 53.1774 111.759 52.7164 113.029 51.9909C113.089 51.9532 113.15 51.9456 113.21 51.9456C113.414 51.9456 113.633 52.1421 113.633 52.4141C113.633 52.535 113.558 52.6937 113.452 52.7617V52.7693ZM112.303 47.4114C111.23 48.0916 109.349 48.5752 108.079 48.5752C107.92 48.5752 107.731 48.409 107.731 48.152C107.731 47.8875 107.951 47.7137 108.117 47.7137C109.25 47.6759 110.852 47.3056 111.88 46.7086C111.926 46.6709 111.986 46.6633 112.039 46.6633C112.243 46.6633 112.447 46.8598 112.447 47.1016C112.447 47.2376 112.402 47.3585 112.303 47.419V47.4114ZM112.832 49.9732C111.57 50.7592 109.568 51.2428 108.102 51.2428C107.935 51.2428 107.724 51.0614 107.724 50.8347C107.724 50.5476 107.943 50.3964 108.109 50.3964C109.719 50.3586 111.397 49.9355 112.402 49.2704C112.462 49.2327 112.523 49.21 112.583 49.21C112.787 49.21 112.984 49.414 112.984 49.6483C112.984 49.7919 112.923 49.9279 112.825 49.9732H112.832Z" fill="#45B3B1"/>
    <path d="M121.394 53.9482H117.223C116.724 53.9482 116.331 53.5628 116.331 53.0791V43.4894C116.331 43.308 116.513 43.0889 116.777 43.0889C117.042 43.0889 117.215 43.308 117.215 43.4894V52.8524C117.215 53.0187 117.336 53.132 117.495 53.132H121.402C121.568 53.132 121.765 53.2907 121.765 53.5401C121.765 53.8046 121.568 53.9482 121.402 53.9482H121.394ZM121.583 52.2932C121.508 52.2932 121.417 52.2705 121.326 52.1723C120.616 51.1219 120.374 49.21 120.276 47.9782H120.08V52.3461C120.08 52.5048 119.921 52.6862 119.694 52.6862C119.467 52.6862 119.309 52.5048 119.309 52.3461V47.9782H119.112C119.029 49.21 118.787 51.1219 118.047 52.1723C117.986 52.2554 117.888 52.2932 117.805 52.2932C117.646 52.2932 117.518 52.1345 117.518 51.9305C117.518 51.8549 117.533 51.7718 117.563 51.7113C118.069 50.8045 118.485 49.2478 118.606 47.9706H117.918C117.737 47.9706 117.54 47.7893 117.54 47.5323C117.54 47.2754 117.737 47.1243 117.918 47.1243H119.309V43.444C119.309 43.2778 119.467 43.0964 119.694 43.0964C119.921 43.0964 120.08 43.2778 120.08 43.444V47.1243H121.47C121.651 47.1243 121.855 47.283 121.855 47.5323C121.855 47.7817 121.651 47.9706 121.47 47.9706H120.782C120.903 49.2402 121.319 50.8045 121.825 51.7113C121.863 51.7718 121.871 51.8549 121.871 51.9305C121.871 52.1345 121.735 52.2932 121.583 52.2932ZM118.462 46.6482C118.296 46.6482 118.137 46.5273 118.122 46.361C118.024 45.4693 117.858 44.4038 117.684 43.7614C117.684 43.7388 117.669 43.7161 117.669 43.6859C117.669 43.5272 117.812 43.3685 117.994 43.3685C118.137 43.3685 118.281 43.4667 118.319 43.5876C118.523 44.298 118.78 45.4617 118.78 46.293V46.3157C118.78 46.5197 118.621 46.6406 118.455 46.6406L118.462 46.6482ZM121.274 46.3535C121.236 46.5499 121.092 46.6406 120.956 46.6406C120.79 46.6406 120.609 46.5197 120.609 46.3232L121.077 43.6254C121.1 43.4818 121.243 43.3458 121.417 43.3458C121.598 43.3458 121.742 43.4894 121.742 43.6708V43.7312L121.274 46.3459V46.3535ZM126.616 47.5399H126.057V53.8575C126.057 54.0389 125.891 54.258 125.649 54.258C125.385 54.258 125.211 54.0389 125.211 53.8575V47.5399H123.578V48.8473C123.578 51.2277 123.352 52.8298 122.694 53.7215C122.588 53.8651 122.498 53.9406 122.347 53.9406C122.12 53.9406 121.923 53.7744 121.923 53.5326C121.923 53.457 121.961 53.3361 122.007 53.2907C122.528 52.5653 122.717 51.5526 122.717 48.9002V44.5474C122.717 44.0259 123.102 43.6405 123.609 43.6405C125.022 43.6254 125.838 43.5347 126.367 43.3609C126.412 43.3458 126.465 43.3382 126.51 43.3382C126.73 43.3382 126.888 43.5045 126.888 43.7992C126.888 44.0184 126.752 44.1468 126.609 44.1997C125.959 44.4189 124.976 44.5474 123.873 44.5474C123.707 44.5474 123.571 44.6834 123.571 44.8345V46.6482H126.609C126.835 46.6482 127.017 46.8296 127.017 47.094C127.017 47.3585 126.835 47.5399 126.609 47.5399H126.616Z" fill="#45B3B1"/>
    <path d="M30.9834 48.4326H0V49.1883H30.9834V48.4326Z" fill="#45B3B1"/>
    <path d="M162.474 48.8105H131.491V49.5662H162.474V48.8105Z" fill="#45B3B1"/>
</svg>
