<svg width="477" height="99" viewBox="0 0 477 99" fill="none" xmlns="http://www.w3.org/2000/svg">
<path d="M2 97.224V-31.1509" stroke="#E3E3E3" stroke-width="3.18735" stroke-linecap="round" stroke-dasharray="1.27 1.27"/>
<path d="M15.9009 65.0869L15.9009 -31.1509" stroke="#E3E3E3" stroke-width="3.18735" stroke-linecap="round" stroke-dasharray="1.27 1.27"/>
<path d="M29.802 43.5463L29.802 -31.1509" stroke="#E3E3E3" stroke-width="3.18735" stroke-linecap="round" stroke-dasharray="1.27 1.27"/>
<path d="M43.7031 49.1052L43.7031 -31.1509" stroke="#E3E3E3" stroke-width="3.18735" stroke-linecap="round" stroke-dasharray="1.27 1.27"/>
<path d="M57.6042 6.02399L57.6042 -31.1509" stroke="#E3E3E3" stroke-width="3.18735" stroke-linecap="round" stroke-dasharray="1.27 1.27"/>
<path d="M71.505 24.7851L71.505 -31.1509" stroke="#E3E3E3" stroke-width="3.18735" stroke-linecap="round" stroke-dasharray="1.27 1.27"/>
<path d="M85.4058 60.5703L85.4058 -31.1509" stroke="#E3E3E3" stroke-width="3.18735" stroke-linecap="round" stroke-dasharray="1.27 1.27"/>
<path d="M99.3069 65.0869L99.3069 -31.1509" stroke="#E3E3E3" stroke-width="3.18735" stroke-linecap="round" stroke-dasharray="1.27 1.27"/>
<path d="M113.208 49.1052L113.208 -31.1509" stroke="#E3E3E3" stroke-width="3.18735" stroke-linecap="round" stroke-dasharray="1.27 1.27"/>
<path d="M127.109 30.344L127.109 -31.1509" stroke="#E3E3E3" stroke-width="3.18735" stroke-linecap="round" stroke-dasharray="1.27 1.27"/>
<path d="M141.01 97.224V-31.1509" stroke="#E3E3E3" stroke-width="3.18735" stroke-linecap="round" stroke-dasharray="1.27 1.27"/>
<path d="M154.911 33.1234L154.911 -31.1509" stroke="#E3E3E3" stroke-width="3.18735" stroke-linecap="round" stroke-dasharray="1.27 1.27"/>
<path d="M168.812 70.2983L168.812 -31.1509" stroke="#E3E3E3" stroke-width="3.18735" stroke-linecap="round" stroke-dasharray="1.27 1.27"/>
<path d="M182.713 49.1052L182.713 -31.1509" stroke="#E3E3E3" stroke-width="3.18735" stroke-linecap="round" stroke-dasharray="1.27 1.27"/>
<path d="M196.614 60.5703L196.614 -31.1509" stroke="#E3E3E3" stroke-width="3.18735" stroke-linecap="round" stroke-dasharray="1.27 1.27"/>
<path d="M210.515 36.9452L210.515 -31.1509" stroke="#E3E3E3" stroke-width="3.18735" stroke-linecap="round" stroke-dasharray="1.27 1.27"/>
<path d="M224.416 49.1052L224.416 -31.1509" stroke="#E3E3E3" stroke-width="3.18735" stroke-linecap="round" stroke-dasharray="1.27 1.27"/>
<path d="M238.317 70.2983L238.317 -31.1509" stroke="#E3E3E3" stroke-width="3.18735" stroke-linecap="round" stroke-dasharray="1.27 1.27"/>
<path d="M252.403 65.0869L252.403 -31.1509" stroke="#E3E3E3" stroke-width="3.18735" stroke-linecap="round" stroke-dasharray="1.27 1.27"/>
<path d="M266.304 43.5463L266.304 -31.1509" stroke="#E3E3E3" stroke-width="3.18735" stroke-linecap="round" stroke-dasharray="1.27 1.27"/>
<path d="M280.205 49.1052L280.205 -31.1509" stroke="#E3E3E3" stroke-width="3.18735" stroke-linecap="round" stroke-dasharray="1.27 1.27"/>
<path d="M294.106 6.02399L294.106 -31.1509" stroke="#E3E3E3" stroke-width="3.18735" stroke-linecap="round" stroke-dasharray="1.27 1.27"/>
<path d="M308.007 24.7851L308.007 -31.1509" stroke="#E3E3E3" stroke-width="3.18735" stroke-linecap="round" stroke-dasharray="1.27 1.27"/>
<path d="M321.908 60.5703L321.908 -31.1509" stroke="#E3E3E3" stroke-width="3.18735" stroke-linecap="round" stroke-dasharray="1.27 1.27"/>
<path d="M335.809 65.0869L335.809 -31.1509" stroke="#E3E3E3" stroke-width="3.18735" stroke-linecap="round" stroke-dasharray="1.27 1.27"/>
<path d="M349.71 49.1052L349.71 -31.1509" stroke="#E3E3E3" stroke-width="3.18735" stroke-linecap="round" stroke-dasharray="1.27 1.27"/>
<path d="M363.611 30.344L363.611 -31.1509" stroke="#E3E3E3" stroke-width="3.18735" stroke-linecap="round" stroke-dasharray="1.27 1.27"/>
<path d="M377.512 72.7303V-31.1509" stroke="#E3E3E3" stroke-width="3.18735" stroke-linecap="round" stroke-dasharray="1.27 1.27"/>
<path d="M391.413 33.1234L391.413 -31.1509" stroke="#E3E3E3" stroke-width="3.18735" stroke-linecap="round" stroke-dasharray="1.27 1.27"/>
<path d="M405.314 43.5463L405.314 -31.1509" stroke="#E3E3E3" stroke-width="3.18735" stroke-linecap="round" stroke-dasharray="1.27 1.27"/>
<path d="M419.214 49.1052L419.214 -31.1509" stroke="#E3E3E3" stroke-width="3.18735" stroke-linecap="round" stroke-dasharray="1.27 1.27"/>
<path d="M433.116 60.5703L433.116 -31.1509" stroke="#E3E3E3" stroke-width="3.18735" stroke-linecap="round" stroke-dasharray="1.27 1.27"/>
<path d="M447.017 36.9452L447.017 -31.1509" stroke="#E3E3E3" stroke-width="3.18735" stroke-linecap="round" stroke-dasharray="1.27 1.27"/>
<path d="M460.918 49.1052L460.918 -31.1509" stroke="#E3E3E3" stroke-width="3.18735" stroke-linecap="round" stroke-dasharray="1.27 1.27"/>
<path d="M474.818 81.0686L474.818 -31.1509" stroke="#E3E3E3" stroke-width="3.18735" stroke-linecap="round" stroke-dasharray="1.27 1.27"/>
</svg>
