<svg width="502" height="512" viewBox="0 0 502 512" fill="none" xmlns="http://www.w3.org/2000/svg">
<rect width="502" height="512" rx="10" fill="white"/>
<rect x="64.3645" y="278.259" width="200.468" height="169.524" fill="#F5F8F5"/>
<rect x="64.3645" y="102.007" width="200.468" height="169.524" fill="#F5F8F5"/>
<rect x="270.215" y="278.259" width="200.468" height="169.524" fill="#F5F8F5"/>
<rect x="270.215" y="102.007" width="200.468" height="169.524" fill="#F5F8F5"/>
<path d="M146.431 213.405V211.329H143.724V213.405H146.431ZM138.489 213.405H141.061V211.329H138.489V213.405ZM138.489 206.975V208.893H141.061V206.975H138.489ZM146.431 206.975H143.724V208.893H146.431V206.975ZM152.659 211.329H149.116V213.405H151.801V215.797H143.724V217.579H152.388V219.994H132.645V217.579H141.061V215.797H133.3V213.405H135.849V211.329H132.329V208.893H135.849V206.975H133.458V204.56H141.061V203.049C138.67 203.184 136.278 203.274 134.044 203.297C133.999 202.62 133.683 201.582 133.435 200.995C139.053 200.905 145.529 200.454 149.387 199.664L151.282 201.83C149.071 202.282 146.454 202.597 143.724 202.846V204.56H151.643V206.975H149.116V208.893H152.659V211.329ZM170.077 208.171V207.02H163.128V208.171H170.077ZM170.077 211.059V209.93H163.128V211.059H170.077ZM170.077 213.992V212.841H163.128V213.992H170.077ZM160.601 205.147H163.466C163.534 204.764 163.602 204.335 163.647 203.906H155.073V201.447H163.895C163.94 200.77 163.963 200.116 163.985 199.529L167.144 199.619C167.054 200.228 166.986 200.838 166.874 201.447H175.064V203.906H166.467C166.377 204.335 166.309 204.764 166.219 205.147H172.74V215.865H160.601V205.147ZM175.29 217.173V219.678H158.773V220.693H156.111V205.847H158.773V217.173H175.29ZM196.77 199.845V209.479C196.77 210.72 196.544 211.352 195.687 211.736C194.874 212.097 193.724 212.164 192.144 212.164C192.031 211.465 191.67 210.449 191.354 209.795C192.37 209.84 193.453 209.84 193.791 209.818C194.107 209.795 194.22 209.727 194.22 209.434V199.845H196.77ZM192.573 200.883V208.509H190.113V200.883H192.573ZM182.645 205.102H184.54V202.733H182.645V205.102ZM188.985 217.467H197.74V219.948H177.41V217.467H186.233V215.662H179.689V213.225H186.233V211.803H184.54V207.471H182.465C182.104 209.321 181.156 211.171 178.922 212.412C178.584 211.916 177.636 210.901 177.162 210.54C178.832 209.682 179.577 208.599 179.915 207.471H177.636V205.102H180.186V202.733H178.403V200.386H188.647V202.733H187.045V205.102H189.166V207.471H187.045V211.42H188.985V213.225H195.506V215.662H188.985V217.467Z" fill="#45B3B1"/>
<path d="M341.518 201.079V203.9H338.788V198.597H346.843V196.589H349.686V198.597H357.967V203.9H355.101V201.079H341.518ZM351.514 207.487H346.256C345.783 208.435 345.286 209.36 344.812 210.24C346.189 210.623 347.655 211.12 349.145 211.661C350.25 210.578 351.04 209.225 351.514 207.487ZM358.373 207.487H354.627C353.973 209.631 353.048 211.323 351.83 212.699C354.018 213.602 356.049 214.549 357.47 215.429L355.327 217.618C353.951 216.693 351.875 215.633 349.596 214.64C347.204 216.242 344.136 217.122 340.345 217.663C340.097 217.031 339.33 215.813 338.811 215.226C341.97 214.91 344.542 214.369 346.572 213.399C345.58 213.038 344.609 212.677 343.662 212.361L343.233 213.105L340.435 212.338C341.247 211.03 342.195 209.315 343.165 207.487H338.314V204.96H344.451C345.038 203.809 345.58 202.659 346.031 201.621L348.851 202.207C348.445 203.087 347.994 204.013 347.52 204.96H358.373V207.487ZM363.901 201.418V204.509H361.261V198.868H369.451V196.612H372.294V198.868H380.552V204.509H377.777V201.418H363.901ZM372.272 211.255V214.617C373.084 214.707 373.941 214.753 374.844 214.753C376.062 214.753 379.785 214.753 381.297 214.685C380.913 215.339 380.485 216.625 380.349 217.415H374.709C370.557 217.415 367.466 216.738 365.39 213.534C364.668 215.249 363.675 216.693 362.389 217.799C361.938 217.325 360.81 216.377 360.178 215.971C362.615 214.166 363.72 211.052 364.126 207.194L366.924 207.465C366.789 208.48 366.631 209.428 366.428 210.33C367.105 212.135 368.165 213.218 369.496 213.873V205.908H364.691V203.358H377.1V205.908H372.272V208.728H378.477V211.255H372.272ZM402.619 196.837V206.472C402.619 207.713 402.393 208.345 401.536 208.728C400.724 209.089 399.573 209.157 397.994 209.157C397.881 208.457 397.52 207.442 397.204 206.788C398.219 206.833 399.302 206.833 399.641 206.81C399.957 206.788 400.069 206.72 400.069 206.427V196.837H402.619ZM398.422 197.875V205.502H395.963V197.875H398.422ZM388.495 202.095H390.39V199.726H388.495V202.095ZM394.835 214.459H403.589V216.941H383.26V214.459H392.082V212.654H385.539V210.217H392.082V208.796H390.39V204.464H388.314C387.953 206.314 387.005 208.164 384.772 209.405C384.433 208.909 383.486 207.893 383.012 207.532C384.681 206.675 385.426 205.592 385.764 204.464H383.486V202.095H386.035V199.726H384.253V197.379H394.496V199.726H392.894V202.095H395.015V204.464H392.894V208.412H394.835V210.217H401.356V212.654H394.835V214.459Z" fill="#458BB3"/>
<path d="M149.816 372.599L152.05 374.607C151.598 374.765 151.102 374.9 150.606 375.036C150.921 381.421 151.598 388.009 153.403 391.529C152.772 391.981 151.824 392.883 151.35 393.605C149.432 389.431 148.868 382.617 148.507 375.532C146.634 375.938 144.649 376.231 142.776 376.435V380.857C142.776 383.361 142.618 386.791 141.671 389.905C142.438 389.792 143.363 389.657 144.356 389.521V376.412H146.567V389.16L147.605 389.002C147.424 388.212 147.221 387.445 147.018 386.746L148.53 386.25C149.207 388.325 149.816 391.01 150.019 392.77L148.349 393.334C148.304 392.703 148.191 391.958 148.056 391.168C145.89 391.62 143.701 392.048 141.896 392.409L141.535 390.266C141.152 391.484 140.633 392.635 139.933 393.673C139.572 393.154 138.647 392.364 138.06 392.093C140.204 388.754 140.407 384.196 140.407 380.857V375.419C139.527 377.089 138.399 378.917 137.316 380.203V381.579L139.843 381.195L139.978 383.565C139.098 383.745 138.196 383.903 137.316 384.083V390.717C137.316 391.935 137.113 392.657 136.413 393.086C135.691 393.515 134.699 393.605 133.322 393.583C133.232 392.86 132.893 391.755 132.555 390.988C133.367 391.033 134.18 391.01 134.45 391.01C134.676 391.01 134.766 390.943 134.766 390.672V384.557L132.171 385.031L131.81 382.414C132.645 382.301 133.661 382.143 134.766 381.985V378.601H135.511C136.007 377.924 136.504 377.089 136.91 376.277H132.532V373.795H138.399L138.94 373.637L140.407 374.63V373.998L141.648 374.359C144.626 373.953 147.853 373.321 149.816 372.599ZM174.635 376.48V379.12H155.592V376.48H163.602V372.554H166.4V376.48H174.635ZM163.173 388.619L160.42 389.341C160.263 386.994 159.473 383.384 158.48 380.631L161.052 379.954C162.113 382.73 162.948 386.227 163.173 388.619ZM168.949 390.04H175.29V392.725H154.87V390.04H166.106C167.122 387.31 168.205 383.113 168.679 379.864L171.77 380.428C170.98 383.745 169.92 387.4 168.949 390.04ZM196.77 372.779V382.414C196.77 383.655 196.544 384.287 195.687 384.67C194.874 385.031 193.724 385.099 192.144 385.099C192.031 384.399 191.67 383.384 191.354 382.73C192.37 382.775 193.453 382.775 193.791 382.752C194.107 382.73 194.22 382.662 194.22 382.369V372.779H196.77ZM192.573 373.817V381.444H190.113V373.817H192.573ZM182.645 378.037H184.54V375.667H182.645V378.037ZM188.985 390.401H197.74V392.883H177.41V390.401H186.233V388.596H179.689V386.159H186.233V384.738H184.54V380.406H182.465C182.104 382.256 181.156 384.106 178.922 385.347C178.584 384.851 177.636 383.835 177.162 383.474C178.832 382.617 179.577 381.534 179.915 380.406H177.636V378.037H180.186V375.667H178.403V373.321H188.647V375.667H187.045V378.037H189.166V380.406H187.045V384.354H188.985V386.159H195.506V388.596H188.985V390.401Z" fill="#45B364"/>
<path d="M344.677 371.932L346.505 372.609C345.467 378.723 342.985 383.303 339.803 385.65C339.33 385.018 338.247 383.935 337.57 383.529C340.187 381.769 342.173 378.678 343.188 374.729H338.292V372.022H344.181L344.677 371.932ZM355.981 370.036L358.486 371.796C356.681 373.714 354.424 375.835 352.597 377.257C354.199 379.964 356.32 382.153 359.095 383.461C358.418 384.025 357.493 385.154 357.019 385.966C353.747 384.116 351.469 381.137 349.844 377.46V384.116C349.844 385.74 349.483 386.553 348.558 387.004C347.588 387.5 346.121 387.613 344.068 387.613C343.955 386.756 343.436 385.402 343.007 384.612C344.497 384.68 345.918 384.657 346.392 384.657C346.843 384.657 347.001 384.499 347.001 384.116V366.539H349.844V370.51C350.273 372.09 350.792 373.601 351.446 375.045C353.048 373.556 354.83 371.638 355.981 370.036ZM381.162 377.414V380.122H372.294V387.59H369.496V380.122H360.719V377.414H369.496V370.578H361.893V367.915H379.853V370.578H372.294V377.414H381.162ZM363.269 372.022L365.728 371.3C366.473 372.744 367.285 374.639 367.533 375.903L364.916 376.715C364.691 375.497 363.991 373.534 363.269 372.022ZM376.446 376.67L374.099 375.993C374.821 374.684 375.634 372.699 376.062 371.232L378.928 371.954C378.116 373.692 377.213 375.519 376.446 376.67ZM402.619 366.765V376.399C402.619 377.64 402.393 378.272 401.536 378.655C400.724 379.016 399.573 379.084 397.994 379.084C397.881 378.385 397.52 377.369 397.204 376.715C398.219 376.76 399.302 376.76 399.641 376.738C399.957 376.715 400.069 376.647 400.069 376.354V366.765H402.619ZM398.422 367.803V375.429H395.963V367.803H398.422ZM388.495 372.022H390.39V369.653H388.495V372.022ZM394.835 384.386H403.589V386.868H383.26V384.386H392.082V382.581H385.539V380.145H392.082V378.723H390.39V374.391H388.314C387.953 376.241 387.005 378.091 384.772 379.332C384.433 378.836 383.486 377.821 383.012 377.46C384.681 376.602 385.426 375.519 385.764 374.391H383.486V372.022H386.035V369.653H384.253V367.306H394.496V369.653H392.894V372.022H395.015V374.391H392.894V378.34H394.835V380.145H401.356V382.581H394.835V384.386Z" fill="#A16CAC"/>
<path d="M171.124 55.2088L174.17 55.7372C173.859 58.659 173.206 61.7673 172.305 63.7566C171.652 63.3525 170.284 62.6998 169.476 62.42C170.378 60.5861 170.875 57.8197 171.124 55.2088ZM179.765 53.1884L177.993 53.3127V66.0879H174.729V53.5614L170.129 53.8722L169.818 50.6395L172.118 50.5463C172.584 49.9557 173.082 49.303 173.548 48.6191C172.647 47.2826 171.124 45.6041 169.818 44.3608L171.559 41.8119C171.807 42.0295 172.056 42.2471 172.305 42.4647C173.175 40.7551 174.045 38.6725 174.574 37.0562L177.838 38.2063C176.719 40.351 175.444 42.7444 174.325 44.4851C174.729 44.9202 175.102 45.3865 175.413 45.7906C176.532 44.0499 177.527 42.2471 178.273 40.6929L181.412 41.9984C179.671 44.7337 177.496 47.9042 175.475 50.422L178.615 50.2976C178.273 49.5516 177.9 48.8056 177.527 48.1529L180.138 47.0028C181.381 49.0854 182.624 51.7896 182.997 53.5614L180.2 54.8668C180.107 54.3695 179.951 53.81 179.765 53.1884ZM178.055 55.8926L180.79 55.0223C181.63 56.8562 182.438 59.2806 182.811 60.8659L179.889 61.8916C179.64 60.3064 178.832 57.7887 178.055 55.8926ZM187.318 57.2913V61.8916H193.255V57.2913H187.318ZM193.255 41.9052H187.318V46.2257H193.255V41.9052ZM193.255 53.9654V49.5205H187.318V53.9654H193.255ZM196.985 61.8916H199.067V65.2175H180.884V61.8916H183.743V38.5793H196.985V61.8916ZM201.896 55.2088L204.693 55.6439C204.445 58.5657 203.916 61.643 203.17 63.6012C202.58 63.2282 201.336 62.6687 200.653 62.42C201.43 60.5861 201.74 57.8197 201.896 55.2088ZM214.858 60.0577H217.873V58.1306H214.858V60.0577ZM217.873 53.7789H214.858V55.675H217.873V53.7789ZM207.366 47.8731L209.418 47.0961C209.729 47.6866 210.04 48.3394 210.319 48.9921V46.9407H212.744C212.682 45.8217 212.371 44.3297 211.967 43.1485L213.614 42.7755H210.879V42.0917C209.822 43.8945 208.61 45.946 207.366 47.8731ZM205.75 50.3598L207.926 50.2355C207.646 49.5827 207.366 48.93 207.087 48.3083C206.652 49.0232 206.185 49.707 205.75 50.3598ZM217.81 46.9407L216.567 46.6298C216.94 45.573 217.344 43.9878 217.593 42.7755H214.485C214.982 43.9878 215.324 45.6352 215.355 46.6609L214.236 46.9407H217.81ZM226.887 51.0125L229.809 51.7896C228.907 54.7114 227.664 57.3535 226.079 59.6847C226.42 61.2389 226.856 62.1403 227.353 62.1714C227.757 62.2025 228.068 60.7726 228.223 58.3792C228.721 59.0631 229.995 60.0266 230.492 60.3686C229.746 65.1554 228.379 66.2744 227.229 66.2433C225.674 66.1811 224.555 64.9067 223.747 62.5444C222.473 63.912 221.012 65.0932 219.427 66.1189C218.992 65.4351 217.904 64.2539 217.22 63.7566C217.841 63.3836 218.432 63.0106 218.992 62.5755H214.858V64.1918H212.06V51.2301H220.857V61.0213C221.571 60.3375 222.224 59.6226 222.846 58.8766C222.411 56.3899 222.131 53.3438 221.944 49.8314H210.661C211.221 51.2301 211.687 52.6289 211.842 53.6857L209.231 54.7736C209.169 54.2763 209.045 53.7168 208.89 53.1262L207.864 53.2194V55.7061L210.195 54.9912C210.848 56.794 211.469 59.0631 211.718 60.6172L209.169 61.5186C208.983 60.0266 208.392 57.8197 207.864 56.048V66.0568H204.849V53.4992C203.512 53.6235 202.207 53.7168 201.057 53.81L200.746 50.5774L202.766 50.4841C203.232 49.8003 203.699 49.0232 204.196 48.2151C203.357 46.8785 202.082 45.3243 200.932 44.1121L202.455 41.5011C202.673 41.6876 202.859 41.9052 203.077 42.1228C203.761 40.4754 204.414 38.5793 204.787 37.0562L207.895 38.0509C206.962 40.1334 205.906 42.5268 205.004 44.2675C205.315 44.6094 205.595 44.9824 205.843 45.3243C206.683 43.7391 207.46 42.1538 208.019 40.7862L210.879 42.0295V40.0091H214.391V37.0251H217.748V40.0091H221.261V42.7755H219.489L220.639 43.0242C220.142 44.3918 219.613 45.8838 219.178 46.9407H221.82C221.727 43.9567 221.665 40.724 221.634 37.2116H224.804C224.804 38.1752 224.804 39.1077 224.804 40.0091L227.26 39.0145C228.379 40.7862 229.529 43.2107 230.057 44.7648L227.229 46.0082C226.793 44.4851 225.799 42.216 224.804 40.4754C224.804 42.7444 224.835 44.9202 224.897 46.9407H229.777V49.8314H225.022C225.115 51.6964 225.208 53.4059 225.364 54.8979C225.985 53.6546 226.514 52.3491 226.887 51.0125ZM259.867 52.4113C259.867 58.9698 255.857 63.6012 248.024 64.8134L245.693 61.1146C246.874 60.9902 247.744 60.8037 248.583 60.6172C252.562 59.6847 255.67 56.8251 255.67 52.2869C255.67 47.9975 253.339 44.7959 249.143 44.081C248.708 46.7231 248.179 49.5827 247.278 52.5045C245.413 58.7833 242.74 62.6376 239.352 62.6376C235.902 62.6376 233.042 58.8455 233.042 53.5924C233.042 46.4122 239.258 40.2889 247.309 40.2889C255.018 40.2889 259.867 45.6352 259.867 52.4113ZM237.021 53.1884C237.021 56.3278 238.264 57.8508 239.476 57.8508C240.782 57.8508 241.994 55.8926 243.268 51.6964C243.983 49.3962 244.574 46.7542 244.916 44.1743C239.787 45.2311 237.021 49.7692 237.021 53.1884ZM284.68 52.0072V49.2097H273.646V46.3812H271.594V51.1369L274.454 50.3287L274.703 52.0072H284.68ZM291.736 49.2097H288.317V52.0072H291.457V55.4263H288.317V61.9227C288.317 63.7877 288.006 64.7824 286.763 65.3729C285.489 65.9324 283.748 65.9946 281.417 65.9946C281.292 64.9378 280.795 63.3525 280.298 62.3268C281.852 62.389 283.53 62.389 284.028 62.389C284.556 62.3579 284.68 62.2646 284.68 61.8605V55.4263H278.184C279.552 56.794 281.168 58.6901 281.914 60.0577L278.961 61.9538C278.339 60.6172 276.754 58.5657 275.418 57.0737L278.091 55.4263H274.33V53.7789C273.428 54.0587 272.496 54.3695 271.594 54.6493V66.0568H268.206V55.675C266.528 56.1723 264.943 56.6386 263.544 57.0427L262.674 53.4992C264.197 53.1573 266.124 52.6599 268.206 52.1004V46.3812H266.124C265.813 47.8731 265.409 49.2097 264.974 50.3287C264.414 49.8625 263.078 49.0232 262.363 48.6502C263.357 46.1636 263.855 42.3093 264.134 38.6415L267.212 39.1388C267.087 40.3821 266.932 41.6254 266.745 42.8688H268.206V37.0562H271.594V42.8688H274.174V45.7906H281.013V43.1485H275.511V39.7915H281.013V37.0251H284.68V39.7915H290.4V43.1485H284.68V45.7906H291.736V49.2097ZM315.391 61.5497H322.726V65.0621H303.392V61.5497H311.692V55.3331H305.693V51.8829H311.692V46.7852H308.273C307.806 48.4016 307.185 49.8935 306.532 51.0747C305.786 50.6085 304.107 49.7692 303.237 49.3962C303.548 48.8367 303.859 48.2461 304.17 47.5934L302.398 48.4016C302.211 47.4691 301.745 46.1014 301.217 44.827V66.0568H297.518V43.8323C297.331 46.4433 296.834 49.8625 296.119 52.0694L293.384 51.0747C294.13 49.0232 294.689 45.5419 294.907 42.9931L297.518 43.3661V37.0251H301.217V42.8998L303.019 42.1538C303.641 43.3661 304.294 44.8581 304.729 46.0703C305.506 43.8013 306.066 41.1281 306.376 38.486L309.982 38.9834C309.764 40.4443 309.516 41.9052 309.205 43.3039H311.692V37.2116H315.391V43.3039H321.731V46.7852H315.391V51.8829H321.079V55.3331H315.391V61.5497Z" fill="#45B3B1"/>
<path d="M33.5237 100.944C34.111 100.357 35.0631 100.357 35.6504 100.944L45.2204 110.514C45.8076 111.101 45.8076 112.053 45.2204 112.641C44.6331 113.228 43.681 113.228 43.0937 112.641L34.587 104.134L26.0804 112.641C25.4931 113.228 24.541 113.228 23.9537 112.641C23.3665 112.053 23.3665 111.101 23.9537 110.514L33.5237 100.944ZM36.0908 470.433C36.0908 471.264 35.4175 471.937 34.587 471.937C33.7565 471.937 33.0833 471.264 33.0833 470.433H34.587H36.0908ZM34.587 102.007H36.0908V470.433H34.587H33.0833V102.007H34.587Z" fill="#45B3B1"/>
<path d="M471.746 469.37C472.333 469.957 472.333 470.909 471.746 471.496L462.176 481.066C461.589 481.654 460.637 481.654 460.049 481.066C459.462 480.479 459.462 479.527 460.049 478.94L468.556 470.433L460.049 461.926C459.462 461.339 459.462 460.387 460.049 459.8C460.637 459.213 461.589 459.213 462.176 459.8L471.746 469.37ZM34.587 471.937C33.7565 471.937 33.0833 471.264 33.0833 470.433C33.0833 469.603 33.7565 468.929 34.587 468.929L34.587 470.433L34.587 471.937ZM470.683 470.433L470.683 471.937L34.587 471.937L34.587 470.433L34.587 468.929L470.683 468.929L470.683 470.433Z" fill="#45B3B1"/>
<rect width="142.023" height="27.0151" transform="translate(196.995 456.899)" fill="white"/>
<path d="M217.367 463.58C217.255 463.763 217.128 464.008 216.988 464.317C216.862 464.626 216.756 464.893 216.672 465.117C216.419 465.819 216.104 466.577 215.725 467.391C215.36 468.191 214.939 468.998 214.462 469.812C213.998 470.626 213.479 471.405 212.904 472.149C212.23 473.005 211.465 473.868 210.609 474.738C209.767 475.608 208.812 476.458 207.746 477.286C206.693 478.1 205.5 478.858 204.167 479.559L202.714 478.233C204.679 477.307 206.363 476.233 207.767 475.012C209.184 473.777 210.426 472.472 211.493 471.096C212.377 469.987 213.093 468.865 213.641 467.728C214.188 466.591 214.644 465.503 215.009 464.464C215.079 464.254 215.156 464.001 215.241 463.707C215.325 463.398 215.388 463.131 215.43 462.907L217.367 463.58ZM206.23 466.043C206.749 466.38 207.311 466.759 207.914 467.18C208.518 467.587 209.121 468.008 209.725 468.443C210.328 468.865 210.897 469.279 211.43 469.686C211.977 470.093 212.448 470.458 212.84 470.78C213.907 471.636 214.946 472.521 215.956 473.433C216.967 474.331 217.886 475.237 218.714 476.149L217.388 477.601C216.504 476.577 215.591 475.637 214.651 474.78C213.725 473.91 212.735 473.026 211.683 472.128C211.304 471.805 210.862 471.447 210.356 471.054C209.851 470.661 209.304 470.247 208.714 469.812C208.139 469.377 207.542 468.956 206.925 468.549C206.307 468.128 205.711 467.735 205.135 467.37L206.23 466.043ZM223.514 463.475C223.893 463.728 224.328 464.043 224.82 464.422C225.311 464.787 225.809 465.18 226.314 465.601C226.834 466.008 227.318 466.408 227.767 466.801C228.216 467.194 228.588 467.538 228.883 467.833L227.556 469.159C227.29 468.893 226.946 468.563 226.525 468.17C226.104 467.777 225.641 467.37 225.135 466.949C224.63 466.514 224.132 466.107 223.641 465.728C223.149 465.335 222.707 465.012 222.314 464.759L223.514 463.475ZM221.704 477.58C222.939 477.398 224.062 477.145 225.072 476.823C226.097 476.5 227.03 476.135 227.872 475.728C228.714 475.321 229.465 474.914 230.125 474.507C231.206 473.833 232.202 473.061 233.114 472.191C234.027 471.307 234.827 470.394 235.514 469.454C236.202 468.514 236.75 467.615 237.157 466.759L238.167 468.549C237.69 469.419 237.1 470.303 236.399 471.201C235.697 472.1 234.904 472.963 234.02 473.791C233.135 474.619 232.16 475.37 231.093 476.044C230.392 476.479 229.62 476.907 228.778 477.328C227.949 477.749 227.037 478.135 226.041 478.486C225.058 478.823 223.984 479.096 222.82 479.307L221.704 477.58ZM254.043 462.507C254.226 462.745 254.422 463.04 254.633 463.391C254.843 463.728 255.047 464.071 255.243 464.422C255.454 464.773 255.629 465.096 255.77 465.391L254.633 465.896C254.422 465.461 254.156 464.97 253.833 464.422C253.51 463.861 253.208 463.377 252.928 462.97L254.043 462.507ZM256.359 461.664C256.556 461.917 256.759 462.219 256.97 462.57C257.194 462.921 257.412 463.271 257.622 463.622C257.833 463.959 258.001 464.261 258.128 464.528L256.991 465.033C256.766 464.57 256.492 464.071 256.17 463.538C255.861 462.991 255.552 462.521 255.243 462.128L256.359 461.664ZM242.527 472.57C242.752 472.022 242.969 471.426 243.18 470.78C243.405 470.135 243.608 469.468 243.791 468.78C243.987 468.079 244.155 467.391 244.296 466.717C244.436 466.029 244.534 465.377 244.591 464.759L246.464 465.159C246.436 465.314 246.394 465.482 246.338 465.664C246.282 465.833 246.233 466.008 246.191 466.191C246.148 466.373 246.113 466.542 246.085 466.696C246.015 467.019 245.917 467.44 245.791 467.959C245.664 468.479 245.517 469.047 245.348 469.665C245.18 470.282 244.998 470.907 244.801 471.538C244.605 472.156 244.394 472.731 244.17 473.265C243.917 473.91 243.622 474.577 243.285 475.265C242.962 475.938 242.612 476.598 242.233 477.244C241.854 477.889 241.468 478.493 241.075 479.054L239.285 478.296C239.945 477.412 240.555 476.458 241.117 475.433C241.692 474.394 242.162 473.44 242.527 472.57ZM252.885 471.77C252.675 471.222 252.443 470.647 252.191 470.043C251.938 469.44 251.671 468.836 251.391 468.233C251.11 467.615 250.836 467.04 250.57 466.507C250.317 465.959 250.071 465.496 249.833 465.117L251.538 464.549C251.749 464.914 251.98 465.363 252.233 465.896C252.499 466.429 252.773 466.998 253.054 467.601C253.335 468.205 253.608 468.815 253.875 469.433C254.142 470.05 254.387 470.64 254.612 471.201C254.822 471.721 255.047 472.303 255.285 472.949C255.524 473.58 255.756 474.226 255.98 474.886C256.219 475.531 256.436 476.163 256.633 476.78C256.829 477.384 256.998 477.924 257.138 478.401L255.264 479.012C255.096 478.296 254.878 477.524 254.612 476.696C254.359 475.854 254.085 475.012 253.791 474.17C253.496 473.314 253.194 472.514 252.885 471.77ZM260.501 469.791C260.711 469.805 260.971 469.826 261.28 469.854C261.589 469.868 261.925 469.882 262.29 469.896C262.669 469.896 263.048 469.896 263.427 469.896C263.652 469.896 263.996 469.896 264.459 469.896C264.936 469.896 265.49 469.896 266.122 469.896C266.754 469.896 267.42 469.896 268.122 469.896C268.838 469.896 269.547 469.896 270.248 469.896C270.964 469.896 271.638 469.896 272.269 469.896C272.915 469.896 273.469 469.896 273.933 469.896C274.396 469.896 274.74 469.896 274.964 469.896C275.497 469.896 275.954 469.882 276.333 469.854C276.712 469.826 277.013 469.805 277.238 469.791V471.854C277.027 471.84 276.712 471.819 276.29 471.791C275.883 471.763 275.448 471.749 274.985 471.749C274.761 471.749 274.41 471.749 273.933 471.749C273.455 471.749 272.901 471.749 272.269 471.749C271.652 471.749 270.985 471.749 270.269 471.749C269.554 471.749 268.838 471.749 268.122 471.749C267.42 471.749 266.754 471.749 266.122 471.749C265.504 471.749 264.957 471.749 264.48 471.749C264.003 471.749 263.652 471.749 263.427 471.749C262.852 471.749 262.304 471.763 261.785 471.791C261.266 471.805 260.838 471.826 260.501 471.854V469.791ZM284.941 462.738C285.25 462.907 285.615 463.124 286.036 463.391C286.457 463.657 286.892 463.938 287.341 464.233C287.791 464.528 288.205 464.808 288.584 465.075C288.977 465.328 289.285 465.538 289.51 465.707L288.52 467.138C288.268 466.956 287.952 466.731 287.573 466.464C287.194 466.198 286.787 465.924 286.352 465.643C285.917 465.349 285.489 465.075 285.068 464.822C284.661 464.556 284.303 464.331 283.994 464.149L284.941 462.738ZM281.783 477.791C282.555 477.651 283.348 477.468 284.162 477.244C284.976 477.005 285.784 476.731 286.584 476.422C287.384 476.1 288.134 475.735 288.836 475.328C290.001 474.654 291.082 473.91 292.078 473.096C293.075 472.282 293.973 471.412 294.773 470.486C295.573 469.559 296.254 468.605 296.815 467.622L297.826 469.349C296.913 470.766 295.756 472.128 294.352 473.433C292.963 474.738 291.426 475.889 289.741 476.886C289.026 477.293 288.247 477.672 287.405 478.023C286.577 478.359 285.755 478.654 284.941 478.907C284.141 479.159 283.412 479.356 282.752 479.496L281.783 477.791ZM281.762 467.475C282.071 467.629 282.443 467.84 282.878 468.107C283.313 468.359 283.755 468.626 284.205 468.907C284.654 469.173 285.075 469.433 285.468 469.686C285.861 469.938 286.169 470.149 286.394 470.317L285.426 471.791C285.159 471.594 284.829 471.37 284.436 471.117C284.057 470.85 283.65 470.584 283.215 470.317C282.78 470.036 282.352 469.77 281.931 469.517C281.51 469.265 281.145 469.061 280.836 468.907L281.762 467.475ZM306.166 466.78C306.265 466.991 306.391 467.307 306.545 467.728C306.7 468.135 306.861 468.57 307.03 469.033C307.212 469.496 307.373 469.938 307.514 470.359C307.654 470.766 307.759 471.089 307.83 471.328L306.272 471.875C306.215 471.636 306.117 471.314 305.977 470.907C305.851 470.5 305.703 470.065 305.535 469.601C305.366 469.124 305.198 468.682 305.029 468.275C304.861 467.868 304.728 467.545 304.629 467.307L306.166 466.78ZM313.787 467.959C313.717 468.17 313.654 468.366 313.598 468.549C313.556 468.717 313.514 468.872 313.472 469.012C313.191 470.163 312.812 471.293 312.335 472.401C311.858 473.496 311.24 474.521 310.482 475.475C309.514 476.71 308.419 477.742 307.198 478.57C305.991 479.398 304.798 480.037 303.619 480.486L302.229 479.075C303.043 478.823 303.865 478.486 304.693 478.065C305.535 477.644 306.328 477.138 307.072 476.549C307.83 475.959 308.496 475.307 309.072 474.591C309.577 473.973 310.026 473.279 310.419 472.507C310.826 471.735 311.163 470.914 311.43 470.043C311.696 469.173 311.879 468.289 311.977 467.391L313.787 467.959ZM301.282 467.833C301.394 468.072 301.535 468.394 301.703 468.801C301.872 469.208 302.047 469.657 302.229 470.149C302.426 470.626 302.608 471.089 302.777 471.538C302.959 471.973 303.1 472.324 303.198 472.591L301.598 473.18C301.514 472.914 301.387 472.556 301.219 472.107C301.065 471.643 300.889 471.166 300.693 470.675C300.496 470.184 300.307 469.735 300.124 469.328C299.956 468.921 299.822 468.626 299.724 468.443L301.282 467.833ZM330.585 463.791C330.585 464.17 330.719 464.5 330.985 464.78C331.266 465.047 331.596 465.18 331.975 465.18C332.368 465.18 332.698 465.047 332.964 464.78C333.245 464.5 333.385 464.17 333.385 463.791C333.385 463.398 333.245 463.068 332.964 462.801C332.698 462.521 332.368 462.38 331.975 462.38C331.596 462.38 331.266 462.521 330.985 462.801C330.719 463.068 330.585 463.398 330.585 463.791ZM329.617 463.791C329.617 463.356 329.722 462.963 329.933 462.612C330.157 462.247 330.445 461.959 330.796 461.749C331.147 461.524 331.54 461.412 331.975 461.412C332.41 461.412 332.803 461.524 333.154 461.749C333.519 461.959 333.806 462.247 334.017 462.612C334.242 462.963 334.354 463.356 334.354 463.791C334.354 464.226 334.242 464.619 334.017 464.97C333.806 465.321 333.519 465.608 333.154 465.833C332.803 466.043 332.41 466.149 331.975 466.149C331.54 466.149 331.147 466.043 330.796 465.833C330.445 465.608 330.157 465.321 329.933 464.97C329.722 464.619 329.617 464.226 329.617 463.791ZM331.449 465.201C331.378 465.342 331.315 465.503 331.259 465.686C331.217 465.854 331.175 466.043 331.133 466.254C331.02 466.801 330.873 467.412 330.691 468.086C330.508 468.759 330.284 469.454 330.017 470.17C329.764 470.872 329.47 471.552 329.133 472.212C328.796 472.872 328.417 473.475 327.996 474.022C327.35 474.837 326.634 475.594 325.848 476.296C325.063 476.998 324.164 477.63 323.154 478.191C322.143 478.752 320.992 479.237 319.701 479.644L318.269 478.065C319.645 477.728 320.831 477.307 321.827 476.801C322.838 476.296 323.722 475.728 324.48 475.096C325.238 474.451 325.905 473.756 326.48 473.012C326.985 472.366 327.42 471.643 327.785 470.843C328.164 470.029 328.48 469.215 328.733 468.401C328.985 467.573 329.154 466.822 329.238 466.149C329.042 466.149 328.67 466.149 328.122 466.149C327.575 466.149 326.929 466.149 326.185 466.149C325.441 466.149 324.663 466.149 323.848 466.149C323.048 466.149 322.277 466.149 321.533 466.149C320.789 466.149 320.143 466.149 319.596 466.149C319.048 466.149 318.676 466.149 318.48 466.149C318.059 466.149 317.673 466.156 317.322 466.17C316.971 466.184 316.655 466.198 316.375 466.212V464.338C316.571 464.366 316.789 464.394 317.027 464.422C317.266 464.436 317.512 464.45 317.764 464.464C318.017 464.478 318.255 464.486 318.48 464.486C318.648 464.486 318.95 464.486 319.385 464.486C319.82 464.486 320.333 464.486 320.922 464.486C321.526 464.486 322.164 464.486 322.838 464.486C323.526 464.486 324.199 464.486 324.859 464.486C325.533 464.486 326.157 464.486 326.733 464.486C327.322 464.486 327.82 464.486 328.227 464.486C328.634 464.486 328.908 464.486 329.049 464.486C329.203 464.486 329.378 464.478 329.575 464.464C329.771 464.45 329.968 464.422 330.164 464.38L331.449 465.201Z" fill="#333333"/>
<rect width="21.0529" height="162.038" transform="translate(21.053 186.219)" fill="white"/>
<path d="M40.2292 197.012C40.2151 197.264 40.2011 197.538 40.1871 197.833C40.173 198.114 40.166 198.429 40.166 198.78C40.166 199.047 40.166 199.398 40.166 199.833C40.166 200.254 40.166 200.675 40.166 201.096C40.166 201.503 40.166 201.833 40.166 202.086C40.166 203.321 40.1239 204.366 40.0397 205.222C39.9555 206.079 39.8221 206.815 39.6397 207.433C39.4572 208.036 39.2327 208.57 38.966 209.033C38.6993 209.496 38.3765 209.938 37.9976 210.359C37.5765 210.893 37.0783 211.356 36.5028 211.749C35.9414 212.142 35.366 212.472 34.7765 212.738C34.201 212.991 33.6607 213.201 33.1554 213.37L31.8291 211.959C32.7694 211.721 33.6537 211.384 34.4817 210.949C35.3238 210.514 36.0537 209.938 36.6712 209.222C37.0361 208.787 37.3309 208.352 37.5555 207.917C37.7941 207.468 37.9695 206.977 38.0818 206.443C38.2081 205.896 38.2923 205.265 38.3344 204.549C38.3765 203.819 38.3976 202.977 38.3976 202.022C38.3976 201.756 38.3976 201.412 38.3976 200.991C38.3976 200.57 38.3976 200.156 38.3976 199.749C38.3976 199.342 38.3976 199.019 38.3976 198.78C38.3976 198.429 38.3835 198.114 38.3555 197.833C38.3414 197.538 38.3204 197.264 38.2923 197.012H40.2292ZM30.7975 197.18C30.7834 197.363 30.7624 197.594 30.7343 197.875C30.7203 198.142 30.7133 198.394 30.7133 198.633C30.7133 198.731 30.7133 198.949 30.7133 199.285C30.7133 199.622 30.7133 200.022 30.7133 200.485C30.7133 200.949 30.7133 201.44 30.7133 201.959C30.7133 202.479 30.7133 202.977 30.7133 203.454C30.7133 203.931 30.7133 204.352 30.7133 204.717C30.7133 205.068 30.7133 205.314 30.7133 205.454C30.7133 205.721 30.7203 206.001 30.7343 206.296C30.7624 206.591 30.7834 206.829 30.7975 207.012H28.8606C28.8887 206.858 28.9097 206.633 28.9238 206.338C28.9518 206.043 28.9659 205.749 28.9659 205.454C28.9659 205.3 28.9659 205.047 28.9659 204.696C28.9659 204.345 28.9659 203.931 28.9659 203.454C28.9659 202.963 28.9659 202.464 28.9659 201.959C28.9659 201.44 28.9659 200.949 28.9659 200.485C28.9659 200.022 28.9659 199.622 28.9659 199.285C28.9659 198.949 28.9659 198.731 28.9659 198.633C28.9659 198.464 28.9589 198.226 28.9448 197.917C28.9308 197.608 28.9097 197.363 28.8817 197.18H30.7975ZM33.5133 230.896C33.5133 230.756 33.5133 230.475 33.5133 230.054C33.5133 229.619 33.5133 229.093 33.5133 228.475C33.5133 227.858 33.5133 227.191 33.5133 226.475C33.5133 225.745 33.5133 225.022 33.5133 224.307C33.5133 223.577 33.5133 222.889 33.5133 222.243C33.5133 221.598 33.5133 221.043 33.5133 220.58C33.5133 220.103 33.5133 219.773 33.5133 219.591C33.5133 219.296 33.5063 218.924 33.4922 218.475C33.4922 218.012 33.4642 217.605 33.408 217.254C33.5905 217.254 33.808 217.254 34.0607 217.254C34.3273 217.254 34.587 217.254 34.8396 217.254C35.0923 217.254 35.2958 217.254 35.4502 217.254C35.394 217.605 35.3589 218.005 35.3449 218.454C35.3309 218.903 35.3238 219.275 35.3238 219.57C35.3238 219.766 35.3238 220.103 35.3238 220.58C35.3238 221.043 35.3238 221.598 35.3238 222.243C35.3238 222.889 35.3238 223.577 35.3238 224.307C35.3238 225.036 35.3168 225.759 35.3028 226.475C35.3028 227.191 35.3028 227.858 35.3028 228.475C35.3028 229.093 35.3028 229.619 35.3028 230.054C35.3028 230.475 35.3028 230.756 35.3028 230.896C35.3028 231.107 35.3028 231.38 35.3028 231.717C35.3168 232.04 35.3309 232.384 35.3449 232.749C35.373 233.114 35.4081 233.458 35.4502 233.78C35.2677 233.78 35.0502 233.78 34.7975 233.78C34.5449 233.78 34.2923 233.78 34.0396 233.78C33.801 233.78 33.5835 233.78 33.387 233.78C33.4431 233.458 33.4782 233.121 33.4922 232.77C33.5063 232.419 33.5133 232.082 33.5133 231.759C33.5133 231.422 33.5133 231.135 33.5133 230.896ZM40.1871 238.001C40.3555 238.24 40.5379 238.528 40.7344 238.864C40.945 239.201 41.1485 239.538 41.345 239.875C41.5415 240.212 41.7099 240.521 41.8502 240.801L40.7344 241.285C40.5379 240.878 40.2853 240.401 39.9765 239.854C39.6678 239.307 39.373 238.843 39.0923 238.464L40.1871 238.001ZM42.4187 237.18C42.6011 237.419 42.7976 237.714 43.0082 238.064C43.2327 238.401 43.4432 238.738 43.6397 239.075C43.8503 239.412 44.0187 239.707 44.145 239.959L43.0292 240.443C42.8187 240.008 42.559 239.531 42.2502 239.012C41.9415 238.478 41.6397 238.022 41.345 237.643L42.4187 237.18ZM32.3764 245.58C33.0361 245.959 33.7238 246.387 34.4396 246.864C35.1695 247.328 35.8923 247.812 36.6081 248.317C37.3239 248.808 38.0046 249.293 38.6502 249.77C39.3099 250.247 39.8923 250.689 40.3976 251.096L39.1765 252.528C38.6993 252.093 38.1379 251.622 37.4923 251.117C36.8607 250.612 36.187 250.1 35.4712 249.58C34.7554 249.047 34.0326 248.535 33.3028 248.043C32.587 247.552 31.9133 247.11 31.2817 246.717L32.3764 245.58ZM41.7239 241.875C41.6397 242.001 41.5555 242.17 41.4713 242.38C41.3871 242.591 41.3169 242.78 41.2608 242.949C41.0502 243.636 40.7695 244.387 40.4186 245.201C40.0818 246.001 39.6678 246.808 39.1765 247.622C38.6993 248.436 38.159 249.215 37.5555 249.959C36.6291 251.096 35.4853 252.184 34.1238 253.222C32.7624 254.261 31.1133 255.145 29.1764 255.875L27.6816 254.57C28.9448 254.177 30.0957 253.693 31.1343 253.117C32.187 252.528 33.1203 251.889 33.9344 251.201C34.7624 250.5 35.4853 249.791 36.1028 249.075C36.6221 248.443 37.1063 247.756 37.5555 247.012C38.0046 246.268 38.3906 245.524 38.7134 244.78C39.0502 244.022 39.2958 243.328 39.4502 242.696H31.8712L32.5449 241.222H39.0502C39.3169 241.222 39.5625 241.208 39.7871 241.18C40.0116 241.152 40.2081 241.103 40.3765 241.033L41.7239 241.875ZM34.8396 238.907C34.6712 239.173 34.5028 239.461 34.3344 239.77C34.18 240.064 34.0466 240.31 33.9344 240.507C33.5273 241.25 33.001 242.071 32.3554 242.97C31.7238 243.868 30.9729 244.766 30.1027 245.664C29.2325 246.549 28.2501 247.363 27.1553 248.107L25.7658 247.033C26.9448 246.303 27.9624 245.51 28.8185 244.654C29.6747 243.784 30.3905 242.935 30.9659 242.107C31.5554 241.264 32.0045 240.528 32.3133 239.896C32.4256 239.728 32.5519 239.489 32.6922 239.18C32.8326 238.857 32.9308 238.563 32.987 238.296L34.8396 238.907ZM33.5133 272.896C33.5133 272.756 33.5133 272.475 33.5133 272.054C33.5133 271.619 33.5133 271.093 33.5133 270.475C33.5133 269.858 33.5133 269.191 33.5133 268.475C33.5133 267.745 33.5133 267.022 33.5133 266.307C33.5133 265.577 33.5133 264.889 33.5133 264.243C33.5133 263.598 33.5133 263.043 33.5133 262.58C33.5133 262.103 33.5133 261.773 33.5133 261.591C33.5133 261.296 33.5063 260.924 33.4922 260.475C33.4922 260.012 33.4642 259.605 33.408 259.254C33.5905 259.254 33.808 259.254 34.0607 259.254C34.3273 259.254 34.587 259.254 34.8396 259.254C35.0923 259.254 35.2958 259.254 35.4502 259.254C35.394 259.605 35.3589 260.005 35.3449 260.454C35.3309 260.903 35.3238 261.275 35.3238 261.57C35.3238 261.766 35.3238 262.103 35.3238 262.58C35.3238 263.043 35.3238 263.598 35.3238 264.243C35.3238 264.889 35.3238 265.577 35.3238 266.307C35.3238 267.036 35.3168 267.759 35.3028 268.475C35.3028 269.191 35.3028 269.858 35.3028 270.475C35.3028 271.093 35.3028 271.619 35.3028 272.054C35.3028 272.475 35.3028 272.756 35.3028 272.896C35.3028 273.107 35.3028 273.38 35.3028 273.717C35.3168 274.04 35.3309 274.384 35.3449 274.749C35.373 275.114 35.4081 275.458 35.4502 275.78C35.2677 275.78 35.0502 275.78 34.7975 275.78C34.5449 275.78 34.2923 275.78 34.0396 275.78C33.801 275.78 33.5835 275.78 33.387 275.78C33.4431 275.458 33.4782 275.121 33.4922 274.77C33.5063 274.419 33.5133 274.082 33.5133 273.759C33.5133 273.422 33.5133 273.135 33.5133 272.896ZM30.5659 280.801C30.8747 280.984 31.2326 281.201 31.6396 281.454C32.0606 281.707 32.4887 281.973 32.9238 282.254C33.3589 282.535 33.7589 282.801 34.1238 283.054C34.5028 283.307 34.8045 283.51 35.0291 283.664L34.0396 285.096C33.787 284.914 33.4712 284.696 33.0922 284.443C32.7273 284.177 32.3343 283.903 31.9133 283.622C31.4922 283.342 31.0782 283.075 30.6712 282.822C30.2782 282.57 29.9343 282.359 29.6396 282.191L30.5659 280.801ZM27.4922 295.412C28.2501 295.286 29.022 295.11 29.808 294.886C30.594 294.661 31.3729 294.394 32.1449 294.086C32.9308 293.777 33.6677 293.426 34.3554 293.033C35.4923 292.387 36.5379 291.672 37.4923 290.886C38.4467 290.086 39.3099 289.236 40.0818 288.338C40.8678 287.44 41.5345 286.514 42.0818 285.559L43.0924 287.243C42.2081 288.605 41.0783 289.924 39.7028 291.201C38.3414 292.465 36.8467 293.58 35.2186 294.549C34.5449 294.942 33.801 295.307 32.987 295.644C32.1729 295.98 31.3659 296.275 30.5659 296.528C29.7799 296.766 29.0711 296.956 28.4395 297.096L27.4922 295.412ZM27.4922 285.391C27.7869 285.559 28.1448 285.77 28.5659 286.022C29.001 286.261 29.4361 286.514 29.8711 286.78C30.3203 287.047 30.7273 287.307 31.0922 287.559C31.4712 287.798 31.7729 287.994 31.9975 288.149L31.0291 289.601C30.7764 289.419 30.4606 289.201 30.0817 288.949C29.7027 288.696 29.3027 288.436 28.8817 288.17C28.4606 287.903 28.0466 287.65 27.6395 287.412C27.2466 287.173 26.8887 286.97 26.5658 286.801L27.4922 285.391ZM36.4397 303.549C36.5239 303.759 36.6432 304.068 36.7975 304.475C36.9519 304.868 37.1133 305.296 37.2818 305.759C37.4642 306.208 37.6256 306.636 37.766 307.043C37.9063 307.436 38.0116 307.745 38.0818 307.97L36.5449 308.496C36.4747 308.243 36.3695 307.914 36.2291 307.507C36.1028 307.1 35.9554 306.678 35.787 306.243C35.6186 305.794 35.4572 305.38 35.3028 305.001C35.1484 304.608 35.0151 304.3 34.9028 304.075L36.4397 303.549ZM43.6608 304.643C43.5906 304.854 43.5275 305.043 43.4713 305.212C43.4292 305.38 43.3801 305.535 43.3239 305.675C43.0573 306.812 42.7134 307.9 42.2924 308.938C41.8713 309.963 41.3029 310.945 40.5871 311.886C39.6607 313.079 38.6362 314.047 37.5133 314.791C36.3905 315.521 35.2677 316.096 34.1449 316.517L32.8186 315.128C33.5905 314.889 34.3554 314.587 35.1133 314.222C35.8853 313.843 36.6221 313.387 37.3239 312.854C38.0256 312.321 38.6432 311.703 39.1765 311.001C39.8923 310.103 40.4888 309.05 40.966 307.843C41.4432 306.636 41.745 305.401 41.8713 304.138L43.6608 304.643ZM31.9554 304.538C32.0677 304.749 32.201 305.05 32.3554 305.443C32.5238 305.836 32.6993 306.264 32.8817 306.728C33.0642 307.177 33.2396 307.619 33.408 308.054C33.5765 308.475 33.7098 308.819 33.808 309.086L32.208 309.675C32.1378 309.408 32.0256 309.057 31.8712 308.622C31.7168 308.187 31.5413 307.731 31.3448 307.254C31.1484 306.777 30.9659 306.342 30.7975 305.949C30.6291 305.556 30.4957 305.268 30.3975 305.085L31.9554 304.538ZM40.6081 323.854C40.6081 324.233 40.7344 324.556 40.9871 324.822C41.2537 325.075 41.5766 325.201 41.9555 325.201C42.3345 325.201 42.6503 325.075 42.9029 324.822C43.1696 324.556 43.3029 324.233 43.3029 323.854C43.3029 323.489 43.1696 323.173 42.9029 322.907C42.6503 322.64 42.3345 322.506 41.9555 322.506C41.5766 322.506 41.2537 322.64 40.9871 322.907C40.7344 323.173 40.6081 323.489 40.6081 323.854ZM39.6607 323.854C39.6607 323.433 39.766 323.054 39.9765 322.717C40.1871 322.366 40.4608 322.085 40.7976 321.875C41.1485 321.664 41.5345 321.559 41.9555 321.559C42.3766 321.559 42.7625 321.664 43.1134 321.875C43.4643 322.085 43.738 322.366 43.9345 322.717C44.145 323.054 44.2503 323.433 44.2503 323.854C44.2503 324.275 44.145 324.661 43.9345 325.012C43.738 325.349 43.4643 325.622 43.1134 325.833C42.7625 326.043 42.3766 326.149 41.9555 326.149C41.5345 326.149 41.1485 326.043 40.7976 325.833C40.4608 325.622 40.1871 325.349 39.9765 325.012C39.766 324.661 39.6607 324.275 39.6607 323.854ZM41.5345 325.201C41.4783 325.356 41.4222 325.517 41.366 325.685C41.3239 325.854 41.2748 326.043 41.2187 326.254C41.0923 326.956 40.8888 327.763 40.6081 328.675C40.3415 329.573 40.0046 330.472 39.5976 331.37C39.2046 332.268 38.7344 333.075 38.187 333.791C37.5695 334.577 36.8747 335.314 36.1028 336.001C35.3309 336.675 34.4537 337.286 33.4712 337.833C32.4887 338.38 31.3729 338.851 30.1238 339.244L28.7553 337.728C30.0747 337.391 31.2255 336.977 32.208 336.486C33.1905 335.994 34.0466 335.44 34.7765 334.822C35.5063 334.205 36.1519 333.531 36.7133 332.801C37.2046 332.17 37.6326 331.468 37.9976 330.696C38.3625 329.924 38.6642 329.145 38.9028 328.359C39.1414 327.559 39.3028 326.836 39.3871 326.191C39.1906 326.191 38.8256 326.191 38.2923 326.191C37.759 326.191 37.1344 326.191 36.4186 326.191C35.7028 326.191 34.9449 326.191 34.1449 326.191C33.3589 326.191 32.601 326.191 31.8712 326.191C31.1554 326.191 30.5378 326.191 30.0185 326.191C29.4992 326.191 29.1343 326.191 28.9238 326.191C28.5167 326.191 28.1448 326.198 27.808 326.212C27.4711 326.212 27.1694 326.226 26.9027 326.254V324.38C27.0851 324.394 27.2887 324.415 27.5132 324.443C27.7518 324.471 27.9904 324.492 28.229 324.507C28.4817 324.507 28.7203 324.507 28.9448 324.507C29.1413 324.507 29.4992 324.507 30.0185 324.507C30.5519 324.507 31.1764 324.507 31.8922 324.507C32.6221 324.507 33.3729 324.507 34.1449 324.507C34.9309 324.507 35.6747 324.507 36.3765 324.507C37.0923 324.507 37.7028 324.507 38.2081 324.507C38.7134 324.507 39.0432 324.507 39.1976 324.507C39.352 324.507 39.5204 324.5 39.7028 324.485C39.8993 324.471 40.0958 324.443 40.2923 324.401L41.5345 325.201Z" fill="#333333"/>
<rect x="150.378" y="164.144" width="28.5718" height="3.00756" rx="1.50378" fill="#45B3B1"/>
<path d="M164.174 161.241L156.542 150.96L171.807 150.96L164.174 161.241Z" fill="#45B3B1"/>
<rect x="161.237" y="144.595" width="5.87523" height="7.83364" fill="#45B3B1"/>
<path d="M164.174 170.054L171.807 180.335L156.542 180.335L164.174 170.054Z" fill="#45B3B1"/>
<rect x="167.112" y="186.7" width="5.87523" height="7.83364" transform="rotate(180 167.112 186.7)" fill="#45B3B1"/>
<rect x="348.877" y="167.961" width="43.6096" height="4.51133" rx="2.25567" fill="#458BB3"/>
<path d="M371.434 172.473L380.55 182.623L362.317 182.623L371.434 172.473Z" fill="#458BB3"/>
<circle cx="382.423" cy="161.831" r="6.70916" fill="#458BB3"/>
<circle cx="382.423" cy="161.831" r="3.35458" fill="white"/>
<circle cx="358.941" cy="161.831" r="6.70916" fill="#458BB3"/>
<circle cx="358.941" cy="161.831" r="3.35458" fill="white"/>
<path d="M392.486 344.702L381.837 352.607L381.837 336.798L392.486 344.702Z" fill="#A16CAC"/>
<rect x="375.245" y="347.745" width="6.08506" height="8.11341" transform="rotate(-90 375.245 347.745)" fill="#A16CAC"/>
<path d="M348.877 344.702L359.526 352.607L359.526 336.798L348.877 344.702Z" fill="#A16CAC"/>
<rect width="6.08506" height="8.11341" transform="matrix(4.37114e-08 -1 -1 -4.37114e-08 366.118 347.745)" fill="#A16CAC"/>
<circle cx="370.682" cy="344.196" r="3.54962" fill="#A16CAC"/>
<circle cx="169.927" cy="353.62" r="4.51133" fill="#45B364"/>
<circle cx="178.949" cy="337.079" r="4.51133" fill="#45B364"/>
<circle cx="141.355" cy="346.101" r="3.75945" fill="white" stroke="#45B364" stroke-width="1.50378"/>
<circle cx="187.972" cy="353.62" r="4.51133" fill="#45B364"/>
<rect x="157.896" y="332.567" width="28.5718" height="3.00756" rx="1.50378" transform="rotate(90 157.896 332.567)" fill="#45B364"/>
</svg>
