<svg width="38" height="45" viewBox="0 0 38 45" fill="none" xmlns="http://www.w3.org/2000/svg">
<path d="M18.3448 9.63942C16.1887 7.54066 14.713 3.87568 13.9806 0.541016C13.2471 3.87636 11.7729 7.54211 9.61601 9.64087C7.45991 11.7382 3.6923 13.1742 0.265991 13.8883C3.6937 14.6009 7.46061 16.0361 9.61671 18.1349C11.7728 20.2329 13.2486 23.8986 13.9821 27.2333C14.7144 23.898 16.1898 20.2322 18.3455 18.1335C20.5016 16.0355 24.2692 14.6001 27.6955 13.8861C24.2686 13.1734 20.5017 11.7375 18.3448 9.63942Z" fill="#FFE41C"/>
<path d="M32.3502 26.4448C31.0632 25.1919 30.1801 23.0012 29.7426 21.0093C29.3043 23.0012 28.4242 25.1918 27.1358 26.4455C25.8474 27.6978 23.5964 28.5564 21.5497 28.9829C23.5971 29.4093 25.8474 30.2664 27.1358 31.5201C28.4242 32.7731 29.3058 34.9637 29.7441 36.9557C30.1815 34.963 31.0632 32.7731 32.3508 31.5194C33.6385 30.2664 35.8898 29.4085 37.9362 28.9814C35.8899 28.5557 33.6386 27.6978 32.3502 26.4448Z" fill="#FFE41C"/>
<path d="M9.5105 30.7305C9.14252 32.4027 8.40359 34.2424 7.32213 35.2947C6.24085 36.3461 4.35101 37.0667 2.63269 37.4247C4.35101 37.7836 6.24085 38.5019 7.32213 39.5548C8.40359 40.607 9.14401 42.4452 9.51199 44.1183C9.87962 42.4452 10.6189 40.6071 11.7007 39.5541C12.7813 38.502 14.6715 37.7821 16.3894 37.4234C14.6716 37.0659 12.7813 36.3462 11.7 35.294C10.6189 34.2425 9.87813 32.4028 9.5105 30.7305Z" fill="#FFE41C"/>
</svg>
