<svg width="266" height="98" viewBox="0 0 266 98" fill="none" xmlns="http://www.w3.org/2000/svg">
    <path d="M95.9633 29.2588C95.9279 29.3384 95.8659 29.4004 95.7774 29.4446C95.6889 29.4889 95.5694 29.5066 95.4189 29.4977C94.9941 30.0553 94.5338 30.5864 94.0382 31.0909C93.5425 31.5954 93.0469 32.0247 92.5512 32.3787L92.4052 32.2725C92.5557 31.9539 92.715 31.5821 92.8831 31.1573C93.0513 30.7324 93.2195 30.2855 93.3876 29.8164C93.5558 29.3473 93.7063 28.8826 93.839 28.4223L95.9633 29.2588ZM86.0325 28.5817C86.7494 28.8118 87.3159 29.0817 87.7319 29.3915C88.1567 29.6925 88.4621 30.0022 88.6479 30.3209C88.8427 30.6307 88.94 30.9227 88.94 31.1971C88.9489 31.4715 88.8869 31.6972 88.7542 31.8742C88.6214 32.0512 88.4444 32.1486 88.2231 32.1663C88.0107 32.184 87.7761 32.0999 87.5194 31.914C87.4486 31.5423 87.3247 31.1617 87.1477 30.7723C86.9795 30.3828 86.7848 30.0067 86.5635 29.6438C86.3511 29.2809 86.1343 28.9534 85.913 28.6613L86.0325 28.5817ZM93.839 32.6443L94.6091 31.8078L96.1624 33.016C96.1182 33.0779 96.0429 33.1355 95.9367 33.1886C95.8394 33.2417 95.7199 33.2859 95.5783 33.3214V39.5613C95.5783 39.5967 95.503 39.6586 95.3526 39.7472C95.2109 39.8357 95.0383 39.9109 94.8348 39.9729C94.6312 40.0437 94.4321 40.0791 94.2373 40.0791H93.9851V32.6443H93.839ZM94.6356 38.685V39.0568H85.3156L85.1961 38.685H94.6356ZM94.7418 35.6182V35.9899H86.1918L86.0723 35.6182H94.7418ZM94.7551 32.6443V33.0293H85.528L85.4085 32.6443H94.7551ZM91.9936 27.8116C91.9848 27.909 91.9449 27.9886 91.8741 28.0506C91.8033 28.1126 91.6794 28.1568 91.5024 28.1834V32.8301H89.9225V27.639L91.9936 27.8116ZM105.841 27.7452L107.939 27.9444C107.93 28.0417 107.89 28.1258 107.819 28.1966C107.757 28.2586 107.638 28.3029 107.461 28.3294V39.4152H105.841V27.7452ZM102.469 39.1497H108.536L109.372 37.9814C109.372 37.9814 109.421 38.0256 109.519 38.1142C109.625 38.2027 109.758 38.3177 109.917 38.4593C110.076 38.5921 110.24 38.7337 110.408 38.8842C110.585 39.0347 110.744 39.1763 110.886 39.309C110.851 39.4506 110.727 39.5215 110.514 39.5215H102.575L102.469 39.1497ZM103.438 32.4053H108.31L109.134 31.2901C109.134 31.2901 109.182 31.3299 109.28 31.4095C109.377 31.4892 109.501 31.5998 109.651 31.7415C109.811 31.8742 109.974 32.0158 110.143 32.1663C110.311 32.3079 110.461 32.4451 110.594 32.5779C110.567 32.7195 110.443 32.7903 110.222 32.7903H103.544L103.438 32.4053ZM101.805 32.631V39.6011C101.805 39.6365 101.752 39.6896 101.646 39.7604C101.548 39.8401 101.402 39.9109 101.207 39.9729C101.022 40.0437 100.805 40.0791 100.557 40.0791H100.265V33.9188L101.805 32.631ZM100.291 27.732L102.216 27.8913C102.208 27.9798 102.168 28.0595 102.097 28.1303C102.035 28.1922 101.916 28.2365 101.739 28.263V30.5466H100.291V27.732ZM98.4194 30.3076H102.601V30.6793H98.5389L98.4194 30.3076ZM101.871 30.3076L102.721 29.4977L103.942 30.8121C103.845 30.9095 103.646 30.9758 103.345 31.0112C103.035 31.6308 102.624 32.2504 102.11 32.87C101.597 33.4807 101.008 34.0471 100.345 34.5693C99.6807 35.0827 98.9682 35.5164 98.207 35.8704L98.0875 35.7509C98.5389 35.3881 98.9638 34.9853 99.362 34.5428C99.7603 34.1002 100.128 33.64 100.464 33.162C100.8 32.6841 101.088 32.2017 101.327 31.7149C101.566 31.2281 101.747 30.759 101.871 30.3076ZM101.579 33.016C102.128 33.1134 102.562 33.2505 102.88 33.4276C103.208 33.6046 103.442 33.7993 103.584 34.0117C103.734 34.2153 103.81 34.41 103.81 34.5959C103.819 34.7818 103.77 34.9411 103.664 35.0738C103.557 35.1978 103.416 35.2686 103.239 35.2863C103.071 35.304 102.889 35.2509 102.694 35.1269C102.632 34.8968 102.531 34.6578 102.389 34.41C102.256 34.1622 102.106 33.9276 101.938 33.7064C101.778 33.4762 101.619 33.2727 101.46 33.0957L101.579 33.016ZM120.525 39.0568C120.118 39.0568 119.755 38.9815 119.436 38.8311C119.117 38.6718 118.839 38.4549 118.6 38.1805C118.361 37.8973 118.153 37.5742 117.976 37.2114L118.148 37.0653C118.378 37.2777 118.657 37.4636 118.985 37.6229C119.321 37.7822 119.715 37.8619 120.166 37.8619C120.733 37.8619 121.189 37.6937 121.534 37.3574C121.879 37.0122 122.051 36.5608 122.051 36.0032C122.051 35.7023 121.985 35.4235 121.852 35.1668C121.728 34.9012 121.525 34.6888 121.242 34.5295C120.967 34.3613 120.596 34.2773 120.126 34.2773C119.746 34.2773 119.352 34.3481 118.945 34.4897C118.547 34.6224 118.148 34.7995 117.75 35.0207C117.352 35.2332 116.967 35.4589 116.595 35.6978C116.347 35.866 116.082 36.074 115.798 36.3218C115.524 36.5608 115.258 36.8042 115.002 37.052C114.745 37.2999 114.524 37.5256 114.338 37.7291C114.117 37.9504 113.948 38.1363 113.833 38.2867C113.727 38.4284 113.608 38.4992 113.475 38.4992C113.36 38.4992 113.254 38.4726 113.156 38.4195C113.059 38.3664 112.966 38.2956 112.877 38.2071C112.754 38.0743 112.661 37.9327 112.599 37.7822C112.546 37.6318 112.519 37.4769 112.519 37.3176C112.519 37.0609 112.554 36.8927 112.625 36.8131C112.696 36.7334 112.829 36.6936 113.024 36.6936C113.183 36.7024 113.32 36.6936 113.435 36.667C113.55 36.6316 113.678 36.5785 113.82 36.5077C113.971 36.428 114.187 36.2909 114.471 36.0961C114.754 35.8926 115.068 35.6757 115.413 35.4456C115.767 35.2066 116.117 35.003 116.462 34.8349C117.082 34.5162 117.715 34.2463 118.361 34.025C119.007 33.8037 119.71 33.6931 120.472 33.6931C121.056 33.6931 121.574 33.7993 122.025 34.0117C122.476 34.2153 122.826 34.5207 123.074 34.9278C123.33 35.3261 123.459 35.8173 123.459 36.4015C123.459 36.8617 123.339 37.2954 123.1 37.7026C122.87 38.1097 122.534 38.4372 122.091 38.685C121.658 38.9329 121.135 39.0568 120.525 39.0568ZM116.329 39.7737C116.179 39.7737 116.064 39.7206 115.984 39.6144C115.905 39.517 115.829 39.3931 115.758 39.2426C115.697 39.101 115.595 38.9594 115.453 38.8178C115.311 38.6762 115.157 38.539 114.988 38.4062C114.82 38.2646 114.652 38.1319 114.484 38.0079C114.316 37.8752 114.156 37.7557 114.006 37.6495L114.205 37.3839C114.391 37.4548 114.577 37.53 114.763 37.6096C114.957 37.6893 115.139 37.7601 115.307 37.8221C115.484 37.884 115.635 37.9327 115.758 37.9681C115.9 38.0035 115.997 37.9991 116.051 37.9548C116.104 37.9017 116.13 37.8176 116.13 37.7026C116.13 37.2954 116.13 36.7644 116.13 36.1094C116.13 35.4544 116.13 34.7375 116.13 33.9586C116.13 33.6665 116.13 33.3214 116.13 32.9231C116.139 32.5159 116.143 32.0999 116.143 31.6751C116.143 31.2502 116.143 30.8652 116.143 30.52C116.143 30.166 116.139 29.9049 116.13 29.7367C116.13 29.542 116.104 29.4136 116.051 29.3517C116.006 29.2897 115.927 29.2366 115.812 29.1924C115.697 29.1393 115.559 29.1039 115.4 29.0862C115.241 29.0596 115.064 29.0375 114.869 29.0198L114.829 28.8339C115.015 28.6834 115.201 28.5728 115.387 28.502C115.581 28.4223 115.803 28.3825 116.051 28.3825C116.29 28.3825 116.537 28.4312 116.794 28.5286C117.06 28.6171 117.285 28.7277 117.471 28.8605C117.657 28.9932 117.75 29.1216 117.75 29.2455C117.75 29.4314 117.71 29.5951 117.63 29.7367C117.56 29.8783 117.502 30.0553 117.458 30.2678C117.422 30.4536 117.383 30.697 117.338 30.998C117.294 31.2901 117.254 31.6175 117.219 31.9804C117.183 32.3345 117.157 32.6974 117.139 33.0691C117.122 33.4408 117.113 33.786 117.113 34.1047C117.113 34.8658 117.126 35.4854 117.152 35.9634C117.179 36.4325 117.21 36.8086 117.245 37.0919C117.281 37.3751 117.312 37.6008 117.338 37.769C117.365 37.9371 117.378 38.1009 117.378 38.2602C117.378 38.4815 117.33 38.7072 117.232 38.9373C117.135 39.1763 117.002 39.3754 116.834 39.5347C116.675 39.694 116.506 39.7737 116.329 39.7737ZM114.736 33.0691C114.471 33.0691 114.218 33.0248 113.979 32.9363C113.74 32.839 113.524 32.662 113.329 32.4053C113.143 32.1486 112.984 31.7901 112.851 31.3299L113.037 31.1971C113.249 31.3918 113.431 31.5423 113.581 31.6485C113.74 31.7547 113.895 31.8255 114.046 31.8609C114.205 31.8963 114.387 31.914 114.59 31.914C114.803 31.9052 115.042 31.8742 115.307 31.8211C115.581 31.768 115.856 31.7016 116.13 31.622C116.405 31.5335 116.652 31.4538 116.874 31.383C117.219 31.2591 117.498 31.1396 117.71 31.0245C117.923 30.9006 118.091 30.7988 118.215 30.7192C118.339 30.6395 118.431 30.5997 118.493 30.5997C118.538 30.5997 118.617 30.6041 118.732 30.613C118.847 30.613 118.971 30.6351 119.104 30.6793C119.237 30.7147 119.352 30.7723 119.449 30.8519C119.547 30.9316 119.6 31.0511 119.609 31.2104C119.617 31.4671 119.445 31.6883 119.091 31.8742C118.923 31.9627 118.719 32.0512 118.48 32.1397C118.241 32.2283 117.989 32.3168 117.723 32.4053C117.467 32.4849 117.219 32.5646 116.98 32.6443C116.856 32.6797 116.657 32.7328 116.382 32.8036C116.108 32.8655 115.82 32.9275 115.519 32.9894C115.227 33.0425 114.966 33.0691 114.736 33.0691ZM123.711 32.8965C123.605 32.9054 123.499 32.8744 123.392 32.8036C123.286 32.7328 123.18 32.662 123.074 32.5911C122.968 32.5115 122.853 32.4805 122.729 32.4982C122.578 32.5071 122.383 32.5513 122.144 32.631C121.914 32.7018 121.724 32.7593 121.574 32.8036L121.467 32.631C121.556 32.5779 121.666 32.5026 121.799 32.4053C121.932 32.3079 122.06 32.2106 122.184 32.1132C122.317 32.0158 122.41 31.9406 122.463 31.8875C122.552 31.799 122.605 31.7149 122.622 31.6352C122.64 31.5556 122.614 31.4626 122.543 31.3564C122.401 31.1352 122.206 30.9581 121.959 30.8254C121.711 30.6926 121.436 30.5997 121.135 30.5466C120.843 30.4935 120.56 30.4758 120.286 30.4935L120.246 30.2412C120.52 30.1527 120.817 30.0819 121.135 30.0288C121.463 29.9668 121.799 29.9624 122.144 30.0155C122.578 30.0686 122.963 30.2014 123.299 30.4138C123.645 30.6262 123.915 30.8785 124.109 31.1706C124.304 31.4626 124.401 31.7724 124.401 32.0999C124.401 32.3123 124.344 32.4982 124.229 32.6575C124.123 32.808 123.95 32.8877 123.711 32.8965ZM125.941 28.8472H131.385L132.208 27.7851C132.208 27.7851 132.257 27.8249 132.354 27.9046C132.451 27.9842 132.575 28.0904 132.726 28.2232C132.885 28.3471 133.049 28.4799 133.217 28.6215C133.394 28.7631 133.553 28.8959 133.695 29.0198C133.66 29.1614 133.54 29.2322 133.336 29.2322H126.048L125.941 28.8472ZM127.163 28.8472H128.623V37.0919L127.163 37.4105V28.8472ZM130.389 28.8472H131.876V39.4285C131.876 39.4728 131.827 39.5436 131.73 39.6409C131.642 39.7383 131.504 39.8268 131.318 39.9065C131.141 39.995 130.92 40.0392 130.655 40.0392H130.389V28.8472ZM127.867 31.3564H130.973V31.7415H127.867V31.3564ZM127.867 33.879H130.973V34.264H127.867V33.879ZM132.035 30.0952H137.041V30.4802H132.155L132.035 30.0952ZM136.151 30.0952H135.992L136.815 29.2189L138.275 30.52C138.231 30.5908 138.169 30.6439 138.089 30.6793C138.019 30.7059 137.899 30.7324 137.731 30.759C137.581 31.6264 137.368 32.4894 137.094 33.3479C136.819 34.1976 136.461 35.0207 136.018 35.8173C135.585 36.6051 135.031 37.3441 134.359 38.0345C133.695 38.716 132.89 39.3179 131.942 39.8401L131.796 39.7073C132.46 39.1143 133.04 38.4505 133.536 37.7159C134.031 36.9812 134.452 36.1935 134.797 35.3526C135.151 34.5118 135.439 33.6488 135.66 32.7637C135.881 31.8698 136.045 30.9803 136.151 30.0952ZM125.835 36.8794C126.127 36.844 126.539 36.7865 127.07 36.7068C127.601 36.6272 128.207 36.5298 128.889 36.4148C129.57 36.2997 130.265 36.1846 130.973 36.0696L130.987 36.2289C130.571 36.4767 130.035 36.7777 129.38 37.1317C128.725 37.4857 127.929 37.884 126.99 38.3266C126.92 38.5213 126.8 38.6319 126.632 38.6585L125.835 36.8794ZM133.19 30.1217C133.385 31.5733 133.717 32.839 134.186 33.9188C134.664 34.9986 135.266 35.9191 135.992 36.6803C136.726 37.4415 137.576 38.061 138.541 38.539L138.501 38.6983C138.174 38.778 137.899 38.9284 137.678 39.1497C137.457 39.371 137.315 39.6365 137.253 39.9463C136.377 39.3179 135.638 38.5434 135.036 37.6229C134.443 36.7024 133.974 35.627 133.629 34.3967C133.292 33.1576 133.058 31.7592 132.925 30.2014L133.19 30.1217ZM149.255 27.732L151.353 27.9444C151.335 28.0506 151.291 28.1391 151.22 28.2099C151.149 28.2807 151.012 28.3294 150.808 28.356V39.5082C150.808 39.5613 150.742 39.6321 150.609 39.7206C150.485 39.8091 150.326 39.8843 150.131 39.9463C149.945 40.0171 149.751 40.0525 149.547 40.0525H149.255V27.732ZM140.24 28.4887H145.697V28.8605H140.36L140.24 28.4887ZM141.063 34.2773H145.484V34.6623H141.063V34.2773ZM141.488 31.4759H145.338V31.8609H141.488V31.4759ZM144.595 28.4887H144.462L145.166 27.7054L146.666 28.8339C146.631 28.887 146.564 28.9401 146.467 28.9932C146.37 29.0463 146.25 29.0862 146.108 29.1127V32.2327C146.108 32.2592 146.033 32.3035 145.883 32.3654C145.741 32.4186 145.573 32.4717 145.378 32.5248C145.192 32.569 145.015 32.5911 144.847 32.5911H144.595V28.4887ZM142.391 31.4759C142.364 31.6883 142.329 31.9539 142.285 32.2725C142.241 32.5911 142.187 32.9408 142.125 33.3214C142.064 33.6931 141.997 34.0604 141.926 34.4233C141.864 34.7773 141.807 35.1004 141.754 35.3925C141.568 35.4898 141.36 35.5474 141.13 35.5651C140.9 35.5828 140.581 35.5474 140.174 35.4589C140.289 34.9632 140.4 34.4321 140.506 33.8657C140.612 33.2904 140.705 32.7372 140.785 32.2061C140.873 31.6662 140.944 31.206 140.997 30.8254L142.657 31.4759H142.391ZM144.807 34.2773H144.661L145.458 33.5205L146.839 34.6888C146.741 34.8039 146.555 34.8791 146.281 34.9145C146.201 35.7111 146.091 36.428 145.949 37.0653C145.816 37.6937 145.653 38.2248 145.458 38.6585C145.263 39.0833 145.033 39.3887 144.768 39.5746C144.537 39.7427 144.272 39.8666 143.971 39.9463C143.67 40.0348 143.294 40.0746 142.842 40.0658C142.842 39.8622 142.82 39.6719 142.776 39.4949C142.732 39.3179 142.639 39.1763 142.497 39.0701C142.356 38.9373 142.13 38.8222 141.82 38.7249C141.519 38.6187 141.196 38.539 140.851 38.4859L140.864 38.3133C141.13 38.331 141.422 38.3531 141.74 38.3797C142.068 38.4062 142.369 38.4284 142.643 38.4461C142.918 38.4549 143.112 38.4593 143.227 38.4593C143.466 38.4593 143.648 38.4151 143.772 38.3266C143.922 38.2115 144.064 37.9681 144.197 37.5964C144.329 37.2158 144.449 36.7423 144.555 36.1758C144.661 35.6005 144.745 34.9676 144.807 34.2773ZM153.623 39.2028H163.222L164.164 37.9548C164.164 37.9548 164.222 37.9991 164.337 38.0876C164.452 38.1761 164.598 38.2956 164.775 38.4461C164.952 38.5877 165.138 38.7381 165.333 38.8975C165.527 39.0656 165.704 39.2205 165.864 39.3621C165.828 39.5038 165.704 39.5746 165.492 39.5746H153.742L153.623 39.2028ZM159.04 31.1706L161.151 31.3564C161.142 31.4449 161.102 31.5246 161.031 31.5954C160.96 31.6574 160.836 31.706 160.659 31.7415V39.3356H159.04V31.1706ZM155.654 33.6533L157.672 33.8259C157.663 33.9232 157.624 34.0029 157.553 34.0648C157.482 34.1268 157.362 34.171 157.194 34.1976V39.3489H155.654V33.6533ZM160.035 34.8083H161.828L162.757 33.5869C162.757 33.5869 162.81 33.6311 162.916 33.7196C163.031 33.8082 163.178 33.9232 163.355 34.0648C163.532 34.2064 163.713 34.3569 163.899 34.5162C164.094 34.6755 164.266 34.826 164.417 34.9676C164.381 35.1092 164.257 35.1801 164.045 35.1801H160.035V34.8083ZM160.274 28.6348C159.947 29.157 159.531 29.6792 159.026 30.2014C158.522 30.7147 157.964 31.2148 157.354 31.7016C156.743 32.1796 156.106 32.6177 155.442 33.016C154.778 33.4143 154.119 33.7506 153.464 34.025L153.384 33.879C153.826 33.5692 154.273 33.2196 154.725 32.8301C155.185 32.4318 155.628 32.007 156.052 31.5556C156.477 31.1042 156.867 30.6439 157.221 30.1748C157.584 29.7057 157.893 29.2455 158.15 28.7941C158.407 28.3427 158.593 27.9223 158.708 27.5328L161.151 28.1701C161.124 28.2586 161.062 28.325 160.965 28.3692C160.867 28.4135 160.708 28.4489 160.487 28.4754C160.797 28.8826 161.168 29.2588 161.602 29.6039C162.045 29.9491 162.523 30.2589 163.036 30.5333C163.549 30.8077 164.076 31.0555 164.616 31.2768C165.156 31.4892 165.678 31.6751 166.182 31.8344L166.156 32.0335C165.926 32.0955 165.718 32.2106 165.532 32.3787C165.355 32.538 165.209 32.7239 165.094 32.9363C164.979 33.1488 164.903 33.3612 164.868 33.5736C164.213 33.2107 163.585 32.7859 162.983 32.2991C162.39 31.8034 161.859 31.2502 161.39 30.6395C160.921 30.0199 160.549 29.3517 160.274 28.6348ZM167.51 30.2545H177.441L178.237 29.3251C178.237 29.3251 178.322 29.3827 178.49 29.4977C178.658 29.6128 178.853 29.7588 179.074 29.9359C179.304 30.104 179.516 30.2678 179.711 30.4271C179.676 30.5598 179.547 30.6262 179.326 30.6262H167.63L167.51 30.2545ZM167.616 35.7377H177.228L178.052 34.7287C178.052 34.7287 178.1 34.7685 178.198 34.8481C178.304 34.919 178.437 35.0163 178.596 35.1402C178.755 35.2553 178.919 35.3836 179.087 35.5252C179.255 35.658 179.415 35.7863 179.565 35.9103C179.547 35.9811 179.503 36.0342 179.432 36.0696C179.37 36.105 179.291 36.1227 179.193 36.1227H167.722L167.616 35.7377ZM168.24 32.5115H176.764L177.574 31.5423C177.574 31.5423 177.658 31.6043 177.826 31.7282C177.994 31.8521 178.189 32.0026 178.41 32.1796C178.64 32.3477 178.848 32.5115 179.034 32.6708C179.007 32.8124 178.888 32.8832 178.676 32.8832H168.346L168.24 32.5115ZM168.904 34.0781H176.326L177.082 33.162C177.082 33.162 177.162 33.2196 177.321 33.3346C177.481 33.4497 177.671 33.5913 177.892 33.7595C178.114 33.9276 178.313 34.087 178.49 34.2374C178.454 34.379 178.335 34.4498 178.131 34.4498H169.01L168.904 34.0781ZM169.024 27.9975C169.572 28.086 170.002 28.2232 170.311 28.4091C170.63 28.5861 170.847 28.7808 170.962 28.9932C171.086 29.2057 171.135 29.4092 171.108 29.6039C171.081 29.7898 171.002 29.9491 170.869 30.0819C170.745 30.2058 170.586 30.2722 170.391 30.281C170.205 30.281 170.006 30.2014 169.794 30.0421C169.794 29.8031 169.749 29.5641 169.661 29.3251C169.572 29.0862 169.462 28.856 169.329 28.6348C169.196 28.4135 169.055 28.2276 168.904 28.0772L169.024 27.9975ZM170.723 30.4536C171.254 30.5421 171.666 30.6749 171.958 30.8519C172.25 31.029 172.449 31.2192 172.555 31.4228C172.661 31.6175 172.697 31.8078 172.661 31.9937C172.626 32.1707 172.537 32.3168 172.396 32.4318C172.263 32.5469 172.099 32.6044 171.905 32.6044C171.719 32.5956 171.524 32.5071 171.32 32.3389C171.312 32.1265 171.272 31.9096 171.201 31.6883C171.13 31.4671 171.042 31.2547 170.935 31.0511C170.838 30.8475 170.727 30.6705 170.603 30.52L170.723 30.4536ZM176.658 27.9046L178.53 28.4887C178.503 28.5684 178.445 28.6303 178.357 28.6746C178.277 28.71 178.162 28.7233 178.012 28.7144C177.764 28.9711 177.45 29.2543 177.069 29.5641C176.697 29.865 176.317 30.135 175.927 30.374H175.728C175.843 30.1439 175.958 29.8872 176.073 29.6039C176.188 29.3119 176.295 29.0198 176.392 28.7277C176.498 28.4268 176.587 28.1524 176.658 27.9046ZM175.051 30.4271L176.963 30.9449C176.91 31.1219 176.742 31.2015 176.458 31.1838C176.219 31.4317 175.91 31.6972 175.529 31.9804C175.157 32.2548 174.79 32.4982 174.427 32.7106H174.228C174.387 32.392 174.542 32.0158 174.693 31.5821C174.843 31.1484 174.963 30.7634 175.051 30.4271ZM171.745 27.6258L173.524 27.7718C173.515 27.8603 173.48 27.9355 173.418 27.9975C173.356 28.0506 173.254 28.086 173.113 28.1037V30.374H171.745V27.6258ZM174.029 27.6258L175.821 27.7718C175.812 27.8603 175.777 27.9355 175.715 27.9975C175.662 28.0506 175.56 28.0904 175.41 28.117V30.374H174.029V27.6258ZM171.931 35.7509H173.79V35.9634C173.161 36.8131 172.303 37.5565 171.214 38.1938C170.126 38.8222 168.909 39.3267 167.563 39.7073L167.47 39.5347C168.108 39.2249 168.705 38.8665 169.263 38.4593C169.829 38.0522 170.338 37.6141 170.789 37.145C171.25 36.6759 171.63 36.2112 171.931 35.7509ZM174.427 35.7509C174.701 36.0607 175.042 36.3528 175.449 36.6272C175.865 36.9016 176.317 37.1538 176.804 37.3839C177.29 37.6052 177.79 37.7955 178.304 37.9548C178.826 38.1053 179.335 38.2292 179.831 38.3266L179.817 38.4726C179.543 38.5346 179.304 38.6762 179.1 38.8975C178.906 39.1187 178.768 39.402 178.689 39.7472C178.043 39.4905 177.441 39.1763 176.883 38.8045C176.334 38.4239 175.839 37.9858 175.396 37.4902C174.954 36.9945 174.578 36.4457 174.268 35.8439L174.427 35.7509ZM172.741 32.6974H174.294V39.7206C174.294 39.7649 174.184 39.8357 173.962 39.933C173.741 40.0392 173.427 40.0923 173.02 40.0923H172.741V32.6974Z" fill="#333333"/>
    <g clip-path="url(#clip0_2208_3950)">
    <path d="M32.315 91.3019C32.315 91.3019 28.5578 89.2042 27.031 84.7964C25.5042 80.3886 27.3762 74.8125 27.3762 74.8125C27.3762 74.8125 30.8281 79.6982 31.9964 83.1236C33.1647 86.5489 32.315 91.3019 32.315 91.3019Z" fill="url(#paint0_linear_2208_3950)"/>
    <path d="M33.5762 95.3514C33.5762 95.3514 30.2836 91.5543 24.1234 90.3063C17.9631 89.0583 14.4448 90.6781 14.4448 90.6781C14.4448 90.6781 18.9986 95.5638 22.8886 96.9047C26.7786 98.2324 33.5629 95.3647 33.5629 95.3647L33.5762 95.3514Z" fill="url(#paint1_linear_2208_3950)"/>
    <path d="M22.5171 81.1458C22.5171 81.1458 18.9723 77.2823 18.5209 72.7816C18.0827 68.2809 20.6584 65.6787 20.6584 65.6787C20.6584 65.6787 23.0216 69.9006 23.473 72.7816C23.9244 75.6626 22.5171 81.1458 22.5171 81.1458Z" fill="url(#paint2_linear_2208_3950)"/>
    <path d="M22.7559 84.3849C22.7559 84.3849 19.0385 79.4328 12.6525 77.9325C7.87299 76.804 5.29736 77.1625 5.29736 77.1625C5.29736 77.1625 9.26702 83.6016 13.2898 85.3142C17.3126 87.0269 22.7559 84.3849 22.7559 84.3849Z" fill="url(#paint3_linear_2208_3950)"/>
    <path d="M14.6437 69.8609C14.6437 69.8609 12.5593 65.108 13.5152 60.7267C14.4711 56.3455 17.6177 54.6992 17.6177 54.6992C17.6177 54.6992 18.5072 59.4256 18.0558 62.2668C17.6044 65.108 14.6437 69.8476 14.6437 69.8476V69.8609Z" fill="url(#paint4_linear_2208_3950)"/>
    <path d="M14.0198 72.9545C14.0198 72.9545 12.0283 67.3651 6.65134 63.9132C2.6684 61.3508 0.0927734 60.9658 0.0927734 60.9658C0.0927734 60.9658 1.79216 68.1351 4.99178 70.9364C8.19141 73.7378 14.0198 72.9677 14.0198 72.9677V72.9545Z" fill="url(#paint5_linear_2208_3950)"/>
    <path d="M11.1918 56.9829C11.1918 56.9829 10.1562 52.2831 11.8025 48.5126C13.4488 44.7421 16.6086 43.8525 16.6086 43.8525C16.6086 43.8525 16.5688 48.2869 15.6394 50.7828C14.7101 53.2788 11.1918 56.9829 11.1918 56.9829Z" fill="url(#paint6_linear_2208_3950)"/>
    <path d="M9.55889 59.0132C9.55889 59.0132 8.89507 53.8354 4.95196 49.9852C1.67268 46.7988 -0.0134277 46.3076 -0.0134277 46.3076C-0.0134277 46.3076 0.198995 52.7201 2.37633 55.6941C4.56695 58.6547 9.54562 59.0265 9.54562 59.0265L9.55889 59.0132Z" fill="url(#paint7_linear_2208_3950)"/>
    <path d="M10.1162 44.4884C10.1162 44.4884 10.2755 40.0142 12.6387 37.0138C15.0019 34.0133 18.0555 34 18.0555 34C18.0555 34 16.9801 37.9829 15.5728 39.9877C14.1523 41.9924 10.1162 44.4751 10.1162 44.4751V44.4884Z" fill="url(#paint8_linear_2208_3950)"/>
    <path d="M8.62947 46.1618C8.62947 46.1618 9.41278 41.223 6.5849 36.9081C4.24824 33.35 2.9737 32.3809 2.9737 32.3809C2.9737 32.3809 1.65933 38.2092 2.94715 41.4088C4.23497 44.6085 8.64275 46.1618 8.64275 46.1618H8.62947Z" fill="url(#paint9_linear_2208_3950)"/>
    <path d="M11.8823 32.9392C11.8823 32.9392 13.0772 29.3944 15.6927 27.6021C18.3081 25.8098 20.7643 26.5533 20.7643 26.5533C20.7643 26.5533 18.9587 29.4741 17.3389 30.7221C15.7192 31.97 11.8823 32.9392 11.8823 32.9392Z" fill="url(#paint10_linear_2208_3950)"/>
    <path d="M9.79804 33.5896C9.79804 33.5896 11.6833 29.8058 10.3689 25.6636C9.29354 22.3179 8.55005 21.123 8.55005 21.123C8.55005 21.123 6.10719 25.4512 6.37272 28.3322C6.63825 31.2132 9.79804 33.5764 9.79804 33.5764V33.5896Z" fill="url(#paint11_linear_2208_3950)"/>
    <path d="M15.6794 24.3622C15.6794 24.3622 16.9673 22.1849 18.9587 21.375C20.9502 20.5651 22.4903 21.4281 22.4903 21.4281C22.4903 21.4281 20.8838 23.1009 19.6358 23.6984C18.3878 24.2958 15.6927 24.3755 15.6927 24.3755L15.6794 24.3622Z" fill="url(#paint12_linear_2208_3950)"/>
    <path d="M13.9136 24.9737C13.9136 24.9737 15.6528 22.7433 15.374 19.7959C15.1749 17.6982 14.7766 16.5166 14.7766 16.5166C14.7766 16.5166 12.5594 19.0391 12.3337 20.9908C12.108 22.9424 13.9136 24.9737 13.9136 24.9737Z" fill="url(#paint13_linear_2208_3950)"/>
    <path d="M17.9366 19.0787C17.9366 19.0787 16.9541 16.7951 18.4145 14.5647C19.8749 12.3342 22.7825 11.9492 22.7825 11.9492C22.7825 11.9492 22.5302 14.4717 21.3752 16.118C20.2201 17.7643 17.9366 19.0787 17.9366 19.0787Z" fill="url(#paint14_linear_2208_3950)"/>
    </g>
    <g clip-path="url(#clip1_2208_3950)">
    <path d="M233.599 91.3019C233.599 91.3019 237.356 89.2042 238.883 84.7964C240.41 80.3886 238.538 74.8125 238.538 74.8125C238.538 74.8125 235.086 79.6982 233.918 83.1236C232.749 86.5489 233.599 91.3019 233.599 91.3019Z" fill="url(#paint15_linear_2208_3950)"/>
    <path d="M232.338 95.3514C232.338 95.3514 235.63 91.5543 241.791 90.3063C247.951 89.0583 251.469 90.6781 251.469 90.6781C251.469 90.6781 246.915 95.5638 243.025 96.9047C239.135 98.2324 232.351 95.3647 232.351 95.3647L232.338 95.3514Z" fill="url(#paint16_linear_2208_3950)"/>
    <path d="M243.397 81.1458C243.397 81.1458 246.942 77.2823 247.393 72.7816C247.831 68.2809 245.256 65.6787 245.256 65.6787C245.256 65.6787 242.892 69.9006 242.441 72.7816C241.99 75.6626 243.397 81.1458 243.397 81.1458Z" fill="url(#paint17_linear_2208_3950)"/>
    <path d="M243.158 84.3849C243.158 84.3849 246.876 79.4328 253.262 77.9325C258.041 76.804 260.617 77.1625 260.617 77.1625C260.617 77.1625 256.647 83.6016 252.624 85.3142C248.602 87.0269 243.158 84.3849 243.158 84.3849Z" fill="url(#paint18_linear_2208_3950)"/>
    <path d="M251.27 69.8609C251.27 69.8609 253.354 65.108 252.399 60.7267C251.443 56.3455 248.296 54.6992 248.296 54.6992C248.296 54.6992 247.407 59.4256 247.858 62.2668C248.309 65.108 251.27 69.8476 251.27 69.8476V69.8609Z" fill="url(#paint19_linear_2208_3950)"/>
    <path d="M251.894 72.9545C251.894 72.9545 253.886 67.3651 259.262 63.9132C263.245 61.3508 265.821 60.9658 265.821 60.9658C265.821 60.9658 264.122 68.1351 260.922 70.9364C257.722 73.7378 251.894 72.9677 251.894 72.9677V72.9545Z" fill="url(#paint20_linear_2208_3950)"/>
    <path d="M254.722 56.9829C254.722 56.9829 255.758 52.2831 254.111 48.5126C252.465 44.7421 249.305 43.8525 249.305 43.8525C249.305 43.8525 249.345 48.2869 250.274 50.7828C251.204 53.2788 254.722 56.9829 254.722 56.9829Z" fill="url(#paint21_linear_2208_3950)"/>
    <path d="M256.355 59.0132C256.355 59.0132 257.019 53.8354 260.962 49.9852C264.241 46.7988 265.927 46.3076 265.927 46.3076C265.927 46.3076 265.715 52.7201 263.537 55.6941C261.347 58.6547 256.368 59.0265 256.368 59.0265L256.355 59.0132Z" fill="url(#paint22_linear_2208_3950)"/>
    <path d="M255.797 44.4884C255.797 44.4884 255.638 40.0142 253.275 37.0138C250.912 34.0133 247.858 34 247.858 34C247.858 34 248.933 37.9829 250.341 39.9877C251.761 41.9924 255.797 44.4751 255.797 44.4751V44.4884Z" fill="url(#paint23_linear_2208_3950)"/>
    <path d="M257.284 46.1618C257.284 46.1618 256.501 41.223 259.329 36.9081C261.666 33.35 262.94 32.3809 262.94 32.3809C262.94 32.3809 264.254 38.2092 262.967 41.4088C261.679 44.6085 257.271 46.1618 257.271 46.1618H257.284Z" fill="url(#paint24_linear_2208_3950)"/>
    <path d="M254.032 32.9392C254.032 32.9392 252.837 29.3944 250.221 27.6021C247.606 25.8098 245.15 26.5533 245.15 26.5533C245.15 26.5533 246.955 29.4741 248.575 30.7221C250.195 31.97 254.032 32.9392 254.032 32.9392Z" fill="url(#paint25_linear_2208_3950)"/>
    <path d="M256.116 33.5896C256.116 33.5896 254.231 29.8058 255.545 25.6636C256.621 22.3179 257.364 21.123 257.364 21.123C257.364 21.123 259.807 25.4512 259.541 28.3322C259.276 31.2132 256.116 33.5764 256.116 33.5764V33.5896Z" fill="url(#paint26_linear_2208_3950)"/>
    <path d="M250.235 24.3622C250.235 24.3622 248.947 22.1849 246.955 21.375C244.964 20.5651 243.424 21.4281 243.424 21.4281C243.424 21.4281 245.03 23.1009 246.278 23.6984C247.526 24.2958 250.221 24.3755 250.221 24.3755L250.235 24.3622Z" fill="url(#paint27_linear_2208_3950)"/>
    <path d="M252 24.9737C252 24.9737 250.261 22.7433 250.54 19.7959C250.739 17.6982 251.137 16.5166 251.137 16.5166C251.137 16.5166 253.355 19.0391 253.58 20.9908C253.806 22.9424 252 24.9737 252 24.9737Z" fill="url(#paint28_linear_2208_3950)"/>
    <path d="M247.977 19.0787C247.977 19.0787 248.96 16.7951 247.5 14.5647C246.039 12.3342 243.132 11.9492 243.132 11.9492C243.132 11.9492 243.384 14.4717 244.539 16.118C245.694 17.7643 247.977 19.0787 247.977 19.0787Z" fill="url(#paint29_linear_2208_3950)"/>
    </g>
    <path d="M46.7762 84.4465C43.6782 84.4465 41.3663 83.8166 39.8405 82.5568C38.3444 81.297 37.6602 79.5099 37.788 77.1954C38.1096 76.5802 38.5208 76.1261 39.0215 75.8331C39.552 75.5401 40.0853 75.3937 40.6215 75.3937C41.396 75.3937 41.9636 75.628 42.3242 76.0968C42.7146 76.5655 42.8983 77.4298 42.8751 78.6896L43.0258 83.216L41.1762 81.8537C41.7967 82.2052 42.4008 82.4836 42.9887 82.6886C43.6063 82.8937 44.3322 82.9963 45.1662 82.9963C47.5195 82.9963 49.4551 82.3517 50.9731 81.0627C52.4964 79.7443 53.4817 77.8693 53.9289 75.4376C54.3976 72.8888 54.1276 70.9552 53.1189 69.6368C52.1454 68.2891 50.4374 67.6153 47.9947 67.6153H46.1627L46.4698 65.9453H48.0784C50.104 65.9453 51.8704 65.3301 53.3776 64.0996C54.8848 62.8692 55.87 60.9941 56.3334 58.4746C56.7266 56.3359 56.5193 54.7099 55.7112 53.5966C54.9329 52.4833 53.6501 51.9267 51.8628 51.9267C51.2075 51.9267 50.4913 52.0146 49.7142 52.1904C48.9724 52.3368 48.1345 52.6005 47.2006 52.9814L49.9129 51.8388L48.1379 56.1455C47.7462 57.1416 47.2473 57.8301 46.641 58.2109C46.0348 58.5918 45.3742 58.7822 44.6593 58.7822C44.1827 58.7822 43.7696 58.6797 43.4201 58.4746C43.076 58.2402 42.8373 57.9179 42.7042 57.5078C43.1251 55.8671 43.8915 54.5341 45.0035 53.5087C46.1209 52.454 47.4376 51.6923 48.9537 51.2236C50.5049 50.7255 52.1295 50.4765 53.8274 50.4765C57.1339 50.4765 59.4717 51.2089 60.8407 52.6738C62.2448 54.1093 62.7368 55.9697 62.3165 58.2549C62.0472 59.7197 61.427 61.0674 60.456 62.2979C59.5148 63.5283 58.1943 64.5537 56.4944 65.3741C54.7946 66.1944 52.6422 66.7217 50.0373 66.9561L50.1504 66.3409C52.9534 66.4873 55.1311 66.9561 56.6836 67.7471C58.2658 68.5381 59.323 69.5928 59.855 70.9112C60.3871 72.2296 60.4969 73.7384 60.1844 75.4376C59.8558 77.2247 59.0733 78.8068 57.8371 80.1837C56.636 81.5314 55.0867 82.5861 53.1891 83.3478C51.2969 84.0803 49.1593 84.4465 46.7762 84.4465ZM75.1842 84.4465C73.2182 84.4465 71.479 83.8605 69.9668 82.6886C68.4844 81.5168 67.4386 79.671 66.8296 77.1515C66.2205 74.6319 66.2824 71.38 67.0151 67.3956C67.7424 63.4404 68.8712 60.2178 70.4016 57.7275C71.9319 55.2373 73.6538 53.4062 75.5672 52.2343C77.5104 51.0624 79.4651 50.4765 81.4311 50.4765C83.3971 50.4765 85.1214 51.0624 86.6038 52.2343C88.116 53.4062 89.1645 55.2373 89.7491 57.7275C90.3635 60.2178 90.3071 63.4404 89.5798 67.3956C88.8471 71.38 87.7128 74.6319 86.1771 77.1515C84.6712 79.671 82.9466 81.5168 81.0034 82.6886C79.09 83.8605 77.1502 84.4465 75.1842 84.4465ZM75.4509 82.9963C76.136 82.9963 76.852 82.7472 77.599 82.2492C78.3757 81.7511 79.125 80.9162 79.8469 79.7443C80.604 78.5431 81.3147 76.9464 81.9789 74.9542C82.6485 72.9327 83.2608 70.4132 83.8157 67.3956C84.3653 64.4073 84.6743 61.917 84.7427 59.9248C84.8112 57.9326 84.6824 56.3652 84.3563 55.2226C84.0654 54.0507 83.6232 53.2158 83.0297 52.7177C82.4659 52.2197 81.8415 51.9706 81.1563 51.9706C80.4116 51.9706 79.6658 52.2197 78.9189 52.7177C78.1719 53.2158 77.4226 54.0507 76.6709 55.2226C75.9544 56.3652 75.264 57.9326 74.5998 59.9248C73.9707 61.8877 73.3787 64.378 72.8238 67.3956C72.2689 70.4132 71.9396 72.9327 71.836 74.9542C71.7621 76.9757 71.8706 78.5724 72.1615 79.7443C72.4822 80.9162 72.9244 81.7511 73.4882 82.2492C74.0519 82.7472 74.7062 82.9963 75.4509 82.9963ZM102.564 84.4465C100.598 84.4465 98.8593 83.8605 97.3471 82.6886C95.8646 81.5168 94.8189 79.671 94.2099 77.1515C93.6008 74.6319 93.6626 71.38 94.3954 67.3956C95.1227 63.4404 96.2515 60.2178 97.7818 57.7275C99.3122 55.2373 101.034 53.4062 102.947 52.2343C104.891 51.0624 106.845 50.4765 108.811 50.4765C110.777 50.4765 112.502 51.0624 113.984 52.2343C115.496 53.4062 116.545 55.2373 117.129 57.7275C117.744 60.2178 117.687 63.4404 116.96 67.3956C116.227 71.38 115.093 74.6319 113.557 77.1515C112.051 79.671 110.327 81.5168 108.384 82.6886C106.47 83.8605 104.53 84.4465 102.564 84.4465ZM102.831 82.9963C103.516 82.9963 104.232 82.7472 104.979 82.2492C105.756 81.7511 106.505 80.9162 107.227 79.7443C107.984 78.5431 108.695 76.9464 109.359 74.9542C110.029 72.9327 110.641 70.4132 111.196 67.3956C111.746 64.4073 112.055 61.917 112.123 59.9248C112.191 57.9326 112.063 56.3652 111.737 55.2226C111.446 54.0507 111.003 53.2158 110.41 52.7177C109.846 52.2197 109.222 51.9706 108.537 51.9706C107.792 51.9706 107.046 52.2197 106.299 52.7177C105.552 53.2158 104.803 54.0507 104.051 55.2226C103.335 56.3652 102.644 57.9326 101.98 59.9248C101.351 61.8877 100.759 64.378 100.204 67.3956C99.6492 70.4132 99.3199 72.9327 99.2162 74.9542C99.1424 76.9757 99.2509 78.5724 99.5418 79.7443C99.8625 80.9162 100.305 81.7511 100.868 82.2492C101.432 82.7472 102.086 82.9963 102.831 82.9963ZM129.945 84.4465C127.979 84.4465 126.24 83.8605 124.727 82.6886C123.245 81.5168 122.199 79.671 121.59 77.1515C120.981 74.6319 121.043 71.38 121.776 67.3956C122.503 63.4404 123.632 60.2178 125.162 57.7275C126.692 55.2373 128.414 53.4062 130.328 52.2343C132.271 51.0624 134.226 50.4765 136.192 50.4765C138.158 50.4765 139.882 51.0624 141.364 52.2343C142.877 53.4062 143.925 55.2373 144.51 57.7275C145.124 60.2178 145.068 63.4404 144.34 67.3956C143.608 71.38 142.473 74.6319 140.938 77.1515C139.432 79.671 137.707 81.5168 135.764 82.6886C133.85 83.8605 131.911 84.4465 129.945 84.4465ZM130.211 82.9963C130.897 82.9963 131.613 82.7472 132.36 82.2492C133.136 81.7511 133.886 80.9162 134.607 79.7443C135.365 78.5431 136.075 76.9464 136.739 74.9542C137.409 72.9327 138.021 70.4132 138.576 67.3956C139.126 64.4073 139.435 61.917 139.503 59.9248C139.572 57.9326 139.443 56.3652 139.117 55.2226C138.826 54.0507 138.384 53.2158 137.79 52.7177C137.226 52.2197 136.602 51.9706 135.917 51.9706C135.172 51.9706 134.426 52.2197 133.679 52.7177C132.932 53.2158 132.183 54.0507 131.431 55.2226C130.715 56.3652 130.025 57.9326 129.36 59.9248C128.731 61.8877 128.139 64.378 127.584 67.3956C127.029 70.4132 126.7 72.9327 126.597 74.9542C126.523 76.9757 126.631 78.5724 126.922 79.7443C127.243 80.9162 127.685 81.7511 128.249 82.2492C128.812 82.7472 129.467 82.9963 130.211 82.9963Z" fill="#C8B464"/>
    <path d="M165.672 59.1826L169.795 59.5743C169.742 59.7658 169.632 59.9312 169.465 60.0705C169.318 60.1924 169.063 60.2794 168.7 60.3316L164.69 82.1377H161.45L165.672 59.1826ZM154.802 81.6154H166.937L169.032 79.3172C169.032 79.3172 169.113 79.4043 169.276 79.5784C169.456 79.7525 169.68 79.9788 169.948 80.2574C170.218 80.5185 170.495 80.7971 170.777 81.0931C171.076 81.389 171.344 81.6676 171.579 81.9287C171.457 82.2073 171.183 82.3466 170.758 82.3466H154.88L154.802 81.6154ZM159.18 68.3489H168.925L170.974 66.1553C170.974 66.1553 171.057 66.2336 171.223 66.3903C171.389 66.547 171.597 66.7646 171.847 67.0432C172.117 67.3043 172.394 67.5829 172.676 67.8789C172.961 68.1574 173.212 68.4273 173.429 68.6884C173.325 68.967 173.052 69.1063 172.609 69.1063H159.253L159.18 68.3489ZM155.832 68.7929L153.311 82.5033C153.298 82.5729 153.173 82.6774 152.935 82.8167C152.711 82.9733 152.393 83.1126 151.982 83.2345C151.584 83.3738 151.138 83.4434 150.642 83.4434H150.058L152.286 71.3261L155.832 68.7929ZM154.577 59.1565L158.37 59.4698C158.32 59.6439 158.212 59.8006 158.044 59.9399C157.898 60.0618 157.643 60.1488 157.279 60.2011L156.453 64.6928H153.559L154.577 59.1565ZM149.902 64.2228H158.266L158.131 64.954H150.006L149.902 64.2228ZM156.805 64.2228L158.798 62.6298L160.765 65.2151C160.535 65.4067 160.113 65.5372 159.498 65.6069C158.655 66.8256 157.607 68.0443 156.356 69.263C155.109 70.4643 153.727 71.5785 152.21 72.6057C150.697 73.6155 149.115 74.4686 147.465 75.165L147.269 74.9299C148.303 74.2161 149.298 73.424 150.255 72.5535C151.212 71.683 152.113 70.7776 152.958 69.8375C153.804 68.8974 154.554 67.9485 155.208 66.991C155.862 66.0334 156.394 65.1107 156.805 64.2228ZM155.242 69.5502C156.304 69.7417 157.122 70.0116 157.695 70.3598C158.286 70.708 158.684 71.091 158.891 71.5089C159.118 71.9093 159.198 72.2923 159.131 72.6579C159.081 73.0235 158.926 73.3369 158.666 73.5981C158.409 73.8418 158.1 73.9811 157.739 74.0159C157.397 74.0507 157.053 73.9463 156.708 73.7025C156.668 73.2499 156.551 72.7798 156.357 72.2923C156.181 71.8048 155.965 71.3435 155.709 70.9082C155.473 70.4556 155.228 70.0551 154.974 69.7069L155.242 69.5502ZM180.581 60.41L184.666 60.7234C184.616 60.8975 184.516 61.0542 184.367 61.1934C184.235 61.3327 183.978 61.4285 183.597 61.4807L180.952 77.3064L177.579 78.3249L180.581 60.41ZM186.025 63.4393C187.403 63.8398 188.473 64.3272 189.234 64.9018C189.999 65.4589 190.529 66.0421 190.824 66.6515C191.123 67.2434 191.224 67.8005 191.128 68.3228C191.049 68.8451 190.846 69.2804 190.516 69.6286C190.186 69.9768 189.796 70.177 189.343 70.2292C188.909 70.2815 188.461 70.1161 188.001 69.733C187.952 69.0366 187.809 68.3228 187.571 67.5916C187.334 66.8604 187.048 66.1553 186.712 65.4763C186.398 64.7799 186.071 64.1531 185.731 63.596L186.025 63.4393ZM192.112 75.2433C193.725 75.7134 195.003 76.2705 195.947 76.9147C196.894 77.5414 197.57 78.1943 197.977 78.8733C198.383 79.5523 198.574 80.1964 198.551 80.8058C198.548 81.3977 198.386 81.8939 198.064 82.2944C197.757 82.7122 197.366 82.9646 196.89 83.0517C196.413 83.1387 195.926 82.9995 195.426 82.6338C195.308 82.0245 195.123 81.3977 194.869 80.7536C194.616 80.1094 194.317 79.4739 193.972 78.8472C193.645 78.2204 193.296 77.6111 192.927 77.0191C192.558 76.4272 192.196 75.8962 191.84 75.4261L192.112 75.2433ZM173.982 77.9593C174.641 77.8374 175.479 77.6633 176.494 77.437C177.509 77.2106 178.646 76.9495 179.904 76.6535C181.183 76.3401 182.511 76.0006 183.888 75.635C185.286 75.252 186.686 74.8603 188.087 74.4599L188.114 74.7471C186.728 75.548 185.039 76.4533 183.048 77.4631C181.074 78.4729 178.676 79.5784 175.853 80.7797C175.665 81.1279 175.4 81.3629 175.059 81.4848L173.982 77.9593ZM196.286 60.4883L200.67 60.9062C200.617 61.0977 200.489 61.2631 200.287 61.4024C200.102 61.5416 199.838 61.6287 199.495 61.6635C199.101 63.4219 198.68 65.0846 198.233 66.6515C197.803 68.2184 197.283 69.6982 196.673 71.091C196.084 72.4664 195.323 73.7635 194.391 74.9822C193.479 76.1834 192.336 77.2977 190.961 78.3249C189.604 79.3521 187.953 80.2922 186.008 81.1453C184.081 81.9984 181.788 82.7731 179.129 83.4695L178.971 83.0256C181.672 81.9113 183.94 80.7449 185.775 79.5262C187.61 78.3075 189.121 77.0191 190.309 75.6611C191.501 74.2858 192.46 72.8233 193.187 71.2738C193.915 69.7243 194.514 68.053 194.986 66.2597C195.457 64.4665 195.89 62.5427 196.286 60.4883ZM214.611 59.3132L218.92 59.7049C218.867 59.8964 218.757 60.0618 218.59 60.2011C218.444 60.3229 218.189 60.41 217.825 60.4622L213.916 81.7198H210.491L214.611 59.3132ZM214.708 69.1846H220.576L222.903 66.782C222.903 66.782 223 66.8778 223.195 67.0693C223.411 67.2434 223.67 67.4697 223.973 67.7483C224.279 68.0094 224.598 68.2967 224.93 68.6101C225.262 68.9235 225.561 69.2194 225.829 69.498C225.707 69.7766 225.433 69.9158 225.008 69.9158H214.573L214.708 69.1846ZM200.663 81.302H220.206L222.586 78.8994C222.586 78.8994 222.685 78.9865 222.884 79.1606C223.082 79.3347 223.339 79.5697 223.657 79.8657C223.977 80.1442 224.303 80.4402 224.635 80.7536C224.985 81.0669 225.302 81.3629 225.587 81.6415C225.465 81.92 225.183 82.0593 224.74 82.0593H200.763L200.663 81.302Z" fill="#C8B464"/>
    <g clip-path="url(#clip2_2208_3950)">
    <path d="M135.021 3.70413H135.008L133.176 0L131.357 3.70413L127.268 4.30157L130.228 7.18256L129.525 11.2584L133.176 9.33335L136.84 11.2584L136.136 7.18256L139.097 4.30157L135.021 3.70413Z" fill="#C8B464"/>
    <path d="M153.117 13.2234L149.971 12.772L149.957 12.7587L148.55 9.9043L147.143 12.7587L143.983 13.2234L146.266 15.4406L145.735 18.5871L148.55 17.1001L151.365 18.5871L150.834 15.4406L153.117 13.2234Z" fill="#C8B464"/>
    <path d="M117.51 12.772L117.496 12.7587L116.089 9.9043L114.668 12.7587L111.522 13.2234L113.806 15.4406L113.261 18.5871L116.089 17.1001L118.904 18.5871L118.359 15.4406L120.643 13.2234L117.51 12.772Z" fill="#C8B464"/>
    </g>
    <defs>
    <linearGradient id="paint0_linear_2208_3950" x1="29.5225" y1="74.8125" x2="29.5225" y2="91.3019" gradientUnits="userSpaceOnUse">
    <stop stop-color="#C8B464"/>
    <stop offset="0.51" stop-color="#EDDB92"/>
    <stop offset="1" stop-color="#C8B464"/>
    </linearGradient>
    <linearGradient id="paint1_linear_2208_3950" x1="24.0105" y1="89.834" x2="24.0105" y2="97.2556" gradientUnits="userSpaceOnUse">
    <stop stop-color="#C8B464"/>
    <stop offset="0.51" stop-color="#EDDB92"/>
    <stop offset="1" stop-color="#C8B464"/>
    </linearGradient>
    <linearGradient id="paint2_linear_2208_3950" x1="21.0165" y1="65.6787" x2="21.0165" y2="81.1458" gradientUnits="userSpaceOnUse">
    <stop stop-color="#C8B464"/>
    <stop offset="0.51" stop-color="#EDDB92"/>
    <stop offset="1" stop-color="#C8B464"/>
    </linearGradient>
    <linearGradient id="paint3_linear_2208_3950" x1="14.0266" y1="77.1084" x2="14.0266" y2="85.8918" gradientUnits="userSpaceOnUse">
    <stop stop-color="#C8B464"/>
    <stop offset="0.51" stop-color="#EDDB92"/>
    <stop offset="1" stop-color="#C8B464"/>
    </linearGradient>
    <linearGradient id="paint4_linear_2208_3950" x1="15.724" y1="54.6992" x2="15.724" y2="69.8609" gradientUnits="userSpaceOnUse">
    <stop stop-color="#C8B464"/>
    <stop offset="0.51" stop-color="#EDDB92"/>
    <stop offset="1" stop-color="#C8B464"/>
    </linearGradient>
    <linearGradient id="paint5_linear_2208_3950" x1="7.05627" y1="60.9658" x2="7.05627" y2="73.0646" gradientUnits="userSpaceOnUse">
    <stop stop-color="#C8B464"/>
    <stop offset="0.51" stop-color="#EDDB92"/>
    <stop offset="1" stop-color="#C8B464"/>
    </linearGradient>
    <linearGradient id="paint6_linear_2208_3950" x1="13.7395" y1="43.8525" x2="13.7395" y2="56.9829" gradientUnits="userSpaceOnUse">
    <stop stop-color="#C8B464"/>
    <stop offset="0.51" stop-color="#EDDB92"/>
    <stop offset="1" stop-color="#C8B464"/>
    </linearGradient>
    <linearGradient id="paint7_linear_2208_3950" x1="4.77273" y1="46.3076" x2="4.77273" y2="59.0265" gradientUnits="userSpaceOnUse">
    <stop stop-color="#C8B464"/>
    <stop offset="0.51" stop-color="#EDDB92"/>
    <stop offset="1" stop-color="#C8B464"/>
    </linearGradient>
    <linearGradient id="paint8_linear_2208_3950" x1="14.0859" y1="34" x2="14.0859" y2="44.4884" gradientUnits="userSpaceOnUse">
    <stop stop-color="#C8B464"/>
    <stop offset="0.51" stop-color="#EDDB92"/>
    <stop offset="1" stop-color="#C8B464"/>
    </linearGradient>
    <linearGradient id="paint9_linear_2208_3950" x1="5.55531" y1="32.3809" x2="5.55531" y2="46.1618" gradientUnits="userSpaceOnUse">
    <stop stop-color="#C8B464"/>
    <stop offset="0.51" stop-color="#EDDB92"/>
    <stop offset="1" stop-color="#C8B464"/>
    </linearGradient>
    <linearGradient id="paint10_linear_2208_3950" x1="16.3233" y1="26.4004" x2="16.3233" y2="32.9392" gradientUnits="userSpaceOnUse">
    <stop stop-color="#C8B464"/>
    <stop offset="0.51" stop-color="#EDDB92"/>
    <stop offset="1" stop-color="#C8B464"/>
    </linearGradient>
    <linearGradient id="paint11_linear_2208_3950" x1="8.59359" y1="21.123" x2="8.59359" y2="33.5896" gradientUnits="userSpaceOnUse">
    <stop stop-color="#C8B464"/>
    <stop offset="0.51" stop-color="#EDDB92"/>
    <stop offset="1" stop-color="#C8B464"/>
    </linearGradient>
    <linearGradient id="paint12_linear_2208_3950" x1="19.0849" y1="21.0283" x2="19.0849" y2="24.3755" gradientUnits="userSpaceOnUse">
    <stop stop-color="#C8B464"/>
    <stop offset="0.51" stop-color="#EDDB92"/>
    <stop offset="1" stop-color="#C8B464"/>
    </linearGradient>
    <linearGradient id="paint13_linear_2208_3950" x1="13.8593" y1="16.5166" x2="13.8593" y2="24.9737" gradientUnits="userSpaceOnUse">
    <stop stop-color="#C8B464"/>
    <stop offset="0.51" stop-color="#EDDB92"/>
    <stop offset="1" stop-color="#C8B464"/>
    </linearGradient>
    <linearGradient id="paint14_linear_2208_3950" x1="20.1979" y1="11.9492" x2="20.1979" y2="19.0787" gradientUnits="userSpaceOnUse">
    <stop stop-color="#C8B464"/>
    <stop offset="0.51" stop-color="#EDDB92"/>
    <stop offset="1" stop-color="#C8B464"/>
    </linearGradient>
    <linearGradient id="paint15_linear_2208_3950" x1="236.392" y1="74.8125" x2="236.392" y2="91.3019" gradientUnits="userSpaceOnUse">
    <stop stop-color="#C8B464"/>
    <stop offset="0.51" stop-color="#EDDB92"/>
    <stop offset="1" stop-color="#C8B464"/>
    </linearGradient>
    <linearGradient id="paint16_linear_2208_3950" x1="241.904" y1="89.834" x2="241.904" y2="97.2556" gradientUnits="userSpaceOnUse">
    <stop stop-color="#C8B464"/>
    <stop offset="0.51" stop-color="#EDDB92"/>
    <stop offset="1" stop-color="#C8B464"/>
    </linearGradient>
    <linearGradient id="paint17_linear_2208_3950" x1="244.898" y1="65.6787" x2="244.898" y2="81.1458" gradientUnits="userSpaceOnUse">
    <stop stop-color="#C8B464"/>
    <stop offset="0.51" stop-color="#EDDB92"/>
    <stop offset="1" stop-color="#C8B464"/>
    </linearGradient>
    <linearGradient id="paint18_linear_2208_3950" x1="251.887" y1="77.1084" x2="251.887" y2="85.8918" gradientUnits="userSpaceOnUse">
    <stop stop-color="#C8B464"/>
    <stop offset="0.51" stop-color="#EDDB92"/>
    <stop offset="1" stop-color="#C8B464"/>
    </linearGradient>
    <linearGradient id="paint19_linear_2208_3950" x1="250.19" y1="54.6992" x2="250.19" y2="69.8609" gradientUnits="userSpaceOnUse">
    <stop stop-color="#C8B464"/>
    <stop offset="0.51" stop-color="#EDDB92"/>
    <stop offset="1" stop-color="#C8B464"/>
    </linearGradient>
    <linearGradient id="paint20_linear_2208_3950" x1="258.858" y1="60.9658" x2="258.858" y2="73.0646" gradientUnits="userSpaceOnUse">
    <stop stop-color="#C8B464"/>
    <stop offset="0.51" stop-color="#EDDB92"/>
    <stop offset="1" stop-color="#C8B464"/>
    </linearGradient>
    <linearGradient id="paint21_linear_2208_3950" x1="252.174" y1="43.8525" x2="252.174" y2="56.9829" gradientUnits="userSpaceOnUse">
    <stop stop-color="#C8B464"/>
    <stop offset="0.51" stop-color="#EDDB92"/>
    <stop offset="1" stop-color="#C8B464"/>
    </linearGradient>
    <linearGradient id="paint22_linear_2208_3950" x1="261.141" y1="46.3076" x2="261.141" y2="59.0265" gradientUnits="userSpaceOnUse">
    <stop stop-color="#C8B464"/>
    <stop offset="0.51" stop-color="#EDDB92"/>
    <stop offset="1" stop-color="#C8B464"/>
    </linearGradient>
    <linearGradient id="paint23_linear_2208_3950" x1="251.828" y1="34" x2="251.828" y2="44.4884" gradientUnits="userSpaceOnUse">
    <stop stop-color="#C8B464"/>
    <stop offset="0.51" stop-color="#EDDB92"/>
    <stop offset="1" stop-color="#C8B464"/>
    </linearGradient>
    <linearGradient id="paint24_linear_2208_3950" x1="260.359" y1="32.3809" x2="260.359" y2="46.1618" gradientUnits="userSpaceOnUse">
    <stop stop-color="#C8B464"/>
    <stop offset="0.51" stop-color="#EDDB92"/>
    <stop offset="1" stop-color="#C8B464"/>
    </linearGradient>
    <linearGradient id="paint25_linear_2208_3950" x1="249.591" y1="26.4004" x2="249.591" y2="32.9392" gradientUnits="userSpaceOnUse">
    <stop stop-color="#C8B464"/>
    <stop offset="0.51" stop-color="#EDDB92"/>
    <stop offset="1" stop-color="#C8B464"/>
    </linearGradient>
    <linearGradient id="paint26_linear_2208_3950" x1="257.32" y1="21.123" x2="257.32" y2="33.5896" gradientUnits="userSpaceOnUse">
    <stop stop-color="#C8B464"/>
    <stop offset="0.51" stop-color="#EDDB92"/>
    <stop offset="1" stop-color="#C8B464"/>
    </linearGradient>
    <linearGradient id="paint27_linear_2208_3950" x1="246.829" y1="21.0283" x2="246.829" y2="24.3755" gradientUnits="userSpaceOnUse">
    <stop stop-color="#C8B464"/>
    <stop offset="0.51" stop-color="#EDDB92"/>
    <stop offset="1" stop-color="#C8B464"/>
    </linearGradient>
    <linearGradient id="paint28_linear_2208_3950" x1="252.055" y1="16.5166" x2="252.055" y2="24.9737" gradientUnits="userSpaceOnUse">
    <stop stop-color="#C8B464"/>
    <stop offset="0.51" stop-color="#EDDB92"/>
    <stop offset="1" stop-color="#C8B464"/>
    </linearGradient>
    <linearGradient id="paint29_linear_2208_3950" x1="245.716" y1="11.9492" x2="245.716" y2="19.0787" gradientUnits="userSpaceOnUse">
    <stop stop-color="#C8B464"/>
    <stop offset="0.51" stop-color="#EDDB92"/>
    <stop offset="1" stop-color="#C8B464"/>
    </linearGradient>
    <clipPath id="clip0_2208_3950">
    <rect width="33.5761" height="85.3012" fill="white" transform="translate(0 11.9492)"/>
    </clipPath>
    <clipPath id="clip1_2208_3950">
    <rect width="33.5761" height="85.3012" fill="white" transform="matrix(-1 0 0 1 265.914 11.9492)"/>
    </clipPath>
    <clipPath id="clip2_2208_3950">
    <rect width="41.5951" height="18.587" fill="white" transform="translate(111.522)"/>
    </clipPath>
    </defs>
</svg>
