<svg width="267" height="98" viewBox="0 0 267 98" fill="none" xmlns="http://www.w3.org/2000/svg">
    <g clip-path="url(#clip0_2208_3953)">
    <path d="M33.2291 91.3019C33.2291 91.3019 29.4718 89.2042 27.9451 84.7964C26.4183 80.3886 28.2902 74.8125 28.2902 74.8125C28.2902 74.8125 31.7421 79.6982 32.9104 83.1236C34.0788 86.5489 33.2291 91.3019 33.2291 91.3019Z" fill="url(#paint0_linear_2208_3953)"/>
    <path d="M34.4903 95.3514C34.4903 95.3514 31.1977 91.5543 25.0374 90.3063C18.8771 89.0583 15.3589 90.6781 15.3589 90.6781C15.3589 90.6781 19.9127 95.5638 23.8027 96.9047C27.6927 98.2324 34.477 95.3647 34.477 95.3647L34.4903 95.3514Z" fill="url(#paint1_linear_2208_3953)"/>
    <path d="M23.4311 81.1458C23.4311 81.1458 19.8863 77.2823 19.4349 72.7816C18.9968 68.2809 21.5724 65.6787 21.5724 65.6787C21.5724 65.6787 23.9357 69.9006 24.387 72.7816C24.8384 75.6626 23.4311 81.1458 23.4311 81.1458Z" fill="url(#paint2_linear_2208_3953)"/>
    <path d="M23.67 84.3849C23.67 84.3849 19.9526 79.4328 13.5666 77.9325C8.78706 76.804 6.21143 77.1625 6.21143 77.1625C6.21143 77.1625 10.1811 83.6016 14.2038 85.3142C18.2266 87.0269 23.67 84.3849 23.67 84.3849Z" fill="url(#paint3_linear_2208_3953)"/>
    <path d="M15.5578 69.8609C15.5578 69.8609 13.4734 65.108 14.4293 60.7267C15.3852 56.3455 18.5317 54.6992 18.5317 54.6992C18.5317 54.6992 19.4212 59.4256 18.9698 62.2668C18.5184 65.108 15.5578 69.8476 15.5578 69.8476V69.8609Z" fill="url(#paint4_linear_2208_3953)"/>
    <path d="M14.9338 72.9545C14.9338 72.9545 12.9424 67.3651 7.5654 63.9132C3.58247 61.3508 1.00684 60.9658 1.00684 60.9658C1.00684 60.9658 2.70622 68.1351 5.90585 70.9364C9.10547 73.7378 14.9338 72.9677 14.9338 72.9677V72.9545Z" fill="url(#paint5_linear_2208_3953)"/>
    <path d="M12.1059 56.9829C12.1059 56.9829 11.0703 52.2831 12.7166 48.5126C14.3629 44.7421 17.5227 43.8525 17.5227 43.8525C17.5227 43.8525 17.4828 48.2869 16.5535 50.7828C15.6241 53.2788 12.1059 56.9829 12.1059 56.9829Z" fill="url(#paint6_linear_2208_3953)"/>
    <path d="M10.473 59.0132C10.473 59.0132 9.80913 53.8354 5.86603 49.9852C2.58674 46.7988 0.900635 46.3076 0.900635 46.3076C0.900635 46.3076 1.11306 52.7201 3.2904 55.6941C5.48101 58.6547 10.4597 59.0265 10.4597 59.0265L10.473 59.0132Z" fill="url(#paint7_linear_2208_3953)"/>
    <path d="M11.0303 44.4884C11.0303 44.4884 11.1896 40.0142 13.5528 37.0138C15.916 34.0133 18.9696 34 18.9696 34C18.9696 34 17.8942 37.9829 16.4869 39.9877C15.0663 41.9924 11.0303 44.4751 11.0303 44.4751V44.4884Z" fill="url(#paint8_linear_2208_3953)"/>
    <path d="M9.54353 46.1618C9.54353 46.1618 10.3268 41.223 7.49896 36.9081C5.16231 33.35 3.88777 32.3809 3.88777 32.3809C3.88777 32.3809 2.5734 38.2092 3.86121 41.4088C5.14903 44.6085 9.55681 46.1618 9.55681 46.1618H9.54353Z" fill="url(#paint9_linear_2208_3953)"/>
    <path d="M12.7964 32.9392C12.7964 32.9392 13.9913 29.3944 16.6067 27.6021C19.2222 25.8098 21.6783 26.5533 21.6783 26.5533C21.6783 26.5533 19.8727 29.4741 18.253 30.7221C16.6333 31.97 12.7964 32.9392 12.7964 32.9392Z" fill="url(#paint10_linear_2208_3953)"/>
    <path d="M10.7121 33.5896C10.7121 33.5896 12.5974 29.8058 11.283 25.6636C10.2076 22.3179 9.46412 21.123 9.46412 21.123C9.46412 21.123 7.02125 25.4512 7.28678 28.3322C7.55231 31.2132 10.7121 33.5764 10.7121 33.5764V33.5896Z" fill="url(#paint11_linear_2208_3953)"/>
    <path d="M16.5935 24.3622C16.5935 24.3622 17.8813 22.1849 19.8728 21.375C21.8643 20.5651 23.4043 21.4281 23.4043 21.4281C23.4043 21.4281 21.7979 23.1009 20.5499 23.6984C19.3019 24.2958 16.6068 24.3755 16.6068 24.3755L16.5935 24.3622Z" fill="url(#paint12_linear_2208_3953)"/>
    <path d="M14.8277 24.9737C14.8277 24.9737 16.5669 22.7433 16.2881 19.7959C16.089 17.6982 15.6907 16.5166 15.6907 16.5166C15.6907 16.5166 13.4735 19.0391 13.2478 20.9908C13.0221 22.9424 14.8277 24.9737 14.8277 24.9737Z" fill="url(#paint13_linear_2208_3953)"/>
    <path d="M18.8506 19.0787C18.8506 19.0787 17.8682 16.7951 19.3286 14.5647C20.789 12.3342 23.6965 11.9492 23.6965 11.9492C23.6965 11.9492 23.4443 14.4717 22.2892 16.118C21.1342 17.7643 18.8506 19.0787 18.8506 19.0787Z" fill="url(#paint14_linear_2208_3953)"/>
    </g>
    <g clip-path="url(#clip1_2208_3953)">
    <path d="M234.513 91.3019C234.513 91.3019 238.27 89.2042 239.797 84.7964C241.324 80.3886 239.452 74.8125 239.452 74.8125C239.452 74.8125 236 79.6982 234.832 83.1236C233.664 86.5489 234.513 91.3019 234.513 91.3019Z" fill="url(#paint15_linear_2208_3953)"/>
    <path d="M233.252 95.3514C233.252 95.3514 236.544 91.5543 242.705 90.3063C248.865 89.0583 252.383 90.6781 252.383 90.6781C252.383 90.6781 247.829 95.5638 243.939 96.9047C240.049 98.2324 233.265 95.3647 233.265 95.3647L233.252 95.3514Z" fill="url(#paint16_linear_2208_3953)"/>
    <path d="M244.311 81.1458C244.311 81.1458 247.856 77.2823 248.307 72.7816C248.745 68.2809 246.17 65.6787 246.17 65.6787C246.17 65.6787 243.807 69.9006 243.355 72.7816C242.904 75.6626 244.311 81.1458 244.311 81.1458Z" fill="url(#paint17_linear_2208_3953)"/>
    <path d="M244.072 84.3849C244.072 84.3849 247.79 79.4328 254.176 77.9325C258.955 76.804 261.531 77.1625 261.531 77.1625C261.531 77.1625 257.561 83.6016 253.538 85.3142C249.516 87.0269 244.072 84.3849 244.072 84.3849Z" fill="url(#paint18_linear_2208_3953)"/>
    <path d="M252.184 69.8609C252.184 69.8609 254.269 65.108 253.313 60.7267C252.357 56.3455 249.21 54.6992 249.21 54.6992C249.21 54.6992 248.321 59.4256 248.772 62.2668C249.224 65.108 252.184 69.8476 252.184 69.8476V69.8609Z" fill="url(#paint19_linear_2208_3953)"/>
    <path d="M252.808 72.9545C252.808 72.9545 254.8 67.3651 260.177 63.9132C264.159 61.3508 266.735 60.9658 266.735 60.9658C266.735 60.9658 265.036 68.1351 261.836 70.9364C258.636 73.7378 252.808 72.9677 252.808 72.9677V72.9545Z" fill="url(#paint20_linear_2208_3953)"/>
    <path d="M255.636 56.9829C255.636 56.9829 256.672 52.2831 255.025 48.5126C253.379 44.7421 250.219 43.8525 250.219 43.8525C250.219 43.8525 250.259 48.2869 251.188 50.7828C252.118 53.2788 255.636 56.9829 255.636 56.9829Z" fill="url(#paint21_linear_2208_3953)"/>
    <path d="M257.269 59.0132C257.269 59.0132 257.933 53.8354 261.876 49.9852C265.155 46.7988 266.841 46.3076 266.841 46.3076C266.841 46.3076 266.629 52.7201 264.452 55.6941C262.261 58.6547 257.282 59.0265 257.282 59.0265L257.269 59.0132Z" fill="url(#paint22_linear_2208_3953)"/>
    <path d="M256.711 44.4884C256.711 44.4884 256.552 40.0142 254.189 37.0138C251.826 34.0133 248.772 34 248.772 34C248.772 34 249.848 37.9829 251.255 39.9877C252.675 41.9924 256.711 44.4751 256.711 44.4751V44.4884Z" fill="url(#paint23_linear_2208_3953)"/>
    <path d="M258.198 46.1618C258.198 46.1618 257.415 41.223 260.243 36.9081C262.58 33.35 263.854 32.3809 263.854 32.3809C263.854 32.3809 265.169 38.2092 263.881 41.4088C262.593 44.6085 258.185 46.1618 258.185 46.1618H258.198Z" fill="url(#paint24_linear_2208_3953)"/>
    <path d="M254.946 32.9392C254.946 32.9392 253.751 29.3944 251.135 27.6021C248.52 25.8098 246.064 26.5533 246.064 26.5533C246.064 26.5533 247.869 29.4741 249.489 30.7221C251.109 31.97 254.946 32.9392 254.946 32.9392Z" fill="url(#paint25_linear_2208_3953)"/>
    <path d="M257.03 33.5896C257.03 33.5896 255.145 29.8058 256.459 25.6636C257.535 22.3179 258.278 21.123 258.278 21.123C258.278 21.123 260.721 25.4512 260.455 28.3322C260.19 31.2132 257.03 33.5764 257.03 33.5764V33.5896Z" fill="url(#paint26_linear_2208_3953)"/>
    <path d="M251.149 24.3622C251.149 24.3622 249.861 22.1849 247.869 21.375C245.878 20.5651 244.338 21.4281 244.338 21.4281C244.338 21.4281 245.944 23.1009 247.192 23.6984C248.44 24.2958 251.135 24.3755 251.135 24.3755L251.149 24.3622Z" fill="url(#paint27_linear_2208_3953)"/>
    <path d="M252.914 24.9737C252.914 24.9737 251.175 22.7433 251.454 19.7959C251.653 17.6982 252.051 16.5166 252.051 16.5166C252.051 16.5166 254.269 19.0391 254.494 20.9908C254.72 22.9424 252.914 24.9737 252.914 24.9737Z" fill="url(#paint28_linear_2208_3953)"/>
    <path d="M248.892 19.0787C248.892 19.0787 249.874 16.7951 248.414 14.5647C246.953 12.3342 244.046 11.9492 244.046 11.9492C244.046 11.9492 244.298 14.4717 245.453 16.118C246.608 17.7643 248.892 19.0787 248.892 19.0787Z" fill="url(#paint29_linear_2208_3953)"/>
    </g>
    <path d="M107.913 36.2422H111.379V36.6139H107.913V36.2422ZM107.449 31.8742H111.418V32.246H107.449V31.8742ZM107.449 33.3081H111.418V33.6798H107.449V33.3081ZM107.449 34.7287H111.379V35.1004H107.449V34.7287ZM108.033 38.6718H111.511V39.0435H108.033V38.6718ZM107.236 36.2422V35.6447L108.79 36.2422H108.617V39.6409C108.617 39.6852 108.515 39.7604 108.312 39.8666C108.108 39.9817 107.829 40.0392 107.475 40.0392H107.236V36.2422ZM110.967 36.2422H110.848L111.511 35.512L112.959 36.5874C112.923 36.6316 112.857 36.6847 112.759 36.7467C112.671 36.7998 112.56 36.8352 112.427 36.8529V39.5215C112.427 39.548 112.357 39.5878 112.215 39.6409C112.082 39.694 111.919 39.7427 111.724 39.787C111.538 39.8312 111.37 39.8534 111.219 39.8534H110.967V36.2422ZM110.861 31.8742H110.728L111.392 31.1307L112.852 32.2194C112.817 32.2725 112.751 32.3256 112.653 32.3787C112.556 32.423 112.441 32.4628 112.308 32.4982V35.1535C112.299 35.1801 112.228 35.2199 112.096 35.273C111.963 35.3261 111.803 35.3748 111.618 35.419C111.432 35.4633 111.259 35.4854 111.1 35.4854H110.861V31.8742ZM107.714 30.5598H109.533L110.21 29.7102C110.21 29.7102 110.277 29.7677 110.409 29.8828C110.551 29.989 110.719 30.1217 110.914 30.281C111.109 30.4315 111.286 30.5776 111.445 30.7192C111.41 30.8608 111.29 30.9316 111.087 30.9316H107.821L107.714 30.5598ZM109.732 28.2763C110.511 28.4091 111.131 28.5861 111.591 28.8074C112.051 29.0286 112.379 29.2676 112.573 29.5243C112.777 29.7721 112.879 30.0111 112.879 30.2412C112.888 30.4713 112.826 30.6661 112.693 30.8254C112.569 30.9758 112.405 31.0688 112.202 31.1042C111.998 31.1396 111.799 31.0821 111.604 30.9316C111.489 30.5333 111.255 30.0907 110.901 29.6039C110.547 29.1171 110.095 28.6879 109.546 28.3161L109.732 28.2763ZM106.679 31.8742V31.7415V31.2768L108.312 31.8742H108.086V33.6134C108.086 34.0471 108.06 34.5295 108.006 35.0606C107.953 35.5828 107.843 36.1227 107.674 36.6803C107.506 37.2291 107.25 37.7645 106.904 38.2867C106.559 38.8001 106.086 39.2648 105.484 39.6808L105.351 39.5613C105.758 38.9506 106.055 38.3044 106.241 37.6229C106.427 36.9414 106.546 36.2599 106.599 35.5783C106.652 34.888 106.679 34.2374 106.679 33.6267V31.8742ZM109.799 28.2896C109.507 28.7764 109.135 29.2765 108.683 29.7898C108.232 30.3032 107.723 30.79 107.157 31.2502C106.599 31.7105 105.988 32.0999 105.325 32.4186L105.218 32.3123C105.679 31.8875 106.103 31.3963 106.493 30.8387C106.891 30.281 107.241 29.7146 107.542 29.1393C107.843 28.564 108.068 28.0373 108.219 27.5594L110.37 27.9975C110.343 28.086 110.29 28.1568 110.21 28.2099C110.131 28.2542 109.993 28.2807 109.799 28.2896ZM113.463 28.7144L115.242 28.887C115.233 28.9755 115.198 29.0508 115.136 29.1127C115.074 29.1747 114.963 29.2189 114.804 29.2455V36.7998C114.804 36.844 114.746 36.9016 114.631 36.9724C114.525 37.0343 114.388 37.0919 114.22 37.145C114.052 37.1892 113.883 37.2114 113.715 37.2114H113.463V28.7144ZM115.866 27.8382L117.791 28.024C117.782 28.1214 117.738 28.2055 117.658 28.2763C117.588 28.3383 117.473 28.3781 117.313 28.3958V38.3266C117.313 38.6629 117.269 38.955 117.18 39.2028C117.101 39.4506 116.928 39.6454 116.663 39.787C116.397 39.9374 115.981 40.0392 115.415 40.0923C115.406 39.8622 115.379 39.6586 115.335 39.4816C115.291 39.3135 115.216 39.1674 115.109 39.0435C115.012 38.9284 114.879 38.8311 114.711 38.7514C114.552 38.6718 114.313 38.6054 113.994 38.5523V38.3664C113.994 38.3664 114.06 38.3708 114.193 38.3797C114.326 38.3885 114.485 38.3974 114.671 38.4062C114.866 38.4151 115.047 38.4239 115.216 38.4328C115.393 38.4416 115.516 38.4461 115.587 38.4461C115.693 38.4461 115.764 38.4284 115.8 38.393C115.844 38.3576 115.866 38.2956 115.866 38.2071V27.8382ZM119.371 30.2545H129.302L130.098 29.3251C130.098 29.3251 130.182 29.3827 130.351 29.4977C130.519 29.6128 130.714 29.7588 130.935 29.9359C131.165 30.104 131.377 30.2678 131.572 30.4271C131.537 30.5598 131.408 30.6262 131.187 30.6262H119.491L119.371 30.2545ZM119.477 35.7377H129.089L129.913 34.7287C129.913 34.7287 129.961 34.7685 130.059 34.8481C130.165 34.919 130.298 35.0163 130.457 35.1402C130.616 35.2553 130.78 35.3836 130.948 35.5252C131.116 35.658 131.276 35.7863 131.426 35.9103C131.408 35.9811 131.364 36.0342 131.293 36.0696C131.231 36.105 131.152 36.1227 131.054 36.1227H119.583L119.477 35.7377ZM120.101 32.5115H128.625L129.435 31.5423C129.435 31.5423 129.519 31.6043 129.687 31.7282C129.855 31.8521 130.05 32.0026 130.271 32.1796C130.501 32.3477 130.709 32.5115 130.895 32.6708C130.868 32.8124 130.749 32.8832 130.537 32.8832H120.207L120.101 32.5115ZM120.765 34.0781H128.187L128.943 33.162C128.943 33.162 129.023 33.2196 129.182 33.3346C129.342 33.4497 129.532 33.5913 129.753 33.7595C129.975 33.9276 130.174 34.087 130.351 34.2374C130.315 34.379 130.196 34.4498 129.992 34.4498H120.871L120.765 34.0781ZM120.885 27.9975C121.433 28.086 121.863 28.2232 122.172 28.4091C122.491 28.5861 122.708 28.7808 122.823 28.9932C122.947 29.2057 122.996 29.4092 122.969 29.6039C122.942 29.7898 122.863 29.9491 122.73 30.0819C122.606 30.2058 122.447 30.2722 122.252 30.281C122.066 30.281 121.867 30.2014 121.655 30.0421C121.655 29.8031 121.61 29.5641 121.522 29.3251C121.433 29.0862 121.323 28.856 121.19 28.6348C121.057 28.4135 120.916 28.2276 120.765 28.0772L120.885 27.9975ZM122.584 30.4536C123.115 30.5421 123.527 30.6749 123.819 30.8519C124.111 31.029 124.31 31.2192 124.416 31.4228C124.522 31.6175 124.558 31.8078 124.522 31.9937C124.487 32.1707 124.398 32.3168 124.257 32.4318C124.124 32.5469 123.96 32.6044 123.766 32.6044C123.58 32.5956 123.385 32.5071 123.181 32.3389C123.173 32.1265 123.133 31.9096 123.062 31.6883C122.991 31.4671 122.903 31.2547 122.796 31.0511C122.699 30.8475 122.588 30.6705 122.464 30.52L122.584 30.4536ZM128.519 27.9046L130.39 28.4887C130.364 28.5684 130.306 28.6303 130.218 28.6746C130.138 28.71 130.023 28.7233 129.873 28.7144C129.625 28.9711 129.311 29.2543 128.93 29.5641C128.558 29.865 128.178 30.135 127.788 30.374H127.589C127.704 30.1439 127.819 29.8872 127.934 29.6039C128.049 29.3119 128.156 29.0198 128.253 28.7277C128.359 28.4268 128.448 28.1524 128.519 27.9046ZM126.912 30.4271L128.824 30.9449C128.771 31.1219 128.603 31.2015 128.319 31.1838C128.08 31.4317 127.771 31.6972 127.39 31.9804C127.018 32.2548 126.651 32.4982 126.288 32.7106H126.089C126.248 32.392 126.403 32.0158 126.554 31.5821C126.704 31.1484 126.824 30.7634 126.912 30.4271ZM123.606 27.6258L125.385 27.7718C125.376 27.8603 125.341 27.9355 125.279 27.9975C125.217 28.0506 125.115 28.086 124.974 28.1037V30.374H123.606V27.6258ZM125.89 27.6258L127.682 27.7718C127.673 27.8603 127.638 27.9355 127.576 27.9975C127.523 28.0506 127.421 28.0904 127.271 28.117V30.374H125.89V27.6258ZM123.792 35.7509H125.651V35.9634C125.022 36.8131 124.164 37.5565 123.075 38.1938C121.987 38.8222 120.769 39.3267 119.424 39.7073L119.331 39.5347C119.968 39.2249 120.566 38.8665 121.124 38.4593C121.69 38.0522 122.199 37.6141 122.65 37.145C123.111 36.6759 123.491 36.2112 123.792 35.7509ZM126.288 35.7509C126.562 36.0607 126.903 36.3528 127.31 36.6272C127.726 36.9016 128.178 37.1538 128.665 37.3839C129.151 37.6052 129.651 37.7955 130.165 37.9548C130.687 38.1053 131.196 38.2292 131.692 38.3266L131.678 38.4726C131.404 38.5346 131.165 38.6762 130.961 38.8975C130.767 39.1187 130.629 39.402 130.55 39.7472C129.904 39.4905 129.302 39.1763 128.744 38.8045C128.195 38.4239 127.7 37.9858 127.257 37.4902C126.815 36.9945 126.439 36.4457 126.129 35.8439L126.288 35.7509ZM124.602 32.6974H126.155V39.7206C126.155 39.7649 126.045 39.8357 125.823 39.933C125.602 40.0392 125.288 40.0923 124.881 40.0923H124.602V32.6974ZM134.188 39.3621C134.028 39.3621 133.878 39.2869 133.736 39.1364C133.603 38.986 133.537 38.7868 133.537 38.539C133.537 38.3443 133.555 38.1894 133.59 38.0743C133.634 37.9593 133.718 37.8265 133.842 37.676C134.055 37.4016 134.276 37.1007 134.506 36.7732C134.736 36.4369 134.966 36.0696 135.197 35.6713C135.427 35.273 135.648 34.857 135.86 34.4233C136.046 34.025 136.223 33.6267 136.391 33.2284C136.568 32.8213 136.728 32.4274 136.869 32.0468C137.011 31.6662 137.131 31.3166 137.228 30.998C137.334 30.6793 137.414 30.405 137.467 30.1748C137.529 29.9447 137.56 29.781 137.56 29.6836C137.56 29.5951 137.542 29.5154 137.507 29.4446C137.48 29.3738 137.427 29.3207 137.347 29.2853C137.241 29.2145 137.095 29.1525 136.909 29.0994C136.732 29.0463 136.551 29.0021 136.365 28.9667V28.7675C136.507 28.6879 136.675 28.6126 136.869 28.5418C137.064 28.471 137.299 28.4356 137.573 28.4356C137.724 28.4356 137.901 28.4666 138.104 28.5286C138.317 28.5817 138.52 28.6613 138.715 28.7675C138.918 28.8649 139.087 28.9711 139.219 29.0862C139.352 29.2012 139.418 29.3163 139.418 29.4314C139.418 29.5464 139.383 29.6571 139.312 29.7633C139.241 29.8606 139.162 29.9624 139.073 30.0686C138.985 30.166 138.91 30.2899 138.848 30.4404C138.759 30.6439 138.64 30.9227 138.489 31.2768C138.348 31.6308 138.188 32.0247 138.011 32.4584C137.834 32.8832 137.653 33.3081 137.467 33.7329C137.29 34.1489 137.122 34.5295 136.962 34.8747C136.812 35.211 136.648 35.5606 136.471 35.9235C136.303 36.2864 136.13 36.6449 135.953 36.9989C135.776 37.353 135.608 37.6805 135.449 37.9814C135.298 38.2735 135.166 38.5213 135.051 38.7249C134.9 38.9815 134.763 39.1497 134.639 39.2294C134.515 39.3179 134.365 39.3621 134.188 39.3621ZM137.985 39.2161C137.728 39.2161 137.538 39.1541 137.414 39.0302C137.29 38.9063 137.188 38.6806 137.108 38.3531C137.082 38.2646 137.046 38.185 137.002 38.1142C136.967 38.0345 136.896 37.9327 136.79 37.8088C136.684 37.6849 136.524 37.5079 136.312 37.2777L136.431 37.1051C136.768 37.2733 137.064 37.4105 137.321 37.5167C137.577 37.6229 137.794 37.676 137.971 37.676C138.184 37.676 138.352 37.6406 138.476 37.5698C138.609 37.499 138.737 37.3795 138.861 37.2114C139.02 37.0255 139.162 36.7777 139.286 36.4679C139.41 36.1492 139.516 35.804 139.604 35.4323C139.693 35.0606 139.759 34.6844 139.804 34.3038C139.848 33.9232 139.87 33.5648 139.87 33.2284C139.87 32.8744 139.804 32.6088 139.671 32.4318C139.547 32.246 139.33 32.153 139.02 32.153C138.825 32.153 138.582 32.1884 138.29 32.2592C138.007 32.33 137.701 32.423 137.374 32.538C137.055 32.6531 136.741 32.7726 136.431 32.8965C136.13 33.0204 135.874 33.1311 135.661 33.2284C135.44 33.3258 135.254 33.4099 135.104 33.4807C134.953 33.5426 134.789 33.5736 134.612 33.5736C134.48 33.5736 134.334 33.5072 134.174 33.3745C134.015 33.2417 133.873 33.0824 133.749 32.8965C133.626 32.7106 133.546 32.5248 133.51 32.3389C133.475 32.1619 133.475 31.9981 133.51 31.8477C133.555 31.6972 133.603 31.5556 133.657 31.4228L133.842 31.383C133.966 31.5954 134.077 31.768 134.174 31.9008C134.28 32.0335 134.418 32.0999 134.586 32.0999C134.727 32.0999 134.909 32.0822 135.13 32.0468C135.36 32.0026 135.617 31.9539 135.9 31.9008C136.183 31.8388 136.484 31.7769 136.803 31.7149C137.122 31.6529 137.44 31.5954 137.759 31.5423C137.971 31.4981 138.232 31.4582 138.542 31.4228C138.852 31.3786 139.118 31.3564 139.339 31.3564C139.87 31.3564 140.295 31.5379 140.613 31.9008C140.932 32.2548 141.091 32.8744 141.091 33.7595C141.091 34.3259 141.043 34.9012 140.945 35.4854C140.857 36.0696 140.711 36.6183 140.507 37.1317C140.304 37.645 140.038 38.0832 139.711 38.4461C139.498 38.6673 139.241 38.8488 138.941 38.9904C138.64 39.1409 138.321 39.2161 137.985 39.2161ZM144.344 36.2687C144.194 36.2687 144.074 36.2333 143.986 36.1625C143.906 36.0917 143.826 36.0076 143.747 35.9103C143.676 35.8129 143.565 35.7377 143.415 35.6846C143.317 35.6492 143.185 35.6182 143.016 35.5916C142.848 35.5651 142.671 35.5429 142.485 35.5252C142.299 35.4987 142.127 35.4854 141.968 35.4854L141.928 35.2464C142.114 35.1933 142.286 35.1491 142.446 35.1137C142.614 35.0694 142.76 35.0296 142.884 34.9942C143.016 34.9499 143.131 34.9101 143.229 34.8747C143.379 34.8039 143.486 34.7242 143.547 34.6357C143.618 34.5472 143.649 34.4144 143.64 34.2374C143.64 34.0427 143.605 33.8037 143.534 33.5205C143.472 33.2284 143.353 32.9452 143.176 32.6708C143.008 32.3876 142.795 32.1486 142.538 31.9539C142.291 31.7592 141.99 31.6175 141.636 31.529L141.715 31.2901C142.149 31.3078 142.578 31.3918 143.003 31.5423C143.437 31.6928 143.817 31.9273 144.145 32.246C144.517 32.5823 144.787 32.9806 144.955 33.4408C145.132 33.8922 145.22 34.379 145.22 34.9012C145.22 35.2995 145.145 35.627 144.995 35.8837C144.844 36.1404 144.627 36.2687 144.344 36.2687ZM150.85 39.2958C151.372 39.2249 151.872 39.132 152.35 39.0169C152.837 38.9107 153.23 38.8001 153.531 38.685C154.293 38.4107 154.886 38.1142 155.31 37.7955C155.735 37.468 156.032 37.1317 156.2 36.7865C156.377 36.4325 156.465 36.074 156.465 35.7111C156.465 35.3925 156.395 35.096 156.253 34.8216C156.12 34.5472 155.921 34.3259 155.656 34.1578C155.399 33.9896 155.08 33.9055 154.7 33.9055C154.328 33.9055 153.956 33.994 153.584 34.171C153.213 34.3481 152.854 34.5738 152.509 34.8481C152.173 35.1137 151.863 35.3925 151.58 35.6846C151.296 35.9766 151.058 36.2422 150.863 36.4811C150.757 36.6316 150.659 36.7865 150.571 36.9458C150.482 37.0963 150.389 37.2246 150.292 37.3308C150.195 37.4282 150.071 37.4769 149.92 37.4769C149.663 37.4769 149.411 37.3308 149.163 37.0388C149.048 36.9148 148.96 36.7821 148.898 36.6405C148.845 36.4988 148.818 36.3528 148.818 36.2023C148.818 36.0784 148.836 35.9368 148.871 35.7775C148.907 35.6093 148.947 35.3969 148.991 35.1402C149.026 34.9278 149.066 34.6623 149.11 34.3436C149.163 34.025 149.212 33.7064 149.256 33.3877C149.309 33.0602 149.345 32.7903 149.363 32.5779C149.38 32.3831 149.389 32.2194 149.389 32.0866C149.389 31.9539 149.389 31.8034 149.389 31.6352C149.389 31.4582 149.433 31.2856 149.522 31.1175C149.61 30.9404 149.77 30.8298 150 30.7855C150.195 30.7501 150.438 30.697 150.73 30.6262C151.031 30.5554 151.323 30.4758 151.606 30.3873C151.898 30.2987 152.12 30.2147 152.27 30.135C152.421 30.0553 152.438 29.9359 152.323 29.7765C152.155 29.5022 151.916 29.2897 151.606 29.1393C151.296 28.98 150.934 28.8339 150.518 28.7011L150.571 28.502C151.235 28.4577 151.779 28.4799 152.204 28.5684C152.637 28.6569 152.987 28.7808 153.253 28.9401C153.633 29.1525 153.925 29.4048 154.129 29.6969C154.332 29.989 154.434 30.3297 154.434 30.7192C154.434 30.905 154.385 31.0511 154.288 31.1573C154.191 31.2635 154.031 31.3166 153.81 31.3166C153.66 31.3166 153.518 31.3033 153.385 31.2768C153.261 31.2502 153.124 31.2237 152.974 31.1971C152.832 31.1617 152.66 31.1352 152.456 31.1175C152.252 31.1086 152.027 31.1086 151.779 31.1175C151.54 31.1263 151.314 31.144 151.102 31.1706C150.898 31.1883 150.739 31.2104 150.624 31.2369C150.509 31.2458 150.429 31.2768 150.385 31.3299C150.349 31.383 150.332 31.4317 150.332 31.4759C150.332 31.5821 150.367 31.7149 150.438 31.8742C150.509 32.0335 150.553 32.2061 150.571 32.392C150.58 32.5779 150.575 32.7549 150.557 32.9231C150.54 33.0824 150.513 33.2682 150.478 33.4807C150.451 33.7462 150.407 34.0073 150.345 34.264C150.292 34.5207 150.27 34.7464 150.279 34.9411C150.287 35.0827 150.345 35.1181 150.451 35.0473C150.69 34.8968 150.965 34.7242 151.274 34.5295C151.593 34.3348 151.943 34.1489 152.323 33.9719C152.704 33.786 153.107 33.6356 153.531 33.5205C153.965 33.4054 154.403 33.3479 154.846 33.3479C155.563 33.3479 156.156 33.4895 156.625 33.7728C157.094 34.056 157.448 34.4189 157.687 34.8614C157.926 35.2951 158.045 35.7509 158.045 36.2289C158.045 36.7511 157.904 37.2069 157.62 37.5964C157.337 37.9858 156.957 38.3221 156.479 38.6054C156.001 38.8798 155.452 39.0966 154.832 39.2559C154.213 39.4241 153.567 39.5303 152.894 39.5746C152.221 39.6277 151.549 39.6232 150.876 39.5613L150.85 39.2958Z" fill="#333333"/>
    <path d="M69.2128 83.7433L69.4552 82.425L75.4541 81.6339H80.9947L86.1869 82.5568L85.9525 83.8312L69.2128 83.7433ZM74.6193 83.7433C75.3444 80.2863 76.0222 76.8439 76.6525 73.4161L80.2164 54.0361L74.4043 54.7832L74.6791 53.289L86.3712 50.6962L86.9526 51.1796L85.4727 58.2549L82.6847 73.4161C82.3722 75.1153 82.0692 76.8439 81.7757 78.6017C81.5174 80.3302 81.247 82.0441 80.9643 83.7433H74.6193ZM99.9064 84.4465C97.0169 84.4465 94.8268 83.8019 93.3362 82.5129C91.8455 81.2238 91.1762 79.4367 91.3284 77.1515C91.6744 76.5655 92.0951 76.1407 92.5904 75.8771C93.1209 75.5841 93.6691 75.4376 94.2351 75.4376C95.0096 75.4376 95.5772 75.672 95.9378 76.1407C96.3282 76.6095 96.4955 77.4005 96.4397 78.5138L96.4929 83.0842L95.1919 81.8976C95.8368 82.2785 96.441 82.5568 97.0044 82.7326C97.5678 82.9084 98.2815 82.9963 99.1454 82.9963C101.379 82.9963 103.272 82.2638 104.822 80.799C106.407 79.3048 107.456 77.1661 107.968 74.3829C108.447 71.7755 108.171 69.7979 107.138 68.4503C106.134 67.1026 104.545 66.4288 102.371 66.4288C101.477 66.4288 100.615 66.502 99.7835 66.6485C98.9522 66.795 98.1251 67 97.3021 67.2637L96.1803 66.5606L100.081 51.1796H117.552L116.695 55.8378H100.074L101.76 52.498L98.2315 66.3409L96.6305 65.8135C97.9894 65.2276 99.3132 64.8321 100.602 64.627C101.896 64.3926 103.228 64.2754 104.599 64.2754C108.173 64.2754 110.85 65.1104 112.628 66.7803C114.411 68.421 115.004 70.8673 114.406 74.1192C114.002 76.3165 113.121 78.1915 111.763 79.7443C110.41 81.2677 108.706 82.4396 106.648 83.2599C104.626 84.051 102.379 84.4465 99.9064 84.4465Z" fill="#C8B464"/>
    <path d="M120.911 76.0268H140.587L142.858 73.7809C142.858 73.7809 142.957 73.8679 143.155 74.042C143.357 74.1987 143.602 74.4076 143.89 74.6688C144.196 74.9299 144.506 75.2172 144.82 75.5306C145.155 75.8265 145.467 76.1051 145.755 76.3662C145.633 76.6448 145.351 76.7841 144.908 76.7841H120.984L120.911 76.0268ZM135.799 63.0737H139.198L135.615 82.5555C135.582 82.6426 135.304 82.8079 134.781 83.0517C134.258 83.2954 133.554 83.4173 132.669 83.4173H132.058L135.799 63.0737ZM128.532 68.9496H140.72L142.835 66.8343C142.835 66.8343 142.926 66.9126 143.11 67.0693C143.294 67.226 143.53 67.4349 143.818 67.6961C144.109 67.9398 144.407 68.201 144.709 68.4795C145.012 68.7581 145.292 69.0192 145.548 69.263C145.426 69.5415 145.152 69.6808 144.727 69.6808H128.397L128.532 68.9496ZM126.726 68.9496L126.976 67.5916L130.391 68.9496H130.045L128.653 76.5229H125.334L126.726 68.9496ZM130.518 58.5819L134.597 60.2272C134.497 60.3839 134.351 60.5057 134.158 60.5928C133.965 60.6798 133.711 60.7147 133.395 60.6972C131.753 62.8909 129.973 64.7712 128.056 66.3381C126.157 67.905 124.203 69.1933 122.194 70.2031L121.972 69.9681C122.911 69.0976 123.889 68.0617 124.907 66.8604C125.945 65.6417 126.948 64.3272 127.915 62.917C128.883 61.5068 129.75 60.0618 130.518 58.5819ZM129.719 63.0737H142.384L144.656 60.8278C144.656 60.8278 144.748 60.9062 144.932 61.0629C145.115 61.2195 145.36 61.4285 145.666 61.6896C145.972 61.9508 146.284 62.2293 146.601 62.5253C146.936 62.8213 147.246 63.1085 147.531 63.3871C147.47 63.5264 147.362 63.6308 147.208 63.7005C147.054 63.7701 146.888 63.8049 146.711 63.8049H129.212L129.719 63.0737ZM153.973 60.41L158.058 60.7234C158.008 60.8975 157.909 61.0542 157.759 61.1934C157.627 61.3327 157.371 61.4285 156.989 61.4807L154.345 77.3064L150.971 78.3249L153.973 60.41ZM159.417 63.4393C160.795 63.8398 161.865 64.3272 162.627 64.9018C163.392 65.4589 163.922 66.0421 164.217 66.6515C164.515 67.2434 164.616 67.8005 164.52 68.3228C164.442 68.8451 164.238 69.2804 163.908 69.6286C163.579 69.9768 163.188 70.177 162.736 70.2292C162.301 70.2815 161.854 70.1161 161.393 69.733C161.344 69.0366 161.201 68.3228 160.964 67.5916C160.726 66.8604 160.44 66.1553 160.105 65.4763C159.79 64.7799 159.463 64.1531 159.123 63.596L159.417 63.4393ZM165.505 75.2433C167.117 75.7134 168.396 76.2705 169.339 76.9147C170.286 77.5414 170.963 78.1943 171.369 78.8733C171.775 79.5523 171.967 80.1964 171.943 80.8058C171.94 81.3977 171.778 81.8939 171.457 82.2944C171.15 82.7122 170.758 82.9646 170.282 83.0517C169.806 83.1387 169.318 82.9995 168.819 82.6338C168.701 82.0245 168.515 81.3977 168.262 80.7536C168.008 80.1094 167.709 79.4739 167.364 78.8472C167.037 78.2204 166.689 77.6111 166.32 77.0191C165.951 76.4272 165.588 75.8962 165.232 75.4261L165.505 75.2433ZM147.374 77.9593C148.034 77.8374 148.871 77.6633 149.886 77.437C150.902 77.2106 152.038 76.9495 153.296 76.6535C154.575 76.3401 155.904 76.0006 157.281 75.635C158.679 75.252 160.078 74.8603 161.48 74.4599L161.507 74.7471C160.12 75.548 158.431 76.4533 156.44 77.4631C154.466 78.4729 152.068 79.5784 149.245 80.7797C149.057 81.1279 148.793 81.3629 148.452 81.4848L147.374 77.9593ZM169.678 60.4883L174.062 60.9062C174.009 61.0977 173.882 61.2631 173.679 61.4024C173.494 61.5416 173.23 61.6287 172.888 61.6635C172.493 63.4219 172.073 65.0846 171.625 66.6515C171.195 68.2184 170.675 69.6982 170.065 71.091C169.476 72.4664 168.715 73.7635 167.783 74.9822C166.872 76.1834 165.729 77.2977 164.354 78.3249C162.996 79.3521 161.345 80.2922 159.401 81.1453C157.474 81.9984 155.18 82.7731 152.521 83.4695L152.364 83.0256C155.064 81.9113 157.332 80.7449 159.167 79.5262C161.002 78.3075 162.514 77.0191 163.702 75.6611C164.893 74.2858 165.852 72.8233 166.58 71.2738C167.307 69.7243 167.907 68.053 168.378 66.2597C168.849 64.4665 169.283 62.5427 169.678 60.4883ZM188.003 59.3132L192.313 59.7049C192.26 59.8964 192.15 60.0618 191.982 60.2011C191.836 60.3229 191.581 60.41 191.217 60.4622L187.308 81.7198H183.883L188.003 59.3132ZM188.1 69.1846H193.968L196.295 66.782C196.295 66.782 196.393 66.8778 196.588 67.0693C196.803 67.2434 197.063 67.4697 197.366 67.7483C197.672 68.0094 197.99 68.2967 198.322 68.6101C198.654 68.9235 198.954 69.2194 199.221 69.498C199.099 69.7766 198.826 69.9158 198.401 69.9158H187.965L188.1 69.1846ZM174.056 81.302H193.599L195.979 78.8994C195.979 78.8994 196.078 78.9865 196.276 79.1606C196.474 79.3347 196.732 79.5697 197.049 79.8657C197.37 80.1442 197.696 80.4402 198.028 80.7536C198.377 81.0669 198.694 81.3629 198.979 81.6415C198.857 81.92 198.575 82.0593 198.133 82.0593H174.155L174.056 81.302Z" fill="#C8B464"/>
    <g clip-path="url(#clip2_2208_3953)">
    <path d="M136.294 3.70413H136.281L134.449 0L132.63 3.70413L128.541 4.30157L131.501 7.18256L130.798 11.2584L134.449 9.33335L138.113 11.2584L137.409 7.18256L140.37 4.30157L136.294 3.70413Z" fill="#C8B464"/>
    <path d="M154.39 13.2234L151.244 12.772L151.23 12.7587L149.823 9.9043L148.416 12.7587L145.256 13.2234L147.539 15.4406L147.008 18.5871L149.823 17.1001L152.638 18.5871L152.107 15.4406L154.39 13.2234Z" fill="#C8B464"/>
    <path d="M118.783 12.772L118.769 12.7587L117.362 9.9043L115.941 12.7587L112.795 13.2234L115.078 15.4406L114.534 18.5871L117.362 17.1001L120.177 18.5871L119.632 15.4406L121.916 13.2234L118.783 12.772Z" fill="#C8B464"/>
    </g>
    <defs>
    <linearGradient id="paint0_linear_2208_3953" x1="30.4366" y1="74.8125" x2="30.4366" y2="91.3019" gradientUnits="userSpaceOnUse">
    <stop stop-color="#C8B464"/>
    <stop offset="0.51" stop-color="#EDDB92"/>
    <stop offset="1" stop-color="#C8B464"/>
    </linearGradient>
    <linearGradient id="paint1_linear_2208_3953" x1="24.9246" y1="89.834" x2="24.9246" y2="97.2556" gradientUnits="userSpaceOnUse">
    <stop stop-color="#C8B464"/>
    <stop offset="0.51" stop-color="#EDDB92"/>
    <stop offset="1" stop-color="#C8B464"/>
    </linearGradient>
    <linearGradient id="paint2_linear_2208_3953" x1="21.9305" y1="65.6787" x2="21.9305" y2="81.1458" gradientUnits="userSpaceOnUse">
    <stop stop-color="#C8B464"/>
    <stop offset="0.51" stop-color="#EDDB92"/>
    <stop offset="1" stop-color="#C8B464"/>
    </linearGradient>
    <linearGradient id="paint3_linear_2208_3953" x1="14.9407" y1="77.1084" x2="14.9407" y2="85.8918" gradientUnits="userSpaceOnUse">
    <stop stop-color="#C8B464"/>
    <stop offset="0.51" stop-color="#EDDB92"/>
    <stop offset="1" stop-color="#C8B464"/>
    </linearGradient>
    <linearGradient id="paint4_linear_2208_3953" x1="16.638" y1="54.6992" x2="16.638" y2="69.8609" gradientUnits="userSpaceOnUse">
    <stop stop-color="#C8B464"/>
    <stop offset="0.51" stop-color="#EDDB92"/>
    <stop offset="1" stop-color="#C8B464"/>
    </linearGradient>
    <linearGradient id="paint5_linear_2208_3953" x1="7.97033" y1="60.9658" x2="7.97033" y2="73.0646" gradientUnits="userSpaceOnUse">
    <stop stop-color="#C8B464"/>
    <stop offset="0.51" stop-color="#EDDB92"/>
    <stop offset="1" stop-color="#C8B464"/>
    </linearGradient>
    <linearGradient id="paint6_linear_2208_3953" x1="14.6535" y1="43.8525" x2="14.6535" y2="56.9829" gradientUnits="userSpaceOnUse">
    <stop stop-color="#C8B464"/>
    <stop offset="0.51" stop-color="#EDDB92"/>
    <stop offset="1" stop-color="#C8B464"/>
    </linearGradient>
    <linearGradient id="paint7_linear_2208_3953" x1="5.6868" y1="46.3076" x2="5.6868" y2="59.0265" gradientUnits="userSpaceOnUse">
    <stop stop-color="#C8B464"/>
    <stop offset="0.51" stop-color="#EDDB92"/>
    <stop offset="1" stop-color="#C8B464"/>
    </linearGradient>
    <linearGradient id="paint8_linear_2208_3953" x1="14.9999" y1="34" x2="14.9999" y2="44.4884" gradientUnits="userSpaceOnUse">
    <stop stop-color="#C8B464"/>
    <stop offset="0.51" stop-color="#EDDB92"/>
    <stop offset="1" stop-color="#C8B464"/>
    </linearGradient>
    <linearGradient id="paint9_linear_2208_3953" x1="6.46937" y1="32.3809" x2="6.46937" y2="46.1618" gradientUnits="userSpaceOnUse">
    <stop stop-color="#C8B464"/>
    <stop offset="0.51" stop-color="#EDDB92"/>
    <stop offset="1" stop-color="#C8B464"/>
    </linearGradient>
    <linearGradient id="paint10_linear_2208_3953" x1="17.2374" y1="26.4004" x2="17.2374" y2="32.9392" gradientUnits="userSpaceOnUse">
    <stop stop-color="#C8B464"/>
    <stop offset="0.51" stop-color="#EDDB92"/>
    <stop offset="1" stop-color="#C8B464"/>
    </linearGradient>
    <linearGradient id="paint11_linear_2208_3953" x1="9.50765" y1="21.123" x2="9.50765" y2="33.5896" gradientUnits="userSpaceOnUse">
    <stop stop-color="#C8B464"/>
    <stop offset="0.51" stop-color="#EDDB92"/>
    <stop offset="1" stop-color="#C8B464"/>
    </linearGradient>
    <linearGradient id="paint12_linear_2208_3953" x1="19.9989" y1="21.0283" x2="19.9989" y2="24.3755" gradientUnits="userSpaceOnUse">
    <stop stop-color="#C8B464"/>
    <stop offset="0.51" stop-color="#EDDB92"/>
    <stop offset="1" stop-color="#C8B464"/>
    </linearGradient>
    <linearGradient id="paint13_linear_2208_3953" x1="14.7733" y1="16.5166" x2="14.7733" y2="24.9737" gradientUnits="userSpaceOnUse">
    <stop stop-color="#C8B464"/>
    <stop offset="0.51" stop-color="#EDDB92"/>
    <stop offset="1" stop-color="#C8B464"/>
    </linearGradient>
    <linearGradient id="paint14_linear_2208_3953" x1="21.1119" y1="11.9492" x2="21.1119" y2="19.0787" gradientUnits="userSpaceOnUse">
    <stop stop-color="#C8B464"/>
    <stop offset="0.51" stop-color="#EDDB92"/>
    <stop offset="1" stop-color="#C8B464"/>
    </linearGradient>
    <linearGradient id="paint15_linear_2208_3953" x1="237.306" y1="74.8125" x2="237.306" y2="91.3019" gradientUnits="userSpaceOnUse">
    <stop stop-color="#C8B464"/>
    <stop offset="0.51" stop-color="#EDDB92"/>
    <stop offset="1" stop-color="#C8B464"/>
    </linearGradient>
    <linearGradient id="paint16_linear_2208_3953" x1="242.818" y1="89.834" x2="242.818" y2="97.2556" gradientUnits="userSpaceOnUse">
    <stop stop-color="#C8B464"/>
    <stop offset="0.51" stop-color="#EDDB92"/>
    <stop offset="1" stop-color="#C8B464"/>
    </linearGradient>
    <linearGradient id="paint17_linear_2208_3953" x1="245.812" y1="65.6787" x2="245.812" y2="81.1458" gradientUnits="userSpaceOnUse">
    <stop stop-color="#C8B464"/>
    <stop offset="0.51" stop-color="#EDDB92"/>
    <stop offset="1" stop-color="#C8B464"/>
    </linearGradient>
    <linearGradient id="paint18_linear_2208_3953" x1="252.801" y1="77.1084" x2="252.801" y2="85.8918" gradientUnits="userSpaceOnUse">
    <stop stop-color="#C8B464"/>
    <stop offset="0.51" stop-color="#EDDB92"/>
    <stop offset="1" stop-color="#C8B464"/>
    </linearGradient>
    <linearGradient id="paint19_linear_2208_3953" x1="251.104" y1="54.6992" x2="251.104" y2="69.8609" gradientUnits="userSpaceOnUse">
    <stop stop-color="#C8B464"/>
    <stop offset="0.51" stop-color="#EDDB92"/>
    <stop offset="1" stop-color="#C8B464"/>
    </linearGradient>
    <linearGradient id="paint20_linear_2208_3953" x1="259.772" y1="60.9658" x2="259.772" y2="73.0646" gradientUnits="userSpaceOnUse">
    <stop stop-color="#C8B464"/>
    <stop offset="0.51" stop-color="#EDDB92"/>
    <stop offset="1" stop-color="#C8B464"/>
    </linearGradient>
    <linearGradient id="paint21_linear_2208_3953" x1="253.088" y1="43.8525" x2="253.088" y2="56.9829" gradientUnits="userSpaceOnUse">
    <stop stop-color="#C8B464"/>
    <stop offset="0.51" stop-color="#EDDB92"/>
    <stop offset="1" stop-color="#C8B464"/>
    </linearGradient>
    <linearGradient id="paint22_linear_2208_3953" x1="262.055" y1="46.3076" x2="262.055" y2="59.0265" gradientUnits="userSpaceOnUse">
    <stop stop-color="#C8B464"/>
    <stop offset="0.51" stop-color="#EDDB92"/>
    <stop offset="1" stop-color="#C8B464"/>
    </linearGradient>
    <linearGradient id="paint23_linear_2208_3953" x1="252.742" y1="34" x2="252.742" y2="44.4884" gradientUnits="userSpaceOnUse">
    <stop stop-color="#C8B464"/>
    <stop offset="0.51" stop-color="#EDDB92"/>
    <stop offset="1" stop-color="#C8B464"/>
    </linearGradient>
    <linearGradient id="paint24_linear_2208_3953" x1="261.273" y1="32.3809" x2="261.273" y2="46.1618" gradientUnits="userSpaceOnUse">
    <stop stop-color="#C8B464"/>
    <stop offset="0.51" stop-color="#EDDB92"/>
    <stop offset="1" stop-color="#C8B464"/>
    </linearGradient>
    <linearGradient id="paint25_linear_2208_3953" x1="250.505" y1="26.4004" x2="250.505" y2="32.9392" gradientUnits="userSpaceOnUse">
    <stop stop-color="#C8B464"/>
    <stop offset="0.51" stop-color="#EDDB92"/>
    <stop offset="1" stop-color="#C8B464"/>
    </linearGradient>
    <linearGradient id="paint26_linear_2208_3953" x1="258.235" y1="21.123" x2="258.235" y2="33.5896" gradientUnits="userSpaceOnUse">
    <stop stop-color="#C8B464"/>
    <stop offset="0.51" stop-color="#EDDB92"/>
    <stop offset="1" stop-color="#C8B464"/>
    </linearGradient>
    <linearGradient id="paint27_linear_2208_3953" x1="247.743" y1="21.0283" x2="247.743" y2="24.3755" gradientUnits="userSpaceOnUse">
    <stop stop-color="#C8B464"/>
    <stop offset="0.51" stop-color="#EDDB92"/>
    <stop offset="1" stop-color="#C8B464"/>
    </linearGradient>
    <linearGradient id="paint28_linear_2208_3953" x1="252.969" y1="16.5166" x2="252.969" y2="24.9737" gradientUnits="userSpaceOnUse">
    <stop stop-color="#C8B464"/>
    <stop offset="0.51" stop-color="#EDDB92"/>
    <stop offset="1" stop-color="#C8B464"/>
    </linearGradient>
    <linearGradient id="paint29_linear_2208_3953" x1="246.63" y1="11.9492" x2="246.63" y2="19.0787" gradientUnits="userSpaceOnUse">
    <stop stop-color="#C8B464"/>
    <stop offset="0.51" stop-color="#EDDB92"/>
    <stop offset="1" stop-color="#C8B464"/>
    </linearGradient>
    <clipPath id="clip0_2208_3953">
    <rect width="33.5761" height="85.3012" fill="white" transform="translate(0.914062 11.9492)"/>
    </clipPath>
    <clipPath id="clip1_2208_3953">
    <rect width="33.5761" height="85.3012" fill="white" transform="matrix(-1 0 0 1 266.828 11.9492)"/>
    </clipPath>
    <clipPath id="clip2_2208_3953">
    <rect width="41.5951" height="18.587" fill="white" transform="translate(112.795)"/>
    </clipPath>
    </defs>
</svg>
