<svg width="267" height="98" viewBox="0 0 267 98" fill="none" xmlns="http://www.w3.org/2000/svg">
    <g clip-path="url(#clip0_2208_3954)">
    <path d="M33.143 91.3019C33.143 91.3019 29.3858 89.2042 27.859 84.7964C26.3322 80.3886 28.2042 74.8125 28.2042 74.8125C28.2042 74.8125 31.6561 79.6982 32.8244 83.1236C33.9927 86.5489 33.143 91.3019 33.143 91.3019Z" fill="url(#paint0_linear_2208_3954)"/>
    <path d="M34.4042 95.3514C34.4042 95.3514 31.1116 91.5543 24.9514 90.3063C18.7911 89.0583 15.2728 90.6781 15.2728 90.6781C15.2728 90.6781 19.8266 95.5638 23.7166 96.9047C27.6066 98.2324 34.3909 95.3647 34.3909 95.3647L34.4042 95.3514Z" fill="url(#paint1_linear_2208_3954)"/>
    <path d="M23.345 81.1458C23.345 81.1458 19.8002 77.2823 19.3488 72.7816C18.9106 68.2809 21.4863 65.6787 21.4863 65.6787C21.4863 65.6787 23.8495 69.9006 24.3009 72.7816C24.7523 75.6626 23.345 81.1458 23.345 81.1458Z" fill="url(#paint2_linear_2208_3954)"/>
    <path d="M23.5839 84.3849C23.5839 84.3849 19.8665 79.4328 13.4805 77.9325C8.701 76.804 6.12537 77.1625 6.12537 77.1625C6.12537 77.1625 10.095 83.6016 14.1178 85.3142C18.1406 87.0269 23.5839 84.3849 23.5839 84.3849Z" fill="url(#paint3_linear_2208_3954)"/>
    <path d="M15.4719 69.8609C15.4719 69.8609 13.3875 65.108 14.3434 60.7267C15.2993 56.3455 18.4458 54.6992 18.4458 54.6992C18.4458 54.6992 19.3353 59.4256 18.8839 62.2668C18.4325 65.108 15.4719 69.8476 15.4719 69.8476V69.8609Z" fill="url(#paint4_linear_2208_3954)"/>
    <path d="M14.8479 72.9545C14.8479 72.9545 12.8564 67.3651 7.47947 63.9132C3.49653 61.3508 0.920898 60.9658 0.920898 60.9658C0.920898 60.9658 2.62028 68.1351 5.81991 70.9364C9.01953 73.7378 14.8479 72.9677 14.8479 72.9677V72.9545Z" fill="url(#paint5_linear_2208_3954)"/>
    <path d="M12.0201 56.9829C12.0201 56.9829 10.9845 52.2831 12.6308 48.5126C14.2771 44.7421 17.4368 43.8525 17.4368 43.8525C17.4368 43.8525 17.397 48.2869 16.4677 50.7828C15.5383 53.2788 12.0201 56.9829 12.0201 56.9829Z" fill="url(#paint6_linear_2208_3954)"/>
    <path d="M10.3871 59.0132C10.3871 59.0132 9.72332 53.8354 5.78021 49.9852C2.50093 46.7988 0.814819 46.3076 0.814819 46.3076C0.814819 46.3076 1.02724 52.7201 3.20458 55.6941C5.39519 58.6547 10.3739 59.0265 10.3739 59.0265L10.3871 59.0132Z" fill="url(#paint7_linear_2208_3954)"/>
    <path d="M10.9446 44.4884C10.9446 44.4884 11.1039 40.0142 13.4671 37.0138C15.8303 34.0133 18.8839 34 18.8839 34C18.8839 34 17.8085 37.9829 16.4012 39.9877C14.9806 41.9924 10.9446 44.4751 10.9446 44.4751V44.4884Z" fill="url(#paint8_linear_2208_3954)"/>
    <path d="M9.45772 46.1618C9.45772 46.1618 10.241 41.223 7.41315 36.9081C5.07649 33.35 3.80195 32.3809 3.80195 32.3809C3.80195 32.3809 2.48758 38.2092 3.7754 41.4088C5.06321 44.6085 9.471 46.1618 9.471 46.1618H9.45772Z" fill="url(#paint9_linear_2208_3954)"/>
    <path d="M12.7104 32.9392C12.7104 32.9392 13.9053 29.3944 16.5208 27.6021C19.1363 25.8098 21.5924 26.5533 21.5924 26.5533C21.5924 26.5533 19.7868 29.4741 18.1671 30.7221C16.5473 31.97 12.7104 32.9392 12.7104 32.9392Z" fill="url(#paint10_linear_2208_3954)"/>
    <path d="M10.626 33.5896C10.626 33.5896 12.5113 29.8058 11.1969 25.6636C10.1215 22.3179 9.37806 21.123 9.37806 21.123C9.37806 21.123 6.93519 25.4512 7.20072 28.3322C7.46625 31.2132 10.626 33.5764 10.626 33.5764V33.5896Z" fill="url(#paint11_linear_2208_3954)"/>
    <path d="M16.5077 24.3622C16.5077 24.3622 17.7955 22.1849 19.787 21.375C21.7784 20.5651 23.3185 21.4281 23.3185 21.4281C23.3185 21.4281 21.7121 23.1009 20.4641 23.6984C19.2161 24.2958 16.521 24.3755 16.521 24.3755L16.5077 24.3622Z" fill="url(#paint12_linear_2208_3954)"/>
    <path d="M14.7418 24.9737C14.7418 24.9737 16.481 22.7433 16.2022 19.7959C16.003 17.6982 15.6047 16.5166 15.6047 16.5166C15.6047 16.5166 13.3876 19.0391 13.1619 20.9908C12.9362 22.9424 14.7418 24.9737 14.7418 24.9737Z" fill="url(#paint13_linear_2208_3954)"/>
    <path d="M18.7646 19.0787C18.7646 19.0787 17.7821 16.7951 19.2425 14.5647C20.7029 12.3342 23.6105 11.9492 23.6105 11.9492C23.6105 11.9492 23.3582 14.4717 22.2032 16.118C21.0481 17.7643 18.7646 19.0787 18.7646 19.0787Z" fill="url(#paint14_linear_2208_3954)"/>
    </g>
    <g clip-path="url(#clip1_2208_3954)">
    <path d="M234.427 91.3019C234.427 91.3019 238.185 89.2042 239.711 84.7964C241.238 80.3886 239.366 74.8125 239.366 74.8125C239.366 74.8125 235.914 79.6982 234.746 83.1236C233.578 86.5489 234.427 91.3019 234.427 91.3019Z" fill="url(#paint15_linear_2208_3954)"/>
    <path d="M233.166 95.3514C233.166 95.3514 236.459 91.5543 242.619 90.3063C248.779 89.0583 252.297 90.6781 252.297 90.6781C252.297 90.6781 247.744 95.5638 243.854 96.9047C239.964 98.2324 233.179 95.3647 233.179 95.3647L233.166 95.3514Z" fill="url(#paint16_linear_2208_3954)"/>
    <path d="M244.225 81.1458C244.225 81.1458 247.77 77.2823 248.221 72.7816C248.66 68.2809 246.084 65.6787 246.084 65.6787C246.084 65.6787 243.721 69.9006 243.269 72.7816C242.818 75.6626 244.225 81.1458 244.225 81.1458Z" fill="url(#paint17_linear_2208_3954)"/>
    <path d="M243.986 84.3849C243.986 84.3849 247.704 79.4328 254.09 77.9325C258.869 76.804 261.445 77.1625 261.445 77.1625C261.445 77.1625 257.475 83.6016 253.452 85.3142C249.43 87.0269 243.986 84.3849 243.986 84.3849Z" fill="url(#paint18_linear_2208_3954)"/>
    <path d="M252.098 69.8609C252.098 69.8609 254.183 65.108 253.227 60.7267C252.271 56.3455 249.124 54.6992 249.124 54.6992C249.124 54.6992 248.235 59.4256 248.686 62.2668C249.138 65.108 252.098 69.8476 252.098 69.8476V69.8609Z" fill="url(#paint19_linear_2208_3954)"/>
    <path d="M252.722 72.9545C252.722 72.9545 254.714 67.3651 260.091 63.9132C264.074 61.3508 266.649 60.9658 266.649 60.9658C266.649 60.9658 264.95 68.1351 261.75 70.9364C258.551 73.7378 252.722 72.9677 252.722 72.9677V72.9545Z" fill="url(#paint20_linear_2208_3954)"/>
    <path d="M255.55 56.9829C255.55 56.9829 256.586 52.2831 254.939 48.5126C253.293 44.7421 250.133 43.8525 250.133 43.8525C250.133 43.8525 250.173 48.2869 251.103 50.7828C252.032 53.2788 255.55 56.9829 255.55 56.9829Z" fill="url(#paint21_linear_2208_3954)"/>
    <path d="M257.183 59.0132C257.183 59.0132 257.847 53.8354 261.79 49.9852C265.069 46.7988 266.755 46.3076 266.755 46.3076C266.755 46.3076 266.543 52.7201 264.366 55.6941C262.175 58.6547 257.196 59.0265 257.196 59.0265L257.183 59.0132Z" fill="url(#paint22_linear_2208_3954)"/>
    <path d="M256.625 44.4884C256.625 44.4884 256.466 40.0142 254.103 37.0138C251.74 34.0133 248.686 34 248.686 34C248.686 34 249.762 37.9829 251.169 39.9877C252.589 41.9924 256.625 44.4751 256.625 44.4751V44.4884Z" fill="url(#paint23_linear_2208_3954)"/>
    <path d="M258.112 46.1618C258.112 46.1618 257.329 41.223 260.157 36.9081C262.494 33.35 263.768 32.3809 263.768 32.3809C263.768 32.3809 265.083 38.2092 263.795 41.4088C262.507 44.6085 258.099 46.1618 258.099 46.1618H258.112Z" fill="url(#paint24_linear_2208_3954)"/>
    <path d="M254.86 32.9392C254.86 32.9392 253.665 29.3944 251.049 27.6021C248.434 25.8098 245.978 26.5533 245.978 26.5533C245.978 26.5533 247.783 29.4741 249.403 30.7221C251.023 31.97 254.86 32.9392 254.86 32.9392Z" fill="url(#paint25_linear_2208_3954)"/>
    <path d="M256.944 33.5896C256.944 33.5896 255.059 29.8058 256.373 25.6636C257.449 22.3179 258.192 21.123 258.192 21.123C258.192 21.123 260.635 25.4512 260.369 28.3322C260.104 31.2132 256.944 33.5764 256.944 33.5764V33.5896Z" fill="url(#paint26_linear_2208_3954)"/>
    <path d="M251.063 24.3622C251.063 24.3622 249.775 22.1849 247.783 21.375C245.792 20.5651 244.252 21.4281 244.252 21.4281C244.252 21.4281 245.858 23.1009 247.106 23.6984C248.354 24.2958 251.049 24.3755 251.049 24.3755L251.063 24.3622Z" fill="url(#paint27_linear_2208_3954)"/>
    <path d="M252.828 24.9737C252.828 24.9737 251.089 22.7433 251.368 19.7959C251.567 17.6982 251.965 16.5166 251.965 16.5166C251.965 16.5166 254.183 19.0391 254.408 20.9908C254.634 22.9424 252.828 24.9737 252.828 24.9737Z" fill="url(#paint28_linear_2208_3954)"/>
    <path d="M248.806 19.0787C248.806 19.0787 249.788 16.7951 248.328 14.5647C246.867 12.3342 243.96 11.9492 243.96 11.9492C243.96 11.9492 244.212 14.4717 245.367 16.118C246.522 17.7643 248.806 19.0787 248.806 19.0787Z" fill="url(#paint29_linear_2208_3954)"/>
    </g>
    <path d="M109.77 75.315H115.213L116.036 74.2528C116.036 74.2528 116.085 74.2927 116.182 74.3723C116.279 74.452 116.403 74.5582 116.554 74.691C116.713 74.8149 116.877 74.9476 117.045 75.0893C117.222 75.2309 117.381 75.3636 117.523 75.4876C117.488 75.6292 117.368 75.7 117.165 75.7H109.876L109.77 75.315ZM110.991 75.315H112.451V83.5596L110.991 83.8783V75.315ZM114.217 75.315H115.704V85.8963C115.704 85.9405 115.655 86.0114 115.558 86.1087C115.47 86.2061 115.332 86.2946 115.147 86.3742C114.969 86.4628 114.748 86.507 114.483 86.507H114.217V75.315ZM111.695 77.8242H114.801V78.2092H111.695V77.8242ZM111.695 80.3467H114.801V80.7318H111.695V80.3467ZM115.863 76.5629H120.869V76.948H115.983L115.863 76.5629ZM119.979 76.5629H119.82L120.643 75.6867L122.103 76.9878C122.059 77.0586 121.997 77.1117 121.917 77.1471C121.847 77.1737 121.727 77.2002 121.559 77.2268C121.409 78.0942 121.196 78.9571 120.922 79.8157C120.647 80.6654 120.289 81.4885 119.846 82.2851C119.413 83.0728 118.859 83.8119 118.187 84.5023C117.523 85.1838 116.718 85.7857 115.77 86.3079L115.624 86.1751C116.288 85.5821 116.868 84.9183 117.364 84.1836C117.859 83.449 118.28 82.6613 118.625 81.8204C118.979 80.9796 119.267 80.1166 119.488 79.2315C119.709 78.3376 119.873 77.448 119.979 76.5629ZM109.663 83.3472C109.955 83.3118 110.367 83.2543 110.898 83.1746C111.429 83.095 112.035 82.9976 112.717 82.8825C113.398 82.7675 114.093 82.6524 114.801 82.5374L114.815 82.6967C114.399 82.9445 113.863 83.2454 113.208 83.5995C112.553 83.9535 111.757 84.3518 110.818 84.7943C110.748 84.9891 110.628 85.0997 110.46 85.1263L109.663 83.3472ZM117.018 76.5895C117.213 78.0411 117.545 79.3067 118.014 80.3866C118.492 81.4664 119.094 82.3869 119.82 83.1481C120.554 83.9093 121.404 84.5288 122.369 85.0068L122.329 85.1661C122.002 85.2457 121.727 85.3962 121.506 85.6175C121.285 85.8388 121.143 86.1043 121.081 86.4141C120.205 85.7857 119.466 85.0112 118.864 84.0907C118.271 83.1702 117.802 82.0948 117.457 80.8645C117.12 79.6254 116.886 78.2269 116.753 76.6692L117.018 76.5895ZM133.8 84.8076C133.8 85.1351 133.756 85.4228 133.667 85.6706C133.579 85.9273 133.397 86.1308 133.123 86.2813C132.848 86.4318 132.424 86.5291 131.848 86.5734C131.839 86.3433 131.817 86.1441 131.782 85.976C131.746 85.8078 131.685 85.6706 131.596 85.5644C131.508 85.4582 131.388 85.3697 131.238 85.2989C131.087 85.2192 130.857 85.1484 130.547 85.0864V84.9271C130.547 84.9271 130.609 84.9315 130.733 84.9404C130.857 84.9492 130.999 84.9581 131.158 84.9669C131.326 84.9758 131.485 84.9846 131.636 84.9935C131.786 85.0023 131.893 85.0068 131.954 85.0068C132.061 85.0068 132.132 84.9846 132.167 84.9404C132.202 84.8961 132.22 84.8386 132.22 84.7678V80.214H133.8V84.8076ZM133.694 78.488V78.873H129.538V78.488H133.694ZM133.694 76.709V77.0807H129.538V76.709H133.694ZM128.596 74.3192L130.215 74.9299H132.95L133.667 74.1201L135.048 75.1689C135.013 75.2309 134.955 75.284 134.875 75.3282C134.805 75.3636 134.694 75.3902 134.543 75.4079V78.9925C134.543 79.0279 134.428 79.0943 134.198 79.1917C133.977 79.2802 133.667 79.3244 133.269 79.3244H133.003V75.315H130.069V79.205C130.069 79.2492 129.963 79.32 129.751 79.4174C129.547 79.5059 129.251 79.5501 128.861 79.5501H128.596V74.9299V74.3192ZM128.755 82.5506C129.339 82.6037 129.799 82.7099 130.136 82.8693C130.472 83.0197 130.711 83.1967 130.853 83.4003C130.994 83.6039 131.056 83.803 131.038 83.9978C131.03 84.1836 130.959 84.3474 130.826 84.489C130.702 84.6218 130.538 84.697 130.335 84.7147C130.14 84.7324 129.928 84.666 129.697 84.5155C129.653 84.2943 129.574 84.0686 129.459 83.8384C129.343 83.6083 129.215 83.387 129.074 83.1746C128.932 82.9622 128.79 82.7808 128.649 82.6303L128.755 82.5506ZM134.172 79.0456C134.172 79.0456 134.22 79.0855 134.318 79.1651C134.415 79.2448 134.539 79.3466 134.689 79.4705C134.849 79.5944 135.008 79.7316 135.167 79.8821C135.336 80.0237 135.49 80.1564 135.632 80.2804C135.597 80.422 135.473 80.4928 135.26 80.4928H128.091L127.985 80.121H133.362L134.172 79.0456ZM134.782 80.9442C134.782 80.9442 134.858 81.0061 135.008 81.13C135.167 81.254 135.353 81.4089 135.566 81.5947C135.778 81.7806 135.964 81.9576 136.123 82.1258C136.088 82.2674 135.968 82.3382 135.765 82.3382H127.44L127.334 81.9532H134.039L134.782 80.9442ZM127.905 75.076C127.879 75.1468 127.83 75.1999 127.759 75.2353C127.688 75.2619 127.569 75.2663 127.401 75.2486C127.109 75.5407 126.755 75.8504 126.339 76.1779C125.923 76.5054 125.476 76.8285 124.998 77.1471C124.52 77.4569 124.037 77.7313 123.55 77.9703L123.418 77.8375C123.763 77.4746 124.104 77.0675 124.44 76.6161C124.776 76.1647 125.086 75.7133 125.369 75.2619C125.653 74.8105 125.883 74.4166 126.06 74.0803L127.905 75.076ZM128.131 77.718C128.095 77.78 128.042 77.8286 127.972 77.864C127.901 77.8994 127.781 77.9127 127.613 77.9039C127.321 78.311 126.963 78.7536 126.538 79.2315C126.113 79.7006 125.644 80.1653 125.13 80.6255C124.626 81.0769 124.082 81.4797 123.497 81.8337L123.378 81.7142C123.785 81.2363 124.174 80.7008 124.546 80.1078C124.918 79.5147 125.25 78.9217 125.542 78.3287C125.834 77.7268 126.06 77.1914 126.219 76.7223L128.131 77.718ZM127.122 79.4307C127.078 79.5457 126.94 79.6298 126.71 79.6829V86.0689C126.71 86.1131 126.648 86.1751 126.524 86.2548C126.409 86.3344 126.259 86.4052 126.073 86.4672C125.887 86.5291 125.688 86.5601 125.476 86.5601H125.197V79.7891L125.834 78.9527L127.122 79.4307ZM137.451 85.6706H147.05L147.992 84.4226C147.992 84.4226 148.05 84.4669 148.165 84.5554C148.28 84.6439 148.426 84.7634 148.603 84.9138C148.78 85.0555 148.966 85.2059 149.161 85.3652C149.355 85.5334 149.533 85.6883 149.692 85.8299C149.656 85.9715 149.533 86.0423 149.32 86.0423H137.57L137.451 85.6706ZM142.868 77.6383L144.979 77.8242C144.97 77.9127 144.93 77.9924 144.859 78.0632C144.788 78.1251 144.664 78.1738 144.487 78.2092V85.8034H142.868V77.6383ZM139.482 80.121L141.5 80.2936C141.491 80.391 141.452 80.4706 141.381 80.5326C141.31 80.5946 141.19 80.6388 141.022 80.6654V85.8166H139.482V80.121ZM143.863 81.2761H145.656L146.585 80.0547C146.585 80.0547 146.638 80.0989 146.744 80.1874C146.86 80.2759 147.006 80.391 147.183 80.5326C147.36 80.6742 147.541 80.8247 147.727 80.984C147.922 81.1433 148.094 81.2938 148.245 81.4354C148.209 81.577 148.085 81.6478 147.873 81.6478H143.863V81.2761ZM144.102 75.1025C143.775 75.6247 143.359 76.147 142.854 76.6692C142.35 77.1825 141.792 77.6826 141.182 78.1694C140.571 78.6473 139.934 79.0855 139.27 79.4838C138.606 79.8821 137.947 80.2184 137.292 80.4928L137.212 80.3467C137.655 80.037 138.101 79.6873 138.553 79.2979C139.013 78.8996 139.456 78.4748 139.881 78.0234C140.305 77.572 140.695 77.1117 141.049 76.6426C141.412 76.1735 141.722 75.7133 141.978 75.2619C142.235 74.8105 142.421 74.39 142.536 74.0006L144.979 74.6379C144.952 74.7264 144.89 74.7928 144.793 74.837C144.695 74.8813 144.536 74.9167 144.315 74.9432C144.625 75.3504 144.996 75.7265 145.43 76.0717C145.873 76.4169 146.351 76.7267 146.864 77.0011C147.377 77.2754 147.904 77.5233 148.444 77.7446C148.984 77.957 149.506 78.1428 150.01 78.3022L149.984 78.5013C149.754 78.5633 149.546 78.6783 149.36 78.8465C149.183 79.0058 149.037 79.1917 148.922 79.4041C148.807 79.6165 148.732 79.829 148.696 80.0414C148.041 79.6785 147.413 79.2536 146.811 78.7668C146.218 78.2712 145.687 77.718 145.218 77.1073C144.749 76.4877 144.377 75.8195 144.102 75.1025ZM151.338 76.7223H161.269L162.065 75.7929C162.065 75.7929 162.15 75.8504 162.318 75.9655C162.486 76.0806 162.681 76.2266 162.902 76.4036C163.132 76.5718 163.344 76.7355 163.539 76.8949C163.504 77.0276 163.375 77.094 163.154 77.094H151.458L151.338 76.7223ZM151.444 82.2054H161.056L161.88 81.1964C161.88 81.1964 161.928 81.2363 162.026 81.3159C162.132 81.3867 162.265 81.4841 162.424 81.608C162.583 81.7231 162.747 81.8514 162.915 81.993C163.083 82.1258 163.243 82.2541 163.393 82.378C163.375 82.4488 163.331 82.5019 163.26 82.5374C163.198 82.5728 163.119 82.5905 163.021 82.5905H151.551L151.444 82.2054ZM152.068 78.9793H160.592L161.402 78.0101C161.402 78.0101 161.486 78.072 161.654 78.196C161.822 78.3199 162.017 78.4703 162.238 78.6473C162.468 78.8155 162.676 78.9793 162.862 79.1386C162.836 79.2802 162.716 79.351 162.504 79.351H152.175L152.068 78.9793ZM152.732 80.5459H160.154L160.91 79.6298C160.91 79.6298 160.99 79.6873 161.149 79.8024C161.309 79.9175 161.499 80.0591 161.72 80.2272C161.942 80.3954 162.141 80.5547 162.318 80.7052C162.282 80.8468 162.163 80.9176 161.959 80.9176H152.838L152.732 80.5459ZM152.852 74.4653C153.4 74.5538 153.83 74.691 154.139 74.8768C154.458 75.0539 154.675 75.2486 154.79 75.461C154.914 75.6734 154.963 75.877 154.936 76.0717C154.909 76.2576 154.83 76.4169 154.697 76.5497C154.573 76.6736 154.414 76.74 154.219 76.7488C154.033 76.7488 153.834 76.6692 153.622 76.5098C153.622 76.2709 153.577 76.0319 153.489 75.7929C153.4 75.5539 153.29 75.3238 153.157 75.1025C153.024 74.8813 152.883 74.6954 152.732 74.5449L152.852 74.4653ZM154.551 76.9214C155.082 77.0099 155.494 77.1427 155.786 77.3197C156.078 77.4967 156.277 77.687 156.383 77.8906C156.489 78.0853 156.525 78.2756 156.489 78.4615C156.454 78.6385 156.365 78.7845 156.224 78.8996C156.091 79.0147 155.927 79.0722 155.733 79.0722C155.547 79.0633 155.352 78.9748 155.148 78.8067C155.14 78.5942 155.1 78.3774 155.029 78.1561C154.958 77.9348 154.87 77.7224 154.763 77.5189C154.666 77.3153 154.555 77.1383 154.432 76.9878L154.551 76.9214ZM160.486 74.3723L162.358 74.9565C162.331 75.0362 162.273 75.0981 162.185 75.1424C162.105 75.1778 161.99 75.191 161.84 75.1822C161.592 75.4389 161.278 75.7221 160.897 76.0319C160.525 76.3328 160.145 76.6028 159.755 76.8418H159.556C159.671 76.6116 159.786 76.3549 159.901 76.0717C160.016 75.7796 160.123 75.4876 160.22 75.1955C160.326 74.8945 160.415 74.6202 160.486 74.3723ZM158.879 76.8949L160.791 77.4126C160.738 77.5897 160.57 77.6693 160.286 77.6516C160.047 77.8994 159.738 78.165 159.357 78.4482C158.985 78.7226 158.618 78.966 158.255 79.1784H158.056C158.215 78.8598 158.37 78.4836 158.521 78.0499C158.671 77.6162 158.791 77.2312 158.879 76.8949ZM155.573 74.0935L157.352 74.2396C157.343 74.3281 157.308 74.4033 157.246 74.4653C157.184 74.5184 157.082 74.5538 156.941 74.5715V76.8418H155.573V74.0935ZM157.857 74.0935L159.649 74.2396C159.64 74.3281 159.605 74.4033 159.543 74.4653C159.49 74.5184 159.388 74.5582 159.238 74.5848V76.8418H157.857V74.0935ZM155.759 82.2187H157.618V82.4311C156.989 83.2808 156.131 84.0243 155.042 84.6616C153.954 85.29 152.737 85.7945 151.391 86.1751L151.298 86.0025C151.936 85.6927 152.533 85.3343 153.091 84.9271C153.657 84.52 154.166 84.0818 154.617 83.6127C155.078 83.1436 155.458 82.679 155.759 82.2187ZM158.255 82.2187C158.53 82.5285 158.87 82.8206 159.277 83.095C159.693 83.3693 160.145 83.6216 160.632 83.8517C161.118 84.073 161.619 84.2633 162.132 84.4226C162.654 84.5731 163.163 84.697 163.659 84.7943L163.645 84.9404C163.371 85.0023 163.132 85.144 162.928 85.3652C162.734 85.5865 162.597 85.8697 162.517 86.2149C161.871 85.9582 161.269 85.644 160.711 85.2723C160.163 84.8917 159.667 84.4536 159.224 83.9579C158.782 83.4623 158.406 82.9135 158.096 82.3117L158.255 82.2187ZM156.569 79.1651H158.122V86.1884C158.122 86.2326 158.012 86.3034 157.79 86.4008C157.569 86.507 157.255 86.5601 156.848 86.5601H156.569V79.1651Z" fill="#333333"/>
    <path d="M79.7534 66.4836L80.0201 65.0334L86.9697 64.4181H88.8016L95.659 65.0334L95.3923 66.4836H79.7534ZM83.9536 66.4836C84.4711 63.9933 84.9615 61.4884 85.4249 58.9689C85.8936 56.42 86.365 53.8565 86.8391 51.2784L87.227 49.169C87.6957 46.6201 88.1618 44.0859 88.6251 41.5664C89.0938 39.0175 89.5327 36.4687 89.9419 33.9198H96.5102C96.0225 36.4101 95.5267 38.9443 95.0228 41.5224C94.554 44.0713 94.0853 46.6201 93.6166 49.169L93.0509 52.2452C92.6684 54.3253 92.2535 56.5812 91.8064 59.0128C91.389 61.4445 90.9608 63.9347 90.5219 66.4836H83.9536ZM89.6764 53.3438L89.9673 51.7618H95.0165C96.9229 51.7618 98.5366 51.4102 99.8574 50.7071C101.208 50.004 102.279 49.0371 103.072 47.8067C103.894 46.5762 104.456 45.1406 104.757 43.5C105.237 40.8926 104.96 38.915 103.927 37.5673C102.924 36.2197 101.141 35.5458 98.5794 35.5458H92.9494L93.2484 33.9198H98.9678C103.734 33.9198 107.018 34.7695 108.821 36.4687C110.653 38.1679 111.292 40.5263 110.737 43.5439C110.403 45.3604 109.637 47.0156 108.438 48.5098C107.246 49.9747 105.526 51.1465 103.279 52.0255C101.062 52.9044 98.2555 53.3438 94.8596 53.3438H89.6764ZM85.475 35.3701L85.7417 33.9198H93.2484L92.8686 35.9853H92.1983L85.475 35.3701Z" fill="#C8B464"/>
    <path d="M126.254 56.6517C127.009 56.112 127.731 55.5548 128.42 54.9803C129.131 54.3884 129.796 53.8051 130.415 53.2306C131.034 52.6561 131.597 52.099 132.103 51.5592C132.627 51.0195 133.064 50.5234 133.412 50.0707C133.533 49.8966 133.569 49.7486 133.521 49.6267C133.49 49.5049 133.365 49.4613 133.146 49.4962C132.644 49.531 132.049 49.5919 131.36 49.679C130.671 49.766 129.935 49.8705 129.152 49.9923C128.389 50.0968 127.607 50.21 126.806 50.3318C126.022 50.4537 125.255 50.5843 124.503 50.7236C123.773 50.8454 123.104 50.9673 122.498 51.0892C121.891 51.211 121.391 51.3329 120.997 51.4548C120.754 51.5244 120.501 51.6463 120.239 51.8204C119.98 51.9771 119.714 52.1251 119.44 52.2644C119.188 52.3862 118.938 52.4472 118.69 52.4472C118.354 52.4472 117.999 52.3079 117.625 52.0293C117.251 51.7508 116.924 51.4113 116.644 51.0108C116.384 50.593 116.209 50.2013 116.117 49.8357C116.073 49.5919 116.046 49.3047 116.036 48.9739C116.044 48.6431 116.086 48.2688 116.163 47.8509L116.563 47.6942C116.781 47.9554 116.978 48.1817 117.156 48.3732C117.35 48.5647 117.552 48.7214 117.759 48.8433C117.97 48.9477 118.226 49 118.527 49C119.094 49 119.771 48.9739 120.56 48.9216C121.348 48.8694 122.2 48.8085 123.116 48.7388C124.049 48.6692 124.993 48.5908 125.947 48.5038C126.922 48.3993 127.853 48.2949 128.74 48.1904C129.644 48.086 130.458 47.9902 131.182 47.9031C131.924 47.8161 132.519 47.7552 132.968 47.7203C133.24 47.6855 133.495 47.5985 133.733 47.4592C133.975 47.3025 134.204 47.1632 134.421 47.0414C134.656 46.9195 134.879 46.8585 135.092 46.8585C135.41 46.8585 135.767 46.9891 136.161 47.2503C136.577 47.494 136.962 47.8074 137.316 48.1904C137.692 48.556 137.982 48.9477 138.189 49.3656C138.416 49.766 138.501 50.1229 138.443 50.4363C138.382 50.7671 138.226 50.9934 137.973 51.1153C137.724 51.2198 137.404 51.3242 137.013 51.4287C136.643 51.5157 136.236 51.7072 135.792 52.0032C135.104 52.4733 134.305 53.013 133.396 53.6223C132.509 54.2143 131.526 54.841 130.449 55.5026C129.389 56.1642 128.267 56.8258 127.083 57.4874L126.254 56.6517ZM127.397 62.9976C127.026 62.9976 126.746 62.8845 126.557 62.6581C126.386 62.4318 126.224 62.1097 126.071 61.6919C125.918 61.274 125.717 60.7778 125.468 60.2033C125.238 59.6288 124.889 58.9759 124.421 58.2447C123.81 57.2349 123.203 56.3992 122.599 55.7376C121.995 55.0761 121.441 54.5277 120.936 54.0924L121.301 53.7007C122.329 53.9792 123.358 54.3536 124.387 54.8236C125.419 55.2763 126.344 55.8247 127.164 56.4689C128.002 57.113 128.63 57.8356 129.049 58.6364C129.468 59.4373 129.59 60.3165 129.414 61.274C129.311 61.8311 129.065 62.2577 128.674 62.5537C128.301 62.8496 127.875 62.9976 127.397 62.9976ZM144.359 56.9389C144.023 56.9389 143.662 56.7822 143.277 56.4689C142.913 56.1381 142.587 55.7464 142.298 55.2937C142.013 54.8236 141.829 54.3797 141.747 53.9618C141.677 53.6659 141.683 53.3438 141.765 52.9956C141.85 52.63 141.939 52.2905 142.032 51.9771L142.512 51.8204C142.714 52.1686 142.897 52.4733 143.061 52.7344C143.243 52.9956 143.47 53.2045 143.742 53.3612C144.018 53.5005 144.385 53.5701 144.846 53.5701C145.324 53.5701 145.918 53.5614 146.629 53.544C147.362 53.5092 148.156 53.4743 149.012 53.4395C149.871 53.3873 150.73 53.3351 151.59 53.2828C152.467 53.2306 153.3 53.1784 154.088 53.1261C154.877 53.0739 155.557 53.0304 156.13 52.9956C156.724 52.9433 157.162 52.9172 157.446 52.9172C158.347 52.8302 159.105 52.7518 159.719 52.6822C160.337 52.5951 160.805 52.5516 161.124 52.5516C161.673 52.5516 162.152 52.6387 162.563 52.8128C162.977 52.9695 163.289 53.1958 163.5 53.4918C163.732 53.7703 163.813 54.1011 163.743 54.4841C163.672 54.8671 163.469 55.1544 163.133 55.3459C162.8 55.52 162.35 55.6071 161.784 55.6071C161.27 55.6071 160.732 55.5984 160.169 55.581C159.626 55.5461 158.886 55.5287 157.948 55.5287C157.541 55.5287 156.998 55.5461 156.318 55.581C155.66 55.5984 154.928 55.6332 154.122 55.6854C153.319 55.7202 152.514 55.7638 151.708 55.816C150.902 55.8682 150.158 55.9205 149.475 55.9727C148.793 56.0249 148.244 56.0771 147.827 56.1294C147.18 56.1816 146.667 56.2774 146.287 56.4166C145.911 56.5385 145.578 56.6604 145.29 56.7822C145.006 56.8867 144.695 56.9389 144.359 56.9389ZM166.103 64.9562C167.966 64.0683 169.788 63.015 171.57 61.7963C173.37 60.5776 175.061 59.2719 176.645 57.8791C178.25 56.4689 179.691 55.0325 180.969 53.5701C182.265 52.1077 183.312 50.6975 184.11 49.3395C184.295 49.0087 184.219 48.8433 183.883 48.8433C183.741 48.8433 183.524 48.8694 183.231 48.9216C182.959 48.9565 182.649 49.0087 182.3 49.0783C181.95 49.148 181.619 49.2176 181.305 49.2872C180.991 49.3569 180.731 49.4265 180.523 49.4962C180.224 49.5832 179.953 49.6616 179.71 49.7312C179.485 49.8008 179.239 49.8357 178.974 49.8357C178.744 49.8357 178.483 49.7138 178.191 49.47C177.918 49.2263 177.622 48.9565 177.305 48.6605L177.982 47.7203C178.259 47.7552 178.484 47.7813 178.658 47.7987C178.853 47.7987 179.039 47.7987 179.216 47.7987C179.446 47.7987 179.785 47.7813 180.234 47.7465C180.686 47.6942 181.167 47.6333 181.675 47.5637C182.201 47.494 182.683 47.4244 183.121 47.3547C183.562 47.2677 183.877 47.1893 184.067 47.1197C184.423 47.0152 184.745 46.8498 185.034 46.6235C185.342 46.3972 185.637 46.284 185.92 46.284C186.115 46.284 186.384 46.3624 186.727 46.5191C187.09 46.6583 187.452 46.8585 187.811 47.1197C188.173 47.3634 188.469 47.6333 188.698 47.9293C188.93 48.2078 189.022 48.4777 188.974 48.7388C188.929 48.9826 188.793 49.1915 188.566 49.3656C188.343 49.5223 188.1 49.6877 187.838 49.8618C187.593 50.0359 187.359 50.2535 187.134 50.5146C185.431 52.7431 183.558 54.7975 181.513 56.6778C179.468 58.5581 177.192 60.2468 174.686 61.7441C172.201 63.2239 169.416 64.4601 166.331 65.4524L166.103 64.9562ZM167.54 55.5548C168.535 54.8584 169.486 54.1185 170.391 53.3351C171.317 52.5342 172.174 51.7246 172.962 50.9064C173.767 50.0881 174.476 49.3134 175.089 48.5821C175.701 47.8509 176.193 47.198 176.564 46.6235C176.938 46.0316 177.156 45.5702 177.217 45.2394C177.265 44.9783 177.173 44.7084 176.941 44.4299C176.709 44.1513 176.401 43.8988 176.018 43.6725L176.165 43.3069C176.422 43.2547 176.687 43.2112 176.959 43.1763C177.252 43.1241 177.616 43.1154 178.053 43.1502C178.633 43.1676 179.197 43.2808 179.743 43.4897C180.288 43.6986 180.73 43.9424 181.069 44.2209C181.407 44.4995 181.555 44.7519 181.513 44.9783C181.462 45.2568 181.343 45.4745 181.154 45.6311C180.987 45.7704 180.758 46.0055 180.467 46.3362C179.458 47.5898 178.282 48.8346 176.939 50.0707C175.597 51.3068 174.148 52.4472 172.593 53.4918C171.055 54.5364 169.457 55.3807 167.799 56.0249L167.54 55.5548Z" fill="#C8B464"/>
    <g clip-path="url(#clip2_2208_3954)">
    <path d="M137.991 3.70413H137.978L136.145 0L134.327 3.70413L130.237 4.30157L133.198 7.18256L132.494 11.2584L136.145 9.33335L139.81 11.2584L139.106 7.18256L142.067 4.30157L137.991 3.70413Z" fill="#C8B464"/>
    <path d="M156.087 13.2234L152.94 12.772L152.927 12.7587L151.52 9.9043L150.112 12.7587L146.953 13.2234L149.236 15.4406L148.705 18.5871L151.52 17.1001L154.334 18.5871L153.803 15.4406L156.087 13.2234Z" fill="#C8B464"/>
    <path d="M120.479 12.772L120.466 12.7587L119.059 9.9043L117.638 12.7587L114.492 13.2234L116.775 15.4406L116.231 18.5871L119.059 17.1001L121.873 18.5871L121.329 15.4406L123.612 13.2234L120.479 12.772Z" fill="#C8B464"/>
    </g>
    <defs>
    <linearGradient id="paint0_linear_2208_3954" x1="30.3505" y1="74.8125" x2="30.3505" y2="91.3019" gradientUnits="userSpaceOnUse">
    <stop stop-color="#C8B464"/>
    <stop offset="0.51" stop-color="#EDDB92"/>
    <stop offset="1" stop-color="#C8B464"/>
    </linearGradient>
    <linearGradient id="paint1_linear_2208_3954" x1="24.8385" y1="89.834" x2="24.8385" y2="97.2556" gradientUnits="userSpaceOnUse">
    <stop stop-color="#C8B464"/>
    <stop offset="0.51" stop-color="#EDDB92"/>
    <stop offset="1" stop-color="#C8B464"/>
    </linearGradient>
    <linearGradient id="paint2_linear_2208_3954" x1="21.8444" y1="65.6787" x2="21.8444" y2="81.1458" gradientUnits="userSpaceOnUse">
    <stop stop-color="#C8B464"/>
    <stop offset="0.51" stop-color="#EDDB92"/>
    <stop offset="1" stop-color="#C8B464"/>
    </linearGradient>
    <linearGradient id="paint3_linear_2208_3954" x1="14.8546" y1="77.1084" x2="14.8546" y2="85.8918" gradientUnits="userSpaceOnUse">
    <stop stop-color="#C8B464"/>
    <stop offset="0.51" stop-color="#EDDB92"/>
    <stop offset="1" stop-color="#C8B464"/>
    </linearGradient>
    <linearGradient id="paint4_linear_2208_3954" x1="16.5521" y1="54.6992" x2="16.5521" y2="69.8609" gradientUnits="userSpaceOnUse">
    <stop stop-color="#C8B464"/>
    <stop offset="0.51" stop-color="#EDDB92"/>
    <stop offset="1" stop-color="#C8B464"/>
    </linearGradient>
    <linearGradient id="paint5_linear_2208_3954" x1="7.8844" y1="60.9658" x2="7.8844" y2="73.0646" gradientUnits="userSpaceOnUse">
    <stop stop-color="#C8B464"/>
    <stop offset="0.51" stop-color="#EDDB92"/>
    <stop offset="1" stop-color="#C8B464"/>
    </linearGradient>
    <linearGradient id="paint6_linear_2208_3954" x1="14.5677" y1="43.8525" x2="14.5677" y2="56.9829" gradientUnits="userSpaceOnUse">
    <stop stop-color="#C8B464"/>
    <stop offset="0.51" stop-color="#EDDB92"/>
    <stop offset="1" stop-color="#C8B464"/>
    </linearGradient>
    <linearGradient id="paint7_linear_2208_3954" x1="5.60098" y1="46.3076" x2="5.60098" y2="59.0265" gradientUnits="userSpaceOnUse">
    <stop stop-color="#C8B464"/>
    <stop offset="0.51" stop-color="#EDDB92"/>
    <stop offset="1" stop-color="#C8B464"/>
    </linearGradient>
    <linearGradient id="paint8_linear_2208_3954" x1="14.9142" y1="34" x2="14.9142" y2="44.4884" gradientUnits="userSpaceOnUse">
    <stop stop-color="#C8B464"/>
    <stop offset="0.51" stop-color="#EDDB92"/>
    <stop offset="1" stop-color="#C8B464"/>
    </linearGradient>
    <linearGradient id="paint9_linear_2208_3954" x1="6.38355" y1="32.3809" x2="6.38355" y2="46.1618" gradientUnits="userSpaceOnUse">
    <stop stop-color="#C8B464"/>
    <stop offset="0.51" stop-color="#EDDB92"/>
    <stop offset="1" stop-color="#C8B464"/>
    </linearGradient>
    <linearGradient id="paint10_linear_2208_3954" x1="17.1514" y1="26.4004" x2="17.1514" y2="32.9392" gradientUnits="userSpaceOnUse">
    <stop stop-color="#C8B464"/>
    <stop offset="0.51" stop-color="#EDDB92"/>
    <stop offset="1" stop-color="#C8B464"/>
    </linearGradient>
    <linearGradient id="paint11_linear_2208_3954" x1="9.42159" y1="21.123" x2="9.42159" y2="33.5896" gradientUnits="userSpaceOnUse">
    <stop stop-color="#C8B464"/>
    <stop offset="0.51" stop-color="#EDDB92"/>
    <stop offset="1" stop-color="#C8B464"/>
    </linearGradient>
    <linearGradient id="paint12_linear_2208_3954" x1="19.9131" y1="21.0283" x2="19.9131" y2="24.3755" gradientUnits="userSpaceOnUse">
    <stop stop-color="#C8B464"/>
    <stop offset="0.51" stop-color="#EDDB92"/>
    <stop offset="1" stop-color="#C8B464"/>
    </linearGradient>
    <linearGradient id="paint13_linear_2208_3954" x1="14.6874" y1="16.5166" x2="14.6874" y2="24.9737" gradientUnits="userSpaceOnUse">
    <stop stop-color="#C8B464"/>
    <stop offset="0.51" stop-color="#EDDB92"/>
    <stop offset="1" stop-color="#C8B464"/>
    </linearGradient>
    <linearGradient id="paint14_linear_2208_3954" x1="21.0259" y1="11.9492" x2="21.0259" y2="19.0787" gradientUnits="userSpaceOnUse">
    <stop stop-color="#C8B464"/>
    <stop offset="0.51" stop-color="#EDDB92"/>
    <stop offset="1" stop-color="#C8B464"/>
    </linearGradient>
    <linearGradient id="paint15_linear_2208_3954" x1="237.22" y1="74.8125" x2="237.22" y2="91.3019" gradientUnits="userSpaceOnUse">
    <stop stop-color="#C8B464"/>
    <stop offset="0.51" stop-color="#EDDB92"/>
    <stop offset="1" stop-color="#C8B464"/>
    </linearGradient>
    <linearGradient id="paint16_linear_2208_3954" x1="242.732" y1="89.834" x2="242.732" y2="97.2556" gradientUnits="userSpaceOnUse">
    <stop stop-color="#C8B464"/>
    <stop offset="0.51" stop-color="#EDDB92"/>
    <stop offset="1" stop-color="#C8B464"/>
    </linearGradient>
    <linearGradient id="paint17_linear_2208_3954" x1="245.726" y1="65.6787" x2="245.726" y2="81.1458" gradientUnits="userSpaceOnUse">
    <stop stop-color="#C8B464"/>
    <stop offset="0.51" stop-color="#EDDB92"/>
    <stop offset="1" stop-color="#C8B464"/>
    </linearGradient>
    <linearGradient id="paint18_linear_2208_3954" x1="252.716" y1="77.1084" x2="252.716" y2="85.8918" gradientUnits="userSpaceOnUse">
    <stop stop-color="#C8B464"/>
    <stop offset="0.51" stop-color="#EDDB92"/>
    <stop offset="1" stop-color="#C8B464"/>
    </linearGradient>
    <linearGradient id="paint19_linear_2208_3954" x1="251.018" y1="54.6992" x2="251.018" y2="69.8609" gradientUnits="userSpaceOnUse">
    <stop stop-color="#C8B464"/>
    <stop offset="0.51" stop-color="#EDDB92"/>
    <stop offset="1" stop-color="#C8B464"/>
    </linearGradient>
    <linearGradient id="paint20_linear_2208_3954" x1="259.686" y1="60.9658" x2="259.686" y2="73.0646" gradientUnits="userSpaceOnUse">
    <stop stop-color="#C8B464"/>
    <stop offset="0.51" stop-color="#EDDB92"/>
    <stop offset="1" stop-color="#C8B464"/>
    </linearGradient>
    <linearGradient id="paint21_linear_2208_3954" x1="253.002" y1="43.8525" x2="253.002" y2="56.9829" gradientUnits="userSpaceOnUse">
    <stop stop-color="#C8B464"/>
    <stop offset="0.51" stop-color="#EDDB92"/>
    <stop offset="1" stop-color="#C8B464"/>
    </linearGradient>
    <linearGradient id="paint22_linear_2208_3954" x1="261.969" y1="46.3076" x2="261.969" y2="59.0265" gradientUnits="userSpaceOnUse">
    <stop stop-color="#C8B464"/>
    <stop offset="0.51" stop-color="#EDDB92"/>
    <stop offset="1" stop-color="#C8B464"/>
    </linearGradient>
    <linearGradient id="paint23_linear_2208_3954" x1="252.656" y1="34" x2="252.656" y2="44.4884" gradientUnits="userSpaceOnUse">
    <stop stop-color="#C8B464"/>
    <stop offset="0.51" stop-color="#EDDB92"/>
    <stop offset="1" stop-color="#C8B464"/>
    </linearGradient>
    <linearGradient id="paint24_linear_2208_3954" x1="261.187" y1="32.3809" x2="261.187" y2="46.1618" gradientUnits="userSpaceOnUse">
    <stop stop-color="#C8B464"/>
    <stop offset="0.51" stop-color="#EDDB92"/>
    <stop offset="1" stop-color="#C8B464"/>
    </linearGradient>
    <linearGradient id="paint25_linear_2208_3954" x1="250.419" y1="26.4004" x2="250.419" y2="32.9392" gradientUnits="userSpaceOnUse">
    <stop stop-color="#C8B464"/>
    <stop offset="0.51" stop-color="#EDDB92"/>
    <stop offset="1" stop-color="#C8B464"/>
    </linearGradient>
    <linearGradient id="paint26_linear_2208_3954" x1="258.149" y1="21.123" x2="258.149" y2="33.5896" gradientUnits="userSpaceOnUse">
    <stop stop-color="#C8B464"/>
    <stop offset="0.51" stop-color="#EDDB92"/>
    <stop offset="1" stop-color="#C8B464"/>
    </linearGradient>
    <linearGradient id="paint27_linear_2208_3954" x1="247.657" y1="21.0283" x2="247.657" y2="24.3755" gradientUnits="userSpaceOnUse">
    <stop stop-color="#C8B464"/>
    <stop offset="0.51" stop-color="#EDDB92"/>
    <stop offset="1" stop-color="#C8B464"/>
    </linearGradient>
    <linearGradient id="paint28_linear_2208_3954" x1="252.883" y1="16.5166" x2="252.883" y2="24.9737" gradientUnits="userSpaceOnUse">
    <stop stop-color="#C8B464"/>
    <stop offset="0.51" stop-color="#EDDB92"/>
    <stop offset="1" stop-color="#C8B464"/>
    </linearGradient>
    <linearGradient id="paint29_linear_2208_3954" x1="246.544" y1="11.9492" x2="246.544" y2="19.0787" gradientUnits="userSpaceOnUse">
    <stop stop-color="#C8B464"/>
    <stop offset="0.51" stop-color="#EDDB92"/>
    <stop offset="1" stop-color="#C8B464"/>
    </linearGradient>
    <clipPath id="clip0_2208_3954">
    <rect width="33.5761" height="85.3012" fill="white" transform="translate(0.828125 11.9492)"/>
    </clipPath>
    <clipPath id="clip1_2208_3954">
    <rect width="33.5761" height="85.3012" fill="white" transform="matrix(-1 0 0 1 266.742 11.9492)"/>
    </clipPath>
    <clipPath id="clip2_2208_3954">
    <rect width="41.5951" height="18.587" fill="white" transform="translate(114.492)"/>
    </clipPath>
    </defs>
</svg>
