<svg width="122" height="138" viewBox="0 0 122 138" fill="none" xmlns="http://www.w3.org/2000/svg">
<g clip-path="url(#clip0_2208_2772)">
<path d="M96.9045 102.564C85.3535 98.2213 81.8673 95.6391 79.8668 93.391C77.8703 91.1429 77.2571 88.2738 77.2571 80.9832V58.3213L61.0684 62.3066L44.8796 58.3213V80.9832C44.8796 88.2699 44.2705 91.1429 42.27 93.391C40.2734 95.6391 36.7833 98.2213 25.2323 102.564C13.697 106.903 48.1457 127.659 48.1457 127.659H73.9872C73.9872 127.659 108.436 106.899 96.9006 102.564H96.9045Z" fill="white"/>
<path d="M48.1457 129.067C47.8981 129.067 47.6504 129 47.4225 128.866C42.9695 126.186 20.7989 112.426 21.4828 104.951C21.5889 103.783 22.2413 102.192 24.737 101.252C36.1819 96.9486 39.4205 94.4844 41.2205 92.4603C42.9499 90.5148 43.4765 87.8344 43.4765 80.9839V58.322C43.4765 57.8897 43.673 57.4849 44.015 57.2176C44.353 56.9504 44.7971 56.8561 45.2176 56.9582L61.0723 60.861L76.927 56.9582C77.3475 56.8561 77.7877 56.9504 78.1296 57.2176C78.4676 57.4849 78.6681 57.8897 78.6681 58.322V80.9839C78.6681 87.8344 79.1947 90.5148 80.924 92.4603C82.7202 94.4844 85.9626 96.9486 97.4075 101.252C99.9033 102.192 100.556 103.779 100.662 104.951C101.346 112.426 79.1751 126.182 74.7221 128.866C74.0579 129.267 73.1971 129.051 72.7962 128.387C72.3954 127.723 72.6115 126.862 73.2757 126.461C83.7184 120.169 98.2525 109.412 97.8674 105.206C97.8477 104.986 97.7927 104.396 96.4171 103.882C85.0705 99.6173 81.1795 96.9762 78.8253 94.3272C76.5536 91.7725 75.8619 88.6558 75.8619 80.9879V60.1182L61.4103 63.6751C61.1902 63.7301 60.9583 63.7301 60.7382 63.6751L46.2866 60.1182V80.9879C46.2866 88.6558 45.5949 91.7725 43.3232 94.3272C40.969 96.9762 37.078 99.6173 25.7314 103.882C24.3558 104.396 24.3047 104.986 24.2811 105.206C23.896 109.415 38.4301 120.169 48.8728 126.461C49.537 126.862 49.7492 127.723 49.3522 128.387C49.0889 128.823 48.6252 129.067 48.1496 129.067H48.1457Z" fill="#45B3B1"/>
<path d="M60.9115 112.45C45.4223 112.45 35.4709 105.277 35.4709 105.277L25.4094 110.08L32.8966 135.643H88.9224L96.4096 110.08L86.3481 105.277C86.3481 105.277 76.3967 112.45 60.9075 112.45H60.9115Z" fill="white"/>
<path d="M60.9115 113.852C57.1856 113.852 53.4597 113.443 49.8321 112.642C49.0736 112.473 48.598 111.726 48.767 110.967C48.936 110.213 49.6828 109.733 50.4413 109.902C53.8685 110.661 57.39 111.046 60.9115 111.046C75.7758 111.046 85.4363 104.207 85.5307 104.136C86.1595 103.684 87.036 103.826 87.4879 104.455C87.9399 105.084 87.7984 105.96 87.1696 106.412C86.749 106.715 76.6679 113.848 60.9076 113.848L60.9115 113.852Z" fill="#45B3B1"/>
<path d="M109.926 105.882L90.4161 97.2554L77.8 89.0254L80.5747 94.9286C80.5747 94.9286 79.6432 111.196 72.6199 135.642H120.526C119.952 125.817 119.425 117.76 119.107 114.993C118.069 106.028 109.942 105.878 109.926 105.878V105.882Z" fill="#C0ECEB"/>
<path d="M72.6236 137.046C72.4939 137.046 72.3642 137.03 72.2345 136.991C71.4877 136.778 71.0593 136 71.2716 135.253C77.6072 113.197 78.967 97.6761 79.1518 95.1922L76.5303 89.6191C76.263 89.0531 76.4045 88.3771 76.8801 87.9645C77.3517 87.5518 78.0434 87.5046 78.5661 87.8465L91.088 96.0136L110.248 104.487C113.565 104.676 119.594 107.018 120.502 114.832C120.789 117.324 121.272 124.296 121.929 135.56C121.976 136.334 121.382 136.998 120.608 137.042C119.826 137.089 119.17 136.495 119.126 135.721C118.47 124.512 117.998 117.591 117.715 115.154C116.835 107.553 110.181 107.29 109.898 107.282C109.713 107.278 109.529 107.235 109.36 107.164L89.8499 98.5369C89.7792 98.5054 89.7124 98.47 89.6495 98.4307L81.1719 92.9009L81.844 94.3315C81.9422 94.5437 81.9894 94.7756 81.9737 95.0075C81.9658 95.1726 80.9518 111.715 73.9638 136.032C73.787 136.649 73.2249 137.049 72.6157 137.049L72.6236 137.046Z" fill="#45B3B1"/>
<path d="M89.2248 132.773C89.0007 132.773 88.7728 132.718 88.5645 132.608C87.8806 132.242 87.6251 131.389 87.9907 130.71C90.4864 126.052 92.3061 122.46 93.0961 120.888L87.4011 114.808C87.1221 114.509 86.9884 114.104 87.0317 113.699C87.0749 113.295 87.2911 112.925 87.6291 112.693L91.9838 109.675L88.588 103.563C88.2107 102.887 88.4544 102.03 89.1344 101.653C89.8104 101.276 90.6672 101.519 91.0445 102.199L95.0573 109.423C95.4071 110.052 95.2223 110.846 94.6289 111.259L90.565 114.077L95.8119 119.681C96.2128 120.106 96.3032 120.734 96.0477 121.261C96.028 121.304 93.8625 125.702 90.4667 132.038C90.2152 132.51 89.7278 132.781 89.2287 132.781L89.2248 132.773Z" fill="#45B3B1"/>
<path d="M44.1292 89.0215L31.513 97.2515L12.0032 105.878C12.0032 105.878 3.85973 106.028 2.82214 114.993C2.50379 117.76 1.97714 125.817 1.40332 135.642H49.3093C42.2859 111.196 41.3544 94.9287 41.3544 94.9287L44.1292 89.0254V89.0215Z" fill="#C0ECEB"/>
<path d="M49.3089 137.047C48.6997 137.047 48.1376 136.646 47.9608 136.029C40.9767 111.712 39.9627 95.1696 39.9509 95.0046C39.9391 94.7727 39.9824 94.5369 40.0806 94.3285L40.7527 92.8979L32.2751 98.4278C32.2122 98.471 32.1454 98.5064 32.0747 98.5339L12.5649 107.161C12.3959 107.236 12.2111 107.279 12.0225 107.279C11.7434 107.287 5.0895 107.55 4.20913 115.151C3.92615 117.596 3.45058 124.517 2.79816 135.718C2.75493 136.492 2.09071 137.086 1.31645 137.039C0.542192 136.995 -0.047347 136.331 -0.00411411 135.557C0.652239 124.301 1.13173 117.328 1.42257 114.829C2.47195 105.773 9.99054 104.634 11.657 104.492L30.8327 96.0107L43.3545 87.8436C43.8812 87.5017 44.569 87.5488 45.0406 87.9615C45.5122 88.3742 45.6577 89.0502 45.3904 89.6162L42.7689 95.1893C42.9536 97.6693 44.3135 113.194 50.6491 135.25C50.8613 135.997 50.4329 136.771 49.6862 136.988C49.5565 137.023 49.4268 137.043 49.2971 137.043L49.3089 137.047Z" fill="#45B3B1"/>
<path d="M32.7041 132.773C32.2049 132.773 31.7176 132.506 31.466 132.03C28.0703 125.695 25.9087 121.297 25.8851 121.254C25.6257 120.731 25.72 120.102 26.1209 119.674L31.3717 114.069L27.3078 111.251C26.7144 110.839 26.5296 110.045 26.8794 109.416L30.8922 102.192C31.2695 101.516 32.1224 101.272 32.8023 101.646C33.4783 102.023 33.722 102.876 33.3486 103.556L29.9529 109.667L34.3076 112.686C34.6417 112.918 34.8618 113.283 34.905 113.692C34.9483 114.101 34.8146 114.502 34.5356 114.8L28.8406 120.88C29.6267 122.452 31.4503 126.049 33.946 130.702C34.3116 131.386 34.0561 132.235 33.3722 132.6C33.16 132.714 32.936 132.765 32.7119 132.765L32.7041 132.773Z" fill="#45B3B1"/>
<path d="M61.0651 77.9458C61.0651 77.9458 49.5573 79.1563 39.2403 74.9313C32.4056 72.129 25.9443 67.2908 23.8494 59.6386C18.5986 40.4314 31.9025 20.1867 37.1455 13.8196C42.2548 7.60984 47.1716 4.43418 51.4438 3.12148C56.1522 1.67121 58.5969 3.45162 58.5969 3.45162C58.5969 3.45162 62.9084 0.366364 69.3461 1.78519C77.9613 3.68743 97.1999 21.7548 99.3065 49.6558C100.717 68.3795 91.9333 72.9819 83.9117 76.2165C75.1747 79.738 61.069 77.9497 61.069 77.9497L61.0651 77.9458Z" fill="#45B3B1"/>
<path d="M57.0368 79.5176C52.6506 79.5176 45.4779 79.0027 38.706 76.228C32.6574 73.748 24.9305 68.9216 22.4937 60.0038C16.4726 37.9865 34.029 15.4307 36.0492 12.9311C40.7969 7.06322 45.6941 3.41201 51.0274 1.77309C54.7297 0.633315 57.2883 1.29753 58.5381 1.83598C60.1535 0.943806 64.2095 -0.79337 69.6451 0.40929C74.9273 1.57658 82.0883 7.35013 87.8893 15.1242C93.0733 22.0729 99.5072 33.6868 100.702 49.5454C101.916 65.6241 94.6415 71.2876 87.3666 74.7069C86.6631 75.0371 85.8299 74.7345 85.4997 74.0349C85.1696 73.3353 85.4722 72.4981 86.1718 72.168C92.9043 69.0041 98.9845 64.0952 97.9036 49.7576C95.7656 21.4205 76.1418 4.71686 69.0437 3.15261C63.3448 1.89493 59.5679 4.48104 59.4107 4.59109C58.9194 4.93695 58.2591 4.93302 57.7757 4.5793C57.7128 4.53999 55.7477 3.25873 51.8606 4.45746C47.0775 5.92738 42.6245 9.27989 38.2383 14.6997C36.3086 17.0854 19.5539 38.5957 25.2056 59.2689C27.3437 67.0822 34.3081 71.3937 39.7751 73.634C49.6243 77.6704 60.8098 76.562 60.9199 76.5502C61.6863 76.4716 62.3819 77.0297 62.4605 77.8001C62.5431 78.5704 61.9811 79.2621 61.2107 79.3407C61.0378 79.3604 59.4657 79.5176 57.0368 79.5176Z" fill="#45B3B1"/>
<path d="M57.473 12.7389C57.473 12.7389 57.5988 30.7041 65.1056 35.0864C69.6175 37.7196 74.5303 37.303 74.5303 37.303C74.5303 37.303 78.0676 37.7589 81.4987 39.445C83.7507 40.5494 86.2228 42.1451 87.4963 43.1866C90.4204 42.0783 94.4292 42.7975 94.2877 51.3694C94.1659 58.9588 89.595 63.0266 86.2229 63.4471C85.8848 64.8974 85.4604 66.3123 84.9219 67.5739C81.4279 75.5012 71.9481 84.0299 64.3156 86.1012C64.3156 86.1012 62.9518 86.4627 61.0692 86.4627C59.1866 86.4627 57.8228 86.1012 57.8228 86.1012C50.1902 84.0299 40.7104 75.4973 37.2164 67.5739C36.678 66.3123 36.2496 64.8935 35.9155 63.4471C32.5433 63.0266 27.9725 58.9588 27.8506 51.3694C27.7131 42.7975 31.718 42.0783 34.6421 43.1866V43.1159C34.9054 41.0289 35.2395 24.8677 47.6355 13.8708C47.6355 13.8708 49.9898 11.6502 52.5169 12.4599L57.4494 12.4166L57.473 12.7389Z" fill="white"/>
<path d="M34.7248 46.7008L34.6423 43.1911C31.7182 42.0827 27.7093 42.802 27.8508 51.3739C27.9727 58.9632 32.5435 63.031 35.9157 63.4516L35.0904 56.1963L34.7288 46.7008H34.7248Z" fill="white"/>
<path d="M35.9117 64.854C35.8527 64.854 35.7977 64.854 35.7388 64.8422C31.329 64.292 26.5734 59.391 26.4437 51.3929C26.369 46.8613 27.4066 43.8114 29.5211 42.3219C31.0578 41.241 33.0505 41.0838 35.1374 41.8738C35.672 42.0742 36.0296 42.5812 36.0453 43.1511L36.1279 46.6609C36.1475 47.4351 35.5344 48.0797 34.7601 48.0993C33.9702 48.119 33.3413 47.5059 33.3217 46.7316L33.2627 44.2555C32.6024 44.1376 31.8046 44.1534 31.1364 44.6211C29.867 45.5132 29.1949 47.9028 29.2499 51.3497C29.3364 56.7616 31.8517 60.1141 34.2728 61.4386L33.695 56.3529C33.6086 55.5826 34.1588 54.8869 34.9291 54.8004C35.6995 54.714 36.3951 55.2642 36.4816 56.0345L37.3069 63.2898C37.3541 63.7182 37.2048 64.1427 36.8982 64.4453C36.6349 64.7086 36.2772 64.8501 35.9117 64.8501V64.854Z" fill="#45B3B1"/>
<path d="M87.4929 43.1911L87.4103 46.7008L87.0487 56.1963L86.2234 63.4516C89.5956 63.031 94.1664 58.9632 94.2883 51.3739C94.4258 42.802 90.4209 42.0827 87.4968 43.1911H87.4929Z" fill="white"/>
<path d="M86.2192 64.8557C85.8537 64.8557 85.4961 64.7103 85.2327 64.4509C84.9262 64.1483 84.7768 63.7238 84.824 63.2954L85.6493 56.0402C85.7358 55.2698 86.4315 54.7196 87.2018 54.8061C87.9721 54.8925 88.5263 55.5882 88.4359 56.3585L87.8581 61.4443C90.2792 60.1198 92.7906 56.7673 92.881 51.3553C92.936 47.9085 92.2679 45.5189 90.9945 44.6267C90.3264 44.159 89.5285 44.1433 88.8682 44.2612L88.8093 46.7372C88.7896 47.5115 88.1686 48.1246 87.3708 48.105C86.5965 48.0853 85.9834 47.4447 86.0031 46.6665L86.0856 43.1568C86.0974 42.5869 86.459 42.0799 86.9935 41.8794C89.0805 41.0895 91.0731 41.2506 92.6098 42.3275C94.7243 43.8131 95.7619 46.8669 95.6872 51.3985C95.5575 59.3966 90.8019 64.2976 86.3922 64.8479C86.3332 64.8557 86.2742 64.8597 86.2192 64.8597V64.8557Z" fill="#45B3B1"/>
<path d="M74.5263 38.7098C74.2197 38.7098 73.9093 38.6077 73.6499 38.3993C73.3787 38.1832 67.0156 32.9206 65.5496 20.7525C65.4553 19.9821 66.0055 19.2826 66.7758 19.1922C67.5501 19.0978 68.2457 19.6481 68.3361 20.4184C69.6567 31.3799 75.3595 36.1748 75.4185 36.222C76.0159 36.7133 76.1063 37.5936 75.6189 38.195C75.3399 38.5369 74.9351 38.7138 74.5302 38.7138L74.5263 38.7098Z" fill="#45B3B1"/>
<path d="M61.0649 87.867C59.0251 87.867 57.5237 87.4779 57.4609 87.4622C49.4431 85.2887 39.586 76.4417 35.927 68.1449C35.4868 67.1152 35.0977 65.9479 34.7597 64.6549C30.6526 63.5583 26.5611 58.8066 26.4393 51.3981C26.3646 46.8665 27.4022 43.8166 29.5167 42.327C30.6132 41.5567 31.9495 41.2541 33.3802 41.4349C34.5435 29.2746 39.0122 19.6612 46.6644 12.8579C47.0221 12.5003 49.2663 10.3583 52.3201 9.84343C53.0865 9.71373 53.8096 10.2286 53.9393 10.995C54.069 11.7575 53.5542 12.4846 52.7878 12.6143C50.4571 13.0073 48.661 14.8349 48.6414 14.8545C48.6178 14.8781 48.5903 14.9056 48.5627 14.9292C41.276 21.3905 37.0864 30.6542 36.1078 42.4685C36.0802 42.779 36.0606 43.0227 36.0409 43.2035C36.0409 43.6594 35.813 44.0878 35.4357 44.3472C35.0544 44.6105 34.571 44.6695 34.1426 44.5044C33.4548 44.245 32.146 43.9109 31.136 44.6223C29.8665 45.5145 29.1944 47.9041 29.2494 51.3509C29.3595 58.1621 33.3133 61.7111 36.0842 62.0569C36.6698 62.1316 37.1453 62.56 37.279 63.1299C37.6248 64.6195 38.0375 65.9322 38.5052 67.0248C41.8066 74.5119 51.0074 82.8009 58.188 84.7503C58.188 84.7503 59.4103 85.0608 61.0649 85.0608C62.7195 85.0608 63.9419 84.7503 63.9536 84.7463C71.1224 82.8009 80.3232 74.5119 83.6325 67.0091C84.0923 65.9322 84.505 64.6195 84.8508 63.1299C84.9845 62.5561 85.46 62.1277 86.0456 62.0569C88.8165 61.7111 92.7703 58.1621 92.8804 51.3509C92.9354 47.9041 92.2673 45.5145 90.9939 44.6223C89.9798 43.9109 88.675 44.2411 87.9872 44.5044C87.4959 44.6891 86.9417 44.5869 86.5527 44.2371C85.8373 43.5926 85.0198 42.9834 84.1237 42.4174C80.0206 39.8313 75.32 38.8802 74.4474 38.723C73.4334 38.7741 68.7682 38.8605 64.3899 36.3059C59.2963 33.3307 56.5019 25.6509 56.0892 13.4711C56.0813 13.1999 56.0735 12.9798 56.0656 12.8108C55.9831 11.0854 55.1263 10.2286 55.1145 10.2207C54.5446 9.69801 54.5014 8.80977 55.028 8.23988C55.5507 7.66607 56.439 7.63069 57.0128 8.15342C57.1897 8.31456 58.7303 9.80413 58.8718 12.6811C58.8797 12.8579 58.8875 13.0938 58.8993 13.3807C59.2806 24.5308 61.6034 31.4284 65.8127 33.8848C69.8608 36.2509 74.3688 35.9207 74.416 35.9168C74.526 35.9089 74.64 35.9129 74.7501 35.9286C74.9859 35.9679 80.6022 36.8797 85.6251 40.0475C86.4072 40.5427 87.1422 41.0694 87.8143 41.6235C89.5986 41.1519 91.2808 41.3956 92.6131 42.3349C94.7276 43.8205 95.7652 46.8743 95.6905 51.4059C95.5726 58.8145 91.4773 63.5662 87.3701 64.6627C87.0321 65.9558 86.6431 67.1231 86.2107 68.141C82.5477 76.4535 72.6906 85.3005 64.6807 87.47C64.61 87.4897 63.1086 87.8788 61.0688 87.8788L61.0649 87.867Z" fill="#45B3B1"/>
<path d="M89.5979 63.3961C89.5979 64.7756 88.4777 65.8918 87.1021 65.8879C85.7226 65.8879 84.6064 64.7678 84.6104 63.3922C84.6104 62.0127 85.7305 60.8965 87.1061 60.9004C88.4856 60.9004 89.6018 62.0205 89.5979 63.3961Z" fill="white"/>
<path d="M87.1022 67.2937C84.9523 67.2937 83.2034 65.5408 83.2073 63.391C83.2073 62.3495 83.616 61.3708 84.351 60.6359C85.0859 59.9009 86.0646 59.4961 87.1061 59.4961C89.256 59.4961 91.001 61.249 91.001 63.3949C91.001 65.5448 89.252 67.2898 87.1022 67.2898V67.2937ZM87.1022 62.3023C86.8113 62.3023 86.5362 62.4163 86.3318 62.6206C86.1275 62.825 86.0135 63.1001 86.0135 63.391C86.0135 63.9923 86.5008 64.4836 87.1061 64.4836C87.7074 64.4836 88.1987 63.9962 88.1987 63.391C88.1987 62.7896 87.7114 62.2984 87.11 62.2984L87.1022 62.3023Z" fill="#45B3B1"/>
<path d="M37.4199 63.3961C37.4199 64.7756 36.2998 65.8918 34.9242 65.8879C33.5446 65.8879 32.4285 64.7678 32.4324 63.3922C32.4324 62.0127 33.5525 60.8965 34.9281 60.9004C36.3076 60.9004 37.4238 62.0205 37.4199 63.3961Z" fill="white"/>
<path d="M34.9247 67.2937C32.7748 67.2937 31.0259 65.5408 31.0298 63.391C31.0298 62.3495 31.4385 61.3708 32.1735 60.6359C32.9085 59.9009 33.8871 59.4961 34.9286 59.4961C37.0785 59.4961 38.8235 61.249 38.8235 63.3949C38.8235 64.4364 38.4148 65.4151 37.6798 66.15C36.9448 66.885 35.9662 67.2898 34.9247 67.2898V67.2937ZM34.9247 62.3023C34.6338 62.3023 34.3587 62.4163 34.1544 62.6206C33.946 62.825 33.836 63.1001 33.8321 63.391C33.8321 63.9923 34.3194 64.4836 34.9247 64.4836C35.2155 64.4836 35.4906 64.3696 35.695 64.1652C35.8994 63.9609 36.0134 63.6858 36.0134 63.3949C36.0134 62.7936 35.526 62.3023 34.9247 62.3023Z" fill="#45B3B1"/>
<path d="M43.3703 39.2172C43.3428 39.2172 43.3231 39.2172 43.3113 39.2172C42.71 39.2093 42.2266 38.7181 42.2305 38.1167C42.2344 37.5154 42.7375 37.0359 43.331 37.0359C43.3781 37.0359 48.2123 37.0555 53.4671 35.0472C54.0291 34.831 54.6619 35.114 54.8741 35.68C55.0903 36.242 54.8073 36.8748 54.2414 37.087C48.8333 39.1504 43.9716 39.2172 43.3624 39.2172H43.3703Z" fill="#45B3B1"/>
<path d="M59.6181 60.8372C59.8185 60.6053 60.3609 60.8607 61.0723 60.8765C61.7836 60.8607 62.326 60.6013 62.5265 60.8332C62.7348 61.073 62.495 62.2717 61.0723 62.311C59.6495 62.2756 59.4098 61.0769 59.6181 60.8372Z" fill="#45B3B1"/>
<path d="M53.2863 47.8957C50.7277 48.3162 48.2791 48.5284 45.6655 48.2179C43.8379 47.935 44.1799 45.2427 46.0231 45.4353C48.2005 45.7065 50.6098 45.5021 52.795 45.1327C54.6226 44.8536 55.1021 47.5262 53.2863 47.8957Z" fill="#45B3B1"/>
<path d="M58.2659 72.2645C57.8257 72.2645 57.4091 71.9933 57.244 71.5571C57.0318 70.9911 57.3148 70.3623 57.8808 70.15C61.3119 68.857 64.0552 70.1304 64.1731 70.1854C64.7155 70.4448 64.9474 71.0972 64.688 71.6396C64.4286 72.1859 63.7761 72.4138 63.2338 72.1545C63.1591 72.1191 61.1822 71.2387 58.6511 72.1898C58.5253 72.237 58.3956 72.2606 58.2659 72.2606V72.2645Z" fill="#45B3B1"/>
<path d="M69.6165 45.1366C71.7899 45.4982 74.1913 45.7065 76.3608 45.4313C78.2001 45.2388 78.5499 47.931 76.7224 48.214C74.1087 48.5284 71.6602 48.3122 69.1016 47.8917C68.3391 47.7581 67.8282 47.027 67.9657 46.2646C68.1033 45.4903 68.8501 44.9794 69.6204 45.1326L69.6165 45.1366Z" fill="#45B3B1"/>
</g>
<defs>
<clipPath id="clip0_2208_2772">
<rect width="121.928" height="137.044" fill="white"/>
</clipPath>
</defs>
</svg>
