<svg width="141" height="141" viewBox="0 0 141 141" fill="none" xmlns="http://www.w3.org/2000/svg">
<g clip-path="url(#clip0_2208_2718)">
<path d="M106.772 106.23C95.0769 101.831 92.4889 97.9543 90.4667 95.6763C88.4446 93.3984 88.1396 91.7551 88.1396 84.3749V61.4277L70.4863 65.4622L52.8331 61.4277V84.3749C52.8331 91.7551 52.533 93.3984 50.5059 95.6763C48.4838 97.9543 45.8958 101.831 34.2008 106.23C22.5206 110.624 57.4039 131.642 57.4039 131.642H83.5737C83.5737 131.642 118.457 110.624 106.777 106.23H106.772Z" fill="white"/>
<path d="M83.5688 132.906C83.1407 132.906 82.7225 132.69 82.4864 132.296C82.1272 131.701 82.3191 130.923 82.9144 130.564C92.7939 124.611 108.312 113.462 107.889 108.891C107.864 108.64 107.805 107.971 106.319 107.415C95.3228 103.278 92.1395 99.5728 90.0387 97.1226C89.8566 96.911 89.6844 96.7093 89.5171 96.5223C87.1309 93.8409 86.8751 91.6908 86.8751 84.3845V63.0216L70.7618 66.7067C70.5749 66.751 70.383 66.751 70.2009 66.7067L54.0877 63.0216V84.3845C54.0877 91.6908 53.8269 93.8409 51.4456 96.5223C51.2784 96.7142 51.1061 96.911 50.9241 97.1226C48.8183 99.5728 45.64 103.278 34.6436 107.415C33.1577 107.971 33.0987 108.64 33.0741 108.891C32.6559 113.462 48.1738 124.611 58.0484 130.564C58.6437 130.923 58.8405 131.701 58.4764 132.296C58.1172 132.892 57.3399 133.088 56.7446 132.724C52.2525 130.018 29.8711 116.134 30.555 108.66C30.6583 107.524 31.2979 105.974 33.7481 105.049C44.1393 101.142 47.0668 97.7327 49.0004 95.4744C49.1922 95.253 49.3743 95.0414 49.5514 94.8397C51.2046 92.9799 51.5588 91.8729 51.5588 84.3796V61.4324C51.5588 61.0486 51.7359 60.6845 52.036 60.4435C52.3362 60.2024 52.7298 60.1138 53.1037 60.1975L70.4765 64.168L87.8492 60.1975C88.2232 60.1138 88.6168 60.1975 88.9169 60.4435C89.217 60.6845 89.3941 61.0486 89.3941 61.4324V84.3796C89.3941 91.8778 89.7484 92.9799 91.4015 94.8397C91.5787 95.0414 91.7607 95.253 91.9526 95.4744C93.8862 97.7327 96.8136 101.142 107.205 105.049C109.655 105.969 110.295 107.519 110.398 108.66C111.082 116.134 88.7004 130.018 84.2084 132.724C84.0067 132.847 83.7803 132.906 83.5589 132.906H83.5688Z" fill="#45B3B1"/>
<path d="M121.803 105.166L96.3905 96.064C96.3905 96.064 95.0818 88.5166 92.7349 87.9606C91.6771 87.7097 88.5479 90.337 84.9464 93.1365C80.5479 96.556 75.6081 99.4195 75.003 100.172C73.9009 101.54 74.1174 107.36 74.1174 107.36L70.4913 112.413L66.8652 107.36C66.8652 107.36 67.0866 101.545 65.9796 100.172C65.3744 99.4195 60.4347 96.556 56.0361 93.1365C52.4297 90.3321 49.3055 87.7048 48.2476 87.9606C45.9008 88.5166 44.592 96.064 44.592 96.064L19.1799 105.166C15.6866 106.416 3.14044 109.466 1.68902 128.271C1.61521 129.255 1.47253 133.447 1.29541 139.725H139.687C139.51 133.452 139.372 129.255 139.294 128.271C137.842 109.466 125.296 106.416 121.803 105.166Z" fill="white"/>
<path d="M122.93 104.217C122.664 104.129 122.433 104.05 122.226 103.976L97.4977 95.1201C96.9565 92.3403 95.6281 87.3513 93.0254 86.7314C91.5789 86.387 89.7093 87.7941 85.6158 91.0119C85.1434 91.3809 84.6613 91.7597 84.1693 92.1435C81.8126 93.9737 79.2443 95.681 77.3697 96.9258C75.2689 98.3231 74.4029 98.9086 74.0192 99.3809C72.8285 100.862 72.7941 105.132 72.8433 106.973L70.4915 110.249L68.1397 106.973C68.184 105.132 68.1544 100.862 66.9638 99.3809C66.58 98.9037 65.7141 98.3182 63.6132 96.9258C61.7387 95.681 59.1704 93.9737 56.8137 92.1435C56.3217 91.7597 55.8395 91.3809 55.3672 91.0119C51.2688 87.7941 49.3991 86.3919 47.9526 86.7314C45.3499 87.3513 44.0215 92.3403 43.4803 95.1201L18.752 103.976C18.5503 104.05 18.3141 104.129 18.0484 104.217C13.6204 105.708 1.85158 109.669 0.424756 128.173C0.350955 129.128 0.223034 132.896 0.0311508 139.686C0.0114706 140.385 0.562518 140.965 1.25625 140.985C1.94998 140.99 2.53547 140.454 2.55515 139.76C2.74211 133.103 2.87495 129.27 2.94383 128.37C4.24273 111.529 14.8553 107.962 18.8553 106.613C19.1358 106.52 19.3867 106.436 19.6032 106.358L45.0154 97.2554C45.4434 97.1029 45.7583 96.729 45.8321 96.2813C46.4619 92.665 47.7214 89.6244 48.4496 89.2259C49.3007 89.467 51.7903 91.4202 53.8026 92.9996C54.2749 93.3686 54.762 93.7523 55.2589 94.1361C57.6894 96.0254 60.302 97.7622 62.211 99.0267C63.4066 99.8188 64.7596 100.719 64.9958 100.965C65.4238 101.511 65.7092 104.478 65.6009 107.312C65.5911 107.592 65.6747 107.868 65.8371 108.094L69.4632 113.147C69.6993 113.477 70.0831 113.674 70.4915 113.674C70.8998 113.674 71.2787 113.477 71.5198 113.147L75.1459 108.094C75.3082 107.868 75.3919 107.592 75.382 107.312C75.2738 104.478 75.5591 101.516 75.9675 100.985C76.2184 100.719 77.5714 99.8188 78.767 99.0267C80.676 97.7573 83.2886 96.0254 85.7191 94.1361C86.216 93.7523 86.6982 93.3686 87.1754 92.9996C89.1877 91.4202 91.6773 89.467 92.5285 89.2259C93.2566 89.6244 94.5162 92.665 95.1459 96.2813C95.2247 96.729 95.5346 97.1029 95.9627 97.2554L121.375 106.358C121.591 106.436 121.842 106.52 122.123 106.613C126.118 107.957 136.735 111.529 138.034 128.37C138.103 129.275 138.236 133.108 138.423 139.76C138.443 140.444 139.003 140.985 139.682 140.985C139.692 140.985 139.707 140.985 139.717 140.985C140.416 140.965 140.962 140.385 140.942 139.686C140.75 132.896 140.622 129.128 140.548 128.173C139.122 109.669 127.353 105.708 122.925 104.217H122.93Z" fill="#45B3B1"/>
<path d="M80.1343 108.85C79.7259 108.85 79.3225 108.648 79.0765 108.279C78.6927 107.699 78.8551 106.911 79.4356 106.528C87.3569 101.312 91.6423 98.07 91.6866 98.0356C92.2426 97.6125 93.0347 97.7207 93.4578 98.2767C93.881 98.8326 93.7727 99.6248 93.2167 100.048C93.1725 100.082 88.833 103.369 80.828 108.638C80.6164 108.781 80.3704 108.845 80.1343 108.845V108.85Z" fill="#45B3B1"/>
<path d="M56.0357 106.235C55.7946 106.235 55.5535 106.166 55.342 106.023C47.6421 100.931 43.8487 97.1079 43.6913 96.9455C43.2042 96.4486 43.2091 95.6515 43.706 95.1595C44.2029 94.6724 45.0049 94.6773 45.492 95.1743C45.5314 95.2136 49.2804 98.9873 56.7344 103.917C57.3149 104.301 57.4773 105.083 57.0935 105.669C56.8524 106.038 56.449 106.235 56.0406 106.235H56.0357Z" fill="#45B3B1"/>
<path d="M70.491 127.685C71.3632 127.685 72.0703 126.978 72.0703 126.106C72.0703 125.233 71.3632 124.526 70.491 124.526C69.6187 124.526 68.9116 125.233 68.9116 126.106C68.9116 126.978 69.6187 127.685 70.491 127.685Z" fill="#45B3B1"/>
<path d="M121.807 105.167H121.797L96.3851 96.0645C96.3851 96.0645 99.1896 106.652 99.1896 127.592V139.72H139.711C139.539 133.841 139.391 129.555 139.293 128.271C137.842 109.467 125.291 106.416 121.802 105.167H121.807Z" fill="#C0ECEB"/>
<path d="M139.721 140.985C139.042 140.985 138.481 140.444 138.462 139.76C138.275 133.364 138.137 129.536 138.048 128.37C136.75 111.534 126.137 107.962 122.137 106.614C121.886 106.53 121.66 106.451 121.458 106.383C121.414 106.368 121.364 106.353 121.32 106.333L98.1171 98.0233C98.9388 102.186 100.459 112.016 100.459 127.593V139.726C100.459 140.424 99.8933 140.99 99.1946 140.99C98.496 140.99 97.9302 140.424 97.9302 139.726V127.593C97.9302 107.106 95.1946 96.4932 95.1651 96.3898C95.047 95.9372 95.1848 95.455 95.5341 95.1352C95.8785 94.8203 96.3705 94.717 96.8133 94.8745L122.186 103.962C122.186 103.962 122.216 103.972 122.23 103.977C122.432 104.05 122.668 104.129 122.934 104.218C127.362 105.708 139.126 109.669 140.558 128.174C140.651 129.394 140.789 133.158 140.981 139.686C141 140.385 140.454 140.966 139.756 140.985C139.741 140.985 139.731 140.985 139.716 140.985H139.721Z" fill="#45B3B1"/>
<path d="M19.1845 105.172H19.1747C15.6814 106.421 3.13525 109.467 1.68383 128.271C1.58543 129.555 1.43783 133.841 1.26562 139.72H41.7873V127.592C41.7873 106.652 44.5967 96.0645 44.5967 96.0645L19.1845 105.167V105.172Z" fill="#C0ECEB"/>
<path d="M41.787 140.984C41.0883 140.984 40.5225 140.419 40.5225 139.72V127.587C40.5225 112.01 42.0477 102.18 42.8645 98.0174L19.6811 106.322C19.622 106.347 19.563 106.367 19.504 106.386C19.3072 106.455 19.0907 106.529 18.8447 106.613C14.8496 107.956 4.23698 111.528 2.93316 128.369C2.8446 129.53 2.70192 133.363 2.51987 139.759C2.50019 140.458 1.9147 140.999 1.22097 140.984C0.522324 140.965 -0.0238034 140.384 -0.00412308 139.685C0.18776 133.161 0.325522 129.398 0.419003 128.177C1.84582 109.673 13.6097 105.712 18.0427 104.222C18.3084 104.133 18.5445 104.054 18.7463 103.981C18.761 103.976 18.7758 103.971 18.7955 103.966L44.1683 94.8784C44.6111 94.7209 45.1031 94.8193 45.4475 95.1392C45.7919 95.454 45.9346 95.9411 45.8165 96.3938C45.787 96.4971 43.0514 107.11 43.0514 127.597V139.73C43.0514 140.428 42.4856 140.994 41.787 140.994V140.984Z" fill="#45B3B1"/>
<path d="M97.1866 46.1072V32.3409C97.1866 28.3704 96.1927 24.4589 94.2837 20.9804C90.6331 14.3334 83.2529 6.59416 70.5395 6.54004H70.3181C57.6046 6.59416 50.2245 14.3334 46.5738 20.9804C44.6599 24.4589 43.671 28.3704 43.671 32.3409V46.1072C40.7091 44.9855 36.655 45.7136 36.7927 54.3926C36.9157 62.0778 41.5455 66.1959 44.96 66.6239C45.2995 68.0901 45.7325 69.5268 46.2786 70.8011C49.8162 78.8257 59.4152 87.4653 67.1446 89.5613C67.1446 89.5613 68.5223 89.9254 70.4312 89.9254C72.3402 89.9254 73.7179 89.5613 73.7179 89.5613C81.4473 87.4653 91.0463 78.8257 94.5839 70.8011C95.13 69.5219 95.563 68.0901 95.9024 66.6239C99.317 66.1959 103.947 62.0827 104.07 54.3926C104.212 45.7186 100.158 44.9855 97.1915 46.1072H97.1866Z" fill="white"/>
<path d="M70.4263 91.1877C68.3795 91.1877 66.8789 90.799 66.8199 90.7793C58.7411 88.5899 48.8075 79.6747 45.1223 71.3057C44.6697 70.2479 44.2712 69.0425 43.9268 67.7042C39.7988 66.6562 35.6512 61.8838 35.5331 54.4102C35.4593 49.8788 36.4876 46.8333 38.5836 45.3572C39.6709 44.5946 40.9895 44.2994 42.4114 44.4864V32.3387C42.4114 28.1518 43.4692 24.014 45.4717 20.3682C48.5516 14.7593 55.8776 5.3374 70.318 5.27344H70.5443C84.9897 5.3374 92.3157 14.7593 95.3956 20.3682C97.3981 24.014 98.4559 28.1518 98.4559 32.3387V44.4864C99.8778 44.3043 101.201 44.5946 102.284 45.3572C104.38 46.8283 105.408 49.8739 105.334 54.4102C105.211 61.8887 101.068 66.6611 96.9405 67.7091C96.5961 69.0474 96.1976 70.2528 95.7499 71.2959C92.0549 79.6747 82.1262 88.5899 74.0524 90.7793C73.9835 90.799 72.4829 91.1877 70.4361 91.1877H70.4263ZM41.5947 46.9661C41.0682 46.9661 40.5172 47.0842 40.0301 47.4286C39.0903 48.0928 37.9833 49.8345 38.0571 54.3708C38.1703 61.3622 42.2539 65.008 45.1174 65.3672C45.6439 65.4311 46.0719 65.8198 46.19 66.3364C46.5442 67.8567 46.9624 69.1901 47.4397 70.3069C50.8001 77.9281 60.163 86.3611 67.4742 88.3439C67.4742 88.3439 68.7288 88.6637 70.4312 88.6637C72.1335 88.6637 73.3832 88.3439 73.398 88.339C80.6994 86.3611 90.0623 77.9232 93.4276 70.2922C93.8999 69.1901 94.3181 67.8567 94.6724 66.3364C94.7905 65.8198 95.2234 65.436 95.7449 65.3672C98.6084 65.008 102.692 61.3622 102.805 54.3708C102.879 49.8296 101.772 48.0879 100.832 47.4286C99.7499 46.666 98.3673 47.0153 97.6392 47.2859C97.2505 47.4335 96.8126 47.3794 96.4731 47.1432C96.1336 46.9071 95.927 46.5184 95.927 46.1051V32.3387C95.927 28.5749 94.9774 24.8553 93.1816 21.5835C90.3673 16.4617 83.6859 7.85647 70.5394 7.79743H70.3229C57.1814 7.85155 50.5 16.4568 47.6857 21.5835C45.8899 24.8553 44.9403 28.5749 44.9403 32.3387V46.1051C44.9403 46.5184 44.7386 46.9071 44.3942 47.1432C44.0547 47.3794 43.6168 47.4335 43.2281 47.2859C42.8296 47.1334 42.2343 46.9612 41.5996 46.9612L41.5947 46.9661Z" fill="#45B3B1"/>
<path d="M87.1988 19.6121C90.6724 23.9811 92.114 35.194 93.4621 40.0058C95.1988 46.2149 97.1865 46.1116 97.1865 46.1116L98.6724 48.1534L101.615 46.5151C101.615 46.5151 104.562 39.1841 103.381 29.5556C102.727 24.1927 99.9664 17.3882 95.5728 12.3648C91.4842 7.69078 86.1804 5.22583 83.2431 4.98474C79.3562 1.5899 72.0548 -0.540495 66.2836 0.271317C56.5271 1.64894 48.655 6.90357 42.7607 12.7781L44.7632 13.0979C42.5393 15.7007 37.4766 21.5113 37.1617 32.7241C36.9009 42.0575 38.9772 46.8939 38.9772 46.8939L41.8899 48.1584L43.6611 46.1165C43.6611 46.1165 46.9674 38.9332 47.6808 38.1903C48.6845 37.1571 56.4238 33.9541 61.0831 29.7819C60.7387 32.0205 59.8137 34.8742 59.8137 34.8742C59.8137 34.8742 64.4582 34.4215 68.5419 30.8545C71.9171 27.9123 73.2602 25.777 73.2602 25.777C73.2602 25.777 73.1323 27.9811 72.5813 29.8459C71.8974 32.1681 71.1643 33.6786 71.1643 33.6786C71.1643 33.6786 76.7191 32.0008 80.4091 26.0525C82.7609 22.264 82.9774 18.0426 82.9774 18.0426C82.9774 18.0426 84.3894 17.8163 85.6539 18.4461C86.9184 19.0758 87.184 19.617 87.184 19.617L87.1988 19.6121Z" fill="#45B3B1"/>
<path d="M41.8946 49.4121C41.7273 49.4121 41.5551 49.3777 41.3927 49.3088L38.48 48.0493C38.1848 47.9214 37.9487 47.6852 37.8208 47.39C37.7322 47.1834 35.6362 42.1846 35.9019 32.6839C36.1725 23.075 39.8577 17.2004 42.3866 13.9827C41.9979 13.8646 41.6879 13.5596 41.56 13.166C41.4124 12.7133 41.5354 12.2164 41.87 11.8819C48.9795 4.79203 56.7532 0.939613 65.6388 0.0933608C69.8652 -0.305165 75.9857 0.555847 79.5183 2.99128C80.094 3.38489 80.2367 4.1721 79.8431 4.74775C79.4495 5.3234 78.6623 5.46608 78.0866 5.07247C75.0854 3.00604 69.5601 2.25819 65.8799 2.61244C58.3178 3.33077 51.6019 6.41073 45.4075 12.0049C45.6535 12.1525 45.8503 12.3788 45.9536 12.6543C46.1111 13.0823 46.0274 13.5645 45.7273 13.9138L45.6633 13.9876C43.4149 16.6199 38.731 22.0959 38.4308 32.7528C38.2242 40.0837 39.5133 44.5708 39.9807 45.9435L41.5502 46.6225L42.5981 45.417C43.8774 42.6421 46.0422 38.0665 46.7851 37.3039C47.2574 36.8168 48.2365 36.2854 50.239 35.2177C53.068 33.7122 57.3485 31.4293 60.2513 28.8315C60.6499 28.4772 61.2255 28.4084 61.6979 28.6642C62.1653 28.9201 62.426 29.4416 62.3424 29.968C62.18 31.0308 61.8947 32.2116 61.6339 33.1858C63.228 32.7183 65.5749 31.7737 67.7249 29.8942C70.8885 27.1341 72.1924 25.1119 72.2022 25.0922C72.5072 24.615 73.0927 24.3936 73.6389 24.5609C74.1801 24.7282 74.5491 25.2349 74.5343 25.8007C74.5343 25.8745 74.4802 27.6359 73.9587 29.6335C73.8258 30.1402 73.6782 30.6372 73.5257 31.0996C75.2674 30.0172 77.5306 28.2017 79.3609 25.3628C82.1457 21.043 81.7029 14.8044 81.6979 14.7453C81.6438 14.0516 82.1653 13.4415 82.8591 13.3874C83.5528 13.3382 84.1629 13.8548 84.217 14.5485C84.2416 14.8388 84.7336 21.6876 81.4814 26.7306C77.4913 32.9201 71.7988 34.7995 71.5577 34.8733C71.0804 35.0259 70.5589 34.8832 70.2243 34.5043C69.8947 34.1255 69.816 33.5892 70.0275 33.1366C70.0374 33.1218 70.6524 31.7885 71.1788 30.1255C70.6524 30.647 70.0521 31.2079 69.3781 31.7983C65.0386 35.5818 60.148 36.0984 59.9414 36.123C59.5183 36.1624 59.1001 35.9902 58.8344 35.6556C58.5687 35.326 58.485 34.8783 58.6179 34.4748C58.6179 34.4601 58.8245 33.8303 59.0705 32.9447C56.4432 34.77 53.5404 36.3198 51.4198 37.4465C50.2193 38.0861 48.8565 38.8094 48.5859 39.0652C48.1775 39.5671 46.303 43.39 44.8122 46.6323C44.763 46.7405 44.699 46.8439 44.6203 46.9324L42.8491 48.9743C42.6031 49.2547 42.2537 49.4121 41.8946 49.4121Z" fill="#45B3B1"/>
<path d="M98.6725 49.4131C98.2789 49.4131 97.8951 49.231 97.6491 48.8915L96.4486 47.2433C95.3367 46.8497 93.6491 45.3589 92.242 40.3454C91.7746 38.6824 91.4548 36.3503 91.0858 33.6492C90.392 28.5963 89.5261 22.3084 87.4105 19.6417C86.9775 19.0956 87.0661 18.2985 87.6122 17.8656C88.1583 17.4326 88.9554 17.5212 89.3883 18.0673C91.9369 21.2752 92.8127 27.6664 93.5901 33.3048C93.9345 35.8042 94.2592 38.1707 94.6774 39.6664C95.9025 44.0354 97.1276 44.7685 97.3096 44.8571C97.6639 44.8915 97.9935 45.0785 98.2051 45.3688L99.0317 46.5053L100.586 45.6394C101.147 44.0108 103.096 37.6295 102.126 29.7082C101.443 24.1042 98.4954 17.6245 94.6233 13.1915C90.948 8.98977 85.964 6.4707 83.1398 6.23945C82.4461 6.18041 81.9295 5.57032 81.9836 4.8766C82.0427 4.18287 82.6528 3.66134 83.3465 3.72038C86.7512 4.00082 92.3699 6.77574 96.5224 11.5285C100.773 16.3896 103.878 23.2334 104.631 29.3982C105.831 39.2334 102.904 46.6677 102.781 46.9826C102.673 47.2532 102.476 47.4746 102.225 47.6172L99.2826 49.2556C99.0907 49.3639 98.8791 49.4131 98.6676 49.4131H98.6725Z" fill="#45B3B1"/>
<path d="M43.7543 49.6632L43.6706 46.1109C40.7087 44.9892 36.6497 45.7173 36.7924 54.3963C36.9154 62.0815 41.5451 66.1996 44.9597 66.6276L44.1233 59.277L43.7543 49.6632Z" fill="white"/>
<path d="M44.9546 67.8864C44.9005 67.8864 44.8513 67.8864 44.7972 67.8765C40.3987 67.3255 35.6557 62.4251 35.5229 54.4152C35.4491 49.8838 36.4774 46.8383 38.5733 45.3623C40.0838 44.2996 42.0518 44.147 44.1133 44.9293C44.5955 45.1114 44.9153 45.564 44.93 46.0806L45.0137 49.6329C45.0284 50.3316 44.4774 50.9072 43.7837 50.9269C43.0899 50.9564 42.5094 50.3906 42.4897 49.6969L42.4257 47.0597C41.7025 46.9072 40.7923 46.8974 40.0247 47.4336C39.085 48.0979 37.9731 49.8396 38.0469 54.3759C38.1404 60.1127 40.9054 63.601 43.4786 64.8605L42.8587 59.4189C42.78 58.7252 43.2769 58.1004 43.9706 58.0216C44.6644 57.9429 45.2892 58.4398 45.3679 59.1336L46.2043 66.4842C46.2486 66.8679 46.1109 67.2517 45.8353 67.5272C45.5992 67.7634 45.2794 67.8913 44.9448 67.8913L44.9546 67.8864Z" fill="#45B3B1"/>
<path d="M97.1857 46.1061L97.102 49.6583L96.733 59.2722L95.8966 66.6227C99.3111 66.1947 103.941 62.0766 104.064 54.3915C104.207 45.7124 100.148 44.9843 97.1857 46.1061Z" fill="white"/>
<path d="M95.8972 67.8859C95.5675 67.8859 95.2477 67.758 95.0067 67.5218C94.7311 67.2512 94.5983 66.8674 94.6377 66.4787L95.4741 59.1282C95.5528 58.4344 96.1776 57.9375 96.8714 58.0162C97.5651 58.0949 98.062 58.7198 97.9833 59.4135L97.3634 64.8551C99.9366 63.5907 102.702 60.1073 102.795 54.3704C102.869 49.8292 101.762 48.0875 100.817 47.4282C100.055 46.8919 99.1444 46.9067 98.4163 47.0543L98.3523 49.6915C98.3375 50.3901 97.757 50.951 97.0583 50.9215C96.3597 50.9067 95.8086 50.3262 95.8283 49.6275L95.9119 46.0752C95.9267 45.5635 96.2465 45.106 96.7287 44.9239C98.7902 44.1416 100.758 44.2991 102.269 45.3569C104.365 46.828 105.393 49.8735 105.319 54.4098C105.191 62.4197 100.443 67.325 96.0448 67.8711C95.9907 67.876 95.9415 67.881 95.8873 67.881L95.8972 67.8859Z" fill="#45B3B1"/>
<path d="M89.5805 50.8574L86.2889 53.2141C86.7711 55.2018 88.1536 55.7381 89.2065 55.625C90.6334 55.4675 91.5633 54.1293 91.1696 52.7467C90.8203 51.5167 89.5805 50.8574 89.5805 50.8574Z" fill="white"/>
<path d="M88.9308 56.743C87.504 56.743 85.8066 55.9066 85.2161 53.4761C85.0735 52.8808 85.4375 52.2854 86.028 52.1428C86.6233 52.0001 87.2186 52.3642 87.3613 52.9546C87.7352 54.5044 88.6897 54.5684 89.0784 54.5241C89.4523 54.4847 89.7672 54.2977 89.9591 54.0075C90.1461 53.727 90.1953 53.3875 90.1018 53.0481C89.9247 52.4281 89.2801 51.9558 89.0489 51.8279C88.5175 51.5327 88.3207 50.8635 88.611 50.3322C88.9013 49.8008 89.5606 49.5942 90.0969 49.8795C90.2641 49.9681 91.7648 50.8094 92.2272 52.4429C92.5028 53.4023 92.3453 54.4257 91.7943 55.2375C91.2383 56.0641 90.3379 56.6053 89.3195 56.7184C89.1916 56.7332 89.0587 56.7381 88.921 56.7381L88.9308 56.743Z" fill="#45B3B1"/>
<path d="M53.7127 43.6213C53.1026 43.6213 52.6106 43.1293 52.6057 42.5192C52.6057 41.9092 53.0977 41.4122 53.7078 41.4122C53.757 41.4122 58.4852 41.3827 62.6869 39.5721C63.2478 39.331 63.8973 39.5869 64.1384 40.1478C64.3794 40.7087 64.1236 41.3581 63.5627 41.5992C58.928 43.5967 53.9194 43.6213 53.7078 43.6213H53.7127Z" fill="#45B3B1"/>
<path d="M84.7093 43.1041C82.7659 43.1041 79.5186 42.8286 76.8224 41.2394C76.296 40.9295 76.1189 40.2505 76.4288 39.724C76.7388 39.1976 77.4178 39.0205 77.9442 39.3304C81.3538 41.3378 86.1164 40.8311 86.1657 40.8212C86.7708 40.7573 87.3169 41.1902 87.3858 41.7954C87.4547 42.4006 87.0217 42.9467 86.4166 43.0205C86.3428 43.0303 85.6933 43.0992 84.7093 43.0992V43.1041Z" fill="#45B3B1"/>
<path d="M68.955 63.9773C69.1567 63.7411 69.7077 64.0019 70.4261 64.0167C71.1444 64.0019 71.6954 63.7362 71.8972 63.9724C72.1087 64.2135 71.8627 65.4287 70.4261 65.4681C68.9894 65.4337 68.7434 64.2184 68.955 63.9773Z" fill="#45B3B1"/>
<path d="M62.5147 50.7149C59.9464 51.138 57.4667 51.3545 54.8492 51.0396C54.1555 50.951 53.6684 50.3163 53.757 49.6275C53.8455 48.9338 54.4802 48.4467 55.169 48.5353C57.3978 48.8157 59.8382 48.6041 62.0719 48.2302C63.7152 47.9793 64.1482 50.3852 62.5147 50.7198V50.7149Z" fill="#45B3B1"/>
<path d="M79.0458 48.2362C81.2598 48.6052 83.6903 48.8119 85.9044 48.5413C87.5674 48.3445 87.9019 50.7848 86.2439 51.0456C83.6264 51.3605 81.1467 51.144 78.5784 50.7208C77.8896 50.5978 77.432 49.9435 77.555 49.2547C77.678 48.5609 78.3521 48.0985 79.0409 48.2362H79.0458Z" fill="#45B3B1"/>
<path d="M70.4462 50.6804C70.4166 50.6804 70.3822 50.6804 70.3527 50.6804C69.8312 50.6312 69.4523 50.1638 69.5015 49.6423C69.5113 49.5143 69.7574 46.3507 66.8348 44.3729C66.4019 44.0777 66.2887 43.4922 66.579 43.0592C66.8742 42.6262 67.4597 42.5131 67.8926 42.8034C71.7697 45.4258 71.3957 49.6521 71.381 49.8292C71.3318 50.3163 70.9185 50.6853 70.4412 50.6853L70.4462 50.6804Z" fill="#45B3B1"/>
<path d="M70.0768 76.3246C67.3658 76.5116 62.2637 79.0946 61.0927 75.2963C60.7188 74.0811 61.6536 71.5325 64.6007 71.252C67.5478 70.9716 67.9267 72.5608 70.4212 72.3738C72.9156 72.1868 73.1124 71.2963 75.8726 71.2963C78.6328 71.2963 80.586 73.4661 79.8037 75.2963C79.2428 76.6051 77.8406 77.1906 76.1088 76.9101C74.3769 76.6297 72.7828 76.1377 70.0718 76.3246H70.0768Z" fill="white"/>
<path d="M64.1386 78.4495C62.3575 78.4495 60.7192 77.8345 60.0402 75.6205C59.7351 74.6316 59.9812 73.3671 60.6798 72.3191C61.5113 71.0744 62.8692 70.3019 64.5027 70.1494C66.3379 69.9772 67.4006 70.4397 68.2518 70.8185C68.9406 71.1236 69.4375 71.34 70.3477 71.2712C71.3416 71.1974 71.8828 71.0055 72.5126 70.7841C73.3047 70.5036 74.2002 70.1887 75.8828 70.1887C77.7869 70.1887 79.5434 71.0596 80.4683 72.4618C81.1473 73.4901 81.2752 74.6808 80.8275 75.7287C80.0698 77.495 78.1952 78.361 75.9369 77.9969C75.563 77.9379 75.194 77.8641 74.825 77.7952C73.5113 77.5442 72.1583 77.2835 70.1559 77.4212C69.5654 77.4606 68.7782 77.6525 67.9418 77.8493C66.8151 78.1199 65.4375 78.4446 64.1435 78.4446L64.1386 78.4495ZM65.2702 72.3191C65.098 72.3191 64.9111 72.329 64.7044 72.3487C63.4744 72.4667 62.8348 73.067 62.5101 73.5492C62.1115 74.1494 62.0771 74.7398 62.146 74.9711C62.638 76.5701 64.1042 76.4963 67.4203 75.7041C68.3453 75.4827 69.221 75.2761 69.9935 75.222C72.2764 75.0645 73.8459 75.3647 75.2284 75.6254C75.5827 75.6943 75.9271 75.7583 76.2813 75.8173C76.8717 75.9108 78.2887 76.0092 78.7857 74.8579C78.9825 74.4003 78.8004 73.9624 78.6135 73.6771C78.2248 73.0867 77.2752 72.3979 75.873 72.3979C74.5642 72.3979 73.9492 72.6143 73.2358 72.8653C72.5569 73.1014 71.7942 73.372 70.5052 73.4704C69.0488 73.5787 68.1485 73.1851 67.3563 72.8357C66.7315 72.5602 66.1804 72.3191 65.2702 72.3191Z" fill="#45B3B1"/>
<path d="M22.2292 79.4773C21.565 79.4773 21.009 78.9607 20.9696 78.2866L20.8958 77.0172C20.8958 76.9877 20.8958 76.9631 20.8958 76.9336V76.1513L20.0939 75.246C19.8675 74.9902 19.7494 74.6556 19.774 74.3112C19.7987 73.9717 19.961 73.6519 20.2267 73.4354L21.009 72.7811L20.886 72.5105L20.0201 71.3493C19.7396 70.9705 19.6904 70.4686 19.8971 70.0455L20.4284 68.9434L20.5563 68.107L20.3103 67.0787C20.2218 66.7048 20.3103 66.3161 20.5416 66.016L21.1713 65.2041L21.0779 64.7466L20.3694 63.6888C20.2907 63.5756 20.2365 63.4477 20.2021 63.3148L19.8626 62.0455C19.7741 61.7207 19.8233 61.3714 19.9905 61.0811L20.517 60.1857L20.4087 59.3443C20.3989 59.2509 20.394 59.1574 20.4087 59.0639L20.5121 57.9913L20.2808 56.9138C20.207 56.5743 20.2808 56.2201 20.4727 55.9347L20.8122 55.4378L20.3743 54.8966C20.0348 54.4735 20.0004 53.8831 20.2907 53.4255L20.6547 52.8548L20.2562 52.2693C20.1332 52.0872 20.0594 51.8708 20.0397 51.6494L19.9463 50.38L19.902 49.0614C19.902 48.9827 19.902 48.9089 19.9167 48.8302L20.084 47.733L19.9463 46.6358C19.902 46.2865 20.0053 45.9322 20.2365 45.6616L20.6941 45.1204L20.3694 44.6432C20.1086 44.2545 20.0791 43.7576 20.2956 43.3443L20.9204 42.1585L21.0434 41.8043L20.1824 41.0909C19.6461 40.6432 19.5723 39.851 20.0201 39.3147L20.6646 38.5324L20.5022 37.8732C20.4383 37.6075 20.4579 37.327 20.5662 37.0712L21.1123 35.7969C21.3878 35.1573 22.1308 34.8572 22.7704 35.1327C23.41 35.4082 23.7101 36.1511 23.4346 36.7907L23.0557 37.6764L23.2722 38.5423C23.3706 38.931 23.2722 39.3443 23.0213 39.6542L22.7704 39.9593L23.3313 40.4267C23.7347 40.7612 23.8872 41.3123 23.715 41.8043L23.2771 43.0786C23.2575 43.1426 23.2279 43.2016 23.1984 43.2606L22.8835 43.8609L23.3165 44.5005C23.6363 44.9679 23.6019 45.5927 23.2378 46.0257L22.5244 46.872L22.6179 47.5952C22.6326 47.7084 22.6326 47.8265 22.6179 47.9396L22.4456 49.0958L22.485 50.2521L22.549 51.1377L23.223 52.1315C23.5035 52.5497 23.5133 53.0909 23.2427 53.519L22.9229 54.0257L23.3805 54.5916C23.7298 55.0245 23.7544 55.6346 23.4395 56.0971L22.8786 56.9187L23.0361 57.6568C23.0656 57.7847 23.0705 57.9175 23.0607 58.0454L22.9524 59.1771L23.0951 60.3087C23.1295 60.5842 23.0705 60.8646 22.9327 61.1057L22.4555 61.9175L22.6031 62.4735L23.3362 63.5707C23.4297 63.7084 23.4936 63.861 23.5231 64.0282L23.7741 65.2976C23.8479 65.6568 23.7593 66.0307 23.533 66.3161L22.918 67.1082L23.0803 67.7872C23.1197 67.9446 23.1246 68.1119 23.1 68.2743L22.9032 69.5387C22.8835 69.6617 22.8442 69.7847 22.7901 69.8979L22.5096 70.4785L22.9967 71.1328C23.0508 71.2066 23.0951 71.2804 23.1345 71.3641L23.715 72.6335C23.9512 73.1501 23.8134 73.7651 23.3755 74.1292L22.8589 74.5621L23.1246 74.8573C23.3362 75.0935 23.4493 75.3936 23.4444 75.7085L23.4346 76.9336L23.5035 78.1636C23.5428 78.8623 23.0115 79.4576 22.3177 79.497C22.2931 79.497 22.2685 79.497 22.2439 79.497L22.2292 79.4773Z" fill="#45B3B1"/>
<path d="M9.59972 78.4017C9.45704 78.4017 9.31435 78.3771 9.17659 78.3279C8.5173 78.0917 8.17782 77.3734 8.40906 76.7141L8.82727 75.5431L9.03391 74.6919L8.78299 73.7719C8.78299 73.7719 8.77315 73.7276 8.76823 73.703L8.50254 72.4681C8.43366 72.1483 8.4927 71.8186 8.65998 71.5382L9.07327 70.8641L8.80267 70.2344C8.73378 70.0769 8.69934 69.9047 8.69934 69.7276V68.7042L8.35986 67.671C8.31066 67.5283 8.29098 67.3758 8.2959 67.2282L8.34018 65.9933C8.35002 65.7325 8.43858 65.4816 8.59602 65.27L9.24055 64.4287L9.19135 63.8924L8.72394 62.8542C8.61078 62.6082 8.58618 62.3327 8.6403 62.067L8.84203 61.147L8.57142 60.222C8.4927 59.9465 8.50746 59.6562 8.61078 59.3905L8.94043 58.5738L8.69442 57.7669C8.6649 57.6734 8.65014 57.575 8.6403 57.4766L8.5665 56.2417C8.55174 56.04 8.5911 55.8382 8.66982 55.6562L9.04867 54.8001L8.86171 53.9686C8.83219 53.8259 8.82235 53.6832 8.84203 53.5406L8.94535 52.7041L8.4681 51.8185C8.13846 51.2035 8.36478 50.436 8.97979 50.1063C9.5948 49.7767 10.3574 50.003 10.692 50.618L11.3611 51.8579C11.4841 52.0891 11.5333 52.3499 11.5038 52.6107L11.3808 53.634L11.612 54.6574C11.6711 54.9231 11.6465 55.1937 11.5333 55.4446L11.1102 56.3991L11.1594 57.1814L11.489 58.2737C11.5727 58.5492 11.5579 58.8444 11.4497 59.115L11.1151 59.9416L11.3562 60.7534C11.4152 60.9551 11.4251 61.1716 11.3759 61.3782L11.1938 62.2048L11.5776 63.056C11.6366 63.1839 11.6711 63.3217 11.6858 63.4594L11.799 64.6944C11.8285 65.0092 11.735 65.3241 11.5431 65.575L10.8445 66.4902L10.8248 67.0953L11.1643 68.1138C11.2086 68.2466 11.2283 68.3844 11.2283 68.5222V69.4914L11.6514 70.4804C11.8137 70.8592 11.7842 71.2922 11.5677 71.6415L11.0757 72.4435L11.2283 73.147L11.5579 74.3475C11.6169 74.5542 11.6169 74.7707 11.5677 74.9822L11.2676 76.2122C11.2578 76.2516 11.243 76.2959 11.2332 76.3352L10.7953 77.5653C10.6133 78.0819 10.1262 78.4066 9.60464 78.4066L9.59972 78.4017Z" fill="#45B3B1"/>
<path d="M10.0814 87.8333H10.0764C9.37778 87.8333 8.81689 87.2625 8.81689 86.5639V85.3043V84.0546L8.85626 82.7459C8.87594 82.0472 9.4565 81.506 10.1552 81.5208C10.8538 81.5405 11.3999 82.1211 11.3803 82.8197L11.3458 84.0842V85.3043V86.5786C11.3458 87.2724 10.78 87.8382 10.0814 87.8382V87.8333Z" fill="#45B3B1"/>
<path d="M119.051 79.4784C119.051 79.4784 119.002 79.4784 118.978 79.4784C118.279 79.439 117.748 78.8388 117.792 78.145L117.861 76.915L117.851 75.6899C117.851 75.375 117.964 75.0749 118.171 74.8387L118.436 74.5435L117.92 74.1106C117.482 73.7465 117.344 73.1364 117.58 72.6149L118.161 71.3455C118.2 71.2618 118.244 71.188 118.299 71.1142L118.786 70.4599L118.505 69.8793C118.451 69.7661 118.412 69.6481 118.392 69.5201L118.195 68.2557C118.171 68.0933 118.176 67.931 118.215 67.7686L118.377 67.0896L117.762 66.2975C117.536 66.0072 117.452 65.6382 117.521 65.279L117.772 64.0097C117.807 63.8473 117.871 63.6948 117.959 63.5521L118.692 62.4549L118.84 61.8989L118.363 61.0871C118.22 60.8461 118.166 60.5656 118.2 60.2901L118.343 59.1585L118.235 58.0269C118.22 57.8989 118.23 57.7661 118.259 57.6382L118.417 56.9002L117.856 56.0785C117.541 55.6209 117.565 55.0059 117.915 54.573L118.372 54.0072L118.053 53.5004C117.782 53.0773 117.792 52.5311 118.072 52.1129L118.746 51.124L118.815 50.1892L118.85 49.0822L118.677 47.926C118.658 47.8128 118.658 47.6947 118.677 47.5815L118.771 46.8583L118.057 46.012C117.693 45.5791 117.659 44.9542 117.979 44.4868L118.417 43.8472L118.102 43.247C118.072 43.1879 118.043 43.1289 118.023 43.0649L117.585 41.7906C117.413 41.2937 117.57 40.7476 117.969 40.413L118.53 39.9456L118.279 39.6406C118.023 39.3306 117.93 38.9222 118.028 38.5286L118.244 37.6627L117.866 36.7771C117.59 36.1375 117.89 35.3945 118.53 35.119C119.169 34.8435 119.912 35.1436 120.188 35.7832L120.734 37.0575C120.842 37.3084 120.867 37.5938 120.798 37.8595L120.636 38.5188L121.28 39.3011C121.723 39.8374 121.649 40.6295 121.118 41.0772L120.257 41.7906L120.38 42.1449L121.005 43.3306C121.221 43.7439 121.196 44.2457 120.931 44.6295L120.606 45.1068L121.064 45.648C121.29 45.9186 121.393 46.2728 121.349 46.6221L121.211 47.7193L121.379 48.8165C121.388 48.8903 121.393 48.969 121.393 49.0477L121.349 50.322L121.256 51.6406C121.241 51.862 121.167 52.0736 121.039 52.2605L120.641 52.846L121.005 53.4167C121.295 53.8743 121.26 54.4647 120.921 54.8878L120.483 55.4291L120.823 55.926C121.019 56.2113 121.088 56.5656 121.014 56.9051L120.783 57.9826L120.887 59.0551C120.896 59.1486 120.896 59.2421 120.887 59.3356L120.778 60.1769L121.305 61.0724C121.477 61.3627 121.521 61.712 121.433 62.0367L121.093 63.3061C121.059 63.4389 121 63.5669 120.926 63.68L120.217 64.7378L120.124 65.1954L120.754 66.0072C120.99 66.3073 121.073 66.7009 120.985 67.0749L120.739 68.1032L120.867 68.9396L121.398 70.0417C121.605 70.4648 121.556 70.9716 121.275 71.3455L120.409 72.5066L120.286 72.7772L121.069 73.4316C121.329 73.653 121.492 73.9679 121.521 74.3074C121.546 74.6469 121.433 74.9863 121.201 75.2422L120.39 76.1475V76.9298C120.395 76.9593 120.395 76.9839 120.39 77.0134L120.316 78.2828C120.276 78.9519 119.72 79.4734 119.056 79.4734L119.051 79.4784Z" fill="#45B3B1"/>
<path d="M131.681 78.4007C131.16 78.4007 130.677 78.076 130.49 77.5594L130.052 76.3294C130.038 76.29 130.028 76.2457 130.018 76.2064L129.718 74.9764C129.669 74.7697 129.669 74.5483 129.728 74.3417L130.057 73.1412L130.21 72.4376L129.718 71.6356C129.501 71.2863 129.472 70.8533 129.634 70.4745L130.062 69.4856V68.5163C130.057 68.3785 130.077 68.2408 130.121 68.1079L130.461 67.0895L130.441 66.4843L129.743 65.5692C129.551 65.3183 129.462 65.0034 129.487 64.6885L129.6 63.4536C129.615 63.3158 129.649 63.178 129.708 63.0501L130.092 62.1989L129.91 61.3724C129.866 61.1657 129.87 60.9492 129.929 60.7475L130.171 59.9357L129.836 59.1091C129.728 58.8435 129.713 58.5433 129.797 58.2678L130.126 57.1755L130.175 56.3933L129.752 55.4388C129.644 55.1928 129.615 54.9172 129.674 54.6516L129.905 53.6282L129.782 52.6048C129.752 52.344 129.802 52.0833 129.925 51.852L130.594 50.6122C130.923 49.9972 131.691 49.7708 132.306 50.1005C132.921 50.4301 133.147 51.1977 132.818 51.8127L132.34 52.6983L132.444 53.5347C132.463 53.6774 132.453 53.825 132.424 53.9627L132.237 54.7942L132.616 55.6503C132.7 55.8324 132.734 56.0341 132.719 56.2358L132.645 57.4708C132.64 57.5692 132.621 57.6676 132.591 57.761L132.345 58.5679L132.675 59.3847C132.783 59.6503 132.798 59.9406 132.714 60.2162L132.444 61.1411L132.645 62.0612C132.704 62.3269 132.675 62.6024 132.562 62.8484L132.094 63.8865L132.045 64.4228L132.69 65.2641C132.847 65.4708 132.941 65.7266 132.945 65.9874L132.99 67.2223C132.995 67.3749 132.975 67.5225 132.926 67.6651L132.581 68.6984V69.7217C132.586 69.8939 132.552 70.0661 132.483 70.2285L132.212 70.8583L132.626 71.5323C132.798 71.8078 132.852 72.1424 132.783 72.4622L132.517 73.6971C132.517 73.6971 132.508 73.7414 132.503 73.766L132.252 74.6861L132.458 75.5372L132.877 76.7082C133.113 77.3675 132.768 78.0858 132.109 78.322C131.971 78.3712 131.824 78.3958 131.686 78.3958L131.681 78.4007Z" fill="#45B3B1"/>
<path d="M131.204 87.8338C130.51 87.8338 129.945 87.2729 129.94 86.5742V85.3147V84.0404L129.905 82.8202C129.886 82.1215 130.432 81.541 131.13 81.5213C131.824 81.4967 132.41 82.0477 132.429 82.7464L132.469 84.0109V85.3196V86.5693C132.469 87.2679 131.908 87.8337 131.209 87.8387H131.204V87.8338Z" fill="#45B3B1"/>
</g>
<defs>
<clipPath id="clip0_2208_2718">
<rect width="140.98" height="140.985" fill="white" transform="translate(0.000244141)"/>
</clipPath>
</defs>
</svg>
