<svg width="151" height="151" viewBox="0 0 151 151" fill="none" xmlns="http://www.w3.org/2000/svg">
<path d="M113.932 113.467C101.467 108.788 98.7164 104.657 96.5611 102.234C94.4059 99.8113 94.0847 98.0615 94.0847 90.2033V65.7744L75.2731 70.0711L56.4564 65.7744V90.2033C56.4564 98.0615 56.1352 99.8113 53.9799 102.234C51.8247 104.657 49.0685 108.788 36.6086 113.467C24.1591 118.142 61.3315 140.526 61.3315 140.526H89.2147C89.2147 140.526 126.387 118.147 113.938 113.467H113.932Z" fill="white"/>
<path d="M89.2096 142.037C88.6967 142.037 88.1942 141.778 87.9093 141.302C87.4792 140.587 87.7072 139.656 88.4273 139.226C99.6956 132.439 115.378 120.843 114.964 116.309C114.943 116.07 114.886 115.434 113.399 114.88C101.638 110.464 98.2346 106.499 95.981 103.874C95.7893 103.652 95.6028 103.434 95.4266 103.237C92.8466 100.338 92.5668 98.0348 92.5668 90.2025V67.6683L75.6048 71.5404C75.382 71.5922 75.1541 71.5922 74.9313 71.5404L57.9693 67.6683V90.2025C57.9693 98.0348 57.6895 100.338 55.1094 103.237C54.9281 103.439 54.7468 103.652 54.5551 103.874C52.3014 106.499 48.8976 110.464 37.1372 114.88C35.6554 115.439 35.5985 116.07 35.5726 116.309C35.1581 120.843 50.8404 132.439 62.1087 139.226C62.8237 139.656 63.0568 140.587 62.6268 141.302C62.1968 142.016 61.2643 142.249 60.5493 141.819C55.7467 138.926 31.8216 124.094 32.5625 116.034C32.6765 114.776 33.3811 113.058 36.0751 112.048C47.1103 107.902 50.2084 104.293 52.26 101.902C52.4672 101.664 52.6589 101.436 52.8506 101.224C54.5758 99.2824 54.9488 98.1177 54.9488 90.1973V65.7684C54.9488 65.3077 55.1613 64.8729 55.5187 64.583C55.8762 64.2982 56.3477 64.1895 56.7984 64.2931L75.2732 68.5121L93.7481 64.2931C94.1988 64.1895 94.6702 64.2931 95.0277 64.583C95.3904 64.8677 95.5976 65.3077 95.5976 65.7684V90.1973C95.5976 98.1177 95.9654 99.2824 97.6958 101.224C97.8875 101.436 98.0792 101.664 98.2865 101.902C100.338 104.293 103.436 107.902 114.471 112.048C117.165 113.058 117.87 114.776 117.984 116.034C118.725 124.094 94.7998 138.926 89.9971 141.819C89.7536 141.964 89.4842 142.037 89.2148 142.037H89.2096Z" fill="#45B3B1"/>
<path d="M95.6036 94.6875L75.2637 104.968L54.9237 94.6875L51.3645 102.644L40.7749 112.335C40.7749 112.335 43.7435 129.465 48.5513 149.131H101.971C106.779 129.47 109.747 112.335 109.747 112.335L99.1576 102.644L95.5984 94.6875H95.6036Z" fill="white"/>
<path d="M47.7428 147.283C47.0382 147.283 46.4113 146.791 46.2611 146.076L39.2929 112.645C39.1841 112.122 39.3602 111.584 39.754 111.222L50.1104 101.743L53.5401 94.0712C53.7111 93.6933 54.0271 93.4034 54.4157 93.2636C54.8043 93.1239 55.2343 93.1549 55.6073 93.3413L75.2633 103.275L94.9194 93.3413C95.2872 93.1549 95.7173 93.129 96.111 93.2636C96.4996 93.4034 96.8156 93.6933 96.9866 94.0712L100.416 101.743L110.773 111.222C111.166 111.584 111.343 112.122 111.234 112.645L104.266 146.076C104.095 146.894 103.292 147.417 102.473 147.251C101.654 147.081 101.131 146.278 101.297 145.46L108.089 112.873L98.1367 103.762C97.9813 103.622 97.8621 103.451 97.7792 103.265L94.8676 96.7579L75.9472 106.324C75.5172 106.542 75.0095 106.542 74.5795 106.324L55.6591 96.7579L52.7475 103.265C52.6646 103.457 52.5402 103.622 52.39 103.762L42.4376 112.873L49.2297 145.46C49.4007 146.278 48.8774 147.081 48.0537 147.251C47.95 147.272 47.8464 147.283 47.7428 147.283Z" fill="#45B3B1"/>
<path d="M86.6346 123.868C86.1424 123.868 85.6554 123.625 85.3653 123.185L75.2679 107.738L65.1705 123.185C64.7146 123.884 63.7716 124.081 63.0722 123.625C62.3728 123.17 62.1759 122.233 62.6319 121.529L73.9986 104.145C74.2784 103.716 74.755 103.462 75.2679 103.462C75.7808 103.462 76.2574 103.721 76.5372 104.145L87.9039 121.529C88.3598 122.227 88.163 123.164 87.4636 123.625C87.2097 123.791 86.9196 123.874 86.6346 123.874V123.868Z" fill="#45B3B1"/>
<path d="M78.7916 124.113L81.237 114.195L75.2065 104.97L69.176 114.195L71.6213 124.113C71.6213 124.113 69.5076 135.999 68.7771 142.221C68.6735 143.122 68.5284 145.586 68.3574 149.132H82.0607C81.8897 145.581 81.7499 143.122 81.6411 142.221C80.9106 135.999 78.7968 124.113 78.7968 124.113H78.7916Z" fill="#45B3B1"/>
<path d="M136.609 114.015L107.773 105.06L98.6025 97.7812C98.6025 97.7812 97.8306 115.517 91.4634 146.152C91.2561 147.141 91.0489 148.13 90.8313 149.124H148.893C148.494 137.43 147.95 127.93 147.214 124.876C144.738 114.6 136.604 114.01 136.604 114.01L136.609 114.015Z" fill="#C0ECEB"/>
<path d="M90.8366 150.641C90.7278 150.641 90.6242 150.631 90.5154 150.605C89.6969 150.429 89.1788 149.621 89.3549 148.803C89.5673 147.815 89.7798 146.826 89.9818 145.842C96.2454 115.704 97.0847 97.8854 97.0899 97.7094C97.1158 97.1399 97.4577 96.6326 97.9758 96.3997C98.4939 96.1616 99.1001 96.2392 99.5456 96.5912L108.493 103.694L136.873 112.504C139.169 112.67 146.38 114.937 148.691 124.52C149.38 127.382 149.945 135.411 150.411 149.067C150.442 149.901 149.784 150.605 148.95 150.631C148.116 150.652 147.411 150.004 147.385 149.171C146.821 132.652 146.183 127.035 145.748 125.229C143.583 116.242 136.806 115.543 136.495 115.517C136.381 115.507 136.272 115.486 136.164 115.455L107.327 106.499C107.146 106.442 106.98 106.354 106.835 106.241L99.9238 100.753C99.4316 107.007 97.81 123.07 92.9504 146.458C92.7432 147.452 92.5308 148.446 92.3184 149.445C92.1629 150.155 91.5361 150.636 90.8418 150.636L90.8366 150.641Z" fill="#45B3B1"/>
<path d="M108.378 145.776C108.156 145.776 107.928 145.724 107.71 145.62C106.959 145.253 106.648 144.347 107.021 143.596C110.399 136.732 112.87 131.452 113.818 129.407L107.363 122.522C107.078 122.216 106.933 121.808 106.959 121.393C106.985 120.979 107.182 120.591 107.503 120.322L112.513 116.165L108.114 110.243C107.617 109.57 107.757 108.622 108.43 108.125C109.104 107.629 110.052 107.768 110.549 108.441L115.802 115.513C116.284 116.16 116.17 117.066 115.554 117.578L110.679 121.621L116.73 128.077C117.149 128.527 117.258 129.184 116.999 129.738C116.973 129.8 114.108 136.049 109.741 144.927C109.477 145.46 108.938 145.771 108.384 145.771L108.378 145.776Z" fill="#45B3B1"/>
<path d="M51.7991 97.7812L42.6291 105.06L13.7926 114.015C13.7926 114.015 5.65868 114.606 3.18225 124.881C2.44657 127.93 1.90259 137.43 1.50366 149.129H59.5704C59.3528 148.135 59.1455 147.146 58.9383 146.158C52.5711 115.517 51.7991 97.7864 51.7991 97.7864V97.7812Z" fill="#C0ECEB"/>
<path d="M59.5702 150.641C58.8708 150.641 58.2439 150.159 58.0937 149.45C57.8761 148.456 57.6637 147.457 57.4616 146.463C52.602 123.08 50.9804 107.012 50.4882 100.758L43.577 106.245C43.4319 106.365 43.261 106.453 43.0848 106.504L14.2483 115.46C14.1395 115.496 14.0307 115.517 13.9168 115.522C13.6059 115.548 6.82939 116.247 4.6638 125.234C4.22861 127.04 3.59137 132.657 3.02666 149.176C2.99558 150.009 2.30653 150.656 1.46205 150.636C0.627938 150.61 -0.0300272 149.906 0.00105771 149.072C0.467332 135.416 1.02686 127.387 1.72109 124.524C4.03174 114.942 11.2435 112.675 13.5386 112.509L41.9191 103.699L50.8664 96.5961C51.312 96.2441 51.9181 96.1664 52.4362 96.4046C52.9543 96.6427 53.2962 97.1448 53.3221 97.7143C53.3273 97.8903 54.1666 115.708 60.4302 145.847C60.6323 146.831 60.8447 147.82 61.0571 148.803C61.2332 149.621 60.7152 150.423 59.8966 150.605C59.7878 150.631 59.679 150.641 59.5754 150.641H59.5702Z" fill="#45B3B1"/>
<path d="M42.0331 145.775C41.4736 145.775 40.9348 145.465 40.6757 144.932C36.3083 136.054 33.4433 129.805 33.4174 129.743C33.1635 129.184 33.2672 128.527 33.6868 128.081L39.738 121.626L34.8628 117.583C34.2463 117.071 34.1324 116.165 34.6142 115.518L39.8675 108.446C40.3649 107.773 41.313 107.633 41.9865 108.13C42.66 108.627 42.7999 109.575 42.3025 110.248L37.904 116.17L42.9138 120.327C43.2351 120.591 43.4319 120.979 43.4578 121.398C43.4837 121.812 43.3387 122.221 43.0537 122.527L36.5984 129.412C37.5465 131.457 40.0178 136.737 43.3957 143.601C43.7635 144.352 43.4578 145.258 42.7066 145.625C42.4942 145.729 42.2662 145.781 42.0383 145.781L42.0331 145.775Z" fill="#45B3B1"/>
<path d="M50.1575 47.0451L51.4372 32.4416C51.805 28.2277 53.2194 24.1744 55.5715 20.6594C60.0633 13.9452 68.6168 6.42344 82.118 7.54679L82.3564 7.56749C95.8472 8.80473 102.966 17.6983 106.219 25.0855C107.924 28.9576 108.613 33.1922 108.245 37.406L106.965 52.0095C110.214 51.0932 114.452 52.2476 113.498 61.4363C112.654 69.5793 107.359 73.5136 103.691 73.6481C103.194 75.1701 102.603 76.6506 101.904 77.9603C97.4015 86.1447 86.413 94.4171 78.0097 95.9235C78.0097 95.9235 76.5124 96.1824 74.4867 96.0063C72.461 95.8303 71.0311 95.3127 71.0311 95.3127C63.0215 92.3723 53.6339 82.3191 50.6238 73.4773C50.1627 72.0693 49.8363 70.5111 49.6135 68.9218C46.0284 68.1557 41.5004 63.3569 42.0806 55.1932C42.7386 45.9787 47.1112 45.58 50.1472 47.0399L50.1575 47.0451Z" fill="white"/>
<path d="M75.9219 97.5852C75.4505 97.5852 74.9272 97.5644 74.3677 97.5179C72.1762 97.3263 70.596 96.7672 70.5339 96.7413C62.1202 93.6508 52.3595 83.225 49.2044 73.969C48.8262 72.8198 48.5205 71.5308 48.277 70.1072C43.9666 68.5438 40.0136 63.0565 40.5835 55.0896C40.9306 50.2131 42.3295 47.0346 44.7437 45.6369C45.956 44.938 47.36 44.7258 48.8262 45.0105L49.9401 32.3121C50.3286 27.8446 51.8466 23.522 54.3282 19.8207C58.1413 14.1263 66.8348 4.75645 82.2581 6.04027L82.5016 6.06098C97.9145 7.47422 104.857 18.2055 107.618 24.4797C109.416 28.5589 110.157 33.073 109.768 37.5405L108.654 50.239C110.136 50.2131 111.493 50.6635 112.561 51.5642C114.695 53.3605 115.519 56.7358 115.016 61.5967C114.193 69.5429 109.343 74.2641 104.826 75.0509C104.344 76.4072 103.815 77.6238 103.251 78.6746C98.531 87.2576 87.1021 95.8354 78.2896 97.4143C78.2326 97.4247 77.3 97.58 75.9219 97.58V97.5852ZM47.5724 47.9198C47.1321 47.9198 46.6813 48.013 46.2565 48.2563C44.8059 49.0949 43.863 51.6005 43.5988 55.307C43.0755 62.632 46.9922 66.82 49.9401 67.4515C50.5618 67.5861 51.0332 68.0883 51.1213 68.7198C51.3544 70.3557 51.6757 71.8 52.0746 73.0165C54.9189 81.3665 64.0267 91.135 71.5648 93.9045C71.5648 93.9045 72.8497 94.3549 74.6267 94.5102C76.4089 94.6655 77.7508 94.4481 77.7611 94.4429C85.6515 93.0296 96.3188 84.9902 100.583 77.2407C101.178 76.1277 101.743 74.7559 102.256 73.1873C102.453 72.5868 103.007 72.1675 103.639 72.1468C106.649 72.0381 111.234 68.5956 111.996 61.2861C112.379 57.5899 111.887 54.9601 110.602 53.8834C109.582 53.0241 108.147 53.257 107.38 53.4744C106.903 53.609 106.385 53.5003 106.002 53.1845C105.618 52.8688 105.416 52.3821 105.458 51.8852L106.737 37.2817C107.085 33.3163 106.427 29.3147 104.836 25.7014C102.339 20.0381 96.0805 10.3473 82.2166 9.079L81.9887 9.05829C68.1248 7.90906 60.2758 16.3626 56.8306 21.5031C54.6339 24.7851 53.2921 28.6159 52.945 32.5761L51.6653 47.1796C51.6239 47.6765 51.3389 48.1165 50.9037 48.3598C50.4737 48.6083 49.9453 48.6239 49.4945 48.4064C49.0438 48.189 48.3237 47.9146 47.5673 47.9146L47.5724 47.9198Z" fill="#45B3B1"/>
<path d="M60.809 24.877C53.8459 30.7525 53.4833 45.7288 50.0432 47.0385C46.6031 48.3482 46.3959 52.0547 46.3959 52.0547L44.852 47.6079C44.852 47.6079 44.738 40.1069 44.4842 37.8757C44.1992 35.3495 44.9815 29.2772 47.8983 24.4525C51.8565 17.9091 57.1306 10.8999 59.4982 9.55911C62.7103 7.74208 65.3007 9.21745 65.3007 9.21745C65.3007 9.21745 65.7515 6.59286 66.8084 5.46433C67.8653 4.33581 69.062 2.93292 71.9788 2.13053C74.8905 1.33332 82.5943 2.81904 86.967 4.3824C90.9147 5.79047 96.3235 7.41077 100.432 9.92665H100.437C104.043 11.723 105.991 15.8385 105.991 15.8385C110.312 22.2886 115.234 32.7611 114.886 38.1966C114.337 46.8003 111.799 53.3437 111.799 53.3437L108.768 57.1175L106.975 52.0185C106.975 52.0185 104.675 50.3516 104.079 37.7463C99.0642 26.9062 82.0607 23.1687 82.0607 23.1687L86.2106 29.2099C86.2106 29.2099 74.4915 28.1849 68.6683 20.3474C68.6683 20.3474 68.4662 21.0048 67.6684 21.5121C65.6945 22.6406 61.5498 26.2281 61.5498 26.2281L60.809 24.8822V24.877Z" fill="#45B3B1"/>
<path d="M108.763 58.6265C108.68 58.6265 108.592 58.6213 108.509 58.6058C107.965 58.5126 107.519 58.1347 107.333 57.617L105.644 52.813C104.727 51.6845 103.084 48.2627 102.577 38.1267C99.2921 31.3918 90.7904 27.5766 85.7184 25.832L87.4539 28.3635C87.7855 28.8449 87.8062 29.4764 87.5109 29.9838C87.2156 30.4911 86.6613 30.781 86.0707 30.7292C85.5629 30.6878 73.6004 29.5489 67.4456 21.261C66.9482 20.588 67.0881 19.6407 67.7564 19.1437C68.4299 18.6468 69.378 18.7866 69.8754 19.4543C73.3414 24.1134 79.1905 26.1996 82.9052 27.09L80.8018 24.0306C80.4495 23.5181 80.4495 22.8451 80.7966 22.3274C81.1437 21.8149 81.7706 21.5613 82.3767 21.6959C83.102 21.8563 100.178 25.7233 105.442 37.1121C105.525 37.2881 105.571 37.4796 105.582 37.6763C106.084 48.2679 107.815 50.6906 107.975 50.8873C108.167 51.0581 108.312 51.2704 108.395 51.5137L109.281 54.0399L110.452 52.5801C110.876 51.4153 112.892 45.5035 113.363 38.0957C113.669 33.2865 109.115 23.2333 104.722 16.6745C104.68 16.6123 104.644 16.545 104.613 16.4777C104.597 16.4467 102.862 12.8748 99.8361 11.3166C99.7636 11.2855 99.6911 11.2493 99.6237 11.2079C96.3805 9.22 92.2825 7.81711 88.6714 6.5747C87.8943 6.30551 87.1483 6.05186 86.4437 5.80337C82.1073 4.26072 74.7609 2.93548 72.3622 3.58774C69.9997 4.23483 69.0102 5.30123 68.0517 6.3314L67.8963 6.49705C67.3886 7.04061 66.9327 8.56256 66.7773 9.47366C66.6944 9.96027 66.3783 10.3744 65.9328 10.5866C65.4872 10.7989 64.964 10.7782 64.5391 10.5349C64.477 10.5038 62.6067 9.5306 60.2339 10.8765C58.2859 11.9792 53.2294 18.5536 49.1832 25.2367C46.2767 30.0407 45.7638 35.8127 45.9814 37.7074C46.2146 39.7781 46.3337 46.0108 46.3544 47.3464L46.5099 47.802C47.1886 46.9427 48.1418 46.1506 49.494 45.6329C50.2919 45.2861 51.3798 41.5537 52.1 39.0896C53.6231 33.8611 55.5245 27.3592 59.8194 23.7355C60.4567 23.1971 61.4151 23.2748 61.9539 23.9167C62.4927 24.5534 62.415 25.5111 61.7726 26.0495C58.1719 29.0882 56.4156 35.1035 55.0064 39.9386C53.7009 44.4061 52.7631 47.6312 50.5665 48.4646C48.0745 49.4119 47.8931 52.1245 47.8931 52.1504C47.8517 52.87 47.3077 53.4653 46.5928 53.5637C45.8726 53.662 45.1888 53.2427 44.9504 52.5594L43.4066 48.1126C43.3547 47.9625 43.3237 47.802 43.3237 47.6415C43.3237 47.569 43.2045 40.187 42.9662 38.0542C42.6346 35.1191 43.5413 28.7155 46.5876 23.6785C49.7531 18.4501 55.597 10.0276 58.7366 8.25196C60.897 7.02508 62.8606 7.03025 64.2024 7.28909C64.4977 6.33657 64.9743 5.20288 65.6841 4.4419L65.8344 4.28142C66.9068 3.13219 68.373 1.55847 71.5592 0.683612C75.0096 -0.263726 83.1487 1.43423 87.4591 2.96654C88.1482 3.21502 88.889 3.4635 89.6558 3.72751C93.1995 4.94404 97.598 6.45564 101.105 8.58326C104.83 10.4417 106.934 14.3656 107.297 15.0904C111.053 20.7226 116.793 31.9199 116.389 38.3027C115.835 47.041 113.306 53.6258 113.203 53.9001C113.146 54.0451 113.068 54.1797 112.97 54.2988L109.939 58.0726C109.649 58.4349 109.213 58.6368 108.757 58.6368L108.763 58.6265Z" fill="#45B3B1"/>
<path d="M106.976 52.0119L106.556 55.7754L105.276 65.9372L103.707 73.6557C107.369 73.5211 112.664 69.5816 113.514 61.4439C114.467 52.25 110.229 51.1008 106.981 52.0171L106.976 52.0119Z" fill="white"/>
<path d="M103.701 75.1695C103.256 75.1695 102.836 74.9728 102.546 74.6363C102.245 74.2843 102.126 73.8132 102.214 73.3576L103.784 65.6392C103.95 64.8213 104.748 64.2881 105.572 64.4589C106.39 64.6245 106.919 65.4218 106.753 66.2449L105.654 71.6545C108.38 70.4587 111.395 67.0938 112.001 61.2907C112.384 57.5946 111.892 54.9648 110.607 53.8881C109.934 53.3186 109.079 53.2306 108.354 53.2927L108.058 55.9484C107.965 56.7767 107.219 57.372 106.385 57.284C105.556 57.1908 104.955 56.4402 105.048 55.6119L105.468 51.8484C105.535 51.2376 105.97 50.7251 106.561 50.5594C108.877 49.9072 111.006 50.2644 112.555 51.5689C114.69 53.3652 115.514 56.7404 115.011 61.6013C114.12 70.1792 108.545 74.9935 103.753 75.1695C103.732 75.1695 103.717 75.1695 103.696 75.1695H103.701Z" fill="#45B3B1"/>
<path d="M42.0904 55.1954C41.5101 63.3591 46.0382 68.1579 49.6233 68.9241L49.4161 61.0503L49.9186 50.8211L50.1569 47.0421C47.1158 45.5771 42.7432 45.9757 42.0852 55.1903L42.0904 55.1954Z" fill="white"/>
<path d="M49.6233 70.443C49.5197 70.443 49.4109 70.4326 49.3073 70.4068C44.6187 69.4025 39.9663 63.6926 40.5828 55.0889C40.9299 50.2124 42.3287 47.0339 44.743 45.6362C46.4941 44.6216 48.6545 44.6371 50.8201 45.6828C51.3744 45.952 51.7112 46.5266 51.6749 47.1426L51.4366 50.9216C51.3848 51.7551 50.6595 52.3918 49.8306 52.3349C48.9965 52.2831 48.3644 51.5636 48.4162 50.7301L48.5872 48.0641C47.8878 47.8726 47.0277 47.8156 46.2662 48.2556C44.8155 49.0943 43.8726 51.5998 43.6084 55.3063C43.1939 61.1249 45.5823 64.966 48.0587 66.6122L47.9137 61.0939C47.8929 60.2604 48.5509 59.5616 49.3902 59.5409C50.2398 59.515 50.9237 60.1776 50.9444 61.0162L51.1517 68.89C51.162 69.3559 50.96 69.7959 50.6077 70.0962C50.3331 70.3239 49.9912 70.443 49.6389 70.443H49.6233Z" fill="#45B3B1"/>
<path d="M81.3663 54.935C81.159 54.935 80.9518 54.8729 80.7705 54.7435C80.7705 54.7435 79.8586 54.1326 78.1749 53.9825C76.4963 53.8375 75.486 54.2776 75.4757 54.2827C74.9628 54.5157 74.3566 54.2931 74.1235 53.7858C73.8852 53.2785 74.0976 52.678 74.6053 52.4347C74.7555 52.3622 76.1181 51.7462 78.3562 51.9429C80.5943 52.1396 81.8325 52.9782 81.9621 53.0766C82.4232 53.4027 82.5268 54.0446 82.2004 54.5002C81.9983 54.7797 81.6875 54.9298 81.3663 54.9298V54.935Z" fill="#45B3B1"/>
<path d="M92.5672 63.7301C90.7435 63.7301 88.609 63.4247 86.1999 62.6689C80.0762 60.7483 80.071 55.0177 80.4078 53.5889C80.6927 52.3724 81.6149 50.9488 83.0448 50.5036C83.5733 50.338 84.1432 50.6382 84.3089 51.1662C84.4747 51.6994 84.1742 52.2637 83.6458 52.4294C82.9826 52.6364 82.5008 53.4958 82.3765 54.0445C82.3661 54.0963 81.5476 59.097 86.8113 60.7431C92.0387 62.3842 96.0591 61.6957 97.5822 60.3652C100.395 57.9063 100.401 55.0022 100.012 53.8064C99.9084 53.4958 99.9654 53.1541 100.162 52.8901C100.359 52.6261 100.66 52.4708 100.996 52.4811C101.841 52.4967 103.359 52.6416 104.038 53.3922C104.312 53.6976 104.442 54.0807 104.405 54.4742C104.379 54.7692 104.307 55.6234 102.105 56.4879C101.779 58.2894 100.794 60.2358 98.9137 61.882C97.7584 62.8915 95.598 63.7301 92.5775 63.7301H92.5672Z" fill="#45B3B1"/>
<path d="M65.596 61.3591C60.7675 61.3591 57.6745 59.7595 56.3949 58.1651C54.8251 56.2186 54.193 54.1324 54.1878 52.2999C52.1725 51.0678 52.2502 50.2137 52.2761 49.9186C52.3124 49.5252 52.5041 49.168 52.8253 48.9195C53.6231 48.2983 55.1411 48.4225 55.9752 48.5468C56.2964 48.5985 56.5762 48.8004 56.7213 49.0903C56.8663 49.3854 56.8611 49.727 56.7109 50.0169C56.1203 51.1248 55.6229 53.9875 57.9647 56.8968C59.234 58.4705 63.073 59.8475 68.5076 59.1383C73.9734 58.4291 74.0408 53.3611 74.0356 53.3093C74.0045 52.7502 73.6833 51.8184 73.0668 51.4975C72.5694 51.2438 72.3777 50.633 72.6316 50.1412C72.8854 49.6442 73.4968 49.4527 73.989 49.7063C75.3204 50.3897 75.9836 51.953 76.0509 53.2006C76.1286 54.6656 75.1287 60.3134 68.7667 61.1365C67.6373 61.2815 66.5804 61.3487 65.596 61.3487V61.3591Z" fill="#45B3B1"/>
<path d="M67.6789 45.2225C62.7312 45.2225 59.5554 43.8714 59.3896 43.7989C58.7938 43.5401 58.5192 42.8464 58.7783 42.2511C59.0373 41.6558 59.7315 41.3866 60.3273 41.6402C60.3895 41.6661 65.0522 43.6177 71.7355 42.541C72.3779 42.4375 72.9841 42.8723 73.0877 43.5142C73.1913 44.1561 72.7561 44.7618 72.1137 44.8653C70.5232 45.1242 69.0363 45.2225 67.6841 45.2225H67.6789Z" fill="#45B3B1"/>
<path d="M96.8359 47.2102C96.7012 47.2102 96.5613 47.1843 96.4318 47.1377C94.5977 46.4648 90.9297 45.4812 86.9249 46.4285C86.2929 46.5787 85.6556 46.1904 85.5054 45.5537C85.3552 44.9221 85.7437 44.2854 86.381 44.1353C90.9815 43.043 95.1625 44.1611 97.2452 44.9221C97.8565 45.1447 98.1673 45.8229 97.9446 46.4337C97.7684 46.91 97.3177 47.205 96.841 47.205L96.8359 47.2102Z" fill="#45B3B1"/>
<path d="M60.099 51.7603C59.6741 51.7603 59.2597 51.5636 58.9955 51.1909C58.5706 50.5852 58.7105 49.7466 59.3167 49.3221C59.3737 49.2807 60.7569 48.3126 63.1608 47.4222C65.6321 46.5059 68.2795 47.0236 70.2482 48.8096C70.7974 49.3065 70.8388 50.1607 70.3415 50.7094C69.8441 51.2582 68.9893 51.2996 68.4401 50.7974C66.6527 49.1719 64.6633 49.731 64.0986 49.9433C62.0521 50.6991 60.8813 51.5118 60.8709 51.517C60.6378 51.6826 60.3684 51.7603 60.099 51.7603Z" fill="#45B3B1"/>
<path d="M67.782 53.0553C67.6266 54.8102 66.15 56.1199 64.487 55.975C62.8239 55.83 61.5961 54.2874 61.7463 52.5273C61.9018 50.7724 63.3783 49.4627 65.0413 49.6076C66.7096 49.7526 67.9322 51.2952 67.782 53.0553Z" fill="#45B3B1"/>
<path d="M96.7221 54.9649C96.375 54.9649 96.0279 54.8303 95.7637 54.5663C95.7585 54.5611 94.7431 53.5568 92.8624 52.4594C92.3392 52.1539 90.4844 51.2584 88.438 52.5474C87.8111 52.946 86.977 52.7544 86.5833 52.1281C86.1843 51.5017 86.376 50.6682 87.0029 50.2748C89.2462 48.8564 91.9506 48.8046 94.225 50.135C96.4372 51.4292 97.6288 52.625 97.6806 52.6716C98.2039 53.1996 98.1987 54.0486 97.6702 54.5715C97.406 54.8303 97.0641 54.9597 96.7221 54.9597V54.9649Z" fill="#45B3B1"/>
<path d="M86.5933 54.7012C86.4379 56.4561 87.6658 57.9987 89.334 58.1489C91.0022 58.2938 92.4736 56.9893 92.629 55.2292C92.7844 53.4743 91.5566 51.9316 89.8884 51.7815C88.2201 51.6366 86.7488 52.9411 86.5933 54.7012Z" fill="#45B3B1"/>
<path d="M75.3462 68.3492C75.5845 68.1162 76.1389 68.4476 76.9056 68.5304C77.6724 68.577 78.2786 68.3544 78.4702 68.6184C78.6723 68.8979 78.2993 70.161 76.7709 70.0679C75.2478 69.897 75.1027 68.5873 75.3462 68.3492Z" fill="#45B3B1"/>
<path d="M79.9672 80.9982C79.7858 80.9982 79.6045 80.9568 79.4284 80.8688C79.4025 80.8533 76.1385 79.2485 72.2166 80.258C71.5846 80.4236 70.9422 80.0405 70.7816 79.4142C70.621 78.7826 70.9991 78.1407 71.626 77.9802C76.4442 76.7378 80.3402 78.6946 80.506 78.7774C81.0862 79.0725 81.3142 79.7817 81.0189 80.3615C80.8116 80.7653 80.3972 81.0034 79.9723 81.0034L79.9672 80.9982Z" fill="#45B3B1"/>
<path d="M83.283 100.406C81.1744 97.2738 78.9156 94.204 76.921 93.9038C74.9833 93.6087 71.7764 95.3688 68.212 96.8493C64.1347 98.5421 60.5185 99.8156 60.2335 101.669C59.7103 105.137 64.8755 105.293 64.8755 105.293L62.8654 111.991C62.8654 111.991 60.9226 112.742 60.8397 115.801C60.7931 117.639 62.1815 119.803 62.1815 119.803C62.1815 119.803 59.6999 123.323 60.8449 125.937C61.9898 128.551 69.5176 133.216 69.5176 133.216C69.5176 133.216 67.01 136.772 66.7614 139.226C66.3935 142.834 67.9115 145.919 67.9115 145.919L68.0307 149.124H85.6507V144.672C85.6507 144.672 86.0807 136.777 87.1272 126.429C88.0856 116.966 89.0182 110.076 88.8628 108.906C88.6814 107.55 85.5626 103.791 83.2778 100.401L83.283 100.406Z" fill="white"/>
<path d="M68.0307 150.64C67.2225 150.64 66.5489 149.999 66.5179 149.181L66.4142 146.276C66.0101 145.334 64.917 142.42 65.2589 139.076C65.4454 137.238 66.5904 135.053 67.4245 133.671C65.0102 132.082 60.4822 128.878 59.4564 126.543C58.3581 124.022 59.6222 121.169 60.42 119.767C59.9382 118.824 59.2854 117.266 59.3269 115.765C59.3942 113.208 60.5703 111.701 61.5857 110.987L62.9224 106.54C61.8137 106.271 60.4718 105.743 59.5911 104.692C58.8451 103.796 58.5498 102.673 58.7363 101.446C59.1145 98.9459 62.3007 97.6414 66.3365 95.99C66.7614 95.8192 67.1914 95.638 67.6317 95.4568C68.4244 95.1255 69.2015 94.7838 69.9476 94.4525C72.7711 93.1997 75.2061 92.123 77.1489 92.4129C79.5425 92.7753 81.7547 95.4154 84.542 99.5671C85.2673 100.644 86.0807 101.762 86.863 102.839C89.0493 105.846 90.1994 107.477 90.3704 108.714C90.4895 109.6 90.246 111.857 89.6347 117.334C89.3498 119.906 88.9923 123.1 88.64 126.589C87.6505 136.405 87.2049 144.097 87.1738 144.718V149.129C87.1738 149.962 86.4951 150.64 85.661 150.64C84.8269 150.64 84.1482 149.962 84.1482 149.129V144.677C84.1482 144.651 84.1482 144.62 84.1482 144.594C84.1482 144.516 84.5938 136.544 85.6299 126.284C85.9822 122.785 86.3397 119.575 86.6298 116.997C87.0443 113.27 87.438 109.744 87.3707 109.108C87.2308 108.481 85.604 106.245 84.4176 104.614C83.6146 103.512 82.7857 102.373 82.0344 101.25C81.0035 99.712 78.2576 95.6328 76.6982 95.3998C75.6361 95.2394 73.3721 96.2436 71.1806 97.2117C70.4138 97.5534 69.616 97.9054 68.7974 98.247C68.3571 98.4334 67.9167 98.6094 67.4867 98.7854C65.3781 99.6499 61.8551 101.089 61.736 101.891C61.6634 102.363 61.7878 102.585 61.9225 102.746C62.5183 103.465 64.2072 103.75 64.9325 103.776C65.3988 103.791 65.8392 104.024 66.1138 104.407C66.3883 104.79 66.4712 105.272 66.3365 105.722L64.3264 112.421C64.1917 112.871 63.8549 113.228 63.4197 113.399C63.3576 113.43 62.4146 113.932 62.3628 115.837C62.3318 116.945 63.171 118.519 63.4664 118.985C63.7927 119.503 63.7824 120.17 63.4301 120.673C62.9172 121.408 61.5961 123.851 62.2437 125.332C62.9016 126.833 67.3675 130.094 70.3309 131.932C70.6832 132.149 70.9319 132.506 71.0148 132.915C71.0977 133.324 71.0096 133.749 70.7713 134.091C70.1393 134.991 68.4555 137.704 68.2845 139.381C67.9685 142.487 69.2792 145.231 69.2896 145.262C69.3829 145.448 69.4347 145.66 69.4398 145.868L69.559 149.072C69.5901 149.905 68.9373 150.609 68.1032 150.64C68.0825 150.64 68.0669 150.64 68.0462 150.64H68.0307Z" fill="#45B3B1"/>
<path d="M79.2784 107.658C79.1022 107.658 78.9261 107.627 78.7551 107.565L74.4654 105.981C71.7247 104.878 68.3158 103.781 67.29 103.776C67.0102 104.076 66.5698 104.971 66.3211 105.748C66.0673 106.545 65.2176 106.985 64.4198 106.737C63.6219 106.483 63.1816 105.639 63.4302 104.842C63.7463 103.827 64.6633 101.42 66.3056 100.887C67.9583 100.349 72.248 101.829 75.5534 103.159L79.8016 104.728C80.5839 105.018 80.9881 105.888 80.6979 106.674C80.47 107.285 79.8949 107.663 79.2784 107.663V107.658Z" fill="#45B3B1"/>
<path d="M62.8655 113.509C62.1091 113.509 61.4563 112.944 61.363 112.178C61.2646 111.35 61.8552 110.594 62.6841 110.496L74.0871 109.124C74.9109 109.026 75.6725 109.616 75.7709 110.444C75.8693 111.272 75.2787 112.028 74.4498 112.126L63.0468 113.498C62.9846 113.503 62.9224 113.509 62.8655 113.509Z" fill="#45B3B1"/>
<path d="M62.1813 121.319C61.4405 121.319 60.7929 120.776 60.6841 120.02C60.5649 119.192 61.14 118.426 61.9689 118.312L72.5275 116.81C73.3564 116.697 74.1231 117.266 74.2371 118.094C74.3563 118.922 73.7812 119.689 72.9523 119.803L62.3938 121.304C62.3212 121.314 62.2487 121.319 62.1813 121.319Z" fill="#45B3B1"/>
<path d="M69.5229 134.732C69.3519 134.732 69.181 134.701 69.0152 134.644C68.2277 134.364 67.8184 133.494 68.0982 132.708L69.9684 127.484L69.2172 126.449L66.0517 127.117C65.2332 127.288 64.4301 126.765 64.2592 125.947C64.0882 125.129 64.6115 124.326 65.43 124.156L69.554 123.286C70.1394 123.162 70.7404 123.395 71.0927 123.876L72.8904 126.351C73.1857 126.754 73.2583 127.277 73.0925 127.748L70.9528 133.722C70.73 134.338 70.1498 134.726 69.5281 134.726L69.5229 134.732Z" fill="#45B3B1"/>
<path d="M76.3612 106.578C75.869 106.578 75.3872 106.339 75.0971 105.899L73.3304 103.228C72.8693 102.529 73.061 101.592 73.7604 101.132C74.4547 100.671 75.3976 100.863 75.8587 101.561L77.6253 104.233C78.0864 104.931 77.8947 105.868 77.1953 106.329C76.9363 106.5 76.6461 106.583 76.3612 106.583V106.578Z" fill="#45B3B1"/>
</svg>
