<svg class="absolute top-10 -left-14" width="125" height="51" viewBox="0 0 125 51" fill="none" xmlns="http://www.w3.org/2000/svg">
    <path d="M38.2873 13.6585L38.5881 13.6102C39.6843 13.6056 39.6918 15.147 39.4757 15.9359C39.6342 17.3502 39.6252 17.9344 39.5127 20.0092C39.3502 21.1322 39.2773 22.1723 39.0653 23.2005C39.0426 23.2727 38.8982 23.2273 38.925 23.3944C38.9667 23.8676 38.7006 23.7047 38.7196 24.2501C38.7493 24.8623 38.4676 25.4561 38.563 26.2635C37.9482 26.7049 38.2309 27.8251 37.5387 28.2105C37.5833 29.1288 37.0127 29.6318 36.941 30.466C36.1394 31.4517 36.248 31.9142 35.5574 32.9506C34.8668 33.9871 33.9769 34.8498 33.3973 35.937C32.9163 36.357 32.4353 36.777 31.9489 37.1637C31.7781 37.8081 31.3305 38.2228 30.8495 38.6428C30.4538 38.7406 30.7951 39.3714 30.1226 39.2394C29.882 39.4495 29.9076 39.8224 29.5949 40.0097C29.3412 40.5647 28.6275 40.8164 28.5289 41.4835C26.4175 42.8509 25.2756 44.9196 21.7238 45.2157C21.3186 45.0408 20.8013 45.021 20.34 44.9237C19.8973 44.5149 19.4826 44.0672 19.0065 43.6638C18.7201 43.1613 18.7089 42.2375 18.3665 41.8126C18.4836 40.834 18.3577 40.4771 18.3411 39.5199C17.2932 39.8253 17.2591 40.8935 16.488 41.4286C15.705 42.1028 15.1988 43.0068 14.3931 43.7532C13.9789 44.1625 13.4644 44.5879 12.9715 45.147C12.6521 45.5067 12.3609 45.8277 12.0189 46.2597C11.8506 46.4924 11.5993 46.6356 11.2974 46.8898C10.8724 47.2322 10.0065 47.8169 9.21394 48.2184C8.18872 48.4516 7.29838 48.4574 6.5871 48.2974C6.02389 47.5651 5.44994 46.766 5.18335 45.7461C4.7975 44.1969 5.26564 42.2021 4.99199 40.4978C5.26423 39.6314 5.54184 38.7984 5.54796 37.769C5.96752 37.3931 5.96583 36.7421 6.31319 36.3435C6.27271 35.6644 6.49835 35.1483 6.87913 34.7443C7.1526 33.672 7.76438 32.7854 8.21567 31.7531C8.31178 31.4977 8.26349 31.1969 8.38766 30.9028C8.66404 30.2756 9.23045 29.5334 9.51343 28.7338C9.77786 28.2457 10.0864 27.8191 10.4726 27.4486C10.4655 26.7641 10.9292 26.4497 11.7808 26.4158C12.6406 26.8605 12.3391 27.9716 11.8127 28.536C11.2863 29.1005 11.2253 30.0015 10.4662 30.3976C10.5293 31.0045 10.0883 31.2467 10.0071 31.8083C9.76655 32.0183 9.6197 32.3846 9.5009 32.7122C9.37673 33.0064 9.28062 33.2618 9.16182 33.5894C8.91349 34.1777 8.53685 34.821 8.47171 35.4827C7.97213 36.2143 7.66647 37.086 7.3996 37.9859C7.12736 38.8523 6.97683 39.8363 6.67117 40.7081C7.01241 41.3389 6.6531 41.8765 6.62796 42.3604C6.58137 42.7107 6.80748 43.0515 6.78357 43.3296C6.73819 43.474 6.34254 43.5718 6.52987 43.8845C6.88476 45.0273 6.74497 46.0781 7.82018 46.7968C10.4065 46.0387 11.7316 44.0434 13.3603 42.445C13.4779 42.3233 13.6128 42.0959 13.808 42.0303C14.0419 41.9928 14.1392 41.5315 14.3409 41.2934C14.4024 41.2493 14.619 41.3173 14.6751 41.2398C14.7539 41.09 14.81 41.0124 14.9276 40.8907C15.0679 40.6968 15.7667 40.139 15.7411 39.766C15.6982 39.4987 16.8076 39.1491 16.6949 38.4474C17.1198 38.1049 17.6075 37.5124 17.7341 36.8065C18.2485 36.3811 18.4139 35.7032 18.7732 35.1656C18.833 34.4704 18.9035 33.8421 18.9633 33.1469C19.186 32.1856 19.6361 31.3592 19.6315 30.2629C20.8209 29.5578 20.0872 27.5502 21.4907 27.3249C22.627 27.1425 22.8267 28.1731 22.5986 29.1009C22.5813 29.2066 22.4315 29.1278 22.4584 29.2949C22.4625 29.5342 22.4064 29.6117 22.3718 29.823C22.0583 31.0731 21.758 31.9783 21.7238 33.0464C21.4445 33.2284 21.3699 33.6175 21.2176 33.9504C21.1389 34.1002 21.0159 34.1885 20.9652 34.2995C20.853 34.4546 20.952 34.6444 20.8786 34.8276C20.6302 35.4159 20.3485 36.0096 20.1885 36.7209C19.9018 38.1381 20.0537 39.7249 19.9437 41.388C20.1017 41.9453 20.5176 42.1871 20.5354 42.9384C20.8242 43.0291 21.0957 43.2255 21.2723 43.4714C21.5062 43.4338 21.7348 43.3628 21.767 43.5633C24.49 43.229 25.4008 41.643 27.0486 40.59C27.5923 39.9199 28.1414 39.2833 28.7293 38.6747C29.9104 37.491 30.8976 36.167 31.8848 34.8429C32.3365 34.6676 32.4673 34.2009 32.919 34.0256C32.9549 33.6084 33.412 33.4665 33.4038 32.9879C34.0775 32.914 33.7923 32.2056 34.2441 32.0303C34.3414 31.569 34.7878 31.3602 34.8905 30.9324C35.2564 30.2223 35.3221 30.4175 35.4553 29.5391C36.0097 28.9359 36.0988 27.996 36.4259 27.2579C36.864 26.5705 37.1643 25.6653 37.2241 24.9701C37.4748 23.97 37.4851 23.18 37.7734 22.4138C37.7037 21.9794 37.8679 21.5074 37.9037 21.0902C37.9342 20.6397 37.8472 20.3109 38.0221 19.9057C38.1487 19.1998 38.3182 18.7612 38.1453 17.8977C38.2236 16.8911 38.1241 15.8444 38.0337 14.2135C38.0629 13.9688 38.2915 13.8978 38.2873 13.6585ZM47.1687 31.6005C47.6348 30.8743 48.6125 29.2776 48.5535 28.91C47.1755 29.5083 47.0052 31.0097 45.5109 31.5239C45.2841 32.2459 44.0725 33.8802 44.0778 33.9136C43.9602 34.0353 43.6929 34.0782 43.4912 34.3163C43.0931 34.8259 42.7779 35.4249 42.2635 35.8503C41.9471 36.6553 41.0877 37.0675 41.1591 38.153C40.2329 38.5759 39.9875 39.6094 39.5321 40.4024C39.3465 40.7408 38.832 41.1662 38.8857 41.5003C38.9232 41.7343 38.127 42.7534 38.0602 42.7641C37.5255 42.8499 37.5726 43.3566 37.0045 43.4478C36.7037 43.4961 36.4627 42.8492 36.4091 42.515C36.2266 41.3788 37.2609 40.5614 37.5785 39.5506C38.1127 38.6078 38.4072 36.8123 38.9365 36.693C38.9443 36.3147 38.9963 35.9978 39.309 35.8105C40.2157 33.9852 41.0783 32.0985 42.2123 30.4081C42.8044 30.0388 42.6595 29.1365 43.2515 28.7672C44.0663 27.4366 44.7527 26.1609 45.8426 24.409C45.9548 24.2539 46.2114 24.1441 46.2902 23.9944C46.369 23.8446 46.27 23.6548 46.3488 23.5051C46.7081 22.9674 47.2506 22.5033 47.6153 21.9991C48.0026 21.4227 48.2402 20.7675 48.6276 20.1911C49.6494 18.6559 50.9774 17.1057 52.3495 15.6171C52.4993 15.6959 52.6049 15.7132 52.7052 15.6971C52.9057 15.6649 53.0901 15.5325 53.2572 15.5056C53.3909 15.4842 53.6302 15.48 53.6677 15.714C53.7804 16.4157 53.2337 16.6406 53.0749 17.146C52.2985 17.6478 52.7083 18.9189 51.2874 19.2499C50.9549 19.9546 49.6096 21.6103 49.6311 21.744C49.5977 21.7493 49.5255 21.7267 49.492 21.732C49.4252 21.7427 49.1966 21.8137 49.2235 21.9808C49.2342 22.0477 49.2837 22.1425 49.2891 22.176C49.2945 22.2094 47.7491 24.7542 47.2813 24.8293C47.1476 24.8508 47.212 25.2518 47.1612 25.3628C47.0771 25.4792 46.6975 25.6772 46.7136 25.7775C46.7244 25.8443 46.7739 25.9392 46.7846 26.006C46.8114 26.1731 45.9813 26.3407 46.0672 26.8754C46.0779 26.9422 46.1167 26.9703 46.1221 27.0037C45.6757 27.2125 45.5008 27.6176 45.4422 28.107C44.5614 28.3855 44.7719 29.4829 43.9352 29.8229C44.0413 30.6972 43.0529 32.2271 42.8577 32.2927C42.5784 32.4746 42.394 32.6071 42.4584 33.0081C42.5306 33.0308 42.6362 33.0481 42.6697 33.0427C42.7031 33.0374 44.3372 31.4724 44.8392 30.3291C44.9114 30.3518 44.9448 30.3464 45.0117 30.3357C45.4795 30.2606 45.5178 29.4317 45.9803 29.3232C46.4428 29.2146 46.715 28.3482 47.2617 28.1233C48.1169 27.4718 48.6177 26.5344 49.7444 26.0793C50.0374 26.4093 50.381 26.6284 50.702 26.9196C50.7867 27.6602 50.2495 28.1578 50.3193 28.5922C50.4105 29.1603 49.2991 30.7785 49.1869 30.9337C49.0855 31.1556 48.5805 31.8537 48.5088 32.688C47.8326 33.1736 47.8975 34.4315 47.1239 35.3784C46.7675 36.3612 46.3724 37.3159 45.933 38.2092C45.9103 38.2814 45.8877 38.3536 45.893 38.387C45.9252 38.5875 46.1472 38.689 46.1579 38.7558C46.1633 38.7892 46.1352 38.828 46.035 38.8441C45.8894 39.0046 45.8493 39.1825 45.7813 39.3991C46.085 39.7959 46.5355 39.8264 46.9365 39.762C47.4044 39.6869 47.7839 39.4889 48.3186 39.403C48.4816 39.1369 49.3904 38.8196 50.0051 38.3781C50.7362 38.0207 51.2531 37.1836 52.0629 36.6765C52.5601 36.3567 53.0023 35.9086 53.4512 35.2881C53.6368 34.9498 54.6055 33.9372 54.9731 33.8782C55.2404 33.8353 55.6563 34.077 55.726 34.5115C55.8816 35.4806 54.6242 36.4024 54.019 37.1166C53.8614 37.4161 53.1452 38.0796 52.6147 38.4047C50.8386 39.5126 48.9652 41.0817 46.626 41.4573C45.59 41.6237 44.4443 41.5334 44.2726 40.464C44.1599 39.7622 44.296 39.329 44.1619 38.4936C44.6136 38.3182 44.2843 37.5484 44.8083 37.3957C44.7695 37.3676 44.7588 37.3008 44.7534 37.2674C44.6568 36.6658 45.3169 36.0799 45.5199 35.636C45.7682 35.0476 45.3965 34.8674 46.2315 33.8763C46.3259 32.9699 46.9967 32.4508 47.1687 31.6005ZM73.8615 30.0913C73.8615 30.0913 74.4503 31.1966 74.5452 31.147C74.0254 31.539 73.5246 32.4764 73.0329 32.8296C72.5077 33.1882 72.6789 33.4006 72.1591 33.7926C71.6393 34.1846 71.2746 34.6888 70.7548 35.0808C70.4755 35.2627 70.1079 35.3217 69.8339 35.5371C69.532 35.7913 69.4919 35.9691 69.0856 36.0001C68.6087 36.6594 67.5459 36.6587 67.1853 37.4021C66.0372 37.7236 65.2244 37.7855 64.1538 38.1631C64.1002 37.8289 63.4747 38.2036 63.1913 38.1463C63.0935 37.7506 62.5188 38.0143 62.421 37.6186C62.1148 37.6335 62.2749 36.9222 61.8512 37.0588C61.3726 37.0671 61.314 37.5564 60.9572 37.6823C60.5442 37.8857 59.9629 38.3218 59.4819 38.7419C59.2748 38.9465 58.4327 39.2531 57.9851 39.6678C57.7726 39.839 56.5284 40.4159 55.9883 40.4683C56.0551 40.4576 55.4668 40.2092 55.1594 40.43C54.2782 39.8516 53.7054 38.8466 53.8423 37.3506C54.1736 36.8518 54.3056 36.1793 54.36 35.4507C54.7915 34.9358 54.9849 34.2191 55.3723 33.6427C56.0134 32.5114 56.9593 31.5711 57.678 30.4959C58.1871 30.0371 58.6627 29.5836 58.9057 28.9618C59.7358 28.7943 59.8731 28.1552 60.3595 27.7686C60.9462 27.3659 61.7321 27.1368 61.9751 26.5151C63.4133 26.0785 64.2309 25.1931 65.6357 24.7618C66.8429 24.808 67.532 25.8971 67.3456 27.2982C67.1265 27.6419 66.985 28.0417 66.5387 28.2505C66.6591 28.5739 66.242 28.5381 66.2796 28.772C66.2837 29.0113 65.9 28.9701 65.6715 29.041C64.9358 28.3022 65.9127 27.7682 65.8281 27.0277C64.9617 26.7554 64.5116 27.5818 63.4488 27.5811C63.0347 27.9904 62.4104 28.1592 61.9467 28.4736C61.5218 28.816 61.3242 29.2934 60.8056 29.4795C59.9892 30.1591 59.5272 31.1245 58.5168 31.6638C58.1843 32.3685 57.7743 33.0171 57.3642 33.6657C56.9847 33.8638 56.9542 34.3143 56.6909 34.5965C56.4277 34.8787 56.4748 35.3854 56.0177 35.5273C55.9167 36.6062 55.4171 37.3377 55.51 38.5569C56.5704 38.9694 57.3051 37.9944 58.202 37.8161C58.1537 37.5154 58.4372 37.5727 58.6162 37.4068C58.8006 37.2744 58.8848 37.158 59.0358 37.0309C59.3097 36.8156 60.0115 36.7029 59.8976 36.207C60.304 36.176 60.6716 36.117 60.8399 35.8843C61.2021 35.7918 61.0548 35.3013 61.5668 35.2877C61.5931 34.5978 61.9686 34.1605 61.9173 33.4145C62.1925 32.9933 62.6228 32.6842 62.5155 32.0159C63.749 31.3722 63.5142 29.6959 65.4124 29.5625C65.8403 29.6652 65.9261 30.1999 66.203 30.4297C66.4642 31.4162 65.6007 31.5891 65.7121 32.4967C65.2538 32.8446 65.0389 33.4275 64.8132 33.9437C64.4056 34.1805 64.2254 34.5523 63.9729 34.9013C63.7765 35.1728 63.1577 35.375 63.4935 35.9724C63.4177 36.5673 64.2222 36.0268 64.3707 36.3115C64.6166 36.1349 65.0283 36.1373 65.3184 36.0222C65.8262 35.7693 66.2487 35.8385 66.707 35.4907C67.1708 35.1763 67.7455 34.9126 68.2092 34.5982C69.1085 34.0082 69.9799 33.4569 70.8792 32.8669C71.2051 32.3346 71.6354 32.0256 72.0603 31.6831C72.6697 31.2082 73.1627 30.6492 73.8615 30.0913ZM85.3383 31.1624C85.9039 31.4829 85.3173 31.8856 85.6771 32.2049C84.934 32.7013 84.6362 33.1947 84.1444 33.5479C83.8371 33.7687 83.3495 34.3612 82.8416 34.6141C82.7414 34.6302 82.2776 34.9446 82.1881 35.0275C81.9983 35.1266 81.9864 35.2656 81.6015 35.4303C81.4117 35.5293 80.8424 35.8264 80.5523 35.9415C80.0725 36.1557 80.5696 35.8359 79.8947 36.1157C79.5712 36.2361 79.2812 36.3513 78.9792 36.6054C78.2292 36.4174 77.0529 36.7776 76.0784 36.8998C75.8243 36.5978 75.3176 36.6449 74.8617 36.581C74.3534 35.977 73.388 35.515 73.0384 34.4056C72.7706 33.5916 72.8704 32.7186 72.9648 31.8121C73.2317 30.9123 73.2295 29.4044 73.6276 28.8948C74.2204 27.4627 74.5029 25.8062 75.2562 24.5198C74.9793 24.29 74.4166 24.4146 73.9261 24.5619C73.5692 24.6878 72.794 24.9837 72.0749 25.202C71.055 25.4686 69.7654 26.1898 69.2541 25.1407C69.0853 24.5165 70.0359 24.6724 70.2884 24.3233C70.5462 24.0077 71.3029 24.0233 71.4832 23.6516C73.138 23.283 74.6376 22.8023 76.2149 22.3776C76.4769 22.3013 76.6679 21.9964 76.7747 21.8078C76.8535 21.6581 76.7879 21.4629 76.8667 21.3131C77.0523 20.9748 77.6682 20.3275 77.9273 19.8059C78.4669 18.8966 78.8233 17.9138 79.2853 16.9484C79.789 16.4561 79.5612 15.4643 80.6855 15.4209C81.3538 15.3136 81.0016 16.5357 81.4175 16.7774C80.8676 18.4769 79.6143 19.6379 79.3747 21.5618C79.4952 21.8852 80.1875 21.4998 80.5378 21.5464C84.1935 20.6167 88.11 19.8164 91.7711 18.9201C92.2043 19.0562 92.8154 19.2323 92.4948 19.798C91.6701 19.9989 90.9844 20.2119 91.0125 20.1731C90.0714 20.2899 89.5182 20.6873 88.4661 20.7533C87.8287 21.267 87.1509 21.1016 86.3022 21.5807C85.6727 21.7161 85.0992 21.7739 84.6767 21.7046C83.6544 22.3829 83.5017 21.859 82.4526 22.3702C82.0062 22.579 82.0062 22.579 81.5169 22.5204C81.2376 22.7024 80.9583 22.8844 80.6014 23.0102C80.2111 23.1414 79.291 22.535 78.8302 23.2946C78.9173 23.6234 78.2729 23.4527 78.055 23.5905C77.8377 24.5852 77.0439 25.1926 76.8373 26.2541C76.1265 26.951 76.3489 27.9094 75.5659 28.5836C75.6691 29.0127 75.2334 29.2883 75.0866 29.6547C74.9063 30.0264 74.9921 30.5611 74.6287 30.8594C74.6321 32.1615 74.2637 33.2833 75.0303 34.4286C75.4409 34.6369 75.7177 34.8667 76.1014 34.9079C76.2405 34.9198 76.2231 35.0255 76.2619 35.0535C77.4118 35.3831 78.8017 34.6457 79.9445 34.2908C80.4243 34.0767 81.2049 33.8142 81.6644 33.2605C81.6925 33.2217 82.4916 32.6478 82.525 32.6424C82.7709 32.4658 82.9339 32.1997 83.2132 32.0178C83.4644 31.8746 83.8988 31.8048 84.1555 31.6951C84.2635 31.3006 84.8811 31.3043 85.3383 31.1624ZM87.3902 21.1661C87.3746 21.9227 86.344 22.1225 85.8398 21.7578C85.6978 21.3007 86.0732 20.8633 86.2923 20.5196C86.8707 19.6383 87.7444 18.6753 88.4791 17.7004C88.5938 17.1335 88.5867 16.449 88.8565 15.9944C88.5421 15.5306 88.5834 15.1469 88.0392 14.9601C87.8077 14.5859 87.5147 14.2559 87.4743 13.5768C88.2449 12.1847 89.9287 13.4912 90.5575 14.4186C90.6718 15.7714 90.4372 16.8718 90.1583 17.9107C89.5705 18.5193 89.127 19.1732 88.8386 19.9394C88.1637 20.2191 88.1815 20.9704 87.3902 21.1661ZM117.344 26.092C117.494 27.0277 116.868 27.6082 116.24 28.3946C116.102 28.1768 115.708 28.9257 115.513 28.9913C115.405 29.3857 114.759 29.4208 114.651 29.8152C111.854 32.2525 106.291 33.8999 101.882 33.3395C100.759 33.177 99.7269 32.7257 98.6856 32.8586C98.0263 32.3817 97.176 32.2097 96.4098 31.9214C96.0393 31.5352 95.6514 31.2547 95.2582 30.9408C94.7111 30.3088 94.4218 29.3611 94.3289 28.1419C94.7563 27.3877 95.5381 26.9194 96.3587 26.4791C96.8026 26.6821 97.7342 26.2926 98.1835 26.5289C98.757 26.4711 99.42 26.3304 99.5553 26.96C99.5451 27.7501 98.8511 27.4844 98.3391 27.4981C97.7883 27.4837 97.2722 27.258 96.815 27.4C96.2589 27.3522 96.6443 28.0444 96.282 28.1369C96.1579 28.431 95.8344 28.5515 95.943 29.014C96.4291 30.5471 97.9585 30.6786 99.0898 31.3197C100.059 31.1641 100.635 31.5514 101.464 31.5898C101.836 31.77 102.198 31.6776 102.621 31.7469C102.654 31.7415 102.709 31.8698 102.809 31.8537C103.438 31.9242 104.629 31.8701 105.603 31.7479C105.837 31.7104 106.143 31.6955 106.405 31.6191C106.991 31.4223 107.976 31.367 109.112 31.1845C109.826 30.9328 110.268 30.4847 111.142 30.3786C112.361 29.4288 113.691 28.5297 114.788 27.4623C115.119 26.9635 115.373 26.4086 115.854 25.9885C115.768 25.4539 115.953 25.1155 116.139 24.7772C116.202 23.4644 115.865 22.216 115.415 21.1227C114.9 20.6912 114.564 20.0938 114.021 19.7011C113.68 19.0703 112.941 18.949 112.628 18.2794C111.7 18.0513 110.973 17.5852 110.298 17.008C109.902 17.1058 109.535 17.1648 109.302 16.9965C108.942 16.6772 108.437 16.5184 108.156 16.0493L107.053 16.2264C106.566 15.7561 105.72 15.8234 105.267 15.3477C104.697 15.6448 104.338 15.3255 103.91 15.2228C103.132 15.0735 102.559 14.9254 101.709 14.7535C101.359 14.7069 100.914 14.7098 100.524 14.6351C100.419 14.6178 100.109 14.3934 100.003 14.3761C99.5417 14.2787 98.8238 14.2912 98.1567 14.1926C98.0845 14.1699 97.7074 13.9562 97.6352 13.9335C97.2181 13.8977 97.0671 14.0247 96.6392 13.922C96.4668 13.9155 96.2394 13.7806 95.956 13.7232C95.6989 12.9761 95.9072 12.5656 95.9992 12.0709C97.7662 11.5472 98.9849 10.5974 100.796 10.1352C101.909 9.16803 104.33 9.08783 105.598 8.2329C107.086 7.89119 108.535 7.52143 109.668 6.89383C110.497 6.93215 111.318 6.49188 112.22 6.347C112.549 6.25993 112.81 6.38946 113.177 6.33044C113.884 6.25118 114.587 5.93263 115.261 5.85873C115.629 5.79971 116.207 5.77533 116.719 5.76168C117.131 5.76413 117.705 5.70633 118.016 5.72488C118.122 5.7422 118.332 5.98271 118.404 6.0054C118.543 6.01735 118.761 5.87954 118.872 5.93028C119.233 6.04371 119.757 6.74794 120.212 7.01773C120.226 7.52974 120.604 7.53755 120.561 8.12712C120.621 8.49472 120.336 8.64327 120.55 9.12307C120.144 9.15404 120.185 9.62726 120.017 9.85996C119.899 9.98168 119.66 9.98582 119.543 10.1075C119.453 10.1905 119.408 10.3349 119.29 10.4566C118.881 10.8993 118.462 11.2752 118.009 11.6564C117.812 11.9279 116.921 12.1396 116.846 11.6718C116.66 11.1532 117.022 11.0607 117.379 10.9349C117.58 10.6968 117.511 10.2624 117.912 10.198C117.992 9.84236 118.276 9.69381 118.633 9.56795C118.486 9.07741 119.003 9.09718 119.006 8.68543C118.434 7.47457 116.735 7.78164 115.659 7.26888C115.275 7.22765 115.473 7.6072 115.206 7.65013C115.14 7.45498 114.783 7.58084 114.549 7.6184C112.429 7.65031 109.764 8.55814 107.573 9.21841C105.778 9.78086 104.094 10.3941 102.389 10.8736C101.311 11.4236 100.273 12.0017 99.0354 12.4061C99.0997 12.8071 99.6076 12.5542 99.9125 12.7452C100.068 12.8574 100.974 12.9518 101.43 13.0157C102.501 13.4951 103.686 13.6134 104.869 13.9376C105.941 14.2111 107.074 14.6463 108.281 14.6924C108.528 15.1668 109.146 15.1705 109.546 15.312C109.618 15.3347 109.694 15.5966 109.733 15.6247C109.878 15.6701 110.09 15.4988 110.234 15.5442C110.307 15.5669 110.383 15.8289 110.45 15.8181C111.172 16.045 112.209 16.5297 112.946 17.0627C113.496 17.283 113.855 17.8082 114.539 17.8011C114.705 18.8371 115.764 18.5985 115.846 19.7509C115.94 19.9072 116.095 20.0194 116.362 19.9765C116.405 20.2438 116.566 20.3895 116.777 20.4241C116.993 21.555 117.587 22.6936 117.641 23.8847C117.682 24.5638 117.504 25.3807 117.344 26.092Z" fill="#333333"/>
</svg>