<svg width="223" height="59" viewBox="0 0 223 59" fill="none" xmlns="http://www.w3.org/2000/svg">
<path d="M26.0025 18.6795L26.2028 18.6619C26.9246 18.7109 26.8565 19.726 26.6768 20.2351C26.714 21.1736 26.6804 21.5578 26.5079 22.9184C26.3476 23.65 26.2503 24.3312 26.0619 24.998C26.0436 25.0445 25.9507 25.0078 25.9604 25.119C25.9654 25.4325 25.7979 25.3126 25.7846 25.6726C25.7751 26.0771 25.5615 26.4546 25.586 26.9906C25.1603 27.2521 25.2933 28.0029 24.8193 28.2238C24.8051 28.8305 24.4056 29.1345 24.3188 29.6803C23.7444 30.2912 23.7939 30.6008 23.2901 31.2503C22.7863 31.8999 22.1596 32.4256 21.7264 33.1138C21.3898 33.3675 21.0532 33.6212 20.7147 33.8527C20.5717 34.2688 20.2574 34.5206 19.9208 34.7743C19.6556 34.8199 19.8504 35.2513 19.4139 35.1326C19.2456 35.2594 19.2448 35.5062 19.03 35.6146C18.8367 35.9679 18.3549 36.0998 18.2583 36.5343C16.8035 37.3343 15.9536 38.642 13.6013 38.6684C13.3429 38.5341 13.0032 38.4965 12.7042 38.4105C12.4321 38.1204 12.1804 37.8061 11.8861 37.5179C11.7214 37.1735 11.7579 36.5648 11.5526 36.2688C11.6761 35.6301 11.6102 35.3892 11.6447 34.7583C10.9403 34.9096 10.8671 35.6112 10.3341 35.9269C9.78668 36.3336 9.41058 36.9047 8.84476 37.3579C8.55267 37.6077 8.19381 37.8633 7.84275 38.208C7.61547 38.4297 7.4085 38.6272 7.16287 38.8953C7.04103 39.0406 6.86883 39.1229 6.65797 39.2759C6.36199 39.4812 5.76418 39.825 5.22339 40.0517C4.5374 40.1566 3.951 40.1182 3.49034 39.9791C3.15431 39.4703 2.81438 38.917 2.68726 38.233C2.50673 37.1948 2.90955 35.9038 2.81025 34.7688C3.03058 34.2113 3.25285 33.6761 3.30571 32.9987C3.59975 32.7712 3.62952 32.3425 3.8771 32.0966C3.88267 31.6476 4.0557 31.3186 4.32553 31.0707C4.55643 30.3778 5.00124 29.8231 5.34731 29.1649C5.42269 29.0013 5.40517 28.8011 5.50087 28.6133C5.71256 28.2135 6.12066 27.7518 6.34488 27.2388C6.54211 26.93 6.76549 26.6638 7.03727 26.4382C7.0651 25.9873 7.38528 25.8023 7.94748 25.8204C8.49243 26.1539 8.24123 26.8711 7.86791 27.2177C7.49459 27.5643 7.41168 28.1546 6.89315 28.3794C6.90595 28.7819 6.60412 28.9204 6.524 29.2862C6.3557 29.4131 6.24165 29.6473 6.1479 29.8573C6.0522 30.0451 5.97681 30.2086 5.88306 30.4187C5.69167 30.7942 5.41321 31.1998 5.33893 31.6324C4.97535 32.0902 4.73277 32.6496 4.51439 33.2294C4.29407 33.7868 4.1483 34.4275 3.90572 34.9869C4.10044 35.4184 3.83839 35.7552 3.79888 36.0726C3.75159 36.301 3.88428 36.5361 3.85535 36.718C3.81863 36.8109 3.55352 36.8565 3.66201 37.0713C3.84143 37.8405 3.69955 38.5256 4.37329 39.0497C6.11191 38.6734 7.07888 37.4227 8.22693 36.4477C8.31011 36.3731 8.4097 36.2299 8.54128 36.1959C8.69706 36.1823 8.78302 35.8832 8.92712 35.7361C8.96968 35.7099 9.10904 35.765 9.14966 35.7166C9.20863 35.6218 9.24925 35.5734 9.33242 35.4988C9.43396 35.3778 9.9205 35.0437 9.92134 34.797C9.90576 34.6189 10.6527 34.4415 10.6118 33.9741C10.9078 33.7688 11.2569 33.4019 11.3737 32.9432C11.7326 32.6876 11.8736 32.2492 12.1357 31.9123C12.208 31.4575 12.2842 31.0471 12.3566 30.5923C12.5488 29.97 12.8843 29.4473 12.9332 28.7255C13.7497 28.3177 13.3619 26.9613 14.2966 26.8795C15.0533 26.8133 15.1359 27.5012 14.9417 28.1013C14.9253 28.17 14.8304 28.111 14.8402 28.2223C14.8315 28.38 14.7909 28.4284 14.7581 28.5658C14.4924 29.3739 14.2518 29.9556 14.1786 30.6572C13.9861 30.7637 13.9185 31.0163 13.8025 31.2283C13.7436 31.3231 13.6584 31.3754 13.6198 31.4461C13.5385 31.5429 13.5947 31.6725 13.5377 31.7896C13.3463 32.1652 13.1327 32.5426 12.9936 33.0033C12.7376 33.9227 12.7624 34.9745 12.611 36.0641C12.6886 36.4385 12.951 36.6174 12.927 37.1128C13.1129 37.1863 13.2823 37.3284 13.3869 37.4987C13.5426 37.4851 13.6965 37.4492 13.7082 37.5827C15.5166 37.4918 16.1915 36.4909 17.3262 35.8758C17.7159 35.4605 18.1076 35.0675 18.5235 34.6947C19.3572 33.9714 20.0699 33.1466 20.7826 32.3219C21.0883 32.2278 21.1965 31.9268 21.5022 31.8328C21.5456 31.5599 21.8533 31.4882 21.8706 31.1727C22.3176 31.156 22.1635 30.6762 22.4692 30.5821C22.5552 30.2831 22.8589 30.1668 22.9468 29.89C23.2214 29.44 23.2553 29.5715 23.3847 28.9996C23.7783 28.6288 23.8815 28.0143 24.1319 27.5439C24.4529 27.1122 24.6936 26.5305 24.7659 26.0757C24.9784 25.4292 25.0227 24.9096 25.2488 24.4188C25.2235 24.1295 25.354 23.8266 25.3974 23.5537C25.4388 23.2586 25.3971 23.038 25.5315 22.7795C25.6483 22.3208 25.7807 22.0401 25.7079 21.4635C25.8072 20.8045 25.7913 20.1107 25.8091 19.0328C25.84 18.8731 25.9939 18.8372 26.0025 18.6795ZM30.9981 30.9123C31.3394 30.4564 32.0588 29.4516 32.0374 29.2068C31.1019 29.5354 30.9185 30.5157 29.9104 30.7833C29.7268 31.2478 28.8516 32.2662 28.8536 32.2885C28.7704 32.363 28.5924 32.3786 28.4483 32.5258C28.162 32.8423 27.9261 33.2218 27.5673 33.4774C27.3208 33.9923 26.7355 34.2229 26.7311 34.9409C26.1013 35.1754 25.8907 35.8441 25.5532 36.3446C25.415 36.5585 25.0561 36.8141 25.0756 37.0367C25.0892 37.1924 24.5167 37.8256 24.4722 37.8295C24.1161 37.8606 24.1231 38.1964 23.7448 38.2295C23.5445 38.247 23.4165 37.8097 23.3971 37.5872C23.3309 36.8305 24.0505 36.3415 24.3076 35.6911C24.704 35.0958 24.983 33.9277 25.3371 33.8743C25.3602 33.6256 25.4094 33.4195 25.6242 33.311C26.3077 32.1524 26.9651 30.9512 27.7918 29.8922C28.1991 29.6772 28.1465 29.0763 28.5538 28.8613C29.1532 28.024 29.6657 27.2167 30.4663 26.1151C30.5475 26.0183 30.7216 25.9583 30.7806 25.8634C30.8396 25.7685 30.7834 25.6389 30.8424 25.5441C31.1044 25.2072 31.4836 24.9273 31.7476 24.6127C32.0299 24.2516 32.2174 23.8316 32.4998 23.4705C33.2453 22.5083 34.1931 21.5508 35.167 20.6359C35.2619 20.6949 35.3306 20.7113 35.3973 20.7055C35.5308 20.6938 35.6585 20.6153 35.7698 20.6056C35.8588 20.5978 36.0165 20.6064 36.0302 20.7622C36.0711 21.2296 35.7005 21.3517 35.572 21.6769C35.0371 21.9703 35.2465 22.8266 34.2954 22.9771C34.0431 23.4252 33.0789 24.4514 33.0867 24.5404C33.0645 24.5424 33.018 24.524 32.9958 24.5259C32.9513 24.5298 32.7974 24.5657 32.8072 24.677C32.811 24.7215 32.8391 24.7863 32.8411 24.8086C32.843 24.8308 31.705 26.4328 31.3934 26.4601C31.3044 26.4679 31.3278 26.7349 31.2891 26.8056C31.2282 26.8782 30.9689 26.9906 30.9748 27.0573C30.9787 27.1019 31.0068 27.1667 31.0106 27.2112C31.0204 27.3225 30.466 27.3934 30.4971 27.7494C30.501 27.794 30.5252 27.8143 30.5272 27.8365C30.2234 27.9528 30.089 28.2112 30.0273 28.5306C29.4342 28.6722 29.5207 29.4046 28.9538 29.5888C28.9821 30.1693 28.2589 31.1296 28.1273 31.1635C27.9348 31.2701 27.8071 31.3485 27.8305 31.6155C27.8769 31.6339 27.9456 31.6503 27.9679 31.6484C27.9901 31.6464 29.1401 30.6937 29.5249 29.9649C29.5713 29.9832 29.5936 29.9813 29.6381 29.9774C29.9496 29.9501 30.0142 29.4063 30.3238 29.3568C30.6334 29.3073 30.8537 28.7498 31.2243 28.6277C31.8182 28.2393 32.1923 27.646 32.9557 27.3998C33.1329 27.631 33.3487 27.7915 33.5462 27.9985C33.5668 28.49 33.1896 28.7921 33.2149 29.0814C33.248 29.4597 32.4396 30.4723 32.3584 30.5691C32.2811 30.7104 31.9155 31.146 31.8287 31.6918C31.3605 31.9794 31.3436 32.8106 30.7894 33.3973C30.5082 34.0274 30.2027 34.6372 29.8711 35.2044C29.8528 35.2508 29.8344 35.2973 29.8364 35.3195C29.848 35.453 29.9894 35.5304 29.9933 35.5749C29.9952 35.5971 29.9749 35.6213 29.9081 35.6272C29.8046 35.7259 29.7699 35.8411 29.7148 35.9805C29.8959 36.2562 30.191 36.2976 30.4581 36.2742C30.7696 36.247 31.0289 36.1346 31.385 36.1034C31.5049 35.936 32.1183 35.7702 32.5439 35.5087C33.0421 35.3082 33.4221 34.7816 33.9793 34.4861C34.3217 34.2992 34.6341 34.0252 34.959 33.638C35.0973 33.4241 35.783 32.8035 36.0278 32.782C36.2059 32.7665 36.4682 32.9453 36.4935 33.2346C36.5499 33.88 35.6784 34.4272 35.2461 34.8687C35.1282 35.0584 34.6252 35.4612 34.2605 35.65C33.0387 36.2951 31.731 37.2393 30.1732 37.3755C29.4833 37.4359 28.7334 37.3221 28.6711 36.61C28.6302 36.1426 28.7403 35.8639 28.6917 35.3075C28.9974 35.2135 28.8171 34.6911 29.1693 34.6154C29.1451 34.5951 29.1412 34.5506 29.1393 34.5284C29.1042 34.1278 29.5665 33.7734 29.7212 33.4908C29.9126 33.1152 29.6764 32.9789 30.2731 32.3661C30.3783 31.7739 30.8445 31.464 30.9981 30.9123ZM34.833 36.3624C34.433 35.635 34.8458 34.971 34.949 34.3565C35.0951 34.2316 35.2717 33.4312 35.4158 33.2841C35.5396 33.1611 36.052 32.3539 36.0084 32.111C36.138 32.0548 36.2415 31.9561 36.3227 31.8593C36.3633 31.8109 36.3739 31.6754 36.3942 31.6512C36.4348 31.6028 36.5742 31.6579 36.6167 31.6317C36.7792 31.4381 36.96 31.198 36.9831 30.9493C37.2095 30.9744 37.3013 30.7421 37.3865 30.6898C37.4716 30.6375 37.604 30.3568 37.6891 30.3045C37.7317 30.2784 37.7384 30.0984 37.7829 30.0945C37.9531 29.9899 38.1765 29.7237 38.7203 29.7882C38.8936 29.9749 39.0466 30.1858 39.1996 30.3966C38.964 31.2918 38.1698 31.6977 37.7648 32.4507C37.525 32.7856 37.0145 33.6151 36.7747 33.9501C36.6317 34.3662 36.1499 34.4981 36.2228 35.0747C36.4629 35.2555 36.9185 35.0811 37.0587 34.8895C37.9052 34.5687 38.7053 34.2296 39.334 33.7262C39.5323 33.6864 39.7877 33.5295 39.9501 33.3359C40.0314 33.2391 40.161 33.1829 40.2442 33.1083C40.3254 33.0115 40.455 32.9553 40.5363 32.8585C40.6784 32.6891 41.106 32.4499 41.3575 32.2485C41.4629 32.172 41.5461 32.0974 41.6495 31.9987C42.1709 31.5494 42.6185 30.7703 43.1039 30.1672C43.2082 29.8217 43.4093 29.5574 43.6831 29.3541C43.9345 29.1527 43.8511 28.7115 44.393 28.7538C44.7877 28.652 44.699 29.1755 44.9738 29.2411C44.7819 30.3792 43.9829 30.9873 43.4744 31.839C42.7742 32.5506 42.5581 33.6683 41.8559 34.3576C41.832 34.8531 41.7616 35.3302 41.304 35.4823C41.4281 35.8751 41.1669 35.9652 41.289 36.3358C40.8411 36.5992 40.8027 37.1856 40.6453 37.6927C40.5535 37.925 40.4597 38.135 40.3902 38.3654C40.4436 38.7195 39.9142 38.564 40.1128 39.0399C40.4294 39.3262 40.7891 38.8238 41.0503 38.7337C41.3482 38.5506 41.7293 38.293 42.0776 38.1729C43.4532 37.4919 44.7648 36.5923 46.3079 36.0312C46.7635 35.8568 47.3664 35.8265 47.7619 35.4779C48.6193 35.5375 48.9044 34.9519 49.4755 35.328C49.6268 36.0324 49.1509 36.231 48.6023 36.3687C47.8089 36.5278 47.0737 36.8388 46.4013 37.0994C46.0308 37.2215 45.3787 37.458 44.957 37.764C44.9078 37.9701 44.3542 37.7943 44.3292 38.0207C43.4721 38.4769 42.6287 39.0889 41.7696 39.5229C40.9348 39.9771 40.1765 40.5368 39.4346 41.0278C39.13 41.3908 39.1419 42.0401 38.7909 42.3847C38.7041 42.9305 38.4963 43.3748 38.2662 43.821C38.1552 44.3465 37.8748 44.7298 37.7638 45.2553C37.3362 45.4945 37.3927 46.1399 37.1103 46.5009C36.7209 47.432 36.283 48.3224 35.8432 49.1906C35.7698 49.3765 35.7205 49.5826 35.5561 49.7539C35.5581 49.7762 35.4768 49.873 35.4768 49.873C35.3792 50.0385 35.4404 50.4817 35.0785 50.446C35.133 51.0692 34.4876 51.1256 34.5683 51.7913C34.2887 51.9279 34.2008 52.2047 33.8486 52.2803C33.8033 52.531 33.8063 52.8222 33.6923 53.0565C33.1729 53.528 32.8975 54.2248 32.2107 54.5764C32.1169 54.7864 31.9767 54.9781 31.9556 55.249C31.3586 55.3461 31.1973 55.8087 30.8404 56.0866C30.0973 56.3086 29.2122 56.7 28.5134 56.4023C28.1637 55.7378 27.8992 55.0209 27.8541 53.9933C27.9167 53.4272 28.1768 53.0681 28.1688 52.4633C28.6484 51.7935 28.7669 50.8413 29.2503 50.2159C29.2723 49.6982 29.6573 49.4852 29.8023 49.0913C29.925 48.6993 30.1425 48.3663 30.483 48.1571C30.5467 47.86 30.6811 47.6016 30.7206 47.2842C31.3949 47.0458 31.3935 46.2611 31.8984 45.8805C32.1179 45.5698 32.3432 45.3259 32.5588 44.9706C32.8334 44.5205 33.4515 44.1525 33.7366 43.5669C34.3973 43.1728 34.9089 42.6122 35.5395 42.131C35.7484 41.9558 35.9351 41.7825 36.1459 41.6295C36.2311 41.5772 36.3771 41.4523 36.44 41.4019C36.5454 41.3254 36.7476 41.3301 36.8753 41.2517C36.9585 41.1771 36.9632 40.9749 37.0484 40.9226C37.1741 40.8219 37.3338 40.8528 37.4615 40.7743C37.9074 40.4887 38.3127 40.2514 38.686 39.9048C39.1025 38.7695 39.5189 37.6343 39.887 36.4584C39.9081 36.1875 40.1935 36.1177 40.1663 35.8061C40.4759 35.7566 40.255 35.2826 40.4213 35.1335C40.6826 35.0433 40.6311 34.7115 40.6764 34.4608C40.2903 34.4049 40.1231 34.8008 39.8678 34.9577C39.6347 35.1126 39.3067 35.2086 39.0513 35.3655C38.9865 35.3936 39.0591 35.4545 38.9478 35.4642C38.8608 35.4943 38.4351 35.7557 38.2204 35.8642C37.9611 35.9766 37.6574 36.0929 37.402 36.2498C37.1755 36.2247 37.1185 36.3418 36.9889 36.398C36.21 36.4662 35.3479 36.6089 34.833 36.3624ZM37.879 41.7021C37.7252 41.738 37.6923 41.8754 37.4659 41.8503C37.1738 42.1001 36.7849 42.2687 36.5432 42.5814C35.9328 43.0384 35.2296 43.4588 34.7403 44.0173C33.866 44.789 33.0904 45.6641 32.3874 46.6002C32.0469 46.8094 31.9484 47.2216 31.7048 47.5121C31.6575 47.7404 31.4408 47.8267 31.3189 47.9719C31.199 48.1393 31.1517 48.3677 30.935 48.454C30.6877 49.2156 30.2526 49.8816 29.9327 50.5823C29.5925 51.3072 29.2765 52.0525 29.0612 52.9234C28.9977 53.7363 28.8714 54.5995 29.3671 55.1391C30.2206 55.1542 30.4651 54.617 31.123 54.4473C31.293 53.827 31.9954 53.6534 32.1915 53.0756C32.564 52.9758 32.5696 52.5268 32.6691 52.3835C32.8277 52.1454 33.0995 51.9198 33.2581 51.6817C33.5752 51.2055 33.8884 50.6847 34.0845 50.1069C34.4879 49.8474 34.536 49.3723 34.7477 48.9725C34.9391 48.597 35.1992 48.2379 35.3887 47.8401C35.6004 47.4403 35.7434 47.0242 35.9309 46.6041C36.1203 46.2063 36.4394 45.7523 36.4653 45.2792C36.8772 44.8619 36.8778 44.0994 37.2898 43.6822C37.4578 43.0396 37.6965 42.4356 38.0097 41.9149C37.9797 41.8278 37.968 41.6943 37.879 41.7021ZM60.593 32.3596C60.3329 32.7187 59.3701 32.7357 59.1662 33.2244C59.1081 33.0725 58.4474 33.4667 58.4368 33.6022C57.928 33.9382 57.2256 34.1118 56.6684 34.4072C56.5786 34.6617 56.3608 34.479 56.1441 34.5652C56.1015 34.5913 55.8945 34.7889 55.852 34.815C55.3034 34.9527 54.715 34.892 54.2574 35.0442C54.1654 34.7607 53.789 34.8161 53.7801 34.4581C53.656 34.0653 53.6897 33.6811 53.7612 33.473C53.9245 33.0327 54.401 32.0716 54.7337 31.7734C55.373 31.1344 56.0331 29.7088 56.7208 29.1104C56.7661 28.8598 57.0031 28.7493 57.2179 28.6408C57.2129 28.3273 57.5245 28.3001 57.594 28.0697C57.7826 27.9187 57.9248 27.7493 58.0892 27.5779C58.2817 27.4714 58.1857 27.1434 58.596 27.2196C59.0372 27.1362 58.9281 27.6839 59.1866 27.8183C59.1337 28.4957 58.4758 28.6653 58.3504 29.2818C57.8115 29.5307 57.7587 30.2081 57.3631 30.5567C56.8262 30.8279 56.4097 31.9631 55.9474 32.3175C55.7212 32.8082 55.134 33.0166 55.1034 33.692C55.5738 33.9424 56.2083 33.5056 56.4762 33.2355C57.2715 33.0987 57.8635 32.6881 58.4371 32.3239C58.9885 31.9618 59.5012 31.6702 60.0506 31.2858C60.4801 31.0688 60.4528 30.7573 60.8117 30.5016C61.2673 30.3272 61.6774 29.8877 62.2298 29.7945C62.535 30.463 62.1928 31.1656 61.2362 31.7651C61.0998 32.0013 60.7535 32.1437 60.593 32.3596ZM61.6171 22.0219C61.515 21.1114 61.4371 20.2212 62.5451 20.3261C62.8047 20.7295 62.922 21.3023 63.0191 21.8992C62.7629 22.3029 61.9887 22.1688 61.6171 22.0219ZM59.8592 32.9395C59.6058 33.1187 59.2856 33.3037 59.2778 33.2146C59.2408 32.7918 59.1863 32.1687 59.1418 32.1726C60.0106 31.8499 60.9611 30.6679 61.6827 30.2012C62.5648 29.5185 63.734 28.2726 64.6907 27.6731C65.1975 27.3148 65.6318 26.8956 66.1164 26.5393C66.5381 26.2333 66.9481 25.7938 67.5432 25.6744C67.67 25.8427 67.8414 26.0071 68.0127 26.1715C68.1571 26.5401 67.895 26.877 67.7849 27.1557C67.5993 27.598 67.3654 27.9997 67.1334 28.4237C67.115 28.4701 67.1935 28.5978 67.1509 28.624C66.9662 28.8195 66.1263 30.7542 66.0521 31.1868C65.7861 31.4792 65.4495 31.7329 65.4014 32.208C65.6734 32.4981 66.0109 31.9977 66.4696 32.1145C67.3848 31.8102 68.3629 31.4555 69.2762 31.129C70.3015 30.5459 71.3937 29.957 72.3222 29.2928C72.3631 29.7601 72.5028 30.3309 72.3353 30.211C72.0983 30.3215 71.7976 30.729 71.5828 30.8375C71.518 30.8656 71.3333 31.0611 71.2665 31.067C71.1369 31.1232 71.0701 31.129 70.9647 31.2055C70.6223 31.3924 70.4879 31.6509 70.2122 31.8319C70.1068 31.9084 69.9975 31.9404 69.8881 31.9724C69.6734 32.0809 69.418 32.2378 69.1791 32.326C68.9401 32.4142 68.8792 32.4868 68.5532 32.605C68.2697 32.6971 67.5064 32.9432 67.1069 33.2473C65.9168 33.4859 64.6584 34.2239 63.3114 34.2072C62.8866 34.222 62.4627 33.99 61.9934 34.0086C61.6788 33.7446 61.34 33.4603 60.859 33.3454C60.7224 33.0658 60.6932 32.732 60.7792 32.433C60.4376 32.3732 60.459 32.618 60.2626 32.68C60.2095 32.8416 59.864 32.7373 59.8592 32.9395ZM63.3812 32.6987C63.7905 32.5059 64.0322 32.1932 64.1752 31.7771C64.4837 31.4586 65.3742 30.1025 65.3942 29.5625C65.6738 29.4259 65.6966 28.6615 65.9539 28.5269C65.9102 28.284 65.9411 28.1243 66.1394 28.0846C66.1055 27.953 66.0716 27.8214 65.8974 27.8815C65.8888 28.0392 65.735 28.0751 65.7244 28.2106C64.963 28.479 64.9238 29.3121 64.1382 29.5603C63.6672 30.0724 62.0888 31.5111 61.4988 31.944C62.0719 32.3423 62.4563 32.8917 63.3812 32.6987ZM85.0641 30.2186C84.804 30.5778 83.8412 30.5947 83.6373 31.0835C83.5791 30.9316 82.9185 31.3258 82.9079 31.4612C82.3991 31.7973 81.6967 31.9708 81.1395 32.2663C81.0496 32.5208 80.8318 32.338 80.6151 32.4243C80.5726 32.4504 80.3656 32.6479 80.323 32.6741C79.7745 32.8118 79.1861 32.7511 78.7285 32.9033C78.6364 32.6198 78.2601 32.6752 78.2512 32.3171C78.1271 31.9243 78.1608 31.5402 78.2323 31.3321C78.3956 30.8917 78.8721 29.9306 79.2048 29.6324C79.8441 28.9935 80.5042 27.5678 81.1919 26.9695C81.2372 26.7188 81.4742 26.6084 81.689 26.4999C81.684 26.1864 81.9955 26.1591 82.0651 25.9288C82.2537 25.7778 82.3958 25.6083 82.5602 25.437C82.7527 25.3304 82.6568 25.0025 83.0671 25.0787C83.5083 24.9952 83.3992 25.543 83.6576 25.6773C83.6048 26.3547 82.9469 26.5244 82.8214 27.1408C82.2826 27.3898 82.2297 28.0672 81.8342 28.4157C81.2973 28.6869 80.8808 29.8222 80.4185 30.1766C80.1923 30.6673 79.6051 30.8756 79.5745 31.551C80.0449 31.8014 80.6794 31.3647 80.9473 31.0946C81.7426 30.9577 82.3346 30.5471 82.9082 30.183C83.4595 29.8208 83.9722 29.5293 84.5216 29.1449C84.9511 28.9279 84.9239 28.6163 85.2827 28.3607C85.7384 28.1863 86.1484 27.7467 86.7009 27.6536C87.0061 28.322 86.6639 29.0247 85.7072 29.6242C85.5709 29.8603 85.2246 30.0028 85.0641 30.2186ZM86.0882 19.881C85.9861 18.9705 85.9082 18.0803 87.0162 18.1852C87.2757 18.5886 87.3931 19.1613 87.4902 19.7583C87.234 20.1619 86.4598 20.0278 86.0882 19.881ZM93.9834 29.1243C94.3406 29.3622 93.9353 29.5995 94.157 29.8267C93.6443 30.1183 93.4248 30.429 93.0843 30.6382C92.8715 30.7689 92.5224 31.1358 92.176 31.2783C92.1093 31.2841 91.7891 31.4691 91.7262 31.5194C91.5966 31.5756 91.5821 31.6666 91.3209 31.7567C91.1913 31.8129 90.8024 31.9815 90.606 32.0435C90.28 32.1617 90.6224 31.9748 90.1648 32.127C89.9462 32.1909 89.7498 32.253 89.5389 32.406C89.054 32.2466 88.2626 32.4279 87.6153 32.4621C87.4623 32.2513 87.1265 32.2582 86.8294 32.1945C86.5234 31.7728 85.9098 31.4228 85.7323 30.6759C85.5946 30.1274 85.7017 29.5574 85.8069 28.9651C86.0253 28.3854 86.0954 27.3926 86.3816 27.076C86.8398 26.1614 87.1044 25.0843 87.6613 24.2731C87.4899 24.1087 87.1136 24.1641 86.7836 24.2378C86.5427 24.3037 86.0184 24.4617 85.5346 24.5713C84.8506 24.6984 83.9673 25.1121 83.6805 24.3971C83.599 23.9782 84.2174 24.1259 84.4002 23.9081C84.5849 23.7125 85.0823 23.7587 85.2186 23.5226C86.3255 23.3584 87.3355 23.1131 88.394 22.9084C88.5701 22.8705 88.7103 22.6789 88.7896 22.5598C88.8486 22.465 88.8146 22.3334 88.8736 22.2385C89.0119 22.0246 89.4481 21.6277 89.6433 21.2966C90.0417 20.7236 90.3229 20.0935 90.6729 19.4798C91.0279 19.1797 90.9249 18.516 91.6671 18.5407C92.1122 18.5018 91.8223 19.2896 92.0847 19.4685C91.6421 20.5611 90.7619 21.266 90.5129 22.5212C90.5769 22.7398 91.0509 22.519 91.2793 22.5662C93.7301 22.1276 96.3463 21.7866 98.799 21.3702C99.0778 21.4803 99.4717 21.6253 99.2338 21.9824C98.6814 22.0756 98.2199 22.1833 98.2402 22.1591C97.6151 22.1913 97.232 22.4267 96.5363 22.4203C96.0923 22.7282 95.6539 22.5872 95.0725 22.8623C94.6517 22.9215 94.2714 22.9324 93.9965 22.8667C93.2914 23.2648 93.2157 22.9126 92.5008 23.1994C92.197 23.3157 92.197 23.3157 91.8777 23.2539C91.6852 23.3605 91.4927 23.467 91.2517 23.5329C90.9886 23.6008 90.4117 23.1579 90.0723 23.6361C90.114 23.8567 89.6978 23.7137 89.5479 23.7941C89.3576 24.4386 88.8063 24.8008 88.6199 25.4899C88.1189 25.9149 88.2198 26.5564 87.6724 26.9631C87.7199 27.2505 87.4201 27.4112 87.306 27.6455C87.1697 27.8816 87.2009 28.2377 86.9474 28.4169C86.8879 29.2742 86.5922 29.9952 87.0425 30.7855C87.3029 30.9422 87.4743 31.1066 87.7249 31.1519C87.8159 31.1664 87.7995 31.2351 87.8237 31.2554C88.565 31.5269 89.515 31.1074 90.2842 30.928C90.6102 30.8098 91.1365 30.674 91.4653 30.3313C91.4856 30.3071 92.0389 29.9672 92.0612 29.9653C92.2314 29.8607 92.3513 29.6932 92.5438 29.5867C92.716 29.5043 93.0053 29.479 93.1795 29.4189C93.2693 29.1644 93.6757 29.1961 93.9834 29.1243ZM100.173 29.4125C99.92 29.5916 99.5999 29.7766 99.5921 29.6876C99.5551 29.2648 99.5006 28.6417 99.4561 28.6455C100.325 28.3229 101.275 27.1409 101.997 26.6741C102.879 25.9915 104.048 24.7455 105.005 24.1461C105.512 23.7878 105.946 23.3686 106.431 23.0122C106.852 22.7062 107.262 22.2667 107.857 22.1474C107.984 22.3157 108.156 22.4801 108.327 22.6445C108.471 23.0131 108.209 23.35 108.099 23.6287C107.914 24.071 107.68 24.4727 107.448 24.8966C107.429 24.9431 107.508 25.0708 107.465 25.0969C107.28 25.2925 106.441 27.2272 106.366 27.6598C106.1 27.9521 105.764 28.2058 105.716 28.6809C105.988 28.9711 106.325 28.4707 106.784 28.5875C107.699 28.2832 108.677 27.9285 109.59 27.6019C110.616 27.0189 111.708 26.43 112.636 25.7657C112.677 26.2331 112.817 26.8039 112.65 26.684C112.413 26.7944 112.112 27.2019 111.897 27.3104C111.832 27.3385 111.648 27.5341 111.581 27.5399C111.451 27.5961 111.384 27.602 111.279 27.6785C110.937 27.8654 110.802 28.1238 110.526 28.3049C110.421 28.3814 110.312 28.4134 110.202 28.4454C109.988 28.5539 109.732 28.7108 109.493 28.7989C109.254 28.8871 109.193 28.9597 108.867 29.0779C108.584 29.17 107.821 29.4162 107.421 29.7202C106.231 29.9589 104.973 30.6969 103.626 30.6802C103.201 30.6949 102.777 30.4629 102.308 30.4816C101.993 30.2176 101.654 29.9333 101.173 29.8184C101.037 29.5388 101.007 29.205 101.093 28.9059C100.752 28.8461 100.773 29.0909 100.577 29.153C100.524 29.3146 100.178 29.2103 100.173 29.4125ZM103.695 29.1716C104.105 28.9789 104.346 28.6662 104.489 28.25C104.798 27.9315 105.688 26.5754 105.708 26.0355C105.988 25.8989 106.011 25.1344 106.268 24.9998C106.224 24.757 106.255 24.5973 106.454 24.5575C106.42 24.4259 106.386 24.2944 106.212 24.3544C106.203 24.5122 106.049 24.548 106.039 24.6835C105.277 24.952 105.238 25.7851 104.452 26.0332C103.981 26.5453 102.403 27.9841 101.813 28.4169C102.386 28.8153 102.771 29.3647 103.695 29.1716ZM122.165 26.1654C122.476 25.8692 123.13 25.4082 123.193 25.3579C123.236 25.3317 123.655 26.2817 123.655 26.2817C123.655 26.2817 122.335 27.3391 122.266 27.3226C122.198 27.3062 120.893 28.5416 119.867 28.8557C119.603 28.9235 119.271 28.975 119.016 29.1319C118.527 29.1747 117.995 28.997 117.506 29.0398C117.158 28.9132 116.993 28.5688 116.786 28.2506C116.221 28.457 115.803 28.8075 115.48 29.217C114.695 29.4651 113.874 30.0751 112.997 30.3088C112.821 30.3466 112.617 30.3196 112.463 30.3555C112.176 30.4031 111.716 30.533 111.274 30.3474C110.795 30.2548 110.72 29.6559 110.424 29.3454C110.522 28.9332 110.524 28.4397 110.645 28.0255C110.882 27.6683 112.515 24.543 112.874 24.2873C112.8 23.9574 113.853 22.9234 113.875 22.6525C113.972 22.487 113.923 22.1774 114.26 22.1927C114.74 22.0386 114.877 22.3181 115.135 22.4525C115.314 23.4684 114.696 23.8364 114.225 24.3485C114.193 24.755 113.82 25.1016 113.594 25.3455C113.418 25.6301 112.55 27.2533 112.251 27.4141C112.175 28.0934 111.453 28.2911 111.714 29.2325C112.838 29.5154 113.642 28.7051 114.539 28.4472C114.999 28.0706 115.491 27.8033 115.978 27.4692C116.398 27.1409 116.763 26.7053 117.282 26.4805C117.632 25.6201 118.833 24.2145 119.418 23.4682C119.598 23.2281 119.682 22.9068 120.007 22.7663C119.979 22.4548 120.218 22.3666 120.383 22.1952C120.595 22.0645 120.758 21.8709 120.87 21.6144C120.975 21.5379 121.325 21.171 121.508 21.4689C121.957 21.4745 121.936 22.2612 121.801 22.5196C121.761 22.568 121.71 22.5051 121.698 22.6184C121.713 22.7964 121.63 22.8709 121.536 23.081C121.055 23.7286 120.6 24.4187 120.092 25.0237C119.584 25.6288 118.259 26.8884 118.161 27.8164C118.559 28.0058 119.008 28.0114 119.338 27.9377C120.344 27.6478 121.457 26.788 122.165 26.1654ZM134.896 23.9079C135.255 23.6523 135.611 23.6211 135.405 24.6034C135.294 25.1289 134.185 26.0332 133.661 26.1912C133.365 26.3965 133.004 26.6299 132.684 26.8149C132.641 26.841 132.527 27.0753 132.505 27.0772C132.288 27.1634 131.934 27.2168 131.895 27.5342C131.438 27.4397 131.491 27.7938 131.155 27.8007C130.821 28.0767 130.268 28.1699 129.984 28.5087C129.812 28.591 129.349 28.4297 129.371 28.6745C129.319 28.8583 128.857 28.697 128.854 28.9215C128.049 28.9471 127.506 29.1515 126.943 29.3802C126.051 29.4358 125.122 29.5843 124.374 29.4928C124.019 29.2772 123.727 29.0113 123.25 28.9409C123.156 28.6352 123.06 28.3072 122.761 28.2212C122.721 27.5072 122.573 27.6098 122.573 26.8473C122.579 26.3983 122.902 25.7421 122.953 25.2892C123.497 24.5913 123.848 23.7309 124.467 23.1161C125.565 21.8315 126.958 20.3193 129.421 20.53C129.972 21.1993 130.26 22.1832 130.611 23.1168C130.387 23.114 130.6 23.499 130.547 23.6606C130.281 23.953 129.799 24.6005 129.083 24.1026C129.089 23.9226 129.007 23.7504 129.036 23.5685C129.072 23.2066 129.453 22.949 129.356 22.352C129.336 22.1295 129.213 22.0057 129.101 21.7464C128.582 21.4554 128.04 21.4132 127.489 21.7753C127.62 21.9881 127.62 21.9881 127.387 21.8963C127.155 21.8045 127.247 22.088 127.182 22.1161C127.119 22.1665 126.958 22.1133 126.871 22.1434C126.745 22.2441 126.631 22.4783 126.356 22.4126C126.303 22.5743 126.084 22.6382 125.961 22.7612C125.879 22.858 125.939 23.2789 125.567 23.132C125.598 23.4881 125.363 23.6208 125.178 23.8163C125.114 24.3601 124.47 24.4389 124.434 25.0475C124.173 25.1376 124.079 25.3477 123.937 25.5171C123.79 26.4045 123.266 26.5625 123.671 27.6034C123.946 28.1848 124.546 28.379 125.144 28.5509C126.318 28.381 127.612 28.3125 128.423 27.838C128.745 27.6752 129.188 27.6141 129.464 27.433C130.205 27.1887 130.666 26.5653 131.407 26.3211C131.979 25.9347 132.617 25.5425 133.264 25.2393C133.837 24.8752 134.25 24.2111 134.896 23.9079ZM146.241 22.9154C146.6 22.6598 146.956 22.6286 146.75 23.6109C146.639 24.1364 145.53 25.0407 145.005 25.1987C144.709 25.404 144.348 25.6374 144.028 25.8224C143.986 25.8485 143.872 26.0827 143.849 26.0847C143.633 26.1709 143.279 26.2243 143.239 26.5417C142.782 26.4471 142.836 26.8013 142.5 26.8082C142.165 27.0842 141.613 27.1774 141.329 27.5162C141.156 27.5985 140.694 27.4372 140.715 27.682C140.664 27.8658 140.201 27.7045 140.199 27.929C139.394 27.9546 138.851 28.159 138.288 28.3877C137.396 28.4433 136.467 28.5918 135.719 28.5003C135.364 28.2847 135.071 28.0188 134.594 27.9484C134.5 27.6427 134.404 27.3147 134.105 27.2287C134.065 26.5146 133.917 26.6173 133.918 25.8548C133.923 25.4058 134.247 24.7496 134.297 24.2967C134.841 23.5988 135.192 22.7384 135.811 22.1236C136.91 20.839 138.302 19.3268 140.765 19.5374C141.317 20.2067 141.605 21.1907 141.956 22.1242C141.731 22.1215 141.944 22.5065 141.891 22.6681C141.625 22.9604 141.144 23.608 140.427 23.1101C140.434 22.9301 140.352 22.7579 140.381 22.576C140.416 22.2141 140.797 21.9565 140.7 21.3595C140.681 21.137 140.558 21.0132 140.445 20.7539C139.927 20.4629 139.385 20.4206 138.833 20.7828C138.964 20.9956 138.964 20.9956 138.732 20.9038C138.5 20.812 138.592 21.0955 138.527 21.1236C138.464 21.1739 138.302 21.1208 138.215 21.1508C138.089 21.2515 137.975 21.4858 137.701 21.4201C137.647 21.5817 137.429 21.6457 137.305 21.7687C137.224 21.8655 137.283 22.2864 136.911 22.1395C136.943 22.4955 136.707 22.6282 136.523 22.8238C136.458 23.3676 135.815 23.4464 135.778 24.055C135.517 24.1451 135.423 24.3552 135.281 24.5246C135.135 25.412 134.61 25.57 135.015 26.6109C135.29 27.1923 135.89 27.3865 136.488 27.5584C137.662 27.3884 138.957 27.32 139.767 26.8455C140.09 26.6827 140.533 26.6215 140.808 26.4404C141.549 26.1962 142.011 25.5728 142.752 25.3286C143.323 24.9422 143.962 24.55 144.608 24.2468C145.182 23.8826 145.594 23.2186 146.241 22.9154ZM154.91 22.8745C154.914 22.919 154.98 23.6757 154.923 23.7928C154.636 24.3561 151.83 26.3732 150.171 26.6304C148.777 26.8421 147.457 26.6212 146.56 26.1166C146.043 26.0946 145.812 25.5093 145.821 25.1049C145.694 24.6676 145.511 24.1229 145.6 23.5994C145.6 23.5994 145.685 23.5471 145.679 23.4803C145.727 23.2519 145.989 22.1526 146.247 22.0179C146.331 21.6966 146.413 21.3531 146.714 21.2145C146.907 20.5923 147.484 20.2726 147.751 19.7335C148.328 19.4139 148.884 19.0962 149.268 18.6142C150.052 18.6128 150.329 18.1849 151.065 18.1429C151.398 18.3605 151.446 18.6478 151.461 19.0726C151.476 19.2507 151.428 19.21 151.391 19.303C151.316 19.4665 151.393 19.841 151.233 20.0568C151.309 20.9247 150.569 21.9537 150.57 22.7385C150.272 22.9215 150.091 23.4083 149.912 23.6706C149.733 23.9329 149.429 24.0492 149.321 24.3502C148.825 24.573 148.593 24.997 148.096 25.2198C148.456 25.4799 149.001 25.5667 149.321 25.6284L149.543 25.609C150.717 25.439 152.411 24.5508 153.285 23.7792C153.472 23.6058 153.897 23.3444 154.09 23.2378C154.284 23.1535 154.688 22.894 154.91 22.8745ZM150.221 19.5174C149.949 19.743 149.652 19.6793 149.482 19.7839C148.868 20.1964 148.57 20.8952 147.993 21.2148C147.656 21.9843 146.766 23.3404 146.843 24.4773C147.179 24.4704 147.564 24.2573 147.691 24.1788C147.945 23.9997 148.093 23.897 148.3 23.6995C148.921 23.107 149.654 21.4955 149.998 20.8151C150.171 20.486 150.387 20.1308 150.35 19.708C150.322 19.6432 150.31 19.5096 150.221 19.5174ZM153.527 24.7446C153.274 24.9238 152.954 25.1088 152.946 25.0197C152.909 24.5969 152.854 23.9738 152.81 23.9777C153.679 23.655 154.629 22.473 155.351 22.0063C156.233 21.3236 157.402 20.0777 158.359 19.4782C158.866 19.1199 159.3 18.7007 159.784 18.3444C160.206 18.0384 160.616 17.5989 161.211 17.4795C161.338 17.6478 161.509 17.8122 161.681 17.9766C161.825 18.3452 161.563 18.6821 161.453 18.9608C161.267 19.4031 161.034 19.8048 160.801 20.2288C160.783 20.2752 160.862 20.4029 160.819 20.4291C160.634 20.6246 159.794 22.5593 159.72 22.9919C159.454 23.2843 159.118 23.538 159.07 24.0131C159.342 24.3032 159.679 23.8028 160.138 23.9196C161.053 23.6153 162.031 23.2606 162.944 22.9341C163.97 22.351 165.062 21.7621 165.99 21.0979C166.031 21.5652 166.171 22.136 166.003 22.0161C165.766 22.1266 165.466 22.5341 165.251 22.6426C165.186 22.6707 165.001 22.8662 164.935 22.8721C164.805 22.9283 164.738 22.9341 164.633 23.0106C164.29 23.1975 164.156 23.456 163.88 23.637C163.775 23.7135 163.666 23.7455 163.556 23.7775C163.342 23.886 163.086 24.0429 162.847 24.1311C162.608 24.2193 162.547 24.2919 162.221 24.4101C161.938 24.5022 161.174 24.7483 160.775 25.0524C159.585 25.291 158.326 26.029 156.98 26.0123C156.555 26.0271 156.131 25.7951 155.662 25.8137C155.347 25.5497 155.008 25.2654 154.527 25.1505C154.391 24.8709 154.361 24.5371 154.447 24.2381C154.106 24.1783 154.127 24.4231 153.931 24.4851C153.878 24.6467 153.532 24.5424 153.527 24.7446ZM157.049 24.5038C157.459 24.311 157.7 23.9983 157.843 23.5822C158.152 23.2637 159.042 21.9076 159.062 21.3676C159.342 21.231 159.365 20.4666 159.622 20.332C159.578 20.0891 159.609 19.9294 159.808 19.8897C159.774 19.7581 159.74 19.6265 159.566 19.6866C159.557 19.8443 159.403 19.8802 159.393 20.0157C158.631 20.2841 158.592 21.1172 157.806 21.3654C157.335 21.8775 155.757 23.3162 155.167 23.7491C155.74 24.1474 156.124 24.6968 157.049 24.5038ZM163.394 23.8814C163.141 24.0606 162.82 24.2455 162.813 24.1565C162.776 23.7337 162.721 23.1106 162.677 23.1145C163.545 22.7918 164.496 21.6098 165.218 21.143C166.1 20.4604 167.269 19.2145 168.225 18.615C168.732 18.2567 169.167 17.8375 169.651 17.4811C170.073 17.1752 170.483 16.7356 171.078 16.6163C171.205 16.7846 171.376 16.949 171.548 17.1134C171.692 17.482 171.43 17.8189 171.32 18.0976C171.134 18.5399 170.9 18.9416 170.668 19.3655C170.65 19.412 170.728 19.5397 170.686 19.5658C170.501 19.7614 169.661 21.6961 169.587 22.1287C169.321 22.421 168.984 22.6747 168.936 23.1499C169.208 23.44 169.546 22.9396 170.004 23.0564C170.92 22.7521 171.898 22.3974 172.811 22.0709C173.836 21.4878 174.928 20.8989 175.857 20.2346C175.898 20.702 176.038 21.2728 175.87 21.1529C175.633 21.2633 175.332 21.6709 175.118 21.7793C175.053 21.8074 174.868 22.003 174.801 22.0088C174.672 22.065 174.605 22.0709 174.499 22.1474C174.157 22.3343 174.023 22.5927 173.747 22.7738C173.642 22.8503 173.532 22.8823 173.423 22.9143C173.208 23.0228 172.953 23.1797 172.714 23.2679C172.475 23.356 172.414 23.4286 172.088 23.5469C171.804 23.6389 171.041 23.8851 170.642 24.1892C169.452 24.4278 168.193 25.1658 166.846 25.1491C166.421 25.1639 165.997 24.9318 165.528 24.9505C165.214 24.6865 164.875 24.4022 164.394 24.2873C164.257 24.0077 164.228 23.6739 164.314 23.3749C163.972 23.315 163.994 23.5598 163.797 23.6219C163.744 23.7835 163.399 23.6792 163.394 23.8814ZM166.916 23.6406C167.325 23.4478 167.567 23.1351 167.71 22.719C168.018 22.4004 168.909 21.0443 168.929 20.5044C169.209 20.3678 169.231 19.6034 169.489 19.4687C169.445 19.2259 169.476 19.0662 169.674 19.0264C169.64 18.8949 169.606 18.7633 169.432 18.8234C169.424 18.9811 169.27 19.017 169.259 19.1524C168.498 19.4209 168.459 20.254 167.673 20.5021C167.202 21.0143 165.624 22.453 165.034 22.8858C165.607 23.2842 165.991 23.8336 166.916 23.6406ZM187.071 18.1099C187.145 18.1931 186.475 18.9917 186.4 19.1553C185.644 19.7372 181.246 23.0372 180.635 22.9785C180.625 23.383 180.022 23.1443 179.941 23.5101C180.099 24.0345 180.326 24.5752 180.719 24.9669C180.753 25.0985 180.718 25.2137 180.73 25.3472C180.736 25.414 180.766 25.501 180.855 25.4932C180.84 25.5842 180.826 25.6752 180.836 25.7864C181.003 27.7003 180.406 29.0756 180.052 30.923C179.735 31.1525 179.566 31.7728 179.279 32.0894L179.307 32.401L179.116 32.5297L179.133 32.73C178.72 33.125 178.521 33.6806 178.178 34.1142C177.876 34.4995 177.422 34.6962 177.194 35.1646C176.624 35.5733 176.296 36.185 175.823 36.6749L175.499 36.8153C175.335 36.9867 174.367 37.9684 174.334 38.1058C173.246 38.7392 171.351 39.8917 170.105 40.0007C169.659 40.0396 169.233 40.0321 168.78 39.982C168.571 39.6416 168.301 39.3737 168.051 39.0816L168.041 38.9703C167.992 38.4139 167.786 37.849 167.735 37.2703C167.685 36.6917 167.817 35.8953 167.946 35.3234L168.05 35.2246C168.135 34.6566 168.334 34.3701 168.582 33.8774L168.553 33.5436L168.745 33.4371C168.872 33.0896 169.019 32.718 168.986 32.3396C169.441 32.1652 169.365 31.5441 169.748 31.3087C169.868 30.8945 170.054 30.4522 170.411 30.1743C170.525 29.4243 171.042 28.9306 171.208 28.2657C171.377 28.1389 171.351 27.8496 171.594 27.8059C171.558 27.6521 171.658 27.5088 171.787 27.4526L171.77 27.2523L171.97 27.2348C172.271 26.8273 172.739 26.0239 172.898 25.539C173.566 24.9649 173.749 23.9846 174.563 23.5545C174.8 22.4126 176.773 20.8721 177.055 19.9953C177.329 19.7919 179.391 16.9654 179.646 16.5395C180.288 16.1918 180.926 14.7681 181.624 14.55C181.884 13.6751 182.804 13.1685 183.04 12.2734C183.297 12.1387 183.864 11.4388 183.93 11.433L183.884 10.8989C184.415 10.5609 184.772 9.00478 185.328 8.95611C185.702 9.12525 185.749 9.4126 185.936 9.75505C185.775 10.2177 185.705 10.6947 185.634 11.1718C185.186 11.682 184.834 12.2734 184.387 12.8058L184.172 12.9143C184.117 13.0537 184.017 13.1969 183.89 13.2754C183.661 13.9906 182.673 14.7497 182.242 15.4602C181.79 15.6791 181.588 16.1901 181.137 16.409C180.907 16.8552 179.129 19.0962 178.793 19.1032C178.732 19.4225 178.791 19.8434 178.316 19.7953C178.383 20.3052 177.905 20.4815 177.665 20.8165L177.581 21.1378L177.359 21.1572L177.378 21.3798C177.258 21.5472 177.066 21.6538 176.992 21.8396C177.19 22.0466 177.619 21.8296 177.857 21.9881C178.188 22.1834 178.554 22.2636 178.883 22.4366C180.678 21.6741 182.764 20.9086 184.14 19.4651C184.419 19.3286 184.582 19.1349 184.861 18.9984C185.022 18.7825 185.279 18.6479 185.367 18.3711C185.969 18.0718 186.171 17.5607 186.905 17.4965L187.016 17.4868C186.987 17.6687 187.084 17.7499 187.098 17.9057C187.102 17.9502 187.089 18.0634 187.071 18.1099ZM176.806 23.0444C176.65 23.058 176.474 23.0958 176.468 23.2758C176.619 23.2177 176.781 23.2708 176.937 23.2572C177.048 23.2475 177.135 23.2174 177.123 23.0839L177.095 23.0191L176.806 23.0444ZM169.109 38.8768C169.527 39.0421 170.003 38.8435 170.419 38.9865C171.348 38.3222 172.383 37.8504 173.392 37.3361C173.92 36.7068 174.904 35.9032 175.601 35.4161C176.156 34.5827 177.024 33.991 177.56 33.204C177.916 32.6571 179.211 30.0323 179.313 29.9113C179.299 29.7555 179.379 29.6364 179.508 29.5802C179.451 28.6658 180.089 27.7579 180.001 26.7564C179.962 26.3113 179.624 24.7488 179.261 24.4442C179.191 24.1588 178.973 23.976 178.883 23.7148L178.66 23.7343C177.981 24.1749 177.022 24.2364 176.259 24.4826C175.897 24.4469 175.55 24.3204 175.171 24.3535L174.951 24.3952C174.699 24.8433 174.422 25.2712 174.095 25.6361C174.03 25.911 173.032 27.3213 172.856 27.3592L172.885 27.693C172.747 27.9069 172.493 28.086 172.496 28.3773C172.185 28.4046 172.271 28.6213 172.222 28.8274L172.009 28.9581L172.026 29.1584L171.836 29.2872C171.661 29.594 170.748 31.4678 170.742 31.6478L170.549 31.7544C170.337 32.1541 169.654 33.8285 169.445 34.0037C169.336 34.5514 169.211 35.1679 168.821 35.5832C168.837 36.277 168.717 36.9602 168.687 37.6356C168.985 37.9683 168.874 38.4938 169.109 38.8768ZM195.47 19.7521C195.78 19.4558 196.435 18.9949 196.498 18.9446C196.54 18.9184 196.96 19.8684 196.96 19.8684C196.96 19.8684 195.64 20.9257 195.571 20.9093C195.502 20.8929 194.198 22.1283 193.171 22.4423C192.908 22.5102 192.576 22.5617 192.321 22.7186C191.831 22.7614 191.3 22.5836 190.81 22.6265C190.463 22.4999 190.298 22.1555 190.091 21.8373C189.526 22.0437 189.108 22.3942 188.785 22.8036C187.999 23.0518 187.178 23.6618 186.302 23.8955C186.126 23.9333 185.921 23.9063 185.768 23.9422C185.48 23.9898 185.021 24.1197 184.578 23.9341C184.099 23.8415 184.025 23.2426 183.728 22.9321C183.827 22.5199 183.828 22.0264 183.949 21.6122C184.187 21.255 185.82 18.1297 186.179 17.874C186.105 17.5441 187.158 16.5101 187.179 16.2392C187.277 16.0737 187.227 15.764 187.565 15.7793C188.045 15.6252 188.181 15.9048 188.44 16.0392C188.618 17.0551 188 17.4231 187.529 17.9352C187.498 18.3416 187.124 18.6883 186.899 18.9322C186.722 19.2168 185.855 20.84 185.555 21.0007C185.48 21.68 184.757 21.8778 185.019 22.8192C186.143 23.1021 186.946 22.2918 187.843 22.0339C188.303 21.6573 188.796 21.3899 189.282 21.0559C189.702 20.7276 190.068 20.292 190.586 20.0672C190.937 19.2068 192.137 17.8012 192.722 17.0548C192.903 16.8148 192.987 16.4935 193.311 16.353C193.284 16.0415 193.523 15.9533 193.687 15.7819C193.9 15.6512 194.062 15.4576 194.175 15.2011C194.28 15.1246 194.629 14.7577 194.812 15.0556C195.261 15.0612 195.24 15.8479 195.106 16.1063C195.065 16.1547 195.015 16.0918 195.002 16.205C195.018 16.3831 194.935 16.4576 194.841 16.6676C194.359 17.3152 193.904 18.0054 193.396 18.6104C192.889 19.2155 191.564 20.475 191.466 21.403C191.863 21.5925 192.312 21.5981 192.642 21.5243C193.648 21.2345 194.762 20.3747 195.47 19.7521ZM204.509 17.5933C204.578 17.6097 204.466 18.8977 204.459 18.8087C204.455 18.7642 203.558 20.0535 203.238 20.2385C202.961 20.3974 202.777 20.8619 202.488 20.8872C202.236 21.0886 201.538 21.8225 201.449 21.8302C201.315 21.8419 200.952 22.2998 200.685 22.3232C200.64 22.3271 200.572 22.3106 200.549 22.3126C200.349 22.3301 199.559 22.7805 199.253 22.8745C198.652 22.9271 198.573 23.0461 198.306 23.0695C197.681 23.1018 197.06 22.9318 196.546 22.6853C196.355 22.2984 196.145 21.9579 196.099 21.4238C196.005 20.3556 196.519 19.0548 197.092 17.9059C197.206 17.6717 197.286 17.3059 197.439 17.001C198.182 15.5008 199.01 13.9483 199.846 12.4848C199.94 12.2748 200.08 12.0831 200.124 11.8102C200.379 11.6533 200.96 10.8625 201.062 10.2257C202.198 9.1172 202.259 8.28211 204.038 6.31012C204.59 5.70119 205.779 5.19353 205.75 4.85971C206.017 4.83635 206.118 4.96209 206.362 4.94067C206.407 4.93678 206.451 4.93288 206.516 4.90479C206.632 5.20856 206.789 5.46393 206.824 5.86451C206.875 6.44312 206.656 7.78533 206.381 8.48217C206.287 8.69219 206.092 8.77648 206.116 9.04353C205.538 11.1571 204.595 12.6749 203.238 14.3409C202.834 14.8471 202.29 15.2983 202.1 15.9429C201.545 16.2605 200.703 16.8948 200.601 17.2625C200.401 17.2801 200.406 17.3468 200.398 17.5046C199.92 17.6809 199.543 17.983 199.163 18.2629C198.928 18.6423 198.355 18.7597 198.29 19.3035C197.829 19.4112 197.754 19.8437 197.269 19.9311C197.211 20.2949 197.116 20.7517 197.155 21.1968C197.218 21.9089 197.713 21.9328 198.158 21.8939C199.916 21.7401 201.415 20.4204 202.273 19.7175C203.214 18.94 203.985 18.2671 204.509 17.5933ZM205.6 6.21834C205.266 6.24754 205.054 6.64728 204.851 6.8893C204.414 7.533 203.775 8.17197 203.399 8.74306C203.181 9.07604 202.422 9.88247 202.432 9.99374C202.463 10.3498 202.151 10.3771 202.186 10.7777C201.439 11.2019 201.304 11.976 201.32 12.1541C200.621 12.6189 200.435 13.5769 200.293 13.7464C200.21 13.8209 200.002 13.7494 199.969 13.8868C199.917 14.8332 199.515 14.846 199.534 15.0685C199.544 15.1798 199.318 15.1548 199.327 15.266C199.335 15.3551 199.056 16.0074 198.9 16.021C198.9 16.021 198.691 16.712 198.684 16.623C198.703 16.8455 198.16 17.8125 197.995 17.9838C198.797 17.9137 200.383 15.8015 201.02 15.3871C201.064 15.3832 201.133 15.3996 201.155 15.3976C201.4 15.3762 202.112 14.2824 202.355 13.992C203.147 13.0482 203.794 11.9825 204.56 10.996C204.663 10.3816 204.95 9.81824 205.167 9.21627C205.306 9.27135 205.272 9.13977 205.264 9.05075C205.239 8.76144 205.608 7.85458 205.864 7.45095C205.836 7.38613 205.83 7.31937 205.825 7.25261C205.795 6.91879 205.976 6.67873 205.957 6.45618C205.939 6.25589 205.755 6.20471 205.6 6.21834ZM211.138 15.8024C210.962 16.087 211.196 16.7168 210.898 16.8998C210.36 16.9021 209.662 17.1201 209.388 16.8077C209.227 15.7454 210.037 15.5176 210.288 14.8004C210.716 14.5612 211.095 14.2813 211.402 13.9406C212.104 13.767 212.566 13.4126 213.269 13.239C213.487 13.175 213.605 12.9853 213.776 12.8807C213.799 12.632 214.354 12.8301 214.402 12.6017C214.507 12.5252 214.58 12.3394 214.686 12.2629C214.856 12.1583 215.084 12.2056 215.21 12.1049C215.316 12.0284 215.434 11.8387 215.517 11.7641C215.641 11.6412 215.794 11.6053 215.92 11.5046C216.405 11.1483 216.857 10.6826 217.439 10.4075C217.607 9.7649 218.305 9.54682 218.134 8.61992C218.007 8.18262 217.554 8.13255 217.02 8.17928C215.727 8.26995 214.184 8.31527 212.756 8.66437C212.23 8.80012 211.647 9.05297 211.102 9.23518C210.167 9.56369 209.414 9.6744 208.93 10.2997C208.766 10.4711 208.787 10.7159 208.554 10.8708C208.097 10.7763 207.344 11.1337 207.113 10.5484C207.021 10.2649 207.228 10.0674 207.393 9.89609C207.472 9.77703 207.782 9.48077 207.888 9.40427C208.056 9.27742 208.228 9.19509 208.404 9.15725C208.512 9.10301 208.917 8.86573 209.102 8.67017C210.31 8.38505 211.351 7.98004 212.463 7.61369C214.506 7.39005 216.364 7.09298 218.115 7.11915C218.604 7.32306 218.991 7.64798 219.277 8.0939C219.562 9.30231 218.978 9.80191 218.757 10.6061C218.003 10.9636 217.736 11.7494 216.934 12.0663C216.466 12.6229 215.735 12.9784 215.123 13.4132C214.732 13.5595 214.345 13.7503 214.101 14.0407C212.854 14.3965 211.851 14.9776 211.138 15.8024ZM208.377 20.1253C208.56 20.4232 209.028 20.3823 209.089 20.8255C209.162 21.4021 208.868 21.3829 208.537 21.9501C207.854 22.3463 207.371 21.6934 207.083 21.2252C207.061 20.4647 207.477 20.0919 208.377 20.1253Z" fill="#B4DAFF"/>
<path d="M4.15186 45.4695L220.028 18.671" stroke="#B4DAFF" stroke-width="0.992535" stroke-linecap="round"/>
</svg>
